<?xml version="1.0" encoding="UTF-8"?>
<!DOCTYPE svg PUBLIC "-//W3C//DTD SVG 1.1//EN" "http://www.w3.org/Graphics/SVG/1.1/DTD/svg11.dtd">
<svg xmlns="http://www.w3.org/2000/svg" version="1.1" width="229px" height="220px" style="shape-rendering:geometricPrecision; text-rendering:geometricPrecision; image-rendering:optimizeQuality; fill-rule:evenodd; clip-rule:evenodd" xmlns:xlink="http://www.w3.org/1999/xlink">
<g><path style="opacity:1" fill="#fdfefd" d="M -0.5,-0.5 C 75.8333,-0.5 152.167,-0.5 228.5,-0.5C 228.5,72.8333 228.5,146.167 228.5,219.5C 152.167,219.5 75.8333,219.5 -0.5,219.5C -0.5,146.167 -0.5,72.8333 -0.5,-0.5 Z"/></g>
<g><path style="opacity:1" fill="#07601b" d="M 86.5,103.5 C 85.5029,84.0071 85.1696,64.3404 85.5,44.5C 87.8399,27.9941 97.3399,18.6608 114,16.5C 138.75,19.6288 149.25,33.6288 145.5,58.5C 125.585,73.2777 105.918,88.2777 86.5,103.5 Z"/></g>
<g><path style="opacity:1" fill="#c4da7c" d="M 190.5,45.5 C 183.841,44.2168 177.174,44.2168 170.5,45.5C 173.695,43.9704 177.195,43.3037 181,43.5C 183.5,43.6667 186,43.8333 188.5,44C 189.416,44.2784 190.082,44.7784 190.5,45.5 Z"/></g>
<g><path style="opacity:1" fill="#83b08d" d="M 85.5,44.5 C 85.1696,64.3404 85.5029,84.0071 86.5,103.5C 86.44,104.043 86.1067,104.376 85.5,104.5C 84.1721,84.3373 84.1721,64.3373 85.5,44.5 Z"/></g>
<g><path style="opacity:1" fill="#9fc41b" d="M 190.5,45.5 C 203.763,50.2777 210.763,59.7777 211.5,74C 210.676,80.1405 208.842,85.9738 206,91.5C 199.632,97.9258 192.798,103.759 185.5,109C 173.171,109.5 160.838,109.667 148.5,109.5C 148.333,93.1633 148.5,76.8299 149,60.5C 155.439,54.3717 162.605,49.3717 170.5,45.5C 177.174,44.2168 183.841,44.2168 190.5,45.5 Z"/></g>
<g><path style="opacity:1" fill="#9fc41c" d="M 144.5,62.5 C 145.496,77.9911 145.83,93.6578 145.5,109.5C 125.497,109.667 105.497,109.5 85.5,109C 105.236,93.4804 124.903,77.9804 144.5,62.5 Z"/></g>
<g><path style="opacity:1" fill="#09611b" d="M 46.5,79.5 C 58.5,79.5 70.5,79.5 82.5,79.5C 82.5,99.8333 82.5,120.167 82.5,140.5C 69.7808,140.898 57.1142,140.398 44.5,139C 27.9722,132.456 20.8056,120.289 23,102.5C 26.9294,90.6578 34.7627,82.9911 46.5,79.5 Z"/></g>
<g><path style="opacity:1" fill="#c2d973" d="M 145.5,112.5 C 125.993,112.17 106.659,112.503 87.5,113.5C 86.9569,113.44 86.6236,113.107 86.5,112.5C 106.329,111.172 125.996,111.172 145.5,112.5 Z"/></g>
<g><path style="opacity:1" fill="#d5e59e" d="M 185.5,112.5 C 173.167,112.5 160.833,112.5 148.5,112.5C 148.5,128.5 148.5,144.5 148.5,160.5C 147.504,144.342 147.17,128.009 147.5,111.5C 160.344,111.171 173.011,111.505 185.5,112.5 Z"/></g>
<g><path style="opacity:1" fill="#9fc41d" d="M 87.5,113.5 C 106.659,112.503 125.993,112.17 145.5,112.5C 145.667,127.837 145.5,143.17 145,158.5C 125.894,143.371 106.727,128.371 87.5,113.5 Z"/></g>
<g><path style="opacity:1" fill="#9fc41b" d="M 185.5,112.5 C 193.101,118.256 200.601,124.256 208,130.5C 215.605,143.411 215.271,156.078 207,168.5C 195.816,179.505 182.982,182.005 168.5,176C 161.622,171.066 154.956,165.9 148.5,160.5C 148.5,144.5 148.5,128.5 148.5,112.5C 160.833,112.5 173.167,112.5 185.5,112.5 Z"/></g>
<g><path style="opacity:1" fill="#84b08e" d="M 86.5,116.5 C 85.5028,136.66 85.1695,156.993 85.5,177.5C 84.1719,156.996 84.1719,136.329 85.5,115.5C 86.1067,115.624 86.44,115.957 86.5,116.5 Z"/></g>
<g><path style="opacity:1" fill="#06601a" d="M 86.5,116.5 C 106.097,131.98 125.764,147.48 145.5,163C 149.255,183.162 141.589,196.829 122.5,204C 108.813,206.237 97.9797,201.737 90,190.5C 87.4241,186.525 85.9241,182.192 85.5,177.5C 85.1695,156.993 85.5028,136.66 86.5,116.5 Z"/></g>
</svg>
