<?xml version="1.0" encoding="UTF-8"?>
<svg version="1.1" xmlns="http://www.w3.org/2000/svg" width="225" height="225">
<path d="M0 0 C74.25 0 148.5 0 225 0 C225 74.25 225 148.5 225 225 C150.75 225 76.5 225 0 225 C0 150.75 0 76.5 0 0 Z " fill="#FDFEFE" transform="translate(0,0)"/>
<path d="M0 0 C21.45 0 42.9 0 65 0 C65 4.29 65 8.58 65 13 C43.55 13 22.1 13 0 13 C0 8.71 0 4.42 0 0 Z " fill="#F94E4E" transform="translate(143,86)"/>
<path d="M0 0 C2.97 0 5.94 0 9 0 C9.97213608 2.91640824 10.94399056 5.83290424 11.9140625 8.75 C12.56912716 10.71048128 13.22909241 12.66934826 13.8984375 14.625 C15.18553638 18.39709177 16.36306136 22.05098044 17 26 C15.02 26 13.04 26 11 26 C10.67 25.01 10.34 24.02 10 23 C6.37 23 2.74 23 -1 23 C-1.33 23.99 -1.66 24.98 -2 26 C-3.98 26 -5.96 26 -8 26 C-7.33934283 20.80558303 -5.78771687 16.19920719 -4 11.3125 C-3.45824716 9.80862479 -2.91657714 8.30471974 -2.375 6.80078125 C-2.01535156 5.81331909 -2.01535156 5.81331909 -1.6484375 4.8059082 C-1.07610725 3.21195983 -0.5355589 1.60667669 0 0 Z " fill="#0AB8AC" transform="translate(97,86)"/>
<path d="M0 0 C1.98 0 3.96 0 6 0 C6 3.63 6 7.26 6 11 C9.63 11 13.26 11 17 11 C17 7.37 17 3.74 17 0 C18.98 0 20.96 0 23 0 C23 8.58 23 17.16 23 26 C21.02 26 19.04 26 17 26 C17 22.37 17 18.74 17 15 C13.37 15 9.74 15 6 15 C6 18.63 6 22.26 6 26 C4.02 26 2.04 26 0 26 C0 17.42 0 8.84 0 0 Z " fill="#01B6AA" transform="translate(62,86)"/>
<path d="M0 0 C3.4375 1.75 3.4375 1.75 6 4 C6 5.32 6 6.64 6 8 C3.125 8.125 3.125 8.125 0 8 C-0.66 7.34 -1.32 6.68 -2 6 C-4.10820797 6.3185177 -4.10820797 6.3185177 -6 7 C-5.34145752 10.09788827 -5.34145752 10.09788827 -3.0390625 11.09765625 C-2.24242187 11.41605469 -1.44578125 11.73445313 -0.625 12.0625 C2.21749291 13.21523735 4.42065555 14.28043703 7 16 C7.49567356 19.82376747 7.71655208 22.04967916 5.34765625 25.19140625 C1.63283117 28.05324321 -1.66616728 27.60316563 -6.203125 27.46484375 C-9 27 -9 27 -11.75 24.625 C-13 22 -13 22 -13 20 C-10.69 20 -8.38 20 -6 20 C-5.67 20.66 -5.34 21.32 -5 22 C-3.68 22 -2.36 22 -1 22 C-1 20.68 -1 19.36 -1 18 C-2.04800781 17.61908203 -2.04800781 17.61908203 -3.1171875 17.23046875 C-4.02726562 16.88628906 -4.93734375 16.54210937 -5.875 16.1875 C-6.77992187 15.85105469 -7.68484375 15.51460937 -8.6171875 15.16796875 C-11 14 -11 14 -13 11 C-13.375 8.0625 -13.375 8.0625 -13 5 C-9.09687226 0.18614245 -6.12606663 -0.51050555 0 0 Z " fill="#0FB9AD" transform="translate(30,85)"/>
<path d="M0 0 C5.28 0 10.56 0 16 0 C16 1.65 16 3.3 16 5 C12.7 5 9.4 5 6 5 C6 6.98 6 8.96 6 11 C8.97 11 11.94 11 15 11 C15 12.32 15 13.64 15 15 C12.36 15 9.72 15 7 15 C7 16.98 7 18.96 7 21 C10.3 21 13.6 21 17 21 C17 22.98 17 24.96 17 27 C11.39 27 5.78 27 0 27 C0 18.09 0 9.18 0 0 Z " fill="#1ABBB0" transform="translate(41,86)"/>
<path d="M0 0 C3.43779419 2.83618021 3.93106211 4.51743478 4.5625 8.9375 C4.38020338 11.93969739 3.75891669 14.00838798 2.0625 16.5 C-1.54804906 19.44738699 -3.37739136 19.77043152 -7.91015625 19.46875 C-10.90957133 18.795984 -12.25192088 17.47644542 -14 15 C-15.72515631 11.54968739 -15.49677924 7.77283696 -15 4 C-11.11402562 -1.35996466 -6.13049941 -1.76390627 0 0 Z " fill="#0FB8AC" transform="translate(82,120)"/>
<path d="M0 0 C10.98734177 -0.6037001 10.98734177 -0.6037001 15.25 1.9375 C17.61724457 6.080178 18.14475877 9.34520884 17 14 C14.1383552 17.78974582 14.1383552 17.78974582 11 19 C7.22573516 19.39347617 3.81466124 19.2326013 0 19 C0 12.73 0 6.46 0 0 Z " fill="#0AB7AB" transform="translate(47,120)"/>
<path d="M0 0 C1.65 0 3.3 0 5 0 C7.01953125 2.1875 7.01953125 2.1875 8.8125 5 C9.41707031 5.928125 10.02164063 6.85625 10.64453125 7.8125 C11.09183594 8.534375 11.53914063 9.25625 12 10 C12.33 6.7 12.66 3.4 13 0 C14.65 0 16.3 0 18 0 C18 6.6 18 13.2 18 20 C16.35 20 14.7 20 13 20 C11.19921875 18.1015625 11.19921875 18.1015625 9.6875 15.625 C9.17574219 14.81289062 8.66398437 14.00078125 8.13671875 13.1640625 C7 11 7 11 7 9 C6.34 9 5.68 9 5 9 C5 12.63 5 16.26 5 20 C3.35 20 1.7 20 0 20 C0 13.4 0 6.8 0 0 Z " fill="#20BBB0" transform="translate(89,119)"/>
<path d="M0 0 C6.6 0 13.2 0 20 0 C20 1.65 20 3.3 20 5 C17.69 5 15.38 5 13 5 C13 11.93 13 18.86 13 26 C11.02 26 9.04 26 7 26 C7 19.07 7 12.14 7 5 C4.69 5 2.38 5 0 5 C0 3.35 0 1.7 0 0 Z " fill="#04B7AB" transform="translate(117,86)"/>
<path d="M0 0 C1.65 0 3.3 0 5 0 C5.79311367 1.72850345 6.5844259 3.45783354 7.375 5.1875 C7.81585938 6.15042969 8.25671875 7.11335938 8.7109375 8.10546875 C9.13632813 9.06066406 9.56171875 10.01585937 10 11 C10.38414062 11.86238281 10.76828125 12.72476563 11.1640625 13.61328125 C12 16 12 16 12 20 C10.35 20 8.7 20 7 20 C7 19.01 7 18.02 7 17 C4.36 17 1.72 17 -1 17 C-1.33 17.99 -1.66 18.98 -2 20 C-3.65 20 -5.3 20 -7 20 C-4.80962826 13.27954125 -2.44234339 6.63275997 0 0 Z " fill="#1CBBB0" transform="translate(157,119)"/>
<path d="M0 0 C5 1 5 1 6.80078125 2.99609375 C7.29964844 3.80175781 7.79851563 4.60742188 8.3125 5.4375 C8.82425781 6.24058594 9.33601563 7.04367188 9.86328125 7.87109375 C11 10 11 10 11 12 C11.66 12 12.32 12 13 12 C13 8.37 13 4.74 13 1 C14.32 1 15.64 1 17 1 C17 7.27 17 13.54 17 20 C15.35 20 13.7 20 12 20 C9.98046875 17.59375 9.98046875 17.59375 8.1875 14.5 C7.58292969 13.4790625 6.97835937 12.458125 6.35546875 11.40625 C5.90816406 10.6121875 5.46085937 9.818125 5 9 C4.67 12.63 4.34 16.26 4 20 C2.68 20 1.36 20 0 20 C0 13.4 0 6.8 0 0 Z " fill="#09B8AB" transform="translate(26,119)"/>
<path d="M0 0 C1.65 0 3.3 0 5 0 C5.33 4.62 5.66 9.24 6 14 C9.63619656 15.08084521 9.63619656 15.08084521 12 15 C12 10.05 12 5.1 12 0 C13.65 0 15.3 0 17 0 C17.10854617 2.39706123 17.18753157 4.78915838 17.25 7.1875 C17.30027344 8.19780273 17.30027344 8.19780273 17.3515625 9.22851562 C17.4210735 12.79095422 17.08066733 14.86215538 15.26953125 17.95703125 C12.7243175 20.2481617 11.79879322 20.63649922 8.4375 20.5 C7.67308594 20.4896875 6.90867188 20.479375 6.12109375 20.46875 C3.51807511 19.89349726 2.62044249 19.08835141 1 17 C-0.18681726 13.43954823 -0.09689832 10.56191663 -0.0625 6.8125 C-0.05347656 5.54019531 -0.04445312 4.26789063 -0.03515625 2.95703125 C-0.02355469 1.98121094 -0.01195312 1.00539063 0 0 Z " fill="#23BCB1" transform="translate(191,119)"/>
<path d="M0 0 C1.65 0 3.3 0 5 0 C5.33 2.31 5.66 4.62 6 7 C6.30292969 6.4946875 6.60585937 5.989375 6.91796875 5.46875 C8.18414568 3.50520177 9.41018649 1.71442051 11 0 C13.8125 -0.4375 13.8125 -0.4375 16 0 C14.94685471 2.26831293 13.96477715 4.04044105 12.3125 5.9375 C10.77137864 7.93553385 10.77137864 7.93553385 11.0625 10.4375 C12.1860924 13.50865255 13.91177617 15.50760382 16 18 C16 18.66 16 19.32 16 20 C13.8125 20.375 13.8125 20.375 11 20 C9.00977164 18.16038352 7.61010101 16.20813852 6 14 C5.67 15.98 5.34 17.96 5 20 C3.35 20 1.7 20 0 20 C0 13.4 0 6.8 0 0 Z " fill="#27BDB2" transform="translate(172,119)"/>
<path d="M0 0 C2.375 1.3125 2.375 1.3125 4 3 C4 3.99 4 4.98 4 6 C2.35 6 0.7 6 -1 6 C-1 5.34 -1 4.68 -1 4 C-2.32 4 -3.64 4 -5 4 C-4.42055068 5.99863756 -4.42055068 5.99863756 -3 8 C-0.02496878 9.15835673 -0.02496878 9.15835673 3 10 C5 12 5 12 5.3125 14.4375 C5 17 5 17 3.76171875 18.6328125 C0.97728645 20.79368014 -1.49199589 20.46864159 -4.90234375 20.36328125 C-7 20 -7 20 -9.0625 18.125 C-10 16 -10 16 -10 14 C-8.35 14 -6.7 14 -5 14 C-5 14.66 -5 15.32 -5 16 C-3.35 16 -1.7 16 0 16 C0 15.01 0 14.02 0 13 C-3.3 12.01 -6.6 11.02 -10 10 C-10.48468708 3.57789614 -10.48468708 3.57789614 -8.375 1.0625 C-5.32437685 -0.30225246 -3.31256176 -0.41407022 0 0 Z " fill="#20BCB1" transform="translate(135,119)"/>
<path d="M0 0 C3.63 0 7.26 0 11 0 C11 0.99 11 1.98 11 3 C8.69 3 6.38 3 4 3 C4 4.32 4 5.64 4 7 C6.31 7 8.62 7 11 7 C11 8.32 11 9.64 11 11 C8.69 11 6.38 11 4 11 C4 12.32 4 13.64 4 15 C6.31 15 8.62 15 11 15 C11 16.32 11 17.64 11 19 C7.37 19 3.74 19 0 19 C0 12.73 0 6.46 0 0 Z " fill="#1BBAAE" transform="translate(111,120)"/>
<path d="M0 0 C2 2 2 2 2.3125 4.9375 C2 8 2 8 0.8125 9.875 C-1.65507108 11.40659584 -3.14519831 11.42822025 -6 11 C-7.8125 9.875 -7.8125 9.875 -9 8 C-9.4375 5 -9.4375 5 -9 2 C-6.12524616 -1.3006433 -4.03854228 -1.38160657 0 0 Z " fill="#EDF8F7" transform="translate(80,124)"/>
<path d="M0 0 C1.65 0 3.3 0 5 0 C5 6.6 5 13.2 5 20 C3.35 20 1.7 20 0 20 C0 13.4 0 6.8 0 0 Z " fill="#30BEB3" transform="translate(17,119)"/>
<path d="M0 0 C1.98 0 3.96 0 6 0 C6 0.66 6 1.32 6 2 C6.66 2 7.32 2 8 2 C9.32075472 7.28301887 9.32075472 7.28301887 7.9375 10.375 C6 12 6 12 0 12 C0 8.04 0 4.08 0 0 Z " fill="#E3F4F3" transform="translate(51,123)"/>
<path d="M0 0 C1.32 0 2.64 0 4 0 C4 6.27 4 12.54 4 19 C2.68 19 1.36 19 0 19 C0 12.73 0 6.46 0 0 Z " fill="#17B8AC" transform="translate(143,120)"/>
<path d="M0 0 C2.50298434 2.93828597 3.46930939 5.17902761 4 9 C1.69 9 -0.62 9 -3 9 C-2.44271087 5.65626525 -1.64826111 2.96687001 0 0 Z " fill="#DBF2F0" transform="translate(101,94)"/>
<path d="M0 0 C1.65 0 3.3 0 5 0 C5.33 0.66 5.66 1.32 6 2 C6.99 2.66 7.98 3.32 9 4 C8 5 8 5 4.9375 5.0625 C3.968125 5.041875 2.99875 5.02125 2 5 C1.34 3.35 0.68 1.7 0 0 Z " fill="#14B9AD" transform="translate(125,133)"/>
<path d="M0 0 C1.32 0 2.64 0 4 0 C4 0.66 4 1.32 4 2 C5.65 2 7.3 2 9 2 C9.33 1.34 9.66 0.68 10 0 C10 0.99 10 1.98 10 3 C3.375 4.125 3.375 4.125 0 3 C0 2.01 0 1.02 0 0 Z " fill="#DDF3F1" transform="translate(130,123)"/>
<path d="M0 0 C0.66 0 1.32 0 2 0 C2.33 2.31 2.66 4.62 3 7 C1.68 7 0.36 7 -1 7 C-0.67 4.69 -0.34 2.38 0 0 Z " fill="#CFEDEB" transform="translate(159,125)"/>
<path d="M0 0 C0 2.31 0 4.62 0 7 C-0.99 7.33 -1.98 7.66 -3 8 C-3 5.69 -3 3.38 -3 1 C-1 0 -1 0 0 0 Z " fill="#C7E9E6" transform="translate(67,125)"/>
<path d="M0 0 C1.98 0.66 3.96 1.32 6 2 C6 2.99 6 3.98 6 5 C4.68 5 3.36 5 2 5 C1.34 3.35 0.68 1.7 0 0 Z " fill="#E3F5F3" transform="translate(129,130)"/>
<path d="M0 0 C2.97 0 5.94 0 9 0 C9 0.33 9 0.66 9 1 C7.906875 1.28875 6.81375 1.5775 5.6875 1.875 C1.95986155 2.81893204 1.95986155 2.81893204 -1 5 C-0.67 3.35 -0.34 1.7 0 0 Z " fill="#3AC0B6" transform="translate(97,86)"/>
</svg>
