<?xml version="1.0" encoding="UTF-8"?>
<svg version="1.1" xmlns="http://www.w3.org/2000/svg" width="225" height="225">
<path d="M0 0 C74.25 0 148.5 0 225 0 C225 74.25 225 148.5 225 225 C150.75 225 76.5 225 0 225 C0 150.75 0 76.5 0 0 Z " fill="#FBFCFC" transform="translate(0,0)"/>
<path d="M0 0 C74.25 0 148.5 0 225 0 C225 74.25 225 148.5 225 225 C150.75 225 76.5 225 0 225 C0 150.75 0 76.5 0 0 Z M96 11 C92.64210646 11.71311011 89.25566916 12.27303048 85.87304688 12.85546875 C78.84351485 14.11146583 72.92269054 16.39069546 66.625 19.625 C65.98433594 19.94984375 65.34367187 20.2746875 64.68359375 20.609375 C63.12052499 21.40257407 61.55999378 22.20077031 60 23 C60 23.66 60 24.32 60 25 C59.28972656 25.07476563 58.57945313 25.14953125 57.84765625 25.2265625 C54.22446168 26.21064004 52.27564573 27.93553677 49.4375 30.375 C44.03951187 34.97189974 44.03951187 34.97189974 41.66015625 36.6640625 C41.11230469 37.10492188 40.56445312 37.54578125 40 38 C40 38.66 40 39.32 40 40 C39.43152344 40.21527344 38.86304687 40.43054688 38.27734375 40.65234375 C31.19129914 44.84562915 25.29586918 55.61327812 22 63 C22 63.66 22 64.32 22 65 C21.34 65 20.68 65 20 65 C13.79295687 77.92286028 9.79662667 89.83132614 9.90234375 104.21875 C9.9037587 104.96209595 9.90517365 105.70544189 9.90663147 106.47131348 C9.91216891 108.81425229 9.92470909 111.15709073 9.9375 113.5 C9.94252311 115.10156111 9.94708458 116.70312373 9.95117188 118.3046875 C9.96211773 122.20316288 9.97933804 126.1015645 10 130 C10.66 130 11.32 130 12 130 C12.04898437 130.6290625 12.09796875 131.258125 12.1484375 131.90625 C12.97633966 141.38430226 15.30246389 149.24078825 19 158 C19.66 158 20.32 158 21 158 C21.268125 158.86625 21.53625 159.7325 21.8125 160.625 C24.82642803 169.19090072 30.1850367 175.22780428 36 182 C36.59039062 182.73863281 37.18078125 183.47726563 37.7890625 184.23828125 C42.77444762 190.36563883 50.8817321 198.77935351 59 200 C59 200.66 59 201.32 59 202 C69.04535801 207.25934974 78.9400054 211.46164058 90 214 C91.10859375 214.34289062 92.2171875 214.68578125 93.359375 215.0390625 C99.50111937 216.57538521 105.77233292 216.28933403 112.0625 216.25 C113.30322266 216.25773438 114.54394531 216.26546875 115.82226562 216.2734375 C121.96382529 216.26029345 127.21259069 216.07016991 133 214 C134.93581155 213.53458692 136.87327578 213.07598238 138.8125 212.625 C144.45604992 211.21938358 149.69541754 209.37377923 155 207 C155.78761719 206.65324219 156.57523438 206.30648437 157.38671875 205.94921875 C169.49074167 200.27728531 179.1235702 192.33696757 188.0625 182.5 C188.89910156 181.5821875 189.73570312 180.664375 190.59765625 179.71875 C196.83270125 172.66250395 207 160.85713735 207 151 C207.66 151 208.32 151 209 151 C209.62653984 148.52121375 210.25125672 146.04199014 210.875 143.5625 C211.04902344 142.87478516 211.22304687 142.18707031 211.40234375 141.47851562 C211.76136519 140.0490784 212.11390066 138.61800002 212.46069336 137.18554688 C212.80879637 135.77485508 213.17798455 134.36912256 213.57250977 132.97070312 C215.44611478 125.82648962 215.25796864 118.71857361 215.1875 111.375 C215.18685547 110.09109375 215.18621094 108.8071875 215.18554688 107.484375 C215.28730478 96.59049673 215.28730478 96.59049673 212.625 86.125 C211.53181325 83.39723879 210.59424372 80.68914573 209.75 77.875 C206.88190413 69.1493115 202.45962255 60.38786706 197 53 C196.34 53 195.68 53 195 53 C194.814375 52.34 194.62875 51.68 194.4375 51 C191.78432045 45.46292964 187.42626794 41.04138744 182.6875 37.1875 C180 35 180 35 178 32 C176.32594581 31.00050327 174.64707717 30.00727439 172.93457031 29.07519531 C171.04324481 28.0240346 169.23902994 26.89685107 167.4296875 25.7109375 C166.54990234 25.13472656 166.54990234 25.13472656 165.65234375 24.546875 C164.45841091 23.75966653 163.26571816 22.97057431 162.07421875 22.1796875 C155.99319479 18.19145894 155.99319479 18.19145894 149 17 C149 16.34 149 15.68 149 15 C147.79601562 14.72285156 146.59203125 14.44570312 145.3515625 14.16015625 C143.77601093 13.79440321 142.20049177 13.42851055 140.625 13.0625 C139.43390625 12.78889648 139.43390625 12.78889648 138.21875 12.50976562 C137.45820313 12.33251953 136.69765625 12.15527344 135.9140625 11.97265625 C135.2123291 11.81031494 134.5105957 11.64797363 133.78759766 11.48071289 C132 11 132 11 130 10 C123.96503743 9.0300953 117.97540264 8.8677213 111.875 8.8125 C111.11123047 8.79952881 110.34746094 8.78655762 109.56054688 8.77319336 C104.67549435 8.76526308 100.69773659 9.5263046 96 11 Z " fill="#0F4884" transform="translate(0,0)"/>
<path d="M0 0 C33.33 0 66.66 0 101 0 C101 74.25 101 148.5 101 225 C67.67 225 34.34 225 0 225 C0 224.67 0 224.34 0 224 C1.2375 223.88785156 1.2375 223.88785156 2.5 223.7734375 C10.41123596 222.87282805 17.14968493 221.13139145 24.4921875 218.12060547 C28.32962208 216.55528458 31.88438703 215.51445162 36 215 C36 214.34 36 213.68 36 213 C36.825 212.64550781 37.65 212.29101562 38.5 211.92578125 C58.08795301 202.89695916 76.24532872 186.37652901 85.75 166.75 C86.36101562 165.50476563 86.36101562 165.50476563 86.984375 164.234375 C88.08873671 161.90826451 88.08873671 161.90826451 89 159 C89.66 159 90.32 159 91 159 C91.103125 157.96875 91.20625 156.9375 91.3125 155.875 C92 152 92 152 93.41015625 149.3984375 C95.49727979 144.93701862 96.29836385 140.58483152 97.125 135.75 C97.29676758 134.76378662 97.46853516 133.77757324 97.64550781 132.76147461 C99.55284977 120.91095531 99.83215004 108.98246152 100 97 C99.34 97 98.68 97 98 97 C97.90501221 96.42145264 97.81002441 95.84290527 97.7121582 95.24682617 C95.09910158 79.57657464 95.09910158 79.57657464 89 65 C88.07817267 63.16925609 87.16140982 61.33595235 86.25 59.5 C85.84265625 58.7059375 85.4353125 57.911875 85.015625 57.09375 C84 55 84 55 83 52 C82.34 52 81.68 52 81 52 C79.73828125 50.09375 79.73828125 50.09375 78.3125 47.5 C70.95290092 34.86572458 58.33744065 23.13896217 45 17 C45 16.34 45 15.68 45 15 C44.43152344 14.81824219 43.86304688 14.63648438 43.27734375 14.44921875 C37.68678409 12.62925359 32.28409958 10.57865018 26.9765625 8.02734375 C20.47400582 5.1089608 13.99540124 3.99836469 6.98120117 3.0390625 C4.97793189 2.7529724 2.98692708 2.38347903 1 2 C0.67 1.34 0.34 0.68 0 0 Z " fill="#F8F8F9" transform="translate(124,0)"/>
<path d="M0 0 C2.31 0.33 4.62 0.66 7 1 C7.02313836 10.74423914 7.04092273 20.48847178 7.05181217 30.23273277 C7.05703772 34.75705305 7.06412944 39.28135458 7.07543945 43.80566406 C7.08627995 48.16930959 7.09227932 52.53293705 7.09487724 56.896595 C7.09672939 58.56401479 7.10034599 60.23143355 7.10573006 61.89884567 C7.11295589 64.22864697 7.11399029 66.55837295 7.11352539 68.88818359 C7.11712067 69.58229843 7.12071594 70.27641327 7.12442017 70.99156189 C7.11405216 75.77189568 7.11405216 75.77189568 6 78 C5.34 78 4.68 78 4 78 C3.90203125 78.57363281 3.8040625 79.14726562 3.703125 79.73828125 C2.56941755 86.17891237 1.30848134 92.59293252 0 99 C-0.1659668 99.83700439 -0.33193359 100.67400879 -0.50292969 101.53637695 C-0.74897949 102.72493286 -0.74897949 102.72493286 -1 103.9375 C-1.144375 104.64777344 -1.28875 105.35804688 -1.4375 106.08984375 C-2 108 -2 108 -4 111 C-6.3217926 111.36749268 -6.3217926 111.36749268 -9.26000977 111.35644531 C-10.90665367 111.36094696 -10.90665367 111.36094696 -12.58656311 111.36553955 C-14.37096046 111.34701935 -14.37096046 111.34701935 -16.19140625 111.328125 C-17.40698715 111.32625183 -18.62256805 111.32437866 -19.87498474 111.32244873 C-22.44817847 111.31571676 -25.02136178 111.30177979 -27.59448242 111.28125 C-31.54941228 111.25010307 -35.50394406 111.24028209 -39.45898438 111.234375 C-41.9531299 111.22520531 -44.44727134 111.21482965 -46.94140625 111.203125 C-48.13302872 111.19887512 -49.32465118 111.19462524 -50.55238342 111.19024658 C-51.64699387 111.18063904 -52.74160431 111.17103149 -53.86938477 111.16113281 C-55.32260887 111.15089081 -55.32260887 111.15089081 -56.80519104 111.14044189 C-59 111 -59 111 -60 110 C-60.21597453 108.26976657 -60.37122461 106.53186772 -60.5 104.79296875 C-60.5825 103.73142578 -60.665 102.66988281 -60.75 101.57617188 C-60.8325 100.45791016 -60.915 99.33964844 -61 98.1875 C-61.1635778 95.99325713 -61.33012593 93.79923316 -61.5 91.60546875 C-61.60828125 90.13823364 -61.60828125 90.13823364 -61.71875 88.64135742 C-61.96517688 86.32704113 -62.40310279 84.24181704 -63 82 C-63.12205329 79.32459184 -63.04467313 76.68038762 -63 74 C-63.721875 73.79375 -64.44375 73.5875 -65.1875 73.375 C-68.76091351 71.62799784 -71.06792652 69.43729351 -73 66 C-73.74153351 63.22178884 -73.90134132 60.9104311 -74 58 C-73 57 -73 57 -70.52598572 56.87974548 C-69.42678299 56.88196609 -68.32758026 56.88418671 -67.19506836 56.88647461 C-65.95385727 56.88655014 -64.71264618 56.88662567 -63.43382263 56.88670349 C-62.0691626 56.89181089 -60.70450298 56.8970269 -59.33984375 56.90234375 C-57.95121817 56.904208 -56.56259193 56.90563187 -55.17396545 56.90663147 C-51.51278885 56.91045613 -47.8516517 56.92028597 -44.19049072 56.93133545 C-40.45707737 56.94155068 -36.72365766 56.94612933 -32.99023438 56.95117188 C-25.66013823 56.96190829 -18.33007464 56.97898409 -11 57 C-11.01160156 56.36191406 -11.02320313 55.72382813 -11.03515625 55.06640625 C-11.04417969 54.24011719 -11.05320313 53.41382813 -11.0625 52.5625 C-11.07410156 51.73878906 -11.08570313 50.91507813 -11.09765625 50.06640625 C-11 48 -11 48 -10 47 C-6.7 47 -3.4 47 0 47 C0 31.49 0 15.98 0 0 Z " fill="#074381" transform="translate(166,79)"/>
<path d="M0 0 C1.051875 -0.00386719 1.051875 -0.00386719 2.125 -0.0078125 C4 0.125 4 0.125 6 1.125 C6 1.785 6 2.445 6 3.125 C6.66 3.186875 7.32 3.24875 8 3.3125 C14.69715894 5.12631388 19.39587885 9.09596949 23.63671875 14.45703125 C25.08017316 16.31725589 25.08017316 16.31725589 27.5 18.3125 C31.37383543 22.67056486 33.66757608 27.81035663 36 33.125 C36.56847656 34.41277344 36.56847656 34.41277344 37.1484375 35.7265625 C38.46512863 40.9812473 38.40931018 46.16571504 38.4375 51.5625 C38.47037109 52.66916016 38.50324219 53.77582031 38.53710938 54.91601562 C38.58357773 61.98342972 37.95773221 65.94361069 33 71.125 C32.34 71.125 31.68 71.125 31 71.125 C31 71.785 31 72.445 31 73.125 C27.40537669 75.38498595 24.43404325 75.33368087 20.25 75.25 C19.07953125 75.23195313 17.9090625 75.21390625 16.703125 75.1953125 C15.81109375 75.17210937 14.9190625 75.14890625 14 75.125 C14 74.465 14 73.805 14 73.125 C1.46 73.455 -11.08 73.785 -24 74.125 C-24.81147356 80.30198938 -24.81147356 80.30198938 -25.23364258 86.44213867 C-25.26069778 87.18618454 -25.28775299 87.93023041 -25.31562805 88.69682312 C-25.34166611 89.47105118 -25.36770416 90.24527924 -25.39453125 91.04296875 C-25.46324483 92.72595043 -25.53293501 94.40889246 -25.60351562 96.09179688 C-25.71112779 98.71167301 -25.81311088 101.33120892 -25.89868164 103.9519043 C-25.9841758 106.50410728 -26.09355055 109.0543767 -26.20703125 111.60546875 C-26.22699661 112.3857695 -26.24696198 113.16607025 -26.26753235 113.97001648 C-26.51243284 118.89724136 -27.31441205 121.76467123 -31 125.125 C-35.55457299 125.77565328 -37.5378371 125.88706122 -41.59838867 123.77075195 C-45.33618321 119.6529844 -44.64138359 115.59774693 -44.5234375 110.2265625 C-44.51873444 109.15884613 -44.51403137 108.09112976 -44.50918579 106.99105835 C-44.48783272 103.57671747 -44.4312418 100.16392563 -44.375 96.75 C-44.35849234 94.45834803 -44.34414441 92.16667941 -44.33203125 89.875 C-44.18624655 71.78036146 -44.18624655 71.78036146 -43 66.125 C-42.34 66.125 -41.68 66.125 -41 66.125 C-40.938125 65.403125 -40.87625 64.68125 -40.8125 63.9375 C-39.52661116 59.48634634 -36.68595405 57.10847319 -32.75 54.8125 C-28.87297816 53.84324454 -24.94066606 53.29315994 -21 54.125 C-20.40574219 54.785 -19.81148437 55.445 -19.19921875 56.125 C-16.12213907 58.9233389 -13.32032649 58.64748884 -9.375 58.5 C-8.31345703 58.48066406 -8.31345703 58.48066406 -7.23046875 58.4609375 C-1.68311526 58.299266 3.63252975 57.57008814 9 56.125 C9 55.465 9 54.805 9 54.125 C10.07122452 53.22986718 11.18321025 52.38316398 12.3125 51.5625 C16.55600817 47.98177099 18.23251324 44.61171383 19 39.125 C19.21855878 26.3861456 15.52876747 17.28883609 8 7.125 C3.98072309 4.44548206 0.71964908 4.4482533 -4 5.125 C-6.29162912 6.42903709 -6.29162912 6.42903709 -7 9.125 C-7.54470325 13.42736628 -7.72549217 16.88561755 -5.5 20.6875 C-5.005 21.161875 -4.51 21.63625 -4 22.125 C-4.33 22.785 -4.66 23.445 -5 24.125 C-7.9375 22.8125 -7.9375 22.8125 -11 21.125 C-12.45857967 16.74926098 -12.75239657 12.68769847 -12 8.125 C-9.08110977 3.1224712 -5.90617631 -0.02171388 0 0 Z " fill="#064380" transform="translate(114,58.875)"/>
<path d="M0 0 C33.99 0 67.98 0 103 0 C103 0.33 103 0.66 103 1 C102.10539062 1.10957031 101.21078125 1.21914063 100.2890625 1.33203125 C92.91887582 2.2984843 86.02854581 3.58987365 79 6 C77.3960662 6.54235582 75.79190542 7.08404093 74.1875 7.625 C73.46046875 7.87121094 72.7334375 8.11742187 71.984375 8.37109375 C69.68228216 9.10069404 67.38366343 9.61553816 65 10 C65 10.66 65 11.32 65 12 C63.92621094 12.50789062 62.85242187 13.01578125 61.74609375 13.5390625 C54.40414629 17.07311743 47.95116785 20.33222109 42 26 C41.34 26 40.68 26 40 26 C40 26.66 40 27.32 40 28 C35.52941176 32 35.52941176 32 33 32 C32.73703125 32.58394531 32.4740625 33.16789062 32.203125 33.76953125 C30.94463607 36.10263897 29.55249646 37.75103421 27.75 39.6875 C23.40768348 44.5385398 19.07806813 49.76579562 17 56 C16.34 56 15.68 56 15 56 C14.34 58.31 13.68 60.62 13 63 C12.34 63 11.68 63 11 63 C10.80664062 63.83144531 10.61328125 64.66289063 10.4140625 65.51953125 C10.02347656 67.14955078 10.02347656 67.14955078 9.625 68.8125 C9.36976562 69.89144531 9.11453125 70.97039062 8.8515625 72.08203125 C8 75 8 75 6 78 C5.45994087 79.92249447 5.45994087 79.92249447 5.1484375 82.01171875 C5.01953125 82.76904297 4.890625 83.52636719 4.7578125 84.30664062 C4.63148438 85.09232422 4.50515625 85.87800781 4.375 86.6875 C4.2409375 87.48478516 4.106875 88.28207031 3.96875 89.10351562 C3.6393854 91.0679402 3.31883687 93.03383927 3 95 C2.34 95 1.68 95 1 95 C1 97.31 1 99.62 1 102 C0.67 102 0.34 102 0 102 C0 68.34 0 34.68 0 0 Z " fill="#F4F4F5" transform="translate(0,0)"/>
<path d="M0 0 C0.33 0 0.66 0 1 0 C1 2.31 1 4.62 1 7 C1.66 7 2.32 7 3 7 C3.15819214 7.81621826 3.15819214 7.81621826 3.31958008 8.64892578 C3.80822841 11.14280867 4.31024657 13.63382299 4.8125 16.125 C4.97814453 16.9809375 5.14378906 17.836875 5.31445312 18.71875 C6.3079744 23.59262796 7.57612507 27.60549505 10 32 C10.61875 33.8253125 10.61875 33.8253125 11.25 35.6875 C14.28990324 43.91862261 19.84660487 50.95382395 25.125 57.875 C25.73613647 58.67780396 25.73613647 58.67780396 26.35961914 59.49682617 C30.0119651 64.19648731 34.06286578 68.31280565 38.625 72.125 C40.29882945 73.52616945 41.91550157 74.91482014 43.453125 76.46484375 C49.21399193 82.18206775 55.47527318 86.08760573 63 89 C63.92039063 89.37253906 64.84078125 89.74507813 65.7890625 90.12890625 C68.18795033 91.09859753 70.59143046 92.05467417 73 93 C73 93.66 73 94.32 73 95 C73.89460938 95.10957031 74.78921875 95.21914062 75.7109375 95.33203125 C83.06468982 96.29632926 89.98500155 97.57546137 97 100 C97 100.33 97 100.66 97 101 C64.99 101 32.98 101 0 101 C0 67.67 0 34.34 0 0 Z " fill="#F5F5F6" transform="translate(0,124)"/>
<path d="M0 0 C6.63880684 3.47534854 11.0513354 7.86731287 13.453125 15.09375 C14.18609811 22.08079236 13.83094701 27.90107631 10.453125 34.09375 C9.793125 34.09375 9.133125 34.09375 8.453125 34.09375 C8.1128125 35.021875 8.1128125 35.021875 7.765625 35.96875 C6.07382665 38.70785209 4.46068339 39.14399472 1.453125 40.09375 C1.453125 40.75375 1.453125 41.41375 1.453125 42.09375 C-1.58117177 43.61089839 -4.72289167 43.23738916 -8.046875 43.21875 C-8.73652344 43.22261719 -9.42617187 43.22648437 -10.13671875 43.23046875 C-15.29354207 43.22041646 -15.29354207 43.22041646 -17.546875 42.09375 C-17.546875 41.43375 -17.546875 40.77375 -17.546875 40.09375 C-18.26875 39.866875 -18.990625 39.64 -19.734375 39.40625 C-24.36445679 37.24554517 -27.71520092 33.87238415 -29.546875 29.09375 C-30.87763311 15.52311211 -30.87763311 15.52311211 -27.921875 9.96875 C-25.28471774 6.77640174 -22.93537549 4.47290992 -19.546875 2.09375 C-18.556875 2.09375 -17.566875 2.09375 -16.546875 2.09375 C-16.546875 1.43375 -16.546875 0.77375 -16.546875 0.09375 C-11.17232377 -1.69776708 -5.37798966 -1.91364049 0 0 Z " fill="#054280" transform="translate(89.546875,32.90625)"/>
<path d="M0 0 C2.97 0 5.94 0 9 0 C9 2.97 9 5.94 9 9 C12.3 9 15.6 9 19 9 C19 11.97 19 14.94 19 18 C21.97 18 24.94 18 28 18 C28 58.26 28 98.52 28 140 C25.03 140 22.06 140 19 140 C19.020625 141.299375 19.04125 142.59875 19.0625 143.9375 C19.08399454 145.29165633 19.07148199 146.64756083 19 148 C18 149 18 149 15.93359375 149.09765625 C15.10988281 149.08605469 14.28617188 149.07445312 13.4375 149.0625 C12.61121094 149.05347656 11.78492188 149.04445312 10.93359375 149.03515625 C10.29550781 149.02355469 9.65742188 149.01195312 9 149 C8.67 146.36 8.34 143.72 8 141 C7.01 141 6.02 141 5 141 C5.721875 140.05125 6.44375 139.1025 7.1875 138.125 C10.93777781 132.88956945 13.96267684 127.11196948 16 121 C16.66 121 17.32 121 18 121 C18.103125 119.96875 18.20625 118.9375 18.3125 117.875 C19 114 19 114 20.41015625 111.3984375 C22.49727979 106.93701862 23.29836385 102.58483152 24.125 97.75 C24.29676758 96.76378662 24.46853516 95.77757324 24.64550781 94.76147461 C26.55284977 82.91095531 26.83215004 70.98246152 27 59 C26.34 59 25.68 59 25 59 C24.90501221 58.42145264 24.81002441 57.84290527 24.7121582 57.24682617 C22.09910158 41.57657464 22.09910158 41.57657464 16 27 C15.07817267 25.16925609 14.16140982 23.33595235 13.25 21.5 C12.84265625 20.7059375 12.4353125 19.911875 12.015625 19.09375 C11 17 11 17 10 14 C9.34 14 8.68 14 8 14 C6.5625 11.953125 6.5625 11.953125 5 9.25 C4.484375 8.36828125 3.96875 7.4865625 3.4375 6.578125 C2.23266266 4.41727543 1.10642703 2.21285406 0 0 Z " fill="#F7F8F9" transform="translate(197,38)"/>
<path d="M0 0 C3.55326028 2.82645704 5.93046125 5.96984559 8 10 C8 10.66 8 11.32 8 12 C8.66 12 9.32 12 10 12 C13.26258646 20.21472661 14.56377723 27.16749011 14 36 C13.34 36 12.68 36 12 36 C11.938125 36.721875 11.87625 37.44375 11.8125 38.1875 C10.5346432 42.61085046 7.95131588 44.92213027 3.94921875 47.1328125 C-3.40905273 50.56413081 -11.7869327 53.51378103 -20 52 C-22.625 50.0625 -22.625 50.0625 -24 47 C-24.26371928 43.79609129 -23.98719753 41.06208574 -23 38 C-19.45608477 34.21982376 -14.53189799 34.5333601 -9.62109375 34.30859375 C-6.96930791 33.99638648 -5.2860155 33.33933614 -3 32 C-3.02911992 24.34146219 -4.47859473 19.71320315 -8.6875 13.359375 C-10.76835954 9.61878225 -10.6623007 7.19457111 -10 3 C-7.82992697 -1.08484336 -4.19491992 -0.57860964 0 0 Z " fill="#074380" transform="translate(118,65)"/>
<path d="M0 0 C0 2.97 0 5.94 0 9 C4.455 8.505 4.455 8.505 9 8 C9.33 5.36 9.66 2.72 10 0 C12.97 0 15.94 0 19 0 C19 15.51 19 31.02 19 47 C16.03 47 13.06 47 10 47 C9.67 44.36 9.34 41.72 9 39 C6.03 38.67 3.06 38.34 0 38 C0 34.7 0 31.4 0 28 C3.3 28 6.6 28 10 28 C10 25.03 10 22.06 10 19 C6.7 19 3.4 19 0 19 C0 16.03 0 13.06 0 10 C-2.64 10 -5.28 10 -8 10 C-8.36540804 5.49330085 -8.36540804 5.49330085 -6.75 3.3125 C-2.33333333 0 -2.33333333 0 0 0 Z " fill="#FAFBFC" transform="translate(206,178)"/>
<path d="M0 0 C20.79 0 41.58 0 63 0 C63 2.97 63 5.94 63 9 C60.36 9.33 57.72 9.66 55 10 C54.67 12.97 54.34 15.94 54 19 C56.97 19 59.94 19 63 19 C63 21.97 63 24.94 63 28 C66.3 28 69.6 28 73 28 C73 31.3 73 34.6 73 38 C68.38549785 34.667304 64.07258231 31.22278378 59.875 27.375 C55.22843122 23.13464965 50.74355968 19.6508737 45 17 C45 16.34 45 15.68 45 15 C44.43152344 14.81824219 43.86304688 14.63648438 43.27734375 14.44921875 C37.68678409 12.62925359 32.28409958 10.57865018 26.9765625 8.02734375 C20.47400582 5.1089608 13.99540124 3.99836469 6.98120117 3.0390625 C4.97793189 2.7529724 2.98692708 2.38347903 1 2 C0.67 1.34 0.34 0.68 0 0 Z " fill="#ECEDF0" transform="translate(124,0)"/>
<path d="M0 0 C0.33 0 0.66 0 1 0 C1 2.31 1 4.62 1 7 C1.66 7 2.32 7 3 7 C3.15819214 7.81621826 3.15819214 7.81621826 3.31958008 8.64892578 C3.80822841 11.14280867 4.31024657 13.63382299 4.8125 16.125 C4.97814453 16.9809375 5.14378906 17.836875 5.31445312 18.71875 C6.3079744 23.59262796 7.57612507 27.60549505 10 32 C10.61875 33.8253125 10.61875 33.8253125 11.25 35.6875 C14.52725546 44.61929468 20.85846972 52.33032187 26.49609375 59.8828125 C28 62 28 62 28 63 C25.03 63 22.06 63 19 63 C19 60.03 19 57.06 19 54 C14.545 54.495 14.545 54.495 10 55 C9.67 57.64 9.34 60.28 9 63 C6.03 63 3.06 63 0 63 C0 42.21 0 21.42 0 0 Z " fill="#F5F6F8" transform="translate(0,124)"/>
<path d="M0 0 C3.46679688 0.04882812 3.46679688 0.04882812 6.93359375 0.09765625 C6.93359375 3.06765625 6.93359375 6.03765625 6.93359375 9.09765625 C7.59359375 9.42765625 8.25359375 9.75765625 8.93359375 10.09765625 C7.61359375 12.73765625 6.29359375 15.37765625 4.93359375 18.09765625 C4.27359375 18.09765625 3.61359375 18.09765625 2.93359375 18.09765625 C2.27359375 20.40765625 1.61359375 22.71765625 0.93359375 25.09765625 C0.27359375 25.09765625 -0.38640625 25.09765625 -1.06640625 25.09765625 C-1.25976562 25.92910156 -1.453125 26.76054688 -1.65234375 27.6171875 C-1.91273437 28.70386719 -2.173125 29.79054688 -2.44140625 30.91015625 C-2.69664063 31.98910156 -2.951875 33.06804687 -3.21484375 34.1796875 C-4.06640625 37.09765625 -4.06640625 37.09765625 -6.06640625 40.09765625 C-6.60646538 42.02015072 -6.60646538 42.02015072 -6.91796875 44.109375 C-7.046875 44.86669922 -7.17578125 45.62402344 -7.30859375 46.40429688 C-7.43492187 47.18998047 -7.56125 47.97566406 -7.69140625 48.78515625 C-7.82546875 49.58244141 -7.95953125 50.37972656 -8.09765625 51.20117188 C-8.42702085 53.16559645 -8.74756938 55.13149552 -9.06640625 57.09765625 C-9.72640625 57.09765625 -10.38640625 57.09765625 -11.06640625 57.09765625 C-11.06640625 59.40765625 -11.06640625 61.71765625 -11.06640625 64.09765625 C-11.39640625 64.09765625 -11.72640625 64.09765625 -12.06640625 64.09765625 C-12.06640625 45.94765625 -12.06640625 27.79765625 -12.06640625 9.09765625 C-9.09640625 9.09765625 -6.12640625 9.09765625 -3.06640625 9.09765625 C-3.08703125 7.79828125 -3.10765625 6.49890625 -3.12890625 5.16015625 C-3.15040079 3.80599992 -3.13788824 2.45009542 -3.06640625 1.09765625 C-2.06640625 0.09765625 -2.06640625 0.09765625 0 0 Z " fill="#F1F1F2" transform="translate(12.06640625,37.90234375)"/>
<path d="M0 0 C3.3 0 6.6 0 10 0 C10 2.97 10 5.94 10 9 C7.36 9.33 4.72 9.66 2 10 C1.67 12.97 1.34 15.94 1 19 C3.97 19 6.94 19 10 19 C9.979375 17.535625 9.95875 16.07125 9.9375 14.5625 C9.91607993 13.04167482 9.92820036 11.51928038 10 10 C11 9 11 9 12.84765625 8.90234375 C14.8984375 8.93489583 16.94921875 8.96744792 19 9 C19 12.3 19 15.6 19 19 C22.3 19 25.6 19 29 19 C29 21.97 29 24.94 29 28 C19.43 28 9.86 28 0 28 C0 25.03 0 22.06 0 19 C-2.97 19 -5.94 19 -9 19 C-9.09765625 12.06640625 -9.09765625 12.06640625 -9 10 C-8 9 -8 9 -6.15234375 8.90234375 C-4.1015625 8.93489583 -2.05078125 8.96744792 0 9 C0 6.03 0 3.06 0 0 Z " fill="#FEFEFE" transform="translate(187,0)"/>
<path d="M0 0 C9.24 0 18.48 0 28 0 C28 2.97 28 5.94 28 9 C25.36 9.33 22.72 9.66 20 10 C19.67 12.97 19.34 15.94 19 19 C15.7 19 12.4 19 9 19 C9 15.7 9 12.4 9 9 C6.36 9.33 3.72 9.66 1 10 C0.67 12.97 0.34 15.94 0 19 C-2.97 19 -5.94 19 -9 19 C-9.09765625 12.06640625 -9.09765625 12.06640625 -9 10 C-8 9 -8 9 -6.15234375 8.90234375 C-4.1015625 8.93489583 -2.05078125 8.96744792 0 9 C0 6.03 0 3.06 0 0 Z " fill="#EEEEEF" transform="translate(197,0)"/>
<path d="M0 0 C0 6.27 0 12.54 0 19 C-2.97 19 -5.94 19 -9 19 C-8.979375 20.299375 -8.95875 21.59875 -8.9375 22.9375 C-8.91600546 24.29165633 -8.92851801 25.64756083 -9 27 C-10 28 -10 28 -12.06640625 28.09765625 C-12.89011719 28.08605469 -13.71382812 28.07445312 -14.5625 28.0625 C-15.38878906 28.05347656 -16.21507812 28.04445312 -17.06640625 28.03515625 C-18.02353516 28.01775391 -18.02353516 28.01775391 -19 28 C-19.33 25.36 -19.66 22.72 -20 20 C-20.99 20 -21.98 20 -23 20 C-22.278125 19.05125 -21.55625 18.1025 -20.8125 17.125 C-17.06222219 11.88956945 -14.03732316 6.11196948 -12 0 C-8.34649162 -1.82675419 -3.94412788 -0.45509168 0 0 Z " fill="#F0F1F2" transform="translate(225,159)"/>
<path d="M0 0 C0.98806641 0.61488281 0.98806641 0.61488281 1.99609375 1.2421875 C5.61363913 3.35908662 9.31549422 5.24977988 13.0625 7.125 C13.76955078 7.48464844 14.47660156 7.84429687 15.20507812 8.21484375 C15.89150391 8.55902344 16.57792969 8.90320313 17.28515625 9.2578125 C18.21146851 9.72405029 18.21146851 9.72405029 19.15649414 10.19970703 C21.08152025 11.03538914 22.95399051 11.54734053 25 12 C25 12.66 25 13.32 25 14 C25.89460938 14.10957031 26.78921875 14.21914062 27.7109375 14.33203125 C35.06468982 15.29632926 41.98500155 16.57546137 49 19 C49 19.33 49 19.66 49 20 C35.47 20 21.94 20 8 20 C8 16.7 8 13.4 8 10 C5.03 10 2.06 10 -1 10 C-1.125 2.25 -1.125 2.25 0 0 Z " fill="#EFF0F2" transform="translate(48,205)"/>
<path d="M0 0 C3.46679688 0.04882812 3.46679688 0.04882812 6.93359375 0.09765625 C6.93359375 3.06765625 6.93359375 6.03765625 6.93359375 9.09765625 C9.90359375 9.09765625 12.87359375 9.09765625 15.93359375 9.09765625 C15.93359375 6.12765625 15.93359375 3.15765625 15.93359375 0.09765625 C18.90359375 0.09765625 21.87359375 0.09765625 24.93359375 0.09765625 C24.27359375 1.41765625 23.61359375 2.73765625 22.93359375 4.09765625 C22.27359375 4.09765625 21.61359375 4.09765625 20.93359375 4.09765625 C20.67578125 4.67386719 20.41796875 5.25007813 20.15234375 5.84375 C18.82872615 8.2915941 17.30351655 10.10403352 15.43359375 12.16015625 C13.37543814 14.43197632 11.64221204 16.53472882 9.93359375 19.09765625 C8.94359375 19.09765625 7.95359375 19.09765625 6.93359375 19.09765625 C6.93359375 16.12765625 6.93359375 13.15765625 6.93359375 10.09765625 C2.47859375 10.59265625 2.47859375 10.59265625 -2.06640625 11.09765625 C-2.39640625 13.73765625 -2.72640625 16.37765625 -3.06640625 19.09765625 C-6.03640625 19.09765625 -9.00640625 19.09765625 -12.06640625 19.09765625 C-12.06640625 15.79765625 -12.06640625 12.49765625 -12.06640625 9.09765625 C-9.09640625 9.09765625 -6.12640625 9.09765625 -3.06640625 9.09765625 C-3.08703125 7.79828125 -3.10765625 6.49890625 -3.12890625 5.16015625 C-3.15040079 3.80599992 -3.13788824 2.45009542 -3.06640625 1.09765625 C-2.06640625 0.09765625 -2.06640625 0.09765625 0 0 Z " fill="#FBFBFC" transform="translate(12.06640625,27.90234375)"/>
<path d="M0 0 C1.6415049 3.2830098 0.51888624 6.42545033 0 10 C2.97 10 5.94 10 9 10 C9 13.3 9 16.6 9 20 C6.03 20 3.06 20 0 20 C0 17.03 0 14.06 0 11 C-4.455 11.495 -4.455 11.495 -9 12 C-9.33 14.64 -9.66 17.28 -10 20 C-12.97 20 -15.94 20 -19 20 C-19 16.7 -19 13.4 -19 10 C-16.03 10 -13.06 10 -10 10 C-10.020625 8.700625 -10.04125 7.40125 -10.0625 6.0625 C-10.08399454 4.70834367 -10.07148199 3.35243917 -10 2 C-8.41727399 0.41727399 -6.61965997 0.65264253 -4.4375 0.4375 C-3.19806641 0.31181641 -3.19806641 0.31181641 -1.93359375 0.18359375 C-0.97646484 0.09271484 -0.97646484 0.09271484 0 0 Z " fill="#FDFEFE" transform="translate(19,177)"/>
<path d="M0 0 C6.60540675 1.89362419 10.30192802 9.72430971 13.578125 15.30859375 C15.87552515 19.74335045 16.92070823 23.71344055 17.31640625 28.6640625 C17.47109375 30.4275 17.47109375 30.4275 17.62890625 32.2265625 C17.06415919 38.43878021 15.66108321 43.65775313 11.25390625 48.2265625 C8.31640625 50.6640625 8.31640625 50.6640625 6.31640625 50.6640625 C6.31640625 51.3240625 6.31640625 51.9840625 6.31640625 52.6640625 C0.21559905 55.12785002 -5.53456881 55.98558689 -12.05859375 56.0390625 C-12.74824219 56.05259766 -13.43789062 56.06613281 -14.1484375 56.08007812 C-17.28230014 56.05248051 -19.41052013 55.81825864 -22.16015625 54.265625 C-23.68359375 52.6640625 -23.68359375 52.6640625 -23.68359375 50.6640625 C-25.33359375 50.6640625 -26.98359375 50.6640625 -28.68359375 50.6640625 C-28.68359375 50.3340625 -28.68359375 50.0040625 -28.68359375 49.6640625 C-27.03359375 49.6640625 -25.38359375 49.6640625 -23.68359375 49.6640625 C-23.68359375 47.3540625 -23.68359375 45.0440625 -23.68359375 42.6640625 C-22.69359375 42.1690625 -22.69359375 42.1690625 -21.68359375 41.6640625 C-21.74546875 42.9015625 -21.80734375 44.1390625 -21.87109375 45.4140625 C-21.84315692 48.04012469 -21.67896584 49.67640358 -20.74609375 52.1640625 C-16.8596486 54.99056806 -12.18558128 54.05484912 -7.6328125 53.34375 C-2.35319092 52.17990556 2.46189671 50.00006709 7.31640625 47.6640625 C8.39921875 47.21933594 8.39921875 47.21933594 9.50390625 46.765625 C11.74729541 45.66633722 11.74729541 45.66633722 12.56640625 42.0390625 C12.81390625 40.9253125 13.06140625 39.8115625 13.31640625 38.6640625 C13.97640625 38.6640625 14.63640625 38.6640625 15.31640625 38.6640625 C14.88899396 30.3516304 13.57450579 22.673925 11.31640625 14.6640625 C10.65640625 14.6640625 9.99640625 14.6640625 9.31640625 14.6640625 C8.72859375 13.33375 8.72859375 13.33375 8.12890625 11.9765625 C6.1759393 8.40734705 4.53884751 6.15413075 1.31640625 3.6640625 C-2.31052757 3.07991548 -2.31052757 3.07991548 -5.68359375 3.6640625 C-8.03359375 5.6140625 -8.03359375 5.6140625 -8.18359375 9.1640625 C-8.11069524 14.13938592 -5.69629497 17.5246991 -2.99609375 21.5625 C-1.68359375 23.6640625 -1.68359375 23.6640625 -1.68359375 25.6640625 C-4.93902604 25.31526618 -5.70232482 24.64272989 -7.93359375 22.1015625 C-8.51109375 21.2971875 -9.08859375 20.4928125 -9.68359375 19.6640625 C-9.02359375 19.3340625 -8.36359375 19.0040625 -7.68359375 18.6640625 C-8.17859375 18.1896875 -8.67359375 17.7153125 -9.18359375 17.2265625 C-11.41450318 13.41542556 -11.34330317 9.97518688 -10.68359375 5.6640625 C-8.22293532 0.4217902 -5.34624214 0.09297812 0 0 Z " fill="#809CBA" transform="translate(116.68359375,62.3359375)"/>
<path d="M0 0 C3.3 0 6.6 0 10 0 C10 2.97 10 5.94 10 9 C7.36 9.33 4.72 9.66 2 10 C1.67 12.97 1.34 15.94 1 19 C3.97 19 6.94 19 10 19 C10 19.99 10 20.98 10 22 C8.57421875 23.38671875 8.57421875 23.38671875 6.6875 24.6875 C6.07261719 25.12449219 5.45773438 25.56148437 4.82421875 26.01171875 C3 27 3 27 0 27 C0 24.36 0 21.72 0 19 C-2.97 19 -5.94 19 -9 19 C-9.09765625 12.06640625 -9.09765625 12.06640625 -9 10 C-8 9 -8 9 -6.15234375 8.90234375 C-4.1015625 8.93489583 -2.05078125 8.96744792 0 9 C0 6.03 0 3.06 0 0 Z " fill="#FCFCFD" transform="translate(37,0)"/>
<path d="M0 0 C0.99 0.33 1.98 0.66 3 1 C3 22.45 3 43.9 3 66 C0.03 66 -2.94 66 -6 66 C-7.06623726 61.73505094 -7.06787291 61.47753895 -5.19921875 57.90234375 C-2.81882404 52.88047877 -1.7221258 48.02456355 -0.8125 42.5625 C-0.64524414 41.58982178 -0.47798828 40.61714355 -0.30566406 39.61499023 C1.56618564 27.81691959 1.83294711 15.92556025 2 4 C1.34 4 0.68 4 0 4 C0 2.68 0 1.36 0 0 Z " fill="#E1E4E8" transform="translate(222,93)"/>
<path d="M0 0 C0.33 0 0.66 0 1 0 C1 2.97 1 5.94 1 9 C0.22992111 9.00586624 -0.54015778 9.01173248 -1.33357239 9.01777649 C-8.58791661 9.07566036 -15.84191566 9.14771156 -23.09595203 9.23571491 C-26.82542069 9.28045871 -30.55477911 9.31970559 -34.28442383 9.34643555 C-37.88320552 9.37242913 -41.48156386 9.41280248 -45.08008385 9.46318626 C-46.45355657 9.47988191 -47.82710257 9.4913794 -49.20066261 9.49761391 C-51.1232319 9.50722475 -53.04566877 9.53696665 -54.96801758 9.56762695 C-56.61015984 9.58428154 -56.61015984 9.58428154 -58.28547668 9.60127258 C-61.31526965 10.04630892 -62.12386025 10.6689097 -64 13 C-64.33 13 -64.66 13 -65 13 C-65.04241723 10.66705225 -65.04092937 8.33297433 -65 6 C-64 5 -64 5 -60.39819336 4.88647461 C-58.79540144 4.88663375 -57.1926044 4.89232937 -55.58984375 4.90234375 C-54.74780899 4.9037587 -53.90577423 4.90517365 -53.03822327 4.90663147 C-50.33794665 4.91224737 -47.63775172 4.92480252 -44.9375 4.9375 C-43.11132932 4.94251295 -41.28515734 4.94707621 -39.45898438 4.95117188 C-34.97262458 4.96222196 -30.48632616 4.97949721 -26 5 C-26 5.66 -26 6.32 -26 7 C-13.13 7.495 -13.13 7.495 0 8 C0 5.36 0 2.72 0 0 Z " fill="#C0CEDC" transform="translate(154,127)"/>
<path d="M0 0 C2.97 0 5.94 0 9 0 C9 2.97 9 5.94 9 9 C11.97 9 14.94 9 18 9 C18 11.97 18 14.94 18 18 C21.3 18 24.6 18 28 18 C28 21.3 28 24.6 28 28 C23.38549785 24.667304 19.07258231 21.22278378 14.875 17.375 C10.22843122 13.13464965 5.74355968 9.6508737 0 7 C0 4.69 0 2.38 0 0 Z " fill="#E2E5E9" transform="translate(169,10)"/>
<path d="M0 0 C3.3 0 6.6 0 10 0 C10.33 2.97 10.66 5.94 11 9 C13.64 9.33 16.28 9.66 19 10 C19 12.97 19 15.94 19 19 C16.03 19 13.06 19 10 19 C9.67 16.36 9.34 13.72 9 11 C6.03 10.67 3.06 10.34 0 10 C0 6.7 0 3.4 0 0 Z " fill="#FDFDFD" transform="translate(206,206)"/>
<path d="M0 0 C3.3 0 6.6 0 10 0 C8.25 8.625 8.25 8.625 6 12 C5.45994087 13.92249447 5.45994087 13.92249447 5.1484375 16.01171875 C5.01953125 16.76904297 4.890625 17.52636719 4.7578125 18.30664062 C4.63148438 19.09232422 4.50515625 19.87800781 4.375 20.6875 C4.2409375 21.48478516 4.106875 22.28207031 3.96875 23.10351562 C3.6393854 25.0679402 3.31883687 27.03383927 3 29 C2.34 29 1.68 29 1 29 C1 31.31 1 33.62 1 36 C0.67 36 0.34 36 0 36 C0 24.12 0 12.24 0 0 Z " fill="#E3E6EA" transform="translate(0,66)"/>
<path d="M0 0 C12.21 0 24.42 0 37 0 C37 0.33 37 0.66 37 1 C36.10539062 1.10957031 35.21078125 1.21914063 34.2890625 1.33203125 C26.91794851 2.2986059 20.03017663 3.59337967 13 6 C11.375 6.54166667 9.75 7.08333333 8.125 7.625 C7.42632812 7.86476563 6.72765625 8.10453125 6.0078125 8.3515625 C4.03169284 8.98976457 2.01461736 9.49634566 0 10 C0 6.7 0 3.4 0 0 Z " fill="#DFE3E8" transform="translate(66,0)"/>
<path d="M0 0 C0 3.3 0 6.6 0 10 C-11.55 10 -23.1 10 -35 10 C-35 9.67 -35 9.34 -35 9 C-33.7625 8.88785156 -33.7625 8.88785156 -32.5 8.7734375 C-22.57559444 7.64365026 -14.19892142 4.73400006 -5 1 C-2 0 -2 0 0 0 Z " fill="#DFE2E7" transform="translate(159,215)"/>
<path d="M0 0 C2.97 0 5.94 0 9 0 C9 2.97 9 5.94 9 9 C11.97 9 14.94 9 18 9 C18 11.97 18 14.94 18 18 C16.02 18 14.04 18 12 18 C11.34 16.68 10.68 15.36 10 14 C9.34 14 8.68 14 8 14 C6.5625 11.953125 6.5625 11.953125 5 9.25 C4.484375 8.36828125 3.96875 7.4865625 3.4375 6.578125 C2.23266266 4.41727543 1.10642703 2.21285406 0 0 Z " fill="#E6E8EB" transform="translate(197,38)"/>
<path d="M0 0 C2.35311411 2.1178027 4.0366088 4.45897299 5.75 7.109375 C7.95190747 10.43976004 10.29497529 13.67297998 12.609375 16.92578125 C14 19 14 19 14 20 C11.03 20 8.06 20 5 20 C5 17.03 5 14.06 5 11 C2.03 11 -0.94 11 -4 11 C-4 8.03 -4 5.06 -4 2 C-2.68 2 -1.36 2 0 2 C0 1.34 0 0.68 0 0 Z " fill="#E0E4E8" transform="translate(14,167)"/>
<path d="M0 0 C1.051875 -0.02126953 1.051875 -0.02126953 2.125 -0.04296875 C4 0.1875 4 0.1875 6 2.1875 C3.525 1.6925 3.525 1.6925 1 1.1875 C1 1.8475 1 2.5075 1 3.1875 C1.99 3.5175 2.98 3.8475 4 4.1875 C2.1128125 4.31125 2.1128125 4.31125 0.1875 4.4375 C-2.53871045 4.80421149 -3.76720595 5.01290446 -6 6.6875 C-7.52744657 10.50611642 -7.58018755 14.13362543 -7 18.1875 C-5.68236671 20.7064267 -5.68236671 20.7064267 -4 22.1875 C-4.33 22.8475 -4.66 23.5075 -5 24.1875 C-7.9375 22.875 -7.9375 22.875 -11 21.1875 C-12.45857967 16.81176098 -12.75239657 12.75019847 -12 8.1875 C-9.08643705 3.19410134 -5.89239666 0.05415806 0 0 Z " fill="#356495" transform="translate(114,58.8125)"/>
<path d="M0 0 C2.60466859 1.11628654 4.0027962 2.00326223 5.875 4.1875 C6.57625 4.785625 7.2775 5.38375 8 6 C8.99 5.835 9.98 5.67 11 5.5 C11.99 5.335 12.98 5.17 14 5 C15.37966686 6.28533066 16.70446944 7.62990653 18 9 C19.89266538 10.4485763 21.81055447 11.86468177 23.75 13.25 C24.73484375 13.95640625 25.7196875 14.6628125 26.734375 15.390625 C27.48203125 15.92171875 28.2296875 16.4528125 29 17 C28.01 17.33 27.02 17.66 26 18 C23.15234375 16.34765625 23.15234375 16.34765625 19.9375 14.0625 C16.29486784 11.10393804 16.29486784 11.10393804 12 10 C11.67 10.66 11.34 11.32 11 12 C6.69234297 10.0118506 2.26617627 7.87173883 -0.4375 3.875 C-1 2 -1 2 0 0 Z " fill="#4F78A2" transform="translate(65,77)"/>
<path d="M0 0 C8.58 0 17.16 0 26 0 C26 1.98 26 3.96 26 6 C27.65 6.66 29.3 7.32 31 8 C30.01 8.495 30.01 8.495 29 9 C27.25 8.328125 27.25 8.328125 25 7.25 C19.14997856 4.7514636 13.24148404 3.89400021 6.98242188 3.04003906 C4.97879853 2.75319919 2.98737543 2.38356557 1 2 C0.67 1.34 0.34 0.68 0 0 Z " fill="#C5CFDB" transform="translate(124,0)"/>
<path d="M0 0 C0.33 0.99 0.66 1.98 1 3 C3.64 3 6.28 3 9 3 C9 5.97 9 8.94 9 12 C6.03 12 3.06 12 0 12 C-0.33 9.69 -0.66 7.38 -1 5 C-3.31 7.31 -5.62 9.62 -8 12 C-8.66 11.67 -9.32 11.34 -10 11 C-6.7 7.37 -3.4 3.74 0 0 Z " fill="#EDEDEE" transform="translate(197,185)"/>
<path d="M0 0 C2.50154753 0.18226212 4.97005798 0.52048021 7.45703125 0.84375 C9.94216545 1.12709418 9.94216545 1.12709418 12.05859375 0.47265625 C15.53555641 -0.37384774 18.62057475 1.04249618 22 2 C22 2.66 22 3.32 22 4 C15.4 4 8.8 4 2 4 C2 4.66 2 5.32 2 6 C-1.63 5.67 -5.26 5.34 -9 5 C-9 3.68 -9 2.36 -9 1 C-7.700625 1.020625 -6.40125 1.04125 -5.0625 1.0625 C-3.70834367 1.08399454 -2.35243917 1.07148199 -1 1 C-0.67 0.67 -0.34 0.34 0 0 Z " fill="#3A6898" transform="translate(69,94)"/>
<path d="M0 0 C3.3 0.33 6.6 0.66 10 1 C10 3.97 10 6.94 10 10 C6.7 10 3.4 10 0 10 C0 6.7 0 3.4 0 0 Z " fill="#FDFDFD" transform="translate(159,215)"/>
<path d="M0 0 C3.3 0.33 6.6 0.66 10 1 C10 4.3 10 7.6 10 11 C7.03 11 4.06 11 1 11 C0.67 7.37 0.34 3.74 0 0 Z " fill="#FDFDFD" transform="translate(215,158)"/>
<path d="M0 0 C0.99 0.33 1.98 0.66 3 1 C3 16.51 3 32.02 3 48 C0.525 48.495 0.525 48.495 -2 49 C-1.79503906 47.93007812 -1.59007812 46.86015625 -1.37890625 45.7578125 C1.12014183 31.87335453 1.70148454 18.08630144 2 4 C1.34 4 0.68 4 0 4 C0 2.68 0 1.36 0 0 Z " fill="#C7D2DE" transform="translate(222,93)"/>
<path d="M0 0 C3.3 0 6.6 0 10 0 C10 3.3 10 6.6 10 10 C6.7 9.67 3.4 9.34 0 9 C0 6.03 0 3.06 0 0 Z " fill="#FDFDFD" transform="translate(56,0)"/>
<path d="M0 0 C2.97 0 5.94 0 9 0 C9.87890625 6.93359375 9.87890625 6.93359375 10 9 C9 10 9 10 6.93359375 10.09765625 C3.46679688 10.04882812 3.46679688 10.04882812 0 10 C0 6.7 0 3.4 0 0 Z " fill="#FDFDFE" transform="translate(0,206)"/>
<path d="M0 0 C2.97 0 5.94 0 9 0 C9.33 3.3 9.66 6.6 10 10 C6.7 10 3.4 10 0 10 C0 6.7 0 3.4 0 0 Z " fill="#FDFDFE" transform="translate(0,56)"/>
<path d="M0 0 C3.3 0 6.6 0 10 0 C10 2.97 10 5.94 10 9 C6.7169902 10.6415049 3.57454967 9.51888624 0 9 C0 6.03 0 3.06 0 0 Z " fill="#FDFDFE" transform="translate(206,0)"/>
<path d="M0 0 C2.97 0 5.94 0 9 0 C9 3.3 9 6.6 9 10 C6.03 10 3.06 10 0 10 C0 6.7 0 3.4 0 0 Z " fill="#FEFEFE" transform="translate(19,206)"/>
<path d="M0 0 C3.3 0 6.6 0 10 0 C10 2.97 10 5.94 10 9 C6.7 9 3.4 9 0 9 C0 6.03 0 3.06 0 0 Z " fill="#EEEEEF" transform="translate(206,197)"/>
<path d="M0 0 C0.33 0 0.66 0 1 0 C1 2.31 1 4.62 1 7 C1.66 7 2.32 7 3 7 C3.50333542 9.60356241 4.00279378 12.20776651 4.5 14.8125 C4.64308594 15.55048828 4.78617187 16.28847656 4.93359375 17.04882812 C5.50926281 20.07794391 6 22.909196 6 26 C4.02 26 2.04 26 0 26 C0 17.42 0 8.84 0 0 Z " fill="#DADFE5" transform="translate(0,124)"/>
<path d="M0 0 C6.93359375 -0.09765625 6.93359375 -0.09765625 9 0 C10 1 10 1 10.09765625 2.84765625 C10.04882812 5.92382812 10.04882812 5.92382812 10 9 C6.7 9 3.4 9 0 9 C0 6.03 0 3.06 0 0 Z " fill="#EEEEEF" transform="translate(206,216)"/>
<path d="M0 0 C3.46679688 0.04882812 3.46679688 0.04882812 6.93359375 0.09765625 C6.93359375 3.06765625 6.93359375 6.03765625 6.93359375 9.09765625 C3.63359375 9.09765625 0.33359375 9.09765625 -3.06640625 9.09765625 C-3.1640625 2.9453125 -3.1640625 2.9453125 -3.06640625 1.09765625 C-2.06640625 0.09765625 -2.06640625 0.09765625 0 0 Z " fill="#FEFEFE" transform="translate(12.06640625,215.90234375)"/>
<path d="M0 0 C2.97 0 5.94 0 9 0 C9 3.3 9 6.6 9 10 C2.84765625 10.09765625 2.84765625 10.09765625 1 10 C0 9 0 9 -0.09765625 6.93359375 C-0.06510417 4.62239583 -0.03255208 2.31119792 0 0 Z " fill="#EEEEEF" transform="translate(216,206)"/>
<path d="M0 0 C2.97 0 5.94 0 9 0 C9.09765625 6.93359375 9.09765625 6.93359375 9 9 C8 10 8 10 6.15234375 10.09765625 C4.1015625 10.06510417 2.05078125 10.03255208 0 10 C0 6.7 0 3.4 0 0 Z " fill="#EEEEEF" transform="translate(28,206)"/>
<path d="M0 0 C3.46679688 0.04882812 3.46679688 0.04882812 6.93359375 0.09765625 C6.93359375 3.06765625 6.93359375 6.03765625 6.93359375 9.09765625 C3.63359375 9.09765625 0.33359375 9.09765625 -3.06640625 9.09765625 C-3.1640625 2.9453125 -3.1640625 2.9453125 -3.06640625 1.09765625 C-2.06640625 0.09765625 -2.06640625 0.09765625 0 0 Z " fill="#FEFEFE" transform="translate(12.06640625,196.90234375)"/>
<path d="M0 0 C3.3 0 6.6 0 10 0 C10.09765625 6.15234375 10.09765625 6.15234375 10 8 C9 9 9 9 6.93359375 9.09765625 C3.46679688 9.04882812 3.46679688 9.04882812 0 9 C0 6.03 0 3.06 0 0 Z " fill="#EEEEEF" transform="translate(206,28)"/>
<path d="M0 0 C6.15234375 -0.09765625 6.15234375 -0.09765625 8 0 C9 1 9 1 9.09765625 3.06640625 C9.06510417 5.37760417 9.03255208 7.68880208 9 10 C6.03 10 3.06 10 0 10 C0 6.7 0 3.4 0 0 Z " fill="#EEEEEF" transform="translate(0,9)"/>
<path d="M0 0 C3.3 0 6.6 0 10 0 C10 2.97 10 5.94 10 9 C3.06640625 9.09765625 3.06640625 9.09765625 1 9 C0 8 0 8 -0.09765625 6.15234375 C-0.06510417 4.1015625 -0.03255208 2.05078125 0 0 Z " fill="#EEEEEF" transform="translate(9,0)"/>
<path d="M0 0 C2.31 0 4.62 0 7 0 C7 6.27 7 12.54 7 19 C6.01 18.67 5.02 18.34 4 18 C3.29223633 16.23413086 3.29223633 16.23413086 2.83203125 13.96484375 C2.66123047 13.15595703 2.49042969 12.34707031 2.31445312 11.51367188 C2.06598633 10.2384668 2.06598633 10.2384668 1.8125 8.9375 C1.63525391 8.08349609 1.45800781 7.22949219 1.27539062 6.34960938 C0.8383941 4.23549105 0.41766794 2.11802166 0 0 Z " fill="#E6E8EB" transform="translate(218,75)"/>
<path d="M0 0 C-4.75 4 -4.75 4 -7 4 C-7 4.99 -7 5.98 -7 7 C-8.72681437 7.50806447 -10.45657979 8.00610467 -12.1875 8.5 C-13.15042969 8.7784375 -14.11335938 9.056875 -15.10546875 9.34375 C-17.85345876 9.96677608 -20.19598416 10.12302812 -23 10 C-23 8.68 -23 7.36 -23 6 C-19.04 5.34 -15.08 4.68 -11 4 C-10.67 3.01 -10.34 2.02 -10 1 C-6.76421296 -0.31828361 -3.44785988 -0.07836045 0 0 Z " fill="#688AAF" transform="translate(86,102)"/>
<path d="M0 0 C2.97 0 5.94 0 9 0 C9 2.97 9 5.94 9 9 C6.03 9 3.06 9 0 9 C0 6.03 0 3.06 0 0 Z " fill="#FFFFFF" transform="translate(197,216)"/>
<path d="M0 0 C2.97 0 5.94 0 9 0 C9 2.97 9 5.94 9 9 C6.03 9 3.06 9 0 9 C0 6.03 0 3.06 0 0 Z " fill="#EDEDEE" transform="translate(188,216)"/>
<path d="M0 0 C2.97 0 5.94 0 9 0 C9 2.97 9 5.94 9 9 C6.03 9 3.06 9 0 9 C0 6.03 0 3.06 0 0 Z " fill="#FFFFFF" transform="translate(47,216)"/>
<path d="M0 0 C2.97 0 5.94 0 9 0 C9 2.97 9 5.94 9 9 C6.03 9 3.06 9 0 9 C0 6.03 0 3.06 0 0 Z " fill="#EDEDEE" transform="translate(38,216)"/>
<path d="M0 0 C2.97 0 5.94 0 9 0 C9 2.97 9 5.94 9 9 C6.03 9 3.06 9 0 9 C0 6.03 0 3.06 0 0 Z " fill="#EDEDEE" transform="translate(19,216)"/>
<path d="M0 0 C2.97 0 5.94 0 9 0 C9 2.97 9 5.94 9 9 C6.03 9 3.06 9 0 9 C0 6.03 0 3.06 0 0 Z " fill="#EEEEEF" transform="translate(197,206)"/>
<path d="M0 0 C2.97 0 5.94 0 9 0 C9 2.97 9 5.94 9 9 C6.03 9 3.06 9 0 9 C0 6.03 0 3.06 0 0 Z " fill="#FFFFFF" transform="translate(216,197)"/>
<path d="M0 0 C2.97 0 5.94 0 9 0 C9 2.97 9 5.94 9 9 C6.03 9 3.06 9 0 9 C0 6.03 0 3.06 0 0 Z " fill="#FFFFFF" transform="translate(197,197)"/>
<path d="M0 0 C2.97 0 5.94 0 9 0 C9 2.97 9 5.94 9 9 C6.03 9 3.06 9 0 9 C0 6.03 0 3.06 0 0 Z " fill="#EDEDEE" transform="translate(19,197)"/>
<path d="M0 0 C2.97 0 5.94 0 9 0 C9 2.97 9 5.94 9 9 C6.03 9 3.06 9 0 9 C0 6.03 0 3.06 0 0 Z " fill="#EDEDEE" transform="translate(216,188)"/>
<path d="M0 0 C2.97 0 5.94 0 9 0 C9 2.97 9 5.94 9 9 C6.03 9 3.06 9 0 9 C0 6.03 0 3.06 0 0 Z " fill="#EDEDEE" transform="translate(0,178)"/>
<path d="M0 0 C2.97 0 5.94 0 9 0 C9 2.97 9 5.94 9 9 C6.03 9 3.06 9 0 9 C0 6.03 0 3.06 0 0 Z " fill="#FFFFFF" transform="translate(0,169)"/>
<path d="M0 0 C2.97 0 5.94 0 9 0 C9 2.97 9 5.94 9 9 C6.03 9 3.06 9 0 9 C0 6.03 0 3.06 0 0 Z " fill="#EEEEEF" transform="translate(0,160)"/>
<path d="M0 0 C2.97 0 5.94 0 9 0 C9 2.97 9 5.94 9 9 C6.03 9 3.06 9 0 9 C0 6.03 0 3.06 0 0 Z " fill="#EEEEEF" transform="translate(216,56)"/>
<path d="M0 0 C2.97 0 5.94 0 9 0 C9 2.97 9 5.94 9 9 C6.03 9 3.06 9 0 9 C0 6.03 0 3.06 0 0 Z " fill="#EDEDEE" transform="translate(216,38)"/>
<path d="M0 0 C2.97 0 5.94 0 9 0 C9 2.97 9 5.94 9 9 C6.03 9 3.06 9 0 9 C0 6.03 0 3.06 0 0 Z " fill="#EDEDEE" transform="translate(19,28)"/>
<path d="M0 0 C2.97 0 5.94 0 9 0 C9 2.97 9 5.94 9 9 C6.03 9 3.06 9 0 9 C0 6.03 0 3.06 0 0 Z " fill="#EDEDEE" transform="translate(216,19)"/>
<path d="M0 0 C2.97 0 5.94 0 9 0 C9 2.97 9 5.94 9 9 C6.03 9 3.06 9 0 9 C0 6.03 0 3.06 0 0 Z " fill="#EDEDEE" transform="translate(197,19)"/>
<path d="M0 0 C2.97 0 5.94 0 9 0 C9 2.97 9 5.94 9 9 C6.03 9 3.06 9 0 9 C0 6.03 0 3.06 0 0 Z " fill="#FFFFFF" transform="translate(19,19)"/>
<path d="M0 0 C2.97 0 5.94 0 9 0 C9 2.97 9 5.94 9 9 C6.03 9 3.06 9 0 9 C0 6.03 0 3.06 0 0 Z " fill="#EDEDEE" transform="translate(178,0)"/>
<path d="M0 0 C2.97 0 5.94 0 9 0 C9 2.97 9 5.94 9 9 C6.03 9 3.06 9 0 9 C0 6.03 0 3.06 0 0 Z " fill="#FFFFFF" transform="translate(169,0)"/>
<path d="M0 0 C9.24 0 18.48 0 28 0 C28 0.33 28 0.66 28 1 C27.12859375 1.10957031 26.2571875 1.21914063 25.359375 1.33203125 C18.2041997 2.28450588 11.29824851 3.53175642 4.328125 5.4140625 C2 6 2 6 0 6 C0 4.02 0 2.04 0 0 Z " fill="#FDFDFD" transform="translate(75,0)"/>
<path d="M0 0 C0 1.98 0 3.96 0 6 C-8.58 6 -17.16 6 -26 6 C-26 5.67 -26 5.34 -26 5 C-24.60587891 4.83564453 -24.60587891 4.83564453 -23.18359375 4.66796875 C-15.35463339 3.81988415 -15.35463339 3.81988415 -7.9375 1.375 C-4.97473414 -0.01182657 -3.21869963 -0.29260906 0 0 Z " fill="#EBEFF3" transform="translate(150,219)"/>
<path d="M0 0 C2.54272475 0.45297947 5.08405982 0.91220179 7.625 1.375 C8.33785156 1.50132812 9.05070312 1.62765625 9.78515625 1.7578125 C13.99905953 2.53100576 17.95880171 3.53395015 22 5 C22 5.33 22 5.66 22 6 C14.74 6 7.48 6 0 6 C0 4.02 0 2.04 0 0 Z " fill="#ECECEE" transform="translate(75,219)"/>
<path d="M0 0 C2.97 0 5.94 0 9 0 C9 2.97 9 5.94 9 9 C5.65626525 8.44271087 2.96687001 7.64826111 0 6 C0 4.02 0 2.04 0 0 Z " fill="#FEFEFE" transform="translate(150,0)"/>
<path d="M0 0 C0.99 0.33 1.98 0.66 3 1 C2.375 3.4375 2.375 3.4375 1 6 C-3.78762928 7.51802879 -9.01033709 7.09979326 -14 7 C-13.01 6.01 -12.02 5.02 -11 4 C-11.99 3.34 -12.98 2.68 -14 2 C-9.02936879 1.08702692 -4.97063121 1.08702692 0 2 C0 1.34 0 0.68 0 0 Z " fill="#A0B4CA" transform="translate(91,96)"/>
<path d="M0 0 C3.36179774 1.44077046 5.59156268 3.24750021 8 6 C8 6.66 8 7.32 8 8 C8.99 8 9.98 8 11 8 C11 9.32 11 10.64 11 12 C6.69234297 10.0118506 2.26617627 7.87173883 -0.4375 3.875 C-1 2 -1 2 0 0 Z " fill="#2D5E92" transform="translate(65,77)"/>
<path d="M0 0 C3.93089159 3.2633817 6.91174115 5.88232154 10 10 C6.7 10 3.4 10 0 10 C0 6.7 0 3.4 0 0 Z " fill="#DFE3E8" transform="translate(28,187)"/>
<path d="M0 0 C3.33047195 1.66523598 4.64608633 2.44139818 7 5 C7.556875 5.556875 8.11375 6.11375 8.6875 6.6875 C9.3371875 7.3371875 9.3371875 7.3371875 10 8 C9 9 9 9 6.93359375 9.09765625 C3.46679688 9.04882812 3.46679688 9.04882812 0 9 C0 6.03 0 3.06 0 0 Z " fill="#E2E5E9" transform="translate(38,197)"/>
<path d="M0 0 C0 3 0 3 -1.49609375 4.71875 C-2.13675781 5.3065625 -2.77742188 5.894375 -3.4375 6.5 C-6.62905246 9.44009681 -7.91295509 11.22581982 -8.1328125 15.70703125 C-8.12652397 23.40121976 -8.12652397 23.40121976 -7 31 C-9 30 -9 30 -10 27 C-11.13046444 11.21056222 -11.13046444 11.21056222 -6 5 C-4.07139352 3.1701758 -2.13448685 1.60086514 0 0 Z " fill="#3F6C9B" transform="translate(70,35)"/>
<path d="M0 0 C1.32 0 2.64 0 4 0 C4 2.97 4 5.94 4 9 C2.02 9 0.04 9 -2 9 C-1.125 1.125 -1.125 1.125 0 0 Z " fill="#FDFDFD" transform="translate(221,141)"/>
<path d="M0 0 C1.36511719 0.29197266 1.36511719 0.29197266 2.7578125 0.58984375 C3.45648438 0.74582031 4.15515625 0.90179688 4.875 1.0625 C4.875 1.7225 4.875 2.3825 4.875 3.0625 C-1.725 3.0625 -8.325 3.0625 -15.125 3.0625 C-15.455 3.7225 -15.785 4.3825 -16.125 5.0625 C-16.125 4.0725 -16.125 3.0825 -16.125 2.0625 C-15.3825 1.918125 -14.64 1.77375 -13.875 1.625 C-2.8712069 -0.62577586 -2.8712069 -0.62577586 0 0 Z " fill="#386696" transform="translate(86.125,94.9375)"/>
<path d="M0 0 C1.12758089 3.38274266 0.81750262 4.76778223 0.0625 8.1875 C-0.13214844 9.08855469 -0.32679687 9.98960938 -0.52734375 10.91796875 C-0.68332031 11.60503906 -0.83929688 12.29210937 -1 13 C-1.66 13 -2.32 13 -3 13 C-3 15.31 -3 17.62 -3 20 C-3.33 20 -3.66 20 -4 20 C-4 14.06 -4 8.12 -4 2 C-2.68 2 -1.36 2 0 2 C0 1.34 0 0.68 0 0 Z " fill="#D5DCE4" transform="translate(4,82)"/>
<path d="M0 0 C1.98 0 3.96 0 6 0 C5.34 2.97 4.68 5.94 4 9 C2.68 9 1.36 9 0 9 C0 6.03 0 3.06 0 0 Z " fill="#FDFDFD" transform="translate(0,75)"/>
<path d="M0 0 C0.33 0 0.66 0 1 0 C1.08636719 0.556875 1.17273438 1.11375 1.26171875 1.6875 C2.24812036 7.04483721 3.85483756 10.90504217 6.9765625 15.37109375 C8 17 8 17 8 19 C4.74456771 18.65120368 3.98126893 17.97866739 1.75 15.4375 C1.1725 14.633125 0.595 13.82875 0 13 C0.66 12.67 1.32 12.34 2 12 C1.484375 11.319375 0.96875 10.63875 0.4375 9.9375 C-1.39207088 6.19881168 -0.86178872 3.99556587 0 0 Z " fill="#7B98B7" transform="translate(107,69)"/>
<path d="M0 0 C0.66 0.66 1.32 1.32 2 2 C0.35 1.67 -1.3 1.34 -3 1 C-3 1.66 -3 2.32 -3 3 C-2.01 3.33 -1.02 3.66 0 4 C-1.45817797 4.16802051 -2.9165484 4.33437143 -4.375 4.5 C-5.59316406 4.63921875 -5.59316406 4.63921875 -6.8359375 4.78125 C-9 5 -9 5 -11 5 C-12.36161311 5.96113866 -13.69855198 6.95884159 -15 8 C-12.10979988 0.64312697 -7.26452104 -0.71454305 0 0 Z " fill="#386797" transform="translate(118,59)"/>
<path d="M0 0 C0.99 0.33 1.98 0.66 3 1 C3 3.97 3 6.94 3 10 C1.35 10 -0.3 10 -2 10 C-3 8 -3 8 -2.44140625 6.0546875 C-2.15136719 5.33539063 -1.86132812 4.61609375 -1.5625 3.875 C-1.27503906 3.15054688 -0.98757812 2.42609375 -0.69140625 1.6796875 C-0.46324219 1.12539062 -0.23507813 0.57109375 0 0 Z " fill="#DEE2E8" transform="translate(213,159)"/>
<path d="M0 0 C0.66 0.33 1.32 0.66 2 1 C1.67 2.98 1.34 4.96 1 7 C-1.64 7 -4.28 7 -7 7 C-7.33 6.01 -7.66 5.02 -8 4 C-6.71349294 3.30289269 -5.42059335 2.61757124 -4.125 1.9375 C-3.40570313 1.55464844 -2.68640625 1.17179688 -1.9453125 0.77734375 C-1.30335938 0.52082031 -0.66140625 0.26429688 0 0 Z " fill="#D0D8E1" transform="translate(168,209)"/>
<path d="M0 0 C1 2 1 2 0.875 4.875 C1.01962231 8.49055778 1.47936194 9.4740329 4 12 C6.72489473 12.69749589 6.72489473 12.69749589 9.6875 12.75 C10.68136719 12.80671875 11.67523438 12.8634375 12.69921875 12.921875 C13.83810547 12.96054688 13.83810547 12.96054688 15 13 C15 13.33 15 13.66 15 14 C13.08404032 14.08133791 11.16708068 14.13934367 9.25 14.1875 C8.18265625 14.22230469 7.1153125 14.25710937 6.015625 14.29296875 C2.68511459 13.9694088 1.34242876 13.34811426 -1 11 C-1 10.34 -1 9.68 -1 9 C-2.65 9 -4.3 9 -6 9 C-6 8.67 -6 8.34 -6 8 C-4.35 8 -2.7 8 -1 8 C-1.020625 6.865625 -1.04125 5.73125 -1.0625 4.5625 C-1 1 -1 1 0 0 Z " fill="#8FA7C1" transform="translate(94,104)"/>
<path d="M0 0 C-4.75 4 -4.75 4 -7 4 C-7 4.66 -7 5.32 -7 6 C-9.31 6.33 -11.62 6.66 -14 7 C-13.525625 6.566875 -13.05125 6.13375 -12.5625 5.6875 C-10.76313043 3.97690387 -10.76313043 3.97690387 -10 1 C-6.76421296 -0.31828361 -3.44785988 -0.07836045 0 0 Z " fill="#326395" transform="translate(86,102)"/>
<path d="M0 0 C6.27 0 12.54 0 19 0 C19 0.33 19 0.66 19 1 C18.0821875 1.12117187 17.164375 1.24234375 16.21875 1.3671875 C9.69263976 2.25835802 3.34521474 3.22333987 -3 5 C-2.505 4.54625 -2.01 4.0925 -1.5 3.625 C0.22609337 2.12364481 0.22609337 2.12364481 0 0 Z " fill="#DFE4E9" transform="translate(84,0)"/>
<path d="M0 0 C11.52164009 1.92710706 11.52164009 1.92710706 17 4 C17 4.33 17 4.66 17 5 C12.71 5 8.42 5 4 5 C4 4.01 4 3.02 4 2 C2.68 1.67 1.36 1.34 0 1 C0 0.67 0 0.34 0 0 Z " fill="#D5DDE7" transform="translate(80,220)"/>
<path d="M0 0 C0.33 0 0.66 0 1 0 C1 2.64 1 5.28 1 8 C-1.64 8 -4.28 8 -7 8 C-6.02133662 6.85373678 -5.04205413 5.70800212 -4.0625 4.5625 C-3.51722656 3.92441406 -2.97195312 3.28632813 -2.41015625 2.62890625 C-1.63204305 1.73008851 -0.84063472 0.84063472 0 0 Z " fill="#FFFFFF" transform="translate(196,189)"/>
<path d="M0 0 C-1.98 0.33 -3.96 0.66 -6 1 C-6 1.66 -6 2.32 -6 3 C-7.98260426 4.68732277 -9.9832342 6.35366057 -12 8 C-12.33 8.66 -12.66 9.32 -13 10 C-13.66 10 -14.32 10 -15 10 C-14.07862913 5.94596818 -13.38548724 4.30346868 -10.0625 1.6875 C-6.17312253 -0.45562636 -4.2186797 -1.30924542 0 0 Z " fill="#46719E" transform="translate(88,114)"/>
<path d="M0 0 C0.33 0 0.66 0 1 0 C1 3.3 1 6.6 1 10 C-0.65 10.33 -2.3 10.66 -4 11 C-3.67 8.69 -3.34 6.38 -3 4 C-2.34 4 -1.68 4 -1 4 C-0.67 2.68 -0.34 1.36 0 0 Z " fill="#DFE3E8" transform="translate(224,131)"/>
<path d="M0 0 C0.66 0.33 1.32 0.66 2 1 C-2.29 5.29 -6.58 9.58 -11 14 C-11.66 13.67 -12.32 13.34 -13 13 C-11.71937515 11.2925002 -10.38232443 9.62626404 -9 8 C-8.34 8 -7.68 8 -7 8 C-7 7.34 -7 6.68 -7 6 C-5.46875 4.4921875 -5.46875 4.4921875 -3.5 2.875 C-2.8503125 2.33617187 -2.200625 1.79734375 -1.53125 1.2421875 C-0.77328125 0.62730469 -0.77328125 0.62730469 0 0 Z " fill="#CAD5E1" transform="translate(47,32)"/>
<path d="M0 0 C0.33 0 0.66 0 1 0 C1.66 5.61 2.32 11.22 3 17 C2.01 17 1.02 17 0 17 C0 11.39 0 5.78 0 0 Z " fill="#F8F9F9" transform="translate(0,124)"/>
<path d="M0 0 C1.65 0 3.3 0 5 0 C4.34 2.31 3.68 4.62 3 7 C2.34 7 1.68 7 1 7 C1 7.66 1 8.32 1 9 C0.34 9 -0.32 9 -1 9 C-0.67 6.03 -0.34 3.06 0 0 Z " fill="#DFE3E9" transform="translate(10,56)"/>
<path d="M0 0 C0 0.66 0 1.32 0 2 C-4.455 3.485 -4.455 3.485 -9 5 C-8.67 3.35 -8.34 1.7 -8 0 C-4.71303767 -0.79953138 -3.28976808 -1.09658936 0 0 Z " fill="#D7DDE4" transform="translate(65,10)"/>
<path d="M0 0 C-4.35618406 2.9041227 -8.1878419 4.19768998 -13.4375 3.625 C-14.283125 3.41875 -15.12875 3.2125 -16 3 C-16 2.67 -16 2.34 -16 2 C-14.01432292 1.51171875 -12.02864583 1.0234375 -10.04296875 0.53515625 C-6.08046074 -0.50282386 -4.04461339 -0.98382488 0 0 Z " fill="#7694B4" transform="translate(123,114)"/>
<path d="M0 0 C5.61 0 11.22 0 17 0 C17 0.99 17 1.98 17 3 C11.39 2.34 5.78 1.68 0 1 C0 0.67 0 0.34 0 0 Z " fill="#F4F6F7" transform="translate(124,0)"/>
<path d="M0 0 C0.99 0 1.98 0 3 0 C3 3.3 3 6.6 3 10 C2.01 9.67 1.02 9.34 0 9 C0 6.03 0 3.06 0 0 Z " fill="#F8F9FA" transform="translate(222,84)"/>
<path d="M0 0 C0 0.33 0 0.66 0 1 C-1.6396875 1.4021875 -1.6396875 1.4021875 -3.3125 1.8125 C-7.4291979 2.98907554 -7.4291979 2.98907554 -10 6 C-10.73041853 9.61023099 -10.73041853 9.61023099 -11 13 C-11.33 13 -11.66 13 -12 13 C-12.47761194 5.95522388 -12.47761194 5.95522388 -10.5 2 C-6.88152311 -0.89478151 -4.54718722 -0.37893227 0 0 Z " fill="#93AAC3" transform="translate(118,63)"/>
<path d="M0 0 C0.33 0.99 0.66 1.98 1 3 C0.0409375 4.1446875 0.0409375 4.1446875 -0.9375 5.3125 C-3.38588343 8.50281781 -3.3646381 10.08014044 -3 14 C-3.66 14 -4.32 14 -5 14 C-5.78774617 5.96498906 -5.78774617 5.96498906 -2.5 1.9375 C-1.2625 0.9784375 -1.2625 0.9784375 0 0 Z " fill="#084280" transform="translate(108,62)"/>
<path d="M0 0 C0 0.99 0 1.98 0 3 C-5.28 3 -10.56 3 -16 3 C-16 2.67 -16 2.34 -16 2 C-13.70858188 1.66496236 -11.41685737 1.33201958 -9.125 1 C-7.21074219 0.7215625 -7.21074219 0.7215625 -5.2578125 0.4375 C-2 0 -2 0 0 0 Z " fill="#E0E4E9" transform="translate(140,222)"/>
<path d="M0 0 C0.33 0.99 0.66 1.98 1 3 C-1.97 5.97 -4.94 8.94 -8 12 C-8.66 11.67 -9.32 11.34 -10 11 C-6.7 7.37 -3.4 3.74 0 0 Z " fill="#CCD6E2" transform="translate(197,185)"/>
<path d="M0 0 C1.4800841 0.11362262 2.95910074 0.24122908 4.4375 0.375 C5.26121094 0.44460937 6.08492188 0.51421875 6.93359375 0.5859375 C7.95646484 0.79089844 7.95646484 0.79089844 9 1 C9.33 1.66 9.66 2.32 10 3 C6.37 3.33 2.74 3.66 -1 4 C-0.67 2.68 -0.34 1.36 0 0 Z " fill="#FBFBFC" transform="translate(82,97)"/>
<path d="M0 0 C0.99 0.33 1.98 0.66 3 1 C3 6.94 3 12.88 3 19 C2.67 19 2.34 19 2 19 C2 14.05 2 9.1 2 4 C1.34 4 0.68 4 0 4 C0 2.68 0 1.36 0 0 Z " fill="#D0D8E2" transform="translate(222,93)"/>
<path d="M0 0 C0.33 0.99 0.66 1.98 1 3 C-0.09283577 4.03295436 -1.19970579 5.05107835 -2.3125 6.0625 C-2.92738281 6.63097656 -3.54226562 7.19945313 -4.17578125 7.78515625 C-4.77777344 8.18605469 -5.37976563 8.58695313 -6 9 C-6.99 8.67 -7.98 8.34 -9 8 C-3.25 3 -3.25 3 -1 3 C-0.67 2.01 -0.34 1.02 0 0 Z " fill="#90A7C1" transform="translate(129,105)"/>
<path d="M0 0 C2.9375 0.375 2.9375 0.375 6 1 C6.33 1.66 6.66 2.32 7 3 C5.02 3 3.04 3 1 3 C0.67 3.99 0.34 4.98 0 6 C-0.66 5.34 -1.32 4.68 -2 4 C-1.34 2.68 -0.68 1.36 0 0 Z " fill="#0B4582" transform="translate(69,94)"/>
<path d="M0 0 C2.0625 0.4375 2.0625 0.4375 4 1 C2.68 2.65 1.36 4.3 0 6 C-0.38218767 4.34385343 -0.71395102 2.67542976 -1 1 C-0.67 0.67 -0.34 0.34 0 0 Z " fill="#EFF1F4" transform="translate(91,133)"/>
<path d="M0 0 C0 0.66 0 1.32 0 2 C-3.375 2.125 -3.375 2.125 -7 2 C-7.66 1.34 -8.32 0.68 -9 0 C-5.67465243 -1.10844919 -3.37817425 -0.84454356 0 0 Z " fill="#6889AE" transform="translate(91,96)"/>
<path d="M0 0 C2.31 0 4.62 0 7 0 C6.01 0.495 6.01 0.495 5 1 C5 1.66 5 2.32 5 3 C3.35 3 1.7 3 0 3 C0 2.01 0 1.02 0 0 Z " fill="#2C5C91" transform="translate(63,109)"/>
<path d="M0 0 C0.66 0.66 1.32 1.32 2 2 C1.01 2.495 1.01 2.495 0 3 C-2.125 2.0625 -2.125 2.0625 -4 1 C-2.125 0.375 -2.125 0.375 0 0 Z M-1 3 C0.32 3.66 1.64 4.32 3 5 C0.69 5.33 -1.62 5.66 -4 6 C-3.01 5.01 -2.02 4.02 -1 3 Z " fill="#B6C5D6" transform="translate(81,97)"/>
</svg>
