<?xml version="1.0" encoding="UTF-8"?>
<!DOCTYPE svg PUBLIC "-//W3C//DTD SVG 1.1//EN" "http://www.w3.org/Graphics/SVG/1.1/DTD/svg11.dtd">
<svg xmlns="http://www.w3.org/2000/svg" version="1.1" width="225px" height="225px" style="shape-rendering:geometricPrecision; text-rendering:geometricPrecision; image-rendering:optimizeQuality; fill-rule:evenodd; clip-rule:evenodd" xmlns:xlink="http://www.w3.org/1999/xlink">
<g><path style="opacity:1" fill="#fefefe" d="M -0.5,-0.5 C 74.5,-0.5 149.5,-0.5 224.5,-0.5C 224.5,74.5 224.5,149.5 224.5,224.5C 149.5,224.5 74.5,224.5 -0.5,224.5C -0.5,149.5 -0.5,74.5 -0.5,-0.5 Z"/></g>
<g><path style="opacity:1" fill="#aad04d" d="M 115.5,122.5 C 109.878,118.878 104.545,114.878 99.5,110.5C 99.3334,83.8313 99.5,57.1646 100,30.5C 103.013,25.4648 107.18,24.2981 112.5,27C 113.701,27.9025 114.535,29.0692 115,30.5C 115.5,61.1649 115.667,91.8315 115.5,122.5 Z"/></g>
<g><path style="opacity:1" fill="#a8cf48" d="M 132.5,135.5 C 127.214,132.212 122.214,128.546 117.5,124.5C 117.333,103.164 117.5,81.8307 118,60.5C 122.974,55.066 127.641,55.3993 132,61.5C 132.5,86.1644 132.667,110.831 132.5,135.5 Z"/></g>
<g><path style="opacity:1" fill="#16a2e8" d="M 151.5,148.5 C 146.657,146.582 142.323,143.916 138.5,140.5C 150.723,118.392 163.223,96.3922 176,74.5C 180.625,70.3541 184.959,70.6875 189,75.5C 189.667,78.1667 189.667,80.8333 189,83.5C 175.983,104.867 163.483,126.534 151.5,148.5 Z"/></g>
<g><path style="opacity:1" fill="#fe6504" d="M 64.5,96.5 C 77.6352,97.6527 89.3019,102.319 99.5,110.5C 104.545,114.878 109.878,118.878 115.5,122.5C 115.833,123.5 116.5,124.167 117.5,124.5C 122.214,128.546 127.214,132.212 132.5,135.5C 134.091,137.633 136.091,139.299 138.5,140.5C 142.323,143.916 146.657,146.582 151.5,148.5C 161.411,155.251 172.411,159.251 184.5,160.5C 188.167,161.167 191.833,161.833 195.5,162.5C 178.602,162.926 161.935,161.259 145.5,157.5C 140.675,156.093 136.009,154.093 131.5,151.5C 126.593,149.261 121.926,146.594 117.5,143.5C 117.5,142.833 117.167,142.5 116.5,142.5C 116.5,141.833 116.167,141.5 115.5,141.5C 110.45,137.115 105.116,133.115 99.5,129.5C 90.3509,118.759 78.6842,113.093 64.5,112.5C 64.5,107.167 64.5,101.833 64.5,96.5 Z"/></g>
<g><path style="opacity:1" fill="#a7cf46" d="M 64.5,96.5 C 64.5,101.833 64.5,107.167 64.5,112.5C 45.7985,113.027 33.9652,122.36 29,140.5C 26.4916,162.309 35.6583,176.475 56.5,183C 78.3418,185.464 92.5085,176.297 99,155.5C 99.4998,146.84 99.6664,138.173 99.5,129.5C 105.116,133.115 110.45,137.115 115.5,141.5C 116.264,167.835 104.598,186.002 80.5,196C 50.2063,203.269 28.7063,192.769 16,164.5C 8.90699,139.104 16.0737,118.938 37.5,104C 45.8002,98.9551 54.8002,96.4551 64.5,96.5 Z"/></g>
<g><path style="opacity:1" fill="#fefefd" d="M 64.5,112.5 C 78.6842,113.093 90.3509,118.759 99.5,129.5C 99.6664,138.173 99.4998,146.84 99,155.5C 92.5085,176.297 78.3418,185.464 56.5,183C 35.6583,176.475 26.4916,162.309 29,140.5C 33.9652,122.36 45.7985,113.027 64.5,112.5 Z"/></g>
<g><path style="opacity:1" fill="#d0e4a8" d="M 116.5,142.5 C 117.167,142.5 117.5,142.833 117.5,143.5C 117.172,154.014 117.506,164.347 118.5,174.5C 118.167,175.167 117.833,175.833 117.5,176.5C 116.505,165.346 116.172,154.012 116.5,142.5 Z"/></g>
<g><path style="opacity:1" fill="#a5cd45" d="M 117.5,143.5 C 121.926,146.594 126.593,149.261 131.5,151.5C 126.913,159.004 122.58,166.671 118.5,174.5C 117.506,164.347 117.172,154.014 117.5,143.5 Z"/></g>
<g><path style="opacity:1" fill="#15a1e7" d="M 131.5,151.5 C 136.009,154.093 140.675,156.093 145.5,157.5C 140.821,167.021 135.488,176.188 129.5,185C 121.543,187.885 117.543,185.052 117.5,176.5C 117.833,175.833 118.167,175.167 118.5,174.5C 122.58,166.671 126.913,159.004 131.5,151.5 Z"/></g>
<g><path style="opacity:1" fill="#ffcfba" d="M 184.5,160.5 C 193.173,160.334 201.84,160.5 210.5,161C 205.536,161.912 200.536,162.412 195.5,162.5C 191.833,161.833 188.167,161.167 184.5,160.5 Z"/></g>
</svg>
