<?xml version="1.0" encoding="UTF-8"?>
<svg version="1.1" xmlns="http://www.w3.org/2000/svg" width="225" height="225">
<path d="M0 0 C74.25 0 148.5 0 225 0 C225 74.25 225 148.5 225 225 C150.75 225 76.5 225 0 225 C0 150.75 0 76.5 0 0 Z " fill="#FEFEFE" transform="translate(0,0)"/>
<path d="M0 0 C0.82242188 0.61746094 1.64484375 1.23492187 2.4921875 1.87109375 C14.06553876 11.6958234 23.78376907 28.86243096 25.30004883 43.99438477 C25.43764397 47.23202105 25.467715 50.44711943 25.4375 53.6875 C25.42920166 54.83508789 25.42090332 55.98267578 25.41235352 57.16503906 C25.03790658 76.02863608 18.44714132 93.43042644 5 107 C-10.53047391 121.12467614 -29.9214662 128.73165159 -51 128 C-52.12341797 127.97486328 -52.12341797 127.97486328 -53.26953125 127.94921875 C-70.51937938 126.94798378 -86.77560007 117.78388101 -99 106 C-105.39722861 98.71482799 -110.07586165 90.83564054 -114 82 C-114.31710938 81.32710938 -114.63421875 80.65421875 -114.9609375 79.9609375 C-121.73121142 64.20831995 -120.4416765 44.75032324 -114.23632812 29.0703125 C-110.87748701 21.30550953 -106.65748648 14.30012186 -101 8 C-100.27167969 7.17886719 -99.54335937 6.35773437 -98.79296875 5.51171875 C-90.1869782 -3.65039397 -79.8981202 -9.99867488 -68 -14 C-66.845 -14.391875 -65.69 -14.78375 -64.5 -15.1875 C-41.42482615 -20.54423679 -18.18786061 -15.00189183 0 0 Z " fill="#F9F4F4" transform="translate(159,57)"/>
<path d="M0 0 C5.95907994 5.21530176 11.91804998 10.61030792 15.31640625 17.86328125 C8.74758194 20.96965985 2.25639273 23.70164612 -4.68359375 25.86328125 C-3.03359375 27.51328125 -1.38359375 29.16328125 0.31640625 30.86328125 C-1.24591396 34.54284416 -3.51943457 37.02843918 -6.24609375 39.92578125 C-9.76777974 43.72656339 -13.12521969 47.56988144 -16.37109375 51.61328125 C-19.50304336 55.50179418 -22.74614315 59.09148195 -26.37109375 62.5234375 C-27.80458808 63.84991054 -27.80458808 63.84991054 -28.68359375 65.86328125 C-32.43431749 67.12872144 -36.1320134 67.55390842 -39.79638672 65.92285156 C-41.84243178 64.54332501 -43.72954351 63.07262364 -45.62109375 61.48828125 C-46.92150149 60.45916327 -48.22226588 59.43049574 -49.5234375 58.40234375 C-50.08409912 57.94037598 -50.64476074 57.4784082 -51.22241211 57.00244141 C-52.7013121 55.7722396 -52.7013121 55.7722396 -54.68359375 54.86328125 C-54.99296875 53.72890625 -55.30234375 52.59453125 -55.62109375 51.42578125 C-56.33980732 47.63111127 -56.33980732 47.63111127 -59.68359375 45.86328125 C-64.72360783 46.09541091 -64.72360783 46.09541091 -68.68359375 48.86328125 C-68.67788991 50.76356529 -68.67788991 50.76356529 -68.40234375 52.90234375 C-68.27334573 59.09672952 -71.39004636 62.61634698 -75.18359375 67.23828125 C-75.78429687 68.03105469 -76.385 68.82382813 -77.00390625 69.640625 C-81.19534415 74.91113521 -84.34290903 76.79856248 -90.68359375 78.86328125 C-92.67775778 80.87287687 -92.67775778 80.87287687 -93.68359375 82.86328125 C-102.52776821 67.23571084 -105.05093905 51.0657971 -100.83984375 33.5390625 C-95.66949165 17.1022337 -85.79237967 3.52997747 -70.68359375 -5.13671875 C-47.60318358 -16.92916876 -20.85291244 -16.60341063 0 0 Z " fill="#192650" transform="translate(151.68359375,62.13671875)"/>
<path d="M0 0 C7.37575755 8.58702565 8.95888803 21.84787128 8.4140625 32.765625 C7.01119007 49.80386333 0.19274095 63.93954919 -12 76 C-12.51691406 76.55042969 -13.03382813 77.10085937 -13.56640625 77.66796875 C-25.15107482 88.95016556 -42.78889924 93.54572388 -58.47875977 93.49267578 C-75.48995869 92.87742182 -90.04218638 84.67248618 -102 73 C-100.515 72.01 -100.515 72.01 -99 71 C-96.73010388 69.48231727 -96.73010388 69.48231727 -95 67 C-94.78911745 65.05899487 -94.78911745 65.05899487 -94.7734375 62.90625 C-94.22374655 57.05798561 -91.36563913 53.52073337 -87.75 49.0625 C-87.17636719 48.30904297 -86.60273437 47.55558594 -86.01171875 46.77929688 C-80.5652429 39.85023819 -80.5652429 39.85023819 -76 39 C-71.26972998 39.82310332 -67.79064084 42.49122369 -63.875 45.125 C-63.14667969 45.58648437 -62.41835937 46.04796875 -61.66796875 46.5234375 C-56.75682853 49.82779062 -55.27202729 52.04005191 -54 58 C-51.10420618 60.37222995 -51.10420618 60.37222995 -47.4375 59.75 C-43.95407388 59.3141556 -43.95407388 59.3141556 -42 57 C-41.71875131 55.44602999 -41.49743563 53.88085022 -41.3125 52.3125 C-40.3888494 47.28293382 -38.6883262 45.03423596 -34.91796875 41.69921875 C-32.97068983 39.97403274 -31.31610936 38.1624319 -29.625 36.1875 C-26.9344105 33.06762544 -24.20122434 29.99287364 -21.4375 26.9375 C-17.89303555 23.01067037 -14.42082097 19.03481448 -11 15 C-8.50638429 16.20381448 -6.31856917 17.45428722 -4 19 C-2.33945169 12.71363856 -1.10690752 6.40593286 0 0 Z " fill="#C81B21" transform="translate(168,83)"/>
<path d="M0 0 C1.04458319 0.87151615 2.08546407 1.74746967 3.125 2.625 C3.7746875 3.16769531 4.424375 3.71039063 5.09375 4.26953125 C7 6 7 6 8.34375 7.69921875 C10.79574123 10.78663453 12.24444424 11.86844011 16.23046875 12.5625 C18.57373165 12.72604289 20.92122925 12.83880883 23.26953125 12.89453125 C26 13 26 13 27 14 C27.08726223 15.78071246 27.10699041 17.5648314 27.09765625 19.34765625 C27.09443359 20.42724609 27.09121094 21.50683594 27.08789062 22.61914062 C27.07532227 24.32360352 27.07532227 24.32360352 27.0625 26.0625 C27.05798828 27.20267578 27.05347656 28.34285156 27.04882812 29.51757812 C27.03699747 32.34510351 27.0205141 35.1725264 27 38 C24.69 37.67 22.38 37.34 20 37 C20 37.99 20 38.98 20 40 C19.34 40.37125 18.68 40.7425 18 41.125 C17.34 41.74375 16.68 42.3625 16 43 C16.00605607 44.89081783 16.00605607 44.89081783 16.28125 47.03125 C16.41017077 53.23060368 13.29680834 56.7490927 9.5 61.375 C8.89929688 62.16777344 8.29859375 62.96054688 7.6796875 63.77734375 C3.4882496 69.04785396 0.34068472 70.93528123 -6 73 C-7.99416403 75.00959562 -7.99416403 75.00959562 -9 77 C-17.85376509 61.35548305 -20.32788311 45.23681783 -16.171875 27.69140625 C-12.89987666 17.38461148 -7.90592167 7.51062558 0 0 Z " fill="#19254F" transform="translate(67,68)"/>
<path d="M0 0 C0.82242188 0.61746094 1.64484375 1.23492187 2.4921875 1.87109375 C14.06553876 11.6958234 23.78376907 28.86243096 25.30004883 43.99438477 C25.43764397 47.23202105 25.467715 50.44711943 25.4375 53.6875 C25.42920166 54.83508789 25.42090332 55.98267578 25.41235352 57.16503906 C25.03790658 76.02863608 18.44714132 93.43042644 5 107 C-10.53047391 121.12467614 -29.9214662 128.73165159 -51 128 C-52.12341797 127.97486328 -52.12341797 127.97486328 -53.26953125 127.94921875 C-70.51937938 126.94798378 -86.77560007 117.78388101 -99 106 C-105.39722861 98.71482799 -110.07586165 90.83564054 -114 82 C-114.31710938 81.32710938 -114.63421875 80.65421875 -114.9609375 79.9609375 C-121.73121142 64.20831995 -120.4416765 44.75032324 -114.23632812 29.0703125 C-110.87748701 21.30550953 -106.65748648 14.30012186 -101 8 C-100.27167969 7.17886719 -99.54335937 6.35773437 -98.79296875 5.51171875 C-90.1869782 -3.65039397 -79.8981202 -9.99867488 -68 -14 C-66.845 -14.391875 -65.69 -14.78375 -64.5 -15.1875 C-41.42482615 -20.54423679 -18.18786061 -15.00189183 0 0 Z M-100.05078125 12.3828125 C-105.77185038 20.06440833 -110.70651815 28.65363034 -113 38 C-113.20238281 38.73992187 -113.40476562 39.47984375 -113.61328125 40.2421875 C-117.64413723 56.96886878 -114.59399677 75.85689562 -105.65625 90.5859375 C-95.4905593 105.4029112 -81.85020819 117.61978286 -64 122 C-63.26007813 122.20238281 -62.52015625 122.40476563 -61.7578125 122.61328125 C-45.03113122 126.64413723 -26.14310438 123.59399677 -11.4140625 114.65625 C6.82336816 102.14383802 16.49255769 86.71880502 21.61328125 65.453125 C24.43182552 47.57387449 19.14589473 29.96947798 9.0859375 15.1875 C-3.16975148 -0.82790233 -19.31376687 -9.72317842 -39 -13 C-62.06486059 -15.99009254 -85.24690466 -4.97345661 -100.05078125 12.3828125 Z " fill="#C81A1F" transform="translate(159,57)"/>
<path d="M0 0 C4.95 0 9.9 0 15 0 C15.34928692 7.13044291 15.60154071 14.25579033 15.76904297 21.39282227 C15.83893108 23.81330182 15.93408853 26.23320151 16.05615234 28.65161133 C17.15025758 50.90607955 17.15025758 50.90607955 9.97805786 59.20396423 C7.12887529 62.06671728 4.24043942 64.58294263 1 67 C0.67 67 0.34 67 0 67 C0 44.89 0 22.78 0 0 Z " fill="#F5F6F7" transform="translate(121,58)"/>
<path d="M0 0 C4.62 0 9.24 0 14 0 C14 17.49 14 34.98 14 53 C12.68 52.34 11.36 51.68 10 51 C9.15646973 50.69054443 8.31293945 50.38108887 7.44384766 50.06225586 C4.02465261 48.40737049 2.27072582 47.08541769 0 44 C-1.75675191 36.74796061 -0.93224579 28.94857295 -0.625 21.5625 C-0.57480898 19.47471529 -0.52918689 17.38681541 -0.48828125 15.29882812 C-0.37837742 10.19636818 -0.20601905 5.09944686 0 0 Z " fill="#FDFDFD" transform="translate(100,72)"/>
<path d="M0 0 C4.62 0 9.24 0 14 0 C14.11519452 4.44906818 14.21458347 8.89291016 14.2746582 13.34228516 C14.29971095 14.85353174 14.33376377 16.36465824 14.37719727 17.87548828 C14.4382669 20.05531501 14.46629916 22.23353262 14.48828125 24.4140625 C14.51446533 25.7232666 14.54064941 27.0324707 14.56762695 28.38134766 C13.81897583 33.15403884 12.44834821 34.66920558 9 38 C5.3125 39.3125 5.3125 39.3125 2 40 C1.01 40.495 1.01 40.495 0 41 C0 27.47 0 13.94 0 0 Z " fill="#FDFEFE" transform="translate(58,99)"/>
<path d="M0 0 C4.95 0 9.9 0 15 0 C15 7.92 15 15.84 15 24 C12.36 24 9.72 24 7 24 C4.1099784 25.74409751 4.1099784 25.74409751 2 28 C1.34 28.66 0.68 29.32 0 30 C0 20.1 0 10.2 0 0 Z " fill="#F1F2F3" transform="translate(79,82)"/>
<path d="M0 0 C0.33 0 0.66 0 1 0 C1.33 21.45 1.66 42.9 2 65 C3.65 63.35 5.3 61.7 7 60 C7.66 60 8.32 60 9 60 C7.44062864 63.50858556 5.79877327 66.34475356 3 69 C-1.72850494 70.49337937 -5.88611102 70.45425405 -10.36132812 68.29003906 C-15.59160142 65.08428452 -20.87210355 61.56842502 -22.79150391 55.49584961 C-23.81414026 48.5690179 -23.12222837 41.68572874 -22.5 34.75 C-22.37133074 32.63716646 -22.25016898 30.52386162 -22.13671875 28.41015625 C-21.84423811 23.26391914 -21.45048097 18.13471951 -21 13 C-20.67 13 -20.34 13 -20 13 C-20.02731201 14.29099609 -20.05462402 15.58199219 -20.08276367 16.91210938 C-20.16997442 21.72829814 -20.18418796 26.5424785 -20.17700195 31.359375 C-20.18395331 33.43896178 -20.21037957 35.51858228 -20.25708008 37.59765625 C-20.96636545 49.5465395 -20.96636545 49.5465395 -16.57666016 60.12109375 C-13.78363896 62.15706768 -11.16184162 63.62662497 -8 65 C-7.01 65.66 -6.02 66.32 -5 67 C-5 49.18 -5 31.36 -5 13 C-4.67 13 -4.34 13 -4 13 C-4 28.18 -4 43.36 -4 59 C-2.515 59.495 -2.515 59.495 -1 60 C-0.67 40.2 -0.34 20.4 0 0 Z " fill="#0A1343" transform="translate(120,59)"/>
<path d="M0 0 C0.33 0 0.66 0 1 0 C1 13.53 1 27.06 1 41 C2.65 40.01 4.3 39.02 6 38 C7.03125 37.690625 8.0625 37.38125 9.125 37.0625 C12.30555862 35.88707616 13.28455941 34.85906765 15 32 C16.485 32.495 16.485 32.495 18 33 C14.11068439 38.32821992 11.55970143 40.39101663 5 42 C3.05678789 43.97343865 3.05678789 43.97343865 2 46 C-1.68157301 41.30020908 -1.31765694 37.21889463 -1.07421875 31.54296875 C-1.04777786 30.64000565 -1.02133698 29.73704254 -0.99409485 28.80671692 C-0.90657766 25.93295333 -0.79734319 23.06048829 -0.6875 20.1875 C-0.62421563 18.23507204 -0.56235045 16.28259753 -0.50195312 14.33007812 C-0.35107624 9.55268979 -0.18072328 4.77634863 0 0 Z " fill="#101C4B" transform="translate(56,99)"/>
<path d="M0 0 C-0.33 1.65 -0.66 3.3 -1 5 C-1.99 5 -2.98 5 -4 5 C-4.33 6.32 -4.66 7.64 -5 9 C-6.9375 9.5625 -6.9375 9.5625 -9 10 C-10 9 -10 9 -10.0625 6.4375 C-10.041875 5.633125 -10.02125 4.82875 -10 4 C-8.68 3.67 -7.36 3.34 -6 3 C-6 2.01 -6 1.02 -6 0 C-3.50907189 -1.24546405 -2.58919267 -0.7767578 0 0 Z " fill="#CA3134" transform="translate(97,128)"/>
<path d="M0 0 C2.7839183 1.39195915 2.97898997 3.15575779 4 6 C3.01 5.67 2.02 5.34 1 5 C1.33 6.65 1.66 8.3 2 10 C-0.64738916 11.4606285 -1.89448334 12 -5 12 C-5.66 10.68 -6.32 9.36 -7 8 C-4.79020692 5.18060883 -2.59937954 2.46941056 0 0 Z " fill="#CA2B30" transform="translate(81,138)"/>
<path d="M0 0 C0.33 0 0.66 0 1 0 C1.01981934 1.31194336 1.03963867 2.62388672 1.06005859 3.97558594 C1.1361375 8.84361955 1.22485164 13.71135516 1.31738281 18.57910156 C1.35566306 20.68581254 1.3905176 22.79258867 1.421875 24.89941406 C1.46754598 27.92797121 1.52553745 30.95608022 1.5859375 33.984375 C1.59748871 34.92617615 1.60903992 35.86797729 1.62094116 36.83831787 C1.64081085 37.71892883 1.66068054 38.59953979 1.68115234 39.50683594 C1.69447601 40.27960876 1.70779968 41.05238159 1.7215271 41.84857178 C2.0325128 44.25118769 2.80687614 45.90710138 4 48 C2.35 47.01 0.7 46.02 -1 45 C-0.67 30.15 -0.34 15.3 0 0 Z " fill="#020E43" transform="translate(99,72)"/>
<path d="M0 0 C-0.99 0.495 -0.99 0.495 -2 1 C-2 1.99 -2 2.98 -2 4 C-5.29305731 3.72283063 -8.5840249 3.42581219 -11.875 3.125 C-12.81214844 3.04636719 -13.74929687 2.96773437 -14.71484375 2.88671875 C-15.61074219 2.80292969 -16.50664063 2.71914063 -17.4296875 2.6328125 C-18.25710449 2.55949707 -19.08452148 2.48618164 -19.93701172 2.41064453 C-22 2 -22 2 -24 0 C-21.31288976 -0.19647038 -18.62571669 -0.38239615 -15.9375 -0.5625 C-15.18533203 -0.61857422 -14.43316406 -0.67464844 -13.65820312 -0.73242188 C-8.92140498 -1.04000617 -4.67457788 -0.83807173 0 0 Z " fill="#C60F14" transform="translate(129,42)"/>
<path d="M0 0 C0.66 0 1.32 0 2 0 C2.25549427 3.2484911 2.47476093 6.49845121 2.6875 9.75 C2.76033203 10.67039062 2.83316406 11.59078125 2.90820312 12.5390625 C2.96298828 13.42851563 3.01777344 14.31796875 3.07421875 15.234375 C3.13182373 16.05131836 3.18942871 16.86826172 3.2487793 17.70996094 C2.93888764 20.56254558 1.86751623 21.87423295 0 24 C-0.97758625 18.54724114 -0.97344509 13.57483237 -0.5625 8.0625 C-0.51029297 7.28326172 -0.45808594 6.50402344 -0.40429688 5.70117188 C-0.27601936 3.80033228 -0.13892679 1.90009096 0 0 Z " fill="#C61015" transform="translate(42,105)"/>
<path d="M0 0 C0.33 0.66 0.66 1.32 1 2 C1.66 2 2.32 2 3 2 C3.33 3.65 3.66 5.3 4 7 C3.01 7 2.02 7 1 7 C1 12.61 1 18.22 1 24 C0.67 24 0.34 24 0 24 C-0.90777093 20.13116676 -1.13435263 16.53269271 -1.125 12.5625 C-1.12886719 10.92474609 -1.12886719 10.92474609 -1.1328125 9.25390625 C-1.00359489 6.08807476 -0.59097317 3.10964455 0 0 Z " fill="#CD373B" transform="translate(41,98)"/>
<path d="M0 0 C0.33 0 0.66 0 1 0 C1 6.6 1 13.2 1 20 C0.01 19.34 -0.98 18.68 -2 18 C-2.2773676 15.42614795 -2.37287588 13.12968247 -2.3125 10.5625 C-2.31572266 9.88123047 -2.31894531 9.19996094 -2.32226562 8.49804688 C-2.28242585 4.80019184 -2.0988558 3.14828369 0 0 Z " fill="#C60A0F" transform="translate(183,102)"/>
<path d="M0 0 C0 0.33 0 0.66 0 1 C-1.04800781 1.04898438 -2.09601563 1.09796875 -3.17578125 1.1484375 C-4.55471354 1.22348143 -5.9336185 1.29902857 -7.3125 1.375 C-8.34793945 1.42140625 -8.34793945 1.42140625 -9.40429688 1.46875 C-13.06990789 1.68124919 -14.87900792 1.91933861 -18 4 C-20.1875 3.625 -20.1875 3.625 -22 3 C-22 2.34 -22 1.68 -22 1 C-22.66 0.67 -23.32 0.34 -24 0 C-7.48275862 -1.93103448 -7.48275862 -1.93103448 0 0 Z " fill="#CB2A2F" transform="translate(122,41)"/>
<path d="M0 0 C0.66 0.66 1.32 1.32 2 2 C4.73434962 2.3063859 7.38279821 2.5113336 10.125 2.625 C10.87910156 2.66367188 11.63320312 2.70234375 12.41015625 2.7421875 C14.27303184 2.83651031 16.13648255 2.91934662 18 3 C18 3.33 18 3.66 18 4 C10.13479365 6.02973067 1.95735747 4.93029649 -6 4 C-5.01 3.67 -4.02 3.34 -3 3 C-3 2.34 -3 1.68 -3 1 C-2.01 0.67 -1.02 0.34 0 0 Z " fill="#CB2C31" transform="translate(104,180)"/>
<path d="M0 0 C2 3 2 3 1.7578125 5.48046875 C1.54898438 6.37378906 1.34015625 7.26710938 1.125 8.1875 C0.92132813 9.08855469 0.71765625 9.98960937 0.5078125 10.91796875 C0.25644531 11.94857422 0.25644531 11.94857422 0 13 C-0.33 12.34 -0.66 11.68 -1 11 C-1.66 11 -2.32 11 -3 11 C-2.8864371 9.35333797 -2.75882619 7.70763918 -2.625 6.0625 C-2.55539063 5.14597656 -2.48578125 4.22945313 -2.4140625 3.28515625 C-2.27742187 2.53105469 -2.14078125 1.77695313 -2 1 C-1.34 0.67 -0.68 0.34 0 0 Z " fill="#C7151A" transform="translate(182,119)"/>
<path d="M0 0 C1.32 0.99 2.64 1.98 4 3 C3.8125 4.875 3.8125 4.875 3 7 C0.4375 8.25 0.4375 8.25 -2 9 C-3.21185923 5.36442231 -2.59260392 4.36216382 -1 1 C-0.67 0.67 -0.34 0.34 0 0 Z " fill="#2C375D" transform="translate(139,81)"/>
<path d="M0 0 C0.33 0.99 0.66 1.98 1 3 C0.360625 3.37125 -0.27875 3.7425 -0.9375 4.125 C-3.65378174 6.59434703 -3.48152257 8.44472621 -4 12 C-5.5625 13.875 -5.5625 13.875 -7 15 C-7.875 11.9375 -7.875 11.9375 -8 8 C-5.98677561 4.6621133 -3.51125416 1.75562708 0 0 Z " fill="#3F4568" transform="translate(86,105)"/>
<path d="M0 0 C0.66 0 1.32 0 2 0 C2.66 2.97 3.32 5.94 4 9 C2.35 8.67 0.7 8.34 -1 8 C-1.93065133 5.39417629 -2.14917407 4.35801776 -1.0625 1.75 C-0.711875 1.1725 -0.36125 0.595 0 0 Z " fill="#CA292E" transform="translate(44,125)"/>
<path d="M0 0 C1.98 0.495 1.98 0.495 4 1 C4.33 2.32 4.66 3.64 5 5 C3.35 5.33 1.7 5.66 0 6 C-1.125 2.25 -1.125 2.25 0 0 Z " fill="#2F3A60" transform="translate(148,71)"/>
<path d="M0 0 C1.65 0.33 3.3 0.66 5 1 C4.6875 2.9375 4.6875 2.9375 4 5 C3.01 5.33 2.02 5.66 1 6 C0.34 5.67 -0.32 5.34 -1 5 C-0.67 3.35 -0.34 1.7 0 0 Z " fill="#2D385E" transform="translate(153,67)"/>
<path d="M0 0 C0.94875 0.350625 1.8975 0.70125 2.875 1.0625 C2.215 2.3825 1.555 3.7025 0.875 5.0625 C-1.105 4.4025 -3.085 3.7425 -5.125 3.0625 C-5.125 2.0725 -5.125 1.0825 -5.125 0.0625 C-3.125 -0.9375 -3.125 -0.9375 0 0 Z " fill="#CA2429" transform="translate(132.125,42.9375)"/>
<path d="M0 0 C3.3 0.33 6.6 0.66 10 1 C9.01 1.33 8.02 1.66 7 2 C7 2.66 7 3.32 7 4 C4.36 3.67 1.72 3.34 -1 3 C-0.67 2.01 -0.34 1.02 0 0 Z " fill="#C71116" transform="translate(94,179)"/>
<path d="M0 0 C1.32 0.66 2.64 1.32 4 2 C4.66 1.34 5.32 0.68 6 0 C6.33 1.32 6.66 2.64 7 4 C4.35261084 5.4606285 3.10551666 6 0 6 C-0.66 4.68 -1.32 3.36 -2 2 C-1.34 1.34 -0.68 0.68 0 0 Z " fill="#CC393C" transform="translate(76,144)"/>
<path d="M0 0 C-0.99 0.495 -0.99 0.495 -2 1 C-2 1.99 -2 2.98 -2 4 C-4.31 3.67 -6.62 3.34 -9 3 C-9 2.01 -9 1.02 -9 0 C-5.93109813 -1.53445094 -3.29905734 -0.54984289 0 0 Z " fill="#C7181D" transform="translate(129,42)"/>
<path d="M0 0 C0 2 0 4 0 6 C-1.65 6.66 -3.3 7.32 -5 8 C-5.66 7.34 -6.32 6.68 -7 6 C-4.74259377 3.66475218 -2.7194239 1.81294927 0 0 Z " fill="#C92327" transform="translate(148,170)"/>
<path d="M0 0 C1.485 0.99 1.485 0.99 3 2 C2.67 4.97 2.34 7.94 2 11 C1.67 9.68 1.34 8.36 1 7 C0.34 7 -0.32 7 -1 7 C-0.67 4.69 -0.34 2.38 0 0 Z " fill="#C71116" transform="translate(43,93)"/>
<path d="M0 0 C1.32 0 2.64 0 4 0 C4.93065133 2.60582371 5.14917407 3.64198224 4.0625 6.25 C3.5365625 7.11625 3.5365625 7.11625 3 8 C2.34 7.67 1.68 7.34 1 7 C0.59270772 4.67843403 0.25561323 2.3431213 0 0 Z " fill="#CB2C30" transform="translate(179,98)"/>
<path d="M0 0 C1.65 0 3.3 0 5 0 C4.34 2.31 3.68 4.62 3 7 C1.68 6.34 0.36 5.68 -1 5 C-0.67 3.35 -0.34 1.7 0 0 Z " fill="#C92227" transform="translate(44,88)"/>
<path d="M0 0 C0 0.66 0 1.32 0 2 C1.32 2.33 2.64 2.66 4 3 C-0.455 3.495 -0.455 3.495 -5 4 C-5 3.34 -5 2.68 -5 2 C-5.66 1.67 -6.32 1.34 -7 1 C-4 0 -4 0 0 0 Z " fill="#C71216" transform="translate(100,42)"/>
<path d="M0 0 C0.33 0.99 0.66 1.98 1 3 C-0.66666667 4.66666667 -2.33333333 6.33333333 -4 8 C-4.33 6.35 -4.66 4.7 -5 3 C-3.35 2.01 -1.7 1.02 0 0 Z " fill="#222953" transform="translate(62,137)"/>
<path d="M0 0 C0.99 1.32 1.98 2.64 3 4 C2.67 4.66 2.34 5.32 2 6 C-0.0625 6.625 -0.0625 6.625 -2 7 C-2.33 6.34 -2.66 5.68 -3 5 C-1.5625 2.375 -1.5625 2.375 0 0 Z " fill="#C92227" transform="translate(50,76)"/>
<path d="M0 0 C2 3 2 3 1.625 5.1875 C1.41875 5.785625 1.2125 6.38375 1 7 C0.01 6.34 -0.98 5.68 -2 5 C-1.125 1.125 -1.125 1.125 0 0 Z " fill="#C60B10" transform="translate(181,93)"/>
</svg>
