<?xml version="1.0" encoding="UTF-8"?>
<!DOCTYPE svg PUBLIC "-//W3C//DTD SVG 1.1//EN" "http://www.w3.org/Graphics/SVG/1.1/DTD/svg11.dtd">
<svg xmlns="http://www.w3.org/2000/svg" version="1.1" width="236px" height="236px" style="shape-rendering:geometricPrecision; text-rendering:geometricPrecision; image-rendering:optimizeQuality; fill-rule:evenodd; clip-rule:evenodd" xmlns:xlink="http://www.w3.org/1999/xlink">
<g><path style="opacity:0.998" fill="#bbd36a" d="M 212.5,73.5 C 212.229,78.4338 212.896,83.1004 214.5,87.5C 214.02,113.281 206.02,136.281 190.5,156.5C 180.696,145.273 168.696,142.439 154.5,148C 149.405,150.606 144.738,153.772 140.5,157.5C 139.694,156.272 138.694,155.272 137.5,154.5C 143.963,144.628 146.963,133.961 146.5,122.5C 147.277,106.56 140.61,94.7267 126.5,87C 118.819,86.6909 111.152,86.6909 103.5,87C 97.4793,85.4893 92.146,82.656 87.5,78.5C 86.8933,78.6236 86.56,78.9569 86.5,79.5C 84.4253,75.6877 82.092,72.021 79.5,68.5C 85.1816,50.6621 94.8483,35.1621 108.5,22C 146.139,-1.20409 177.306,5.62924 202,42.5C 207.403,52.2107 210.903,62.544 212.5,73.5 Z"/></g>
<g><path style="opacity:1" fill="#bbd36a" d="M 72.5,66.5 C 62.6706,66.2307 62.3372,67.064 71.5,69C 78.0251,73.0265 83.3585,78.1931 87.5,84.5C 88.2679,87.3693 89.6012,90.0359 91.5,92.5C 90.9033,92.7352 90.5699,93.2352 90.5,94C 91.2791,100.797 91.7791,107.63 92,114.5C 93.8294,116.156 95.1628,118.156 96,120.5C 98.8238,131.468 95.9904,140.468 87.5,147.5C 86.5266,147.987 85.5266,148.487 84.5,149C 74.8062,149.725 65.1395,149.559 55.5,148.5C 42.3413,128.171 38.5079,106.171 44,82.5C 46.7645,76.6247 50.2645,71.2914 54.5,66.5C 60.5,65.1667 66.5,65.1667 72.5,66.5 Z"/></g>
<g><path style="opacity:0.997" fill="#d9e097" d="M 54.5,66.5 C 50.2645,71.2914 46.7645,76.6247 44,82.5C 38.5079,106.171 42.3413,128.171 55.5,148.5C 62.6319,164.13 74.6319,173.63 91.5,177C 99.0079,179.915 105.675,184.082 111.5,189.5C 119.739,177.592 129.406,166.925 140.5,157.5C 144.738,153.772 149.405,150.606 154.5,148C 168.696,142.439 180.696,145.273 190.5,156.5C 171.967,185.366 147.633,208.032 117.5,224.5C 97.1924,220.179 79.1924,211.346 63.5,198C 46.5773,183.625 33.4106,166.459 24,146.5C 13.7657,119.192 18.5991,95.0257 38.5,74C 43.2179,70.1405 48.5513,67.6405 54.5,66.5 Z"/></g>
<g><path style="opacity:1" fill="#759e3a" d="M 72.5,66.5 C 75.1522,66.4095 77.4855,67.0762 79.5,68.5C 82.092,72.021 84.4253,75.6877 86.5,79.5C 86.6287,81.2161 86.962,82.8828 87.5,84.5C 83.3585,78.1931 78.0251,73.0265 71.5,69C 62.3372,67.064 62.6706,66.2307 72.5,66.5 Z"/></g>
<g><path style="opacity:0.906" fill="#c4d08e" d="M 212.5,73.5 C 213.644,77.9637 214.31,82.6304 214.5,87.5C 212.896,83.1004 212.229,78.4338 212.5,73.5 Z"/></g>
<g><path style="opacity:1" fill="#d9e197" d="M 146.5,122.5 C 138.561,135.758 127.561,139.258 113.5,133C 105.191,125.747 101.357,116.58 102,105.5C 97.5281,101.871 94.0281,97.5374 91.5,92.5C 89.6012,90.0359 88.2679,87.3693 87.5,84.5C 86.962,82.8828 86.6287,81.2161 86.5,79.5C 86.56,78.9569 86.8933,78.6236 87.5,78.5C 92.146,82.656 97.4793,85.4893 103.5,87C 111.152,86.6909 118.819,86.6909 126.5,87C 140.61,94.7267 147.277,106.56 146.5,122.5 Z"/></g>
<g><path style="opacity:1" fill="#729c36" d="M 91.5,92.5 C 94.0281,97.5374 97.5281,101.871 102,105.5C 101.357,116.58 105.191,125.747 113.5,133C 127.561,139.258 138.561,135.758 146.5,122.5C 146.963,133.961 143.963,144.628 137.5,154.5C 130.189,153.531 122.856,153.364 115.5,154C 109.704,156.398 104.37,159.564 99.5,163.5C 96.4641,157.421 92.4641,152.088 87.5,147.5C 95.9904,140.468 98.8238,131.468 96,120.5C 95.1628,118.156 93.8294,116.156 92,114.5C 91.7791,107.63 91.2791,100.797 90.5,94C 90.5699,93.2352 90.9033,92.7352 91.5,92.5 Z"/></g>
<g><path style="opacity:1" fill="#94c239" d="M 87.5,147.5 C 92.4641,152.088 96.4641,157.421 99.5,163.5C 104.37,159.564 109.704,156.398 115.5,154C 122.856,153.364 130.189,153.531 137.5,154.5C 138.694,155.272 139.694,156.272 140.5,157.5C 129.406,166.925 119.739,177.592 111.5,189.5C 105.675,184.082 99.0079,179.915 91.5,177C 74.6319,173.63 62.6319,164.13 55.5,148.5C 65.1395,149.559 74.8062,149.725 84.5,149C 85.5266,148.487 86.5266,147.987 87.5,147.5 Z"/></g>
</svg>
