<?xml version="1.0" encoding="UTF-8"?>
<!DOCTYPE svg PUBLIC "-//W3C//DTD SVG 1.1//EN" "http://www.w3.org/Graphics/SVG/1.1/DTD/svg11.dtd">
<svg xmlns="http://www.w3.org/2000/svg" version="1.1" width="512px" height="512px" style="shape-rendering:geometricPrecision; text-rendering:geometricPrecision; image-rendering:optimizeQuality; fill-rule:evenodd; clip-rule:evenodd" xmlns:xlink="http://www.w3.org/1999/xlink">
<g><path style="opacity:0.561" fill="#bec5c9" d="M 134.5,102.5 C 130.79,106.208 127.457,110.208 124.5,114.5C 126.312,109.353 129.312,105.02 133.5,101.5C 134.107,101.624 134.44,101.957 134.5,102.5 Z"/></g>
<g><path style="opacity:0.267" fill="#bedfbf" d="M 303.5,104.5 C 298.775,103.121 294.108,103.288 289.5,105C 286.335,107.335 283.335,109.835 280.5,112.5C 283.525,105.646 288.858,102.313 296.5,102.5C 299.155,102.44 301.489,103.107 303.5,104.5 Z"/></g>
<g><path style="opacity:1" fill="#1f8cb9" d="M 303.5,104.5 C 303.973,105.906 304.973,106.573 306.5,106.5C 308.86,107.865 310.527,109.865 311.5,112.5C 313.484,119.996 312.484,126.996 308.5,133.5C 308.5,134.167 308.167,134.5 307.5,134.5C 305.577,134.795 303.91,135.628 302.5,137C 297.472,137.588 292.472,137.422 287.5,136.5C 286.508,136.672 285.842,136.338 285.5,135.5C 284.581,132.911 282.914,130.911 280.5,129.5C 279.596,128.791 279.263,127.791 279.5,126.5C 279.353,121.786 279.686,117.119 280.5,112.5C 283.335,109.835 286.335,107.335 289.5,105C 294.108,103.288 298.775,103.121 303.5,104.5 Z"/></g>
<g><path style="opacity:0.251" fill="#cdeac8" d="M 303.5,104.5 C 305.027,104.427 306.027,105.094 306.5,106.5C 304.973,106.573 303.973,105.906 303.5,104.5 Z"/></g>
<g><path style="opacity:0.976" fill="#bfdfbd" d="M 404.5,123.5 C 405.003,118.828 405.169,114.161 405,109.5C 404.184,110.823 403.017,111.489 401.5,111.5C 402.812,109.521 404.479,107.855 406.5,106.5C 407.123,112.367 406.456,118.034 404.5,123.5 Z"/></g>
<g><path style="opacity:1" fill="#fac015" d="M 222.5,73.5 C 233.5,73.5 244.5,73.5 255.5,73.5C 255.667,136.168 255.5,198.834 255,261.5C 254.832,238.996 254.332,216.663 253.5,194.5C 247.004,187.171 240.004,180.338 232.5,174C 228.975,173.821 225.641,173.321 222.5,172.5C 222.5,139.5 222.5,106.5 222.5,73.5 Z"/></g>
<g><path style="opacity:1" fill="#28abe0" d="M 404.5,123.5 C 403.902,130.23 402.236,136.564 399.5,142.5C 398.069,143.78 397.402,145.447 397.5,147.5C 396.069,148.78 395.402,150.447 395.5,152.5C 395.771,154.38 395.104,155.713 393.5,156.5C 391.32,159.526 389.653,162.86 388.5,166.5C 387.331,169.511 385.664,172.178 383.5,174.5C 382.094,174.973 381.427,175.973 381.5,177.5C 380.094,177.973 379.427,178.973 379.5,180.5C 379.167,181.5 378.5,182.167 377.5,182.5C 375.413,183.585 374.08,185.251 373.5,187.5C 371.833,189.833 369.833,191.833 367.5,193.5C 365.596,193.738 364.262,194.738 363.5,196.5C 362.109,198.89 360.109,200.557 357.5,201.5C 354.802,201.845 352.802,203.178 351.5,205.5C 348.674,205.998 346.34,207.331 344.5,209.5C 342.62,209.229 341.287,209.896 340.5,211.5C 338.62,211.229 337.287,211.896 336.5,213.5C 336.5,213.833 336.5,214.167 336.5,214.5C 335.5,214.5 334.5,214.5 333.5,214.5C 330.753,214.187 328.086,214.52 325.5,215.5C 325.137,216.183 324.804,216.85 324.5,217.5C 323.791,218.404 322.791,218.737 321.5,218.5C 316.125,219.007 310.792,219.84 305.5,221C 299.141,221.831 292.807,221.664 286.5,220.5C 288.438,216.686 289.771,212.686 290.5,208.5C 292.104,207.713 292.771,206.38 292.5,204.5C 294.326,202.853 295.66,200.853 296.5,198.5C 298.547,196.45 300.214,194.117 301.5,191.5C 306.5,187.167 311.167,182.5 315.5,177.5C 317.749,176.92 319.415,175.587 320.5,173.5C 323.198,173.155 325.198,171.822 326.5,169.5C 327.694,168.728 328.694,167.728 329.5,166.5C 330.167,166.5 330.833,166.5 331.5,166.5C 332.167,166.5 332.5,166.167 332.5,165.5C 332.833,165.5 333.167,165.5 333.5,165.5C 336.58,164.483 339.58,163.316 342.5,162C 337.758,161.845 333.425,163.012 329.5,165.5C 327.62,165.229 326.287,165.896 325.5,167.5C 323.62,167.229 322.287,167.896 321.5,169.5C 318.674,169.998 316.34,171.331 314.5,173.5C 312.973,173.427 311.973,174.094 311.5,175.5C 310.055,177.063 308.389,178.396 306.5,179.5C 302.167,181.833 298.833,185.167 296.5,189.5C 296.5,190.833 295.833,191.5 294.5,191.5C 292.738,192.262 291.738,193.596 291.5,195.5C 291.672,196.492 291.338,197.158 290.5,197.5C 288.273,198.401 287.273,200.067 287.5,202.5C 286.094,202.973 285.427,203.973 285.5,205.5C 283.715,205.926 282.715,207.092 282.5,209C 281.591,212.466 280.924,215.966 280.5,219.5C 279.4,221.277 278.566,223.277 278,225.5C 277.828,232.013 277.328,238.347 276.5,244.5C 275.752,241.095 274.752,237.762 273.5,234.5C 271.97,223.225 271.303,211.892 271.5,200.5C 271.5,199.833 271.5,199.167 271.5,198.5C 273.04,196.162 273.706,193.495 273.5,190.5C 273.5,190.167 273.5,189.833 273.5,189.5C 275.403,186.47 276.737,183.137 277.5,179.5C 279.448,177.68 280.448,175.346 280.5,172.5C 281.906,172.027 282.573,171.027 282.5,169.5C 283.906,169.027 284.573,168.027 284.5,166.5C 288.472,162.193 292.472,157.859 296.5,153.5C 299.089,152.581 301.089,150.914 302.5,148.5C 305.112,147.629 307.779,146.963 310.5,146.5C 310.5,145.5 310.5,144.5 310.5,143.5C 313.485,142.674 316.151,141.341 318.5,139.5C 320.426,137.707 322.759,136.707 325.5,136.5C 327.898,136.741 329.898,136.074 331.5,134.5C 333.898,134.741 335.898,134.074 337.5,132.5C 340.228,132.829 342.562,132.163 344.5,130.5C 344.5,129.833 344.833,129.5 345.5,129.5C 346.097,130.139 346.93,130.472 348,130.5C 351.782,130.053 355.282,129.053 358.5,127.5C 361.829,127.785 364.829,127.118 367.5,125.5C 371.874,125.498 375.874,124.498 379.5,122.5C 383.358,122.23 386.691,120.897 389.5,118.5C 394.515,117.667 398.515,115.334 401.5,111.5C 403.017,111.489 404.184,110.823 405,109.5C 405.169,114.161 405.003,118.828 404.5,123.5 Z"/></g>
<g><path style="opacity:0.631" fill="#a0a9ae" d="M 140.5,111.5 C 141.906,111.973 142.573,112.973 142.5,114.5C 141.094,114.027 140.427,113.027 140.5,111.5 Z"/></g>
<g><path style="opacity:0.796" fill="#97a1a6" d="M 142.5,114.5 C 144.262,115.262 145.262,116.596 145.5,118.5C 143.738,117.738 142.738,116.404 142.5,114.5 Z"/></g>
<g><path style="opacity:0.663" fill="#b9dec4" d="M 401.5,111.5 C 398.515,115.334 394.515,117.667 389.5,118.5C 393.465,116.182 397.465,113.848 401.5,111.5 Z"/></g>
<g><path style="opacity:0.009" fill="#fefefd" d="M 261.5,125.5 C 260.419,128.286 259.753,130.953 259.5,133.5C 258.337,128.198 258.171,122.864 259,117.5C 259.833,118.333 260.667,119.167 261.5,120C 260.248,121.828 260.248,123.661 261.5,125.5 Z"/></g>
<g><path style="opacity:0.847" fill="#f7ecb2" d="M 267.5,118.5 C 266.504,118.586 265.671,118.252 265,117.5C 263.476,123.375 262.643,129.375 262.5,135.5C 262.167,135.5 261.833,135.5 261.5,135.5C 261.5,132.167 261.5,128.833 261.5,125.5C 262.4,121.272 263.4,116.939 264.5,112.5C 265.359,111.226 266.026,111.392 266.5,113C 267.233,114.766 267.567,116.599 267.5,118.5 Z"/></g>
<g><path style="opacity:0.78" fill="#b6d7be" d="M 280.5,112.5 C 279.686,117.119 279.353,121.786 279.5,126.5C 276.865,121.676 277.198,117.009 280.5,112.5 Z"/></g>
<g><path style="opacity:0.78" fill="#b5dbbd" d="M 389.5,118.5 C 386.691,120.897 383.358,122.23 379.5,122.5C 382.518,120.6 385.851,119.267 389.5,118.5 Z"/></g>
<g><path style="opacity:0.231" fill="#9aa4a9" d="M 122.5,117.5 C 121.043,119.628 120.043,121.962 119.5,124.5C 117.944,121.312 118.944,118.979 122.5,117.5 Z"/></g>
<g><path style="opacity:0.067" fill="#eaedee" d="M 138.5,121.5 C 139.11,122.391 139.443,123.391 139.5,124.5C 138.833,125.5 138.167,126.5 137.5,127.5C 137.205,125.265 137.539,123.265 138.5,121.5 Z"/></g>
<g><path style="opacity:0.925" fill="#889298" d="M 145.5,118.5 C 148.284,120.746 148.617,123.08 146.5,125.5C 146.552,123.097 146.219,120.764 145.5,118.5 Z"/></g>
<g><path style="opacity:0.969" fill="#fbf2c1" d="M 267.5,118.5 C 269.204,121.939 270.538,125.605 271.5,129.5C 268.81,126.431 267.477,122.764 267.5,118.5 Z"/></g>
<g><path style="opacity:0.635" fill="#b8dbbe" d="M 311.5,112.5 C 314.906,117.084 315.406,122.084 313,127.5C 312.208,130.106 310.708,132.106 308.5,133.5C 312.484,126.996 313.484,119.996 311.5,112.5 Z"/></g>
<g><path style="opacity:0.655" fill="#a3d3b9" d="M 379.5,122.5 C 375.874,124.498 371.874,125.498 367.5,125.5C 371.239,123.898 375.239,122.898 379.5,122.5 Z"/></g>
<g><path style="opacity:0.992" fill="#77848b" d="M 139.5,124.5 C 141.717,125.369 144.05,125.702 146.5,125.5C 143.68,128.335 141.347,128.001 139.5,124.5 Z"/></g>
<g><path style="opacity:0.471" fill="#adb6ba" d="M 119.5,124.5 C 121.297,125.73 123.297,126.396 125.5,126.5C 124.399,127.598 123.066,127.765 121.5,127C 120.244,126.583 119.577,125.75 119.5,124.5 Z"/></g>
<g><path style="opacity:0.635" fill="#badec0" d="M 367.5,125.5 C 364.829,127.118 361.829,127.785 358.5,127.5C 361.171,125.882 364.171,125.215 367.5,125.5 Z"/></g>
<g><path style="opacity:0.591" fill="#f8e9a3" d="M 222.5,72.5 C 222.5,72.8333 222.5,73.1667 222.5,73.5C 222.5,106.5 222.5,139.5 222.5,172.5C 222.167,172.5 221.833,172.5 221.5,172.5C 221.826,139.79 221.493,107.123 220.5,74.5C 220.855,73.4777 221.522,72.811 222.5,72.5 Z"/></g>
<g><path style="opacity:0.004" fill="#fefffe" d="M 123.5,128.5 C 124.833,129.167 124.833,129.167 123.5,128.5 Z"/></g>
<g><path style="opacity:0.999" fill="#edd274" d="M 256.5,72.5 C 256.5,136.5 256.5,200.5 256.5,264.5C 255.542,264.047 254.708,263.381 254,262.5C 253.5,239.836 253.333,217.169 253.5,194.5C 254.332,216.663 254.832,238.996 255,261.5C 255.5,198.834 255.667,136.168 255.5,73.5C 244.5,73.5 233.5,73.5 222.5,73.5C 222.5,73.1667 222.5,72.8333 222.5,72.5C 233.833,71.1667 245.167,71.1667 256.5,72.5 Z"/></g>
<g><path style="opacity:0.796" fill="#bbddbb" d="M 358.5,127.5 C 355.282,129.053 351.782,130.053 348,130.5C 346.93,130.472 346.097,130.139 345.5,129.5C 349.76,128.415 354.094,127.748 358.5,127.5 Z"/></g>
<g><path style="opacity:0.004" fill="#fefefc" d="M 217.5,133.5 C 217.351,132.448 217.517,131.448 218,130.5C 218.74,131.749 218.573,132.749 217.5,133.5 Z"/></g>
<g><path style="opacity:0.004" fill="#fbfefe" d="M 273.5,130.5 C 274.833,131.167 274.833,131.167 273.5,130.5 Z"/></g>
<g><path style="opacity:0.031" fill="#b9dcbb" d="M 280.5,129.5 C 282.914,130.911 284.581,132.911 285.5,135.5C 283.086,134.089 281.419,132.089 280.5,129.5 Z"/></g>
<g><path style="opacity:0.079" fill="#fbfcfc" d="M 128.5,121.5 C 129.497,139.326 129.83,157.326 129.5,175.5C 128.833,158.167 128.167,140.833 127.5,123.5C 127.833,122.833 128.167,122.167 128.5,121.5 Z"/></g>
<g><path style="opacity:0.882" fill="#bfe0bc" d="M 344.5,130.5 C 342.562,132.163 340.228,132.829 337.5,132.5C 339.515,131.076 341.848,130.41 344.5,130.5 Z"/></g>
<g><path style="opacity:0.004" fill="#fcfefb" d="M 217.5,133.5 C 216.833,134.167 216.833,134.167 217.5,133.5 Z"/></g>
<g><path style="opacity:0.996" fill="#add7b3" d="M 337.5,132.5 C 335.898,134.074 333.898,134.741 331.5,134.5C 333.102,132.926 335.102,132.259 337.5,132.5 Z"/></g>
<g><path style="opacity:0.01" fill="#fefefe" d="M 257.5,134.5 C 258.756,134.461 259.756,134.961 260.5,136C 259.707,139.411 259.207,142.911 259,146.5C 258.768,145.263 258.268,144.263 257.5,143.5C 257.5,143.167 257.5,142.833 257.5,142.5C 258.833,141.5 258.833,140.5 257.5,139.5C 257.5,137.833 257.5,136.167 257.5,134.5 Z"/></g>
<g><path style="opacity:1" fill="#fabf1b" d="M 267.5,118.5 C 267.477,122.764 268.81,126.431 271.5,129.5C 272.167,130.167 272.833,130.833 273.5,131.5C 274.167,133.167 274.833,134.833 275.5,136.5C 279.195,142.702 284.528,147.035 291.5,149.5C 280.517,158.481 273.184,169.814 269.5,183.5C 268.883,183.611 268.383,183.944 268,184.5C 267.466,188.305 266.466,191.971 265,195.5C 264.667,195.167 264.333,194.833 264,194.5C 262.653,174.86 262.153,155.193 262.5,135.5C 262.643,129.375 263.476,123.375 265,117.5C 265.671,118.252 266.504,118.586 267.5,118.5 Z"/></g>
<g><path style="opacity:0.004" fill="#fefefb" d="M 217.5,135.5 C 218.525,135.897 218.692,136.563 218,137.5C 217.536,136.906 217.369,136.239 217.5,135.5 Z"/></g>
<g><path style="opacity:1" fill="#b5dabf" d="M 331.5,134.5 C 329.898,136.074 327.898,136.741 325.5,136.5C 327.102,134.926 329.102,134.259 331.5,134.5 Z"/></g>
<g><path style="opacity:0.008" fill="#fcfefb" d="M 283.5,137.5 C 284.833,138.167 284.833,138.167 283.5,137.5 Z"/></g>
<g><path style="opacity:0.945" fill="#b8d9c0" d="M 307.5,134.5 C 303.169,139.056 297.836,140.556 291.5,139C 289.934,138.392 288.6,137.558 287.5,136.5C 292.472,137.422 297.472,137.588 302.5,137C 303.91,135.628 305.577,134.795 307.5,134.5 Z"/></g>
<g><path style="opacity:0.322" fill="#cde8c3" d="M 318.5,139.5 C 316.151,141.341 313.485,142.674 310.5,143.5C 312.579,141.127 315.246,139.794 318.5,139.5 Z"/></g>
<g><path style="opacity:0.004" fill="#fefefc" d="M 216.5,140.5 C 217.649,140.791 218.316,141.624 218.5,143C 218.333,143.833 218.167,144.667 218,145.5C 217.392,143.846 216.892,142.179 216.5,140.5 Z"/></g>
<g><path style="opacity:1" fill="#7ec2cc" d="M 310.5,143.5 C 310.5,144.5 310.5,145.5 310.5,146.5C 307.779,146.963 305.112,147.629 302.5,148.5C 304.822,146.336 307.489,144.669 310.5,143.5 Z"/></g>
<g><path style="opacity:0.388" fill="#bfe1b5" d="M 399.5,142.5 C 399.598,144.553 398.931,146.22 397.5,147.5C 397.402,145.447 398.069,143.78 399.5,142.5 Z"/></g>
<g><path style="opacity:0.005" fill="#fefefc" d="M 216.5,147.5 C 218.085,148.002 218.585,149.002 218,150.5C 216.961,149.756 216.461,148.756 216.5,147.5 Z"/></g>
<g><path style="opacity:0.529" fill="#faedb8" d="M 275.5,136.5 C 277.963,138.461 280.297,140.628 282.5,143C 285.456,145.293 288.79,146.627 292.5,147C 293.757,149.076 293.424,150.91 291.5,152.5C 290.833,152.5 290.5,152.833 290.5,153.5C 285.718,155.042 284.385,157.709 286.5,161.5C 285.518,162.141 284.518,162.807 283.5,163.5C 282.483,160.972 281.316,160.972 280,163.5C 276.201,170.102 272.701,176.768 269.5,183.5C 273.184,169.814 280.517,158.481 291.5,149.5C 284.528,147.035 279.195,142.702 275.5,136.5 Z"/></g>
<g><path style="opacity:0.373" fill="#b2d8a9" d="M 397.5,147.5 C 397.598,149.553 396.931,151.22 395.5,152.5C 395.402,150.447 396.069,148.78 397.5,147.5 Z"/></g>
<g><path style="opacity:0.004" fill="#fefefb" d="M 217.5,151.5 C 218.525,151.897 218.692,152.563 218,153.5C 217.536,152.906 217.369,152.239 217.5,151.5 Z"/></g>
<g><path style="opacity:0.937" fill="#a2d3be" d="M 302.5,148.5 C 301.089,150.914 299.089,152.581 296.5,153.5C 297.911,151.086 299.911,149.419 302.5,148.5 Z"/></g>
<g><path style="opacity:0.004" fill="#fefefe" d="M 291.5,152.5 C 292.833,153.167 292.833,153.167 291.5,152.5 Z"/></g>
<g><path style="opacity:0.004" fill="#fefefd" d="M 290.5,153.5 C 290.833,153.5 291.167,153.5 291.5,153.5C 291.315,154.17 290.981,154.17 290.5,153.5 Z"/></g>
<g><path style="opacity:0.834" fill="#f9ecb7" d="M 213.5,172.5 C 213.167,172.5 212.833,172.5 212.5,172.5C 212.5,157.167 212.5,141.833 212.5,126.5C 201.5,126.5 190.5,126.5 179.5,126.5C 179.5,141.833 179.5,157.167 179.5,172.5C 171.5,172.5 163.5,172.5 155.5,172.5C 162.982,171.508 170.648,171.175 178.5,171.5C 177.419,156.854 177.253,142.188 178,127.5C 183.757,126.19 189.757,125.524 196,125.5C 202.078,125.51 208.078,125.843 214,126.5C 214.816,141.908 214.649,157.241 213.5,172.5 Z"/></g>
<g><path style="opacity:1" fill="#fac117" d="M 212.5,172.5 C 201.5,172.5 190.5,172.5 179.5,172.5C 179.5,157.167 179.5,141.833 179.5,126.5C 190.5,126.5 201.5,126.5 212.5,126.5C 212.5,141.833 212.5,157.167 212.5,172.5 Z"/></g>
<g><path style="opacity:0.004" fill="#fefefb" d="M 217.5,157.5 C 218.622,159.288 218.789,161.288 218,163.5C 217.505,161.527 217.338,159.527 217.5,157.5 Z"/></g>
<g><path style="opacity:0.008" fill="#bcdfc9" d="M 393.5,156.5 C 392.873,160.42 391.207,163.753 388.5,166.5C 389.653,162.86 391.32,159.526 393.5,156.5 Z"/></g>
<g><path style="opacity:0.596" fill="#c3e3bf" d="M 296.5,153.5 C 292.472,157.859 288.472,162.193 284.5,166.5C 285.167,164.833 285.833,163.167 286.5,161.5C 289.564,158.43 292.897,155.763 296.5,153.5 Z"/></g>
<g><path style="opacity:0.918" fill="#c9e4be" d="M 333.5,165.5 C 333.167,164.167 332.833,164.167 332.5,165.5C 332.5,166.167 332.167,166.5 331.5,166.5C 331.158,165.662 330.492,165.328 329.5,165.5C 333.425,163.012 337.758,161.845 342.5,162C 339.58,163.316 336.58,164.483 333.5,165.5 Z"/></g>
<g><path style="opacity:0.004" fill="#fdfefb" d="M 281.5,164.5 C 282.525,164.897 282.692,165.563 282,166.5C 281.536,165.906 281.369,165.239 281.5,164.5 Z"/></g>
<g><path style="opacity:0.047" fill="#d1e8af" d="M 329.5,165.5 C 329.5,165.833 329.5,166.167 329.5,166.5C 328.167,166.833 326.833,167.167 325.5,167.5C 326.287,165.896 327.62,165.229 329.5,165.5 Z"/></g>
<g><path style="opacity:0.573" fill="#c4e2b3" d="M 284.5,166.5 C 284.573,168.027 283.906,169.027 282.5,169.5C 282.427,167.973 283.094,166.973 284.5,166.5 Z"/></g>
<g><path style="opacity:0.039" fill="#d7ecc5" d="M 325.5,167.5 C 324.486,168.674 323.153,169.34 321.5,169.5C 322.287,167.896 323.62,167.229 325.5,167.5 Z"/></g>
<g><path style="opacity:0.004" fill="#fffdfd" d="M 258.5,170.5 C 259.525,170.897 259.692,171.563 259,172.5C 258.536,171.906 258.369,171.239 258.5,170.5 Z"/></g>
<g><path style="opacity:0.004" fill="#fdfefb" d="M 277.5,170.5 C 278.525,170.897 278.692,171.563 278,172.5C 277.536,171.906 277.369,171.239 277.5,170.5 Z"/></g>
<g><path style="opacity:0.467" fill="#cde9b9" d="M 282.5,169.5 C 282.573,171.027 281.906,172.027 280.5,172.5C 280.427,170.973 281.094,169.973 282.5,169.5 Z"/></g>
<g><path style="opacity:0.047" fill="#d9edca" d="M 321.5,169.5 C 319.664,171.588 317.331,172.921 314.5,173.5C 316.34,171.331 318.674,169.998 321.5,169.5 Z"/></g>
<g><path style="opacity:0.757" fill="#b9debc" d="M 326.5,169.5 C 325.198,171.822 323.198,173.155 320.5,173.5C 322.147,171.674 324.147,170.34 326.5,169.5 Z"/></g>
<g><path style="opacity:0.043" fill="#dbf0c0" d="M 314.5,173.5 C 314.027,174.906 313.027,175.573 311.5,175.5C 311.973,174.094 312.973,173.427 314.5,173.5 Z"/></g>
<g><path style="opacity:0.894" fill="#b3dabb" d="M 320.5,173.5 C 319.415,175.587 317.749,176.92 315.5,177.5C 316.585,175.413 318.251,174.08 320.5,173.5 Z"/></g>
<g><path style="opacity:0.247" fill="#c6e5b6" d="M 383.5,174.5 C 383.573,176.027 382.906,177.027 381.5,177.5C 381.427,175.973 382.094,174.973 383.5,174.5 Z"/></g>
<g><path style="opacity:0.627" fill="#979584" d="M 155.5,172.5 C 163.5,172.5 171.5,172.5 179.5,172.5C 190.5,172.5 201.5,172.5 212.5,172.5C 193.004,173.332 173.338,173.832 153.5,174C 150.614,175.385 148.614,177.551 147.5,180.5C 147.167,180.5 146.833,180.5 146.5,180.5C 147.584,175.753 150.584,173.086 155.5,172.5 Z"/></g>
<g><path style="opacity:1" fill="#a8d3c0" d="M 280.5,172.5 C 280.448,175.346 279.448,177.68 277.5,179.5C 277.707,176.759 278.707,174.426 280.5,172.5 Z"/></g>
<g><path style="opacity:0.031" fill="#dbedc4" d="M 381.5,177.5 C 381.573,179.027 380.906,180.027 379.5,180.5C 379.427,178.973 380.094,177.973 381.5,177.5 Z"/></g>
<g><path style="opacity:0.055" fill="#daedc9" d="M 306.5,179.5 C 303.5,183.167 300.167,186.5 296.5,189.5C 298.833,185.167 302.167,181.833 306.5,179.5 Z"/></g>
<g><path style="opacity:0.863" fill="#b2dbc0" d="M 315.5,177.5 C 311.167,182.5 306.5,187.167 301.5,191.5C 305.167,185.833 309.833,181.167 315.5,177.5 Z"/></g>
<g><path style="opacity:0.008" fill="#fcfefb" d="M 143.5,184.5 C 144.833,185.167 144.833,185.167 143.5,184.5 Z"/></g>
<g><path style="opacity:0.545" fill="#bfe1bb" d="M 277.5,179.5 C 276.737,183.137 275.403,186.47 273.5,189.5C 273.872,185.703 275.206,182.37 277.5,179.5 Z"/></g>
<g><path style="opacity:0.059" fill="#d4ebc3" d="M 377.5,182.5 C 376.92,184.749 375.587,186.415 373.5,187.5C 374.08,185.251 375.413,183.585 377.5,182.5 Z"/></g>
<g><path style="opacity:0.89" fill="#f4de8e" d="M 261.5,135.5 C 261.833,135.5 262.167,135.5 262.5,135.5C 262.153,155.193 262.653,174.86 264,194.5C 264.333,194.833 264.667,195.167 265,195.5C 266.466,191.971 267.466,188.305 268,184.5C 268.383,183.944 268.883,183.611 269.5,183.5C 269.167,186.833 268.833,190.167 268.5,193.5C 267.662,193.842 267.328,194.508 267.5,195.5C 266.685,196.429 265.852,197.429 265,198.5C 264.617,197.944 264.117,197.611 263.5,197.5C 260.476,176.957 259.809,156.291 261.5,135.5 Z"/></g>
<g><path style="opacity:0.014" fill="#e5e8e9" d="M 146.5,180.5 C 146.5,221.833 146.5,263.167 146.5,304.5C 145.512,299.36 145.179,294.026 145.5,288.5C 145.5,285.833 145.5,283.167 145.5,280.5C 145.5,280.167 145.5,279.833 145.5,279.5C 145.5,263.167 145.5,246.833 145.5,230.5C 145.5,230.167 145.5,229.833 145.5,229.5C 145.5,228.833 145.5,228.167 145.5,227.5C 145.5,226.167 145.5,224.833 145.5,223.5C 145.5,222.167 145.5,220.833 145.5,219.5C 143.749,217.914 142.415,214.747 141.5,210C 143.964,207.835 143.964,205.835 141.5,204C 143.924,201.446 143.924,198.946 141.5,196.5C 142.695,195.033 142.695,193.533 141.5,192C 141.862,190.775 142.362,189.609 143,188.5C 143.667,189.833 144.333,189.833 145,188.5C 145.183,185.635 145.683,182.969 146.5,180.5 Z"/></g>
<g><path style="opacity:0.997" fill="#0f2233" d="M 221.5,172.5 C 221.833,172.5 222.167,172.5 222.5,172.5C 225.641,173.321 228.975,173.821 232.5,174C 240.004,180.338 247.004,187.171 253.5,194.5C 253.333,217.169 253.5,239.836 254,262.5C 254.708,263.381 255.542,264.047 256.5,264.5C 256.842,265.338 257.508,265.672 258.5,265.5C 259.585,267.587 261.251,268.92 263.5,269.5C 264.5,270.167 265.5,270.833 266.5,271.5C 266.328,272.492 266.662,273.158 267.5,273.5C 269.803,277.472 273.136,279.638 277.5,280C 285.702,271.965 293.702,263.798 301.5,255.5C 303.167,254.5 304.5,253.167 305.5,251.5C 305.833,250.5 306.5,249.833 307.5,249.5C 308.478,249.189 309.145,248.522 309.5,247.5C 307.955,246.548 306.288,246.215 304.5,246.5C 302.221,241.595 303.554,238.595 308.5,237.5C 309.167,237.5 309.833,237.5 310.5,237.5C 311.167,237.5 311.833,237.5 312.5,237.5C 317.473,236.372 322.473,235.372 327.5,234.5C 326.89,242.486 326.39,250.486 326,258.5C 323.063,261.306 320.563,260.973 318.5,257.5C 318.664,254.813 318.497,252.146 318,249.5C 315.96,251.37 314.127,253.37 312.5,255.5C 311.5,255.833 310.833,256.5 310.5,257.5C 308.5,258.833 306.833,260.5 305.5,262.5C 305.167,263.5 304.5,264.167 303.5,264.5C 301.833,265.5 300.5,266.833 299.5,268.5C 299.5,269.167 299.167,269.5 298.5,269.5C 296.833,270.5 295.5,271.833 294.5,273.5C 289.167,279.5 283.5,285.167 277.5,290.5C 276.041,290.567 274.708,290.234 273.5,289.5C 272.833,288.167 271.833,287.167 270.5,286.5C 269.415,284.413 267.749,283.08 265.5,282.5C 263.761,279.757 261.427,277.757 258.5,276.5C 257.089,274.086 255.089,272.419 252.5,271.5C 252.167,270.5 251.5,269.833 250.5,269.5C 250.167,269.5 249.833,269.5 249.5,269.5C 248.094,269.973 247.427,270.973 247.5,272.5C 244.705,274.751 242.372,277.418 240.5,280.5C 237.923,280.545 235.923,279.545 234.5,277.5C 234.5,277.167 234.5,276.833 234.5,276.5C 236.262,275.738 237.262,274.404 237.5,272.5C 238.906,272.027 239.573,271.027 239.5,269.5C 241.262,268.738 242.262,267.404 242.5,265.5C 244.173,264.657 245.34,263.324 246,261.5C 246.5,240.836 246.667,220.169 246.5,199.5C 241.5,199.5 236.5,199.5 231.5,199.5C 230.833,199.5 230.5,199.167 230.5,198.5C 229.164,196.99 227.997,195.323 227,193.5C 226.825,188.981 226.325,184.647 225.5,180.5C 202.67,179.337 179.67,179.17 156.5,180C 155.944,180.383 155.611,180.883 155.5,181.5C 154.883,181.611 154.383,181.944 154,182.5C 153.333,222.833 153.333,263.167 154,303.5C 154.833,304.333 155.667,305.167 156.5,306C 167.161,306.5 177.828,306.667 188.5,306.5C 187.571,307.315 186.571,308.148 185.5,309C 186.28,310.073 186.113,311.24 185,312.5C 184.517,311.552 184.351,310.552 184.5,309.5C 181.719,310.767 179.053,311.6 176.5,312C 169.842,312.5 163.175,312.666 156.5,312.5C 154.315,312.296 152.315,311.63 150.5,310.5C 149.5,310.167 148.833,309.5 148.5,308.5C 147.511,265.876 147.178,223.209 147.5,180.5C 148.614,177.551 150.614,175.385 153.5,174C 173.338,173.832 193.004,173.332 212.5,172.5C 212.833,172.5 213.167,172.5 213.5,172.5C 216.204,171.286 218.871,171.286 221.5,172.5 Z M 234.5,184.5 C 236.294,186.797 238.294,188.963 240.5,191C 238.19,191.497 235.857,191.663 233.5,191.5C 233.5,191.167 233.5,190.833 233.5,190.5C 233.205,188.265 233.539,186.265 234.5,184.5 Z M 304.5,246.5 C 304.5,246.833 304.5,247.167 304.5,247.5C 306.179,247.285 307.179,247.952 307.5,249.5C 306.5,249.833 305.833,250.5 305.5,251.5C 304.504,251.414 303.671,251.748 303,252.5C 302.833,251.5 302.667,250.5 302.5,249.5C 302.64,247.97 303.307,246.97 304.5,246.5 Z M 281.5,251.5 C 281.664,254.187 281.497,256.854 281,259.5C 280.292,258.619 279.458,257.953 278.5,257.5C 278.167,256.167 277.833,254.833 277.5,253.5C 278.117,253.389 278.617,253.056 279,252.5C 279.333,250.5 279.667,248.5 280,246.5C 280.198,248.382 280.698,250.048 281.5,251.5 Z M 249.5,269.5 C 249.833,269.5 250.167,269.5 250.5,269.5C 250.5,270.833 251.167,271.5 252.5,271.5C 252.657,272.873 252.49,274.207 252,275.5C 251.29,274.027 250.124,273.36 248.5,273.5C 248.912,275.973 247.912,277.306 245.5,277.5C 246.167,275.833 246.833,274.167 247.5,272.5C 248.906,272.027 249.573,271.027 249.5,269.5 Z M 221.5,286.5 C 222.5,287.833 223.5,289.167 224.5,290.5C 222.983,290.489 221.816,289.823 221,288.5C 220.184,289.823 219.017,290.489 217.5,290.5C 218.5,288.833 219.833,287.5 221.5,286.5 Z"/></g>
<g><path style="opacity:0.625" fill="#717d85" d="M 234.5,184.5 C 233.539,186.265 233.205,188.265 233.5,190.5C 232.2,187.976 232.2,185.309 233.5,182.5C 234.298,182.957 234.631,183.624 234.5,184.5 Z"/></g>
<g><path style="opacity:0.89" fill="#a5acb1" d="M 225.5,180.5 C 202.373,181.385 179.039,181.718 155.5,181.5C 155.611,180.883 155.944,180.383 156.5,180C 179.67,179.17 202.67,179.337 225.5,180.5 Z"/></g>
<g><path style="opacity:0.004" fill="#fffefc" d="M 258.5,188.5 C 260.337,188.639 260.67,189.306 259.5,190.5C 258.702,190.043 258.369,189.376 258.5,188.5 Z"/></g>
<g><path style="opacity:0.245" fill="#fefad0" d="M 256.5,72.5 C 257.497,92.9933 257.831,113.66 257.5,134.5C 257.5,136.167 257.5,137.833 257.5,139.5C 257.5,140.5 257.5,141.5 257.5,142.5C 257.5,142.833 257.5,143.167 257.5,143.5C 257.334,147.514 257.501,151.514 258,155.5C 258.333,155.167 258.667,154.833 259,154.5C 259.667,156.5 259.667,158.5 259,160.5C 258.667,159.833 258.333,159.167 258,158.5C 257.333,166.167 257.333,173.833 258,181.5C 258.166,177.489 259,176.989 260.5,180C 259.929,181.205 259.262,182.372 258.5,183.5C 257.501,195.815 257.168,208.149 257.5,220.5C 257.5,221.5 257.5,222.5 257.5,223.5C 257.334,229.176 257.501,234.843 258,240.5C 259.185,238.441 260.352,238.274 261.5,240C 260.902,241.301 259.902,242.135 258.5,242.5C 258.167,244.333 257.833,246.167 257.5,248C 257.551,253.774 257.884,259.607 258.5,265.5C 257.508,265.672 256.842,265.338 256.5,264.5C 256.5,200.5 256.5,136.5 256.5,72.5 Z"/></g>
<g><path style="opacity:0.01" fill="#ccd1d8" d="M 202.5,190.5 C 203.5,190.5 204.5,190.5 205.5,190.5C 204.754,194.31 203.754,194.31 202.5,190.5 Z"/></g>
<g><path style="opacity:0.612" fill="#606d75" d="M 234.5,184.5 C 237.744,186.071 240.411,188.405 242.5,191.5C 239.355,192.803 236.355,192.803 233.5,191.5C 235.857,191.663 238.19,191.497 240.5,191C 238.294,188.963 236.294,186.797 234.5,184.5 Z"/></g>
<g><path style="opacity:0.022" fill="#fcfbf1" d="M 263.5,197.5 C 264.117,197.611 264.617,197.944 265,198.5C 265.852,197.429 266.685,196.429 267.5,195.5C 267.343,196.873 267.51,198.207 268,199.5C 268.495,197.527 268.662,195.527 268.5,193.5C 269.222,193.082 269.722,192.416 270,191.5C 270.169,196.161 270.003,200.828 269.5,205.5C 267.738,205.643 266.071,205.309 264.5,204.5C 263.526,202.257 263.192,199.924 263.5,197.5 Z"/></g>
<g><path style="opacity:0.997" fill="#0f2338" d="M 134.5,102.5 C 136.745,105.32 138.745,108.32 140.5,111.5C 140.427,113.027 141.094,114.027 142.5,114.5C 142.738,116.404 143.738,117.738 145.5,118.5C 146.219,120.764 146.552,123.097 146.5,125.5C 144.05,125.702 141.717,125.369 139.5,124.5C 139.443,123.391 139.11,122.391 138.5,121.5C 138.158,120.662 137.492,120.328 136.5,120.5C 135.501,185.998 135.168,251.665 135.5,317.5C 134.167,317.5 132.833,317.5 131.5,317.5C 131.832,251.665 131.499,185.998 130.5,120.5C 129.508,120.328 128.842,120.662 128.5,121.5C 128.167,122.167 127.833,122.833 127.5,123.5C 127.573,125.027 126.906,126.027 125.5,126.5C 123.297,126.396 121.297,125.73 119.5,124.5C 120.043,121.962 121.043,119.628 122.5,117.5C 122.427,115.973 123.094,114.973 124.5,114.5C 127.457,110.208 130.79,106.208 134.5,102.5 Z"/></g>
<g><path style="opacity:0.004" fill="#fffefe" d="M 258.5,192.5 C 260.935,193.13 261.602,194.463 260.5,196.5C 258.889,195.68 258.222,194.346 258.5,192.5 Z"/></g>
<g><path style="opacity:0.059" fill="#cbe6c1" d="M 294.5,191.5 C 294.262,193.404 293.262,194.738 291.5,195.5C 291.738,193.596 292.738,192.262 294.5,191.5 Z"/></g>
<g><path style="opacity:0.741" fill="#c2e0b7" d="M 273.5,190.5 C 273.706,193.495 273.04,196.162 271.5,198.5C 271.565,195.572 272.232,192.905 273.5,190.5 Z"/></g>
<g><path style="opacity:0.475" fill="#939ca1" d="M 225.5,180.5 C 226.325,184.647 226.825,188.981 227,193.5C 227.997,195.323 229.164,196.99 230.5,198.5C 227.265,197.405 225.432,195.072 225,191.5C 225.11,187.871 225.276,184.204 225.5,180.5 Z"/></g>
<g><path style="opacity:0.702" fill="#c3e2bf" d="M 301.5,191.5 C 300.214,194.117 298.547,196.45 296.5,198.5C 297.01,195.326 298.677,192.992 301.5,191.5 Z"/></g>
<g><path style="opacity:0.082" fill="#def0c8" d="M 367.5,193.5 C 366.738,195.262 365.404,196.262 363.5,196.5C 364.262,194.738 365.596,193.738 367.5,193.5 Z"/></g>
<g><path style="opacity:0.995" fill="#f9be1d" d="M 201.5,197.5 C 205.025,197.346 207.859,198.679 210,201.5C 210.333,207.833 210.667,214.167 211,220.5C 211.465,221.931 212.299,223.097 213.5,224C 220.394,225.26 227.394,225.926 234.5,226C 236.333,226.5 237.5,227.667 238,229.5C 238.667,234.167 238.667,238.833 238,243.5C 237.535,244.931 236.701,246.097 235.5,247C 228.281,248.429 220.947,248.929 213.5,248.5C 212.5,232.167 203.833,223.5 187.5,222.5C 187.5,218.833 187.5,215.167 187.5,211.5C 190.525,205.141 195.192,200.475 201.5,197.5 Z"/></g>
<g><path style="opacity:1" fill="#f6a326" d="M 201.5,197.5 C 195.192,200.475 190.525,205.141 187.5,211.5C 185.833,200.5 190.5,195.833 201.5,197.5 Z"/></g>
<g><path style="opacity:0.071" fill="#d4ebc8" d="M 290.5,197.5 C 290.5,198.167 290.5,198.833 290.5,199.5C 289.272,200.306 288.272,201.306 287.5,202.5C 287.273,200.067 288.273,198.401 290.5,197.5 Z"/></g>
<g><path style="opacity:0.004" fill="#fefefc" d="M 259.5,199.5 C 260.995,199.415 261.995,200.081 262.5,201.5C 260.604,202.639 259.604,201.973 259.5,199.5 Z"/></g>
<g><path style="opacity:0.004" fill="#fdfefb" d="M 290.5,199.5 C 291.65,198.15 292.317,198.316 292.5,200C 289.831,206.138 289.165,205.971 290.5,199.5 Z"/></g>
<g><path style="opacity:0.149" fill="#cfd3d5" d="M 231.5,199.5 C 236.5,199.5 241.5,199.5 246.5,199.5C 246.667,220.169 246.5,240.836 246,261.5C 245.34,263.324 244.173,264.657 242.5,265.5C 242.461,264.244 242.961,263.244 244,262.5C 244.5,241.836 244.667,221.169 244.5,200.5C 239.968,200.818 235.634,200.485 231.5,199.5 Z"/></g>
<g><path style="opacity:0.702" fill="#c3e3bd" d="M 296.5,198.5 C 295.66,200.853 294.326,202.853 292.5,204.5C 292.845,201.802 294.178,199.802 296.5,198.5 Z"/></g>
<g><path style="opacity:0.004" fill="#fcfefd" d="M 258.5,203.5 C 259.833,204.167 259.833,204.167 258.5,203.5 Z"/></g>
<g><path style="opacity:0.027" fill="#d4eab8" d="M 287.5,202.5 C 287.573,204.027 286.906,205.027 285.5,205.5C 285.427,203.973 286.094,202.973 287.5,202.5 Z"/></g>
<g><path style="opacity:0.035" fill="#d3eaca" d="M 357.5,201.5 C 355.853,203.326 353.853,204.66 351.5,205.5C 352.802,203.178 354.802,201.845 357.5,201.5 Z"/></g>
<g><path style="opacity:0.008" fill="#fefffe" d="M 154.5,217.5 C 154.5,217.167 154.5,216.833 154.5,216.5C 155.323,213.023 155.823,209.356 156,205.5C 156.667,210.5 156.667,215.5 156,220.5C 155.768,219.263 155.268,218.263 154.5,217.5 Z"/></g>
<g><path style="opacity:0.173" fill="#c8e6c7" d="M 351.5,205.5 C 349.664,207.588 347.331,208.921 344.5,209.5C 346.34,207.331 348.674,205.998 351.5,205.5 Z"/></g>
<g><path style="opacity:1" fill="#9ccfc6" d="M 285.5,205.5 C 284.208,210.382 282.541,215.048 280.5,219.5C 280.924,215.966 281.591,212.466 282.5,209C 282.715,207.092 283.715,205.926 285.5,205.5 Z"/></g>
<g><path style="opacity:0.533" fill="#d6ebbd" d="M 292.5,204.5 C 292.771,206.38 292.104,207.713 290.5,208.5C 290.66,206.847 291.326,205.514 292.5,204.5 Z"/></g>
<g><path style="opacity:0.88" fill="#828b92" d="M 128.5,121.5 C 128.842,120.662 129.508,120.328 130.5,120.5C 130.333,186.834 130.5,253.168 131,319.5C 131.608,321.154 132.108,322.821 132.5,324.5C 131.21,323.942 130.377,322.942 130,321.5C 129.337,318.023 128.837,314.523 128.5,311C 128.613,266.218 128.947,221.051 129.5,175.5C 129.83,157.326 129.497,139.326 128.5,121.5 Z"/></g>
<g><path style="opacity:0.868" fill="#20a6db" d="M 173.5,208.5 C 175.827,208.247 177.827,208.914 179.5,210.5C 181.105,213.314 182.105,216.314 182.5,219.5C 177.137,219.95 173.137,217.95 170.5,213.5C 171.26,211.64 172.26,209.973 173.5,208.5 Z"/></g>
<g><path style="opacity:0.831" fill="#20a6db" d="M 221.5,208.5 C 227.75,208.882 229.417,211.715 226.5,217C 214.828,222.102 213.162,219.269 221.5,208.5 Z"/></g>
<g><path style="opacity:0.075" fill="#dceece" d="M 344.5,209.5 C 344.5,209.833 344.5,210.167 344.5,210.5C 343.508,210.328 342.842,210.662 342.5,211.5C 341.833,211.5 341.167,211.5 340.5,211.5C 341.287,209.896 342.62,209.229 344.5,209.5 Z"/></g>
<g><path style="opacity:0.024" fill="#f8fefc" d="M 344.5,210.5 C 345.931,210.881 346.764,211.881 347,213.5C 347.831,248.669 347.664,283.669 346.5,318.5C 346.833,284.16 346.5,249.827 345.5,215.5C 344.893,215.624 344.56,215.957 344.5,216.5C 342.883,217.038 341.216,217.371 339.5,217.5C 339.167,218.5 338.5,219.167 337.5,219.5C 337.167,219.5 336.833,219.5 336.5,219.5C 337.562,218.425 337.562,217.425 336.5,216.5C 335.452,217.548 334.452,218.548 333.5,219.5C 332.624,219.631 331.957,219.298 331.5,218.5C 333.461,217.422 335.128,216.089 336.5,214.5C 337.492,214.672 338.158,214.338 338.5,213.5C 339.492,213.672 340.158,213.338 340.5,212.5C 341.492,212.672 342.158,212.338 342.5,211.5C 343.492,211.672 344.158,211.338 344.5,210.5 Z M 336.5,219.5 C 335.5,219.5 334.5,219.5 333.5,219.5C 334.452,218.548 335.452,217.548 336.5,216.5C 337.562,217.425 337.562,218.425 336.5,219.5 Z"/></g>
<g><path style="opacity:0.039" fill="#dbeece" d="M 340.5,211.5 C 340.5,211.833 340.5,212.167 340.5,212.5C 339.508,212.328 338.842,212.662 338.5,213.5C 337.833,213.5 337.167,213.5 336.5,213.5C 337.287,211.896 338.62,211.229 340.5,211.5 Z"/></g>
<g><path style="opacity:0.984" fill="#89c7cc" d="M 333.5,214.5 C 330.785,216.072 327.785,217.072 324.5,217.5C 324.804,216.85 325.137,216.183 325.5,215.5C 328.086,214.52 330.753,214.187 333.5,214.5 Z"/></g>
<g><path style="opacity:0.034" fill="#fefefe" d="M 145.5,219.5 C 145.5,220.833 145.5,222.167 145.5,223.5C 144.167,224.833 144.167,226.167 145.5,227.5C 145.5,228.167 145.5,228.833 145.5,229.5C 144.167,229.833 144.167,230.167 145.5,230.5C 145.5,246.833 145.5,263.167 145.5,279.5C 144.167,279.833 144.167,280.167 145.5,280.5C 145.5,283.167 145.5,285.833 145.5,288.5C 144.683,290.969 144.183,293.635 144,296.5C 142.978,295.646 142.145,294.646 141.5,293.5C 142.701,289.869 142.035,286.203 139.5,282.5C 141.001,279.516 142.001,276.349 142.5,273C 141.542,271.853 141.875,270.853 143.5,270C 141.406,267.366 141.073,264.533 142.5,261.5C 141.706,255.217 141.206,248.884 141,242.5C 140.296,240.273 139.129,239.94 137.5,241.5C 137.5,239.833 137.5,238.167 137.5,236.5C 138.688,237.684 139.855,237.684 141,236.5C 141.001,233.313 141.834,230.48 143.5,228C 138.967,223.78 139.634,220.947 145.5,219.5 Z"/></g>
<g><path style="opacity:0.042" fill="#fcfcf5" d="M 257.5,220.5 C 260.144,222.153 262.144,224.487 263.5,227.5C 265.409,226.652 267.409,226.318 269.5,226.5C 269.523,228.927 270.023,231.26 271,233.5C 271.483,232.552 271.649,231.552 271.5,230.5C 272.434,231.568 272.768,232.901 272.5,234.5C 272.833,234.5 273.167,234.5 273.5,234.5C 274.752,237.762 275.752,241.095 276.5,244.5C 276.281,245.675 276.614,246.675 277.5,247.5C 278.429,246.311 278.762,244.978 278.5,243.5C 279.222,243.918 279.722,244.584 280,245.5C 280.383,244.944 280.883,244.611 281.5,244.5C 281.5,246.833 281.5,249.167 281.5,251.5C 280.698,250.048 280.198,248.382 280,246.5C 279.667,248.5 279.333,250.5 279,252.5C 278.617,253.056 278.117,253.389 277.5,253.5C 277.833,254.833 278.167,256.167 278.5,257.5C 275.55,255.272 273.884,252.272 273.5,248.5C 274.833,248.167 274.833,247.833 273.5,247.5C 272.599,246.71 271.932,245.71 271.5,244.5C 271.567,243.041 271.234,241.708 270.5,240.5C 271.833,239.5 271.833,238.5 270.5,237.5C 270.5,236.833 270.167,236.5 269.5,236.5C 268.85,236.196 268.183,235.863 267.5,235.5C 266.526,237.743 266.192,240.076 266.5,242.5C 265.729,239.154 265.062,235.654 264.5,232C 264.645,231.228 264.978,230.561 265.5,230C 263.608,229.027 261.608,228.36 259.5,228C 258.167,227 258.167,226 259.5,225C 258.956,224.283 258.289,223.783 257.5,223.5C 257.5,222.5 257.5,221.5 257.5,220.5 Z"/></g>
<g><path style="opacity:0.31" fill="#cce7c4" d="M 290.5,208.5 C 289.771,212.686 288.438,216.686 286.5,220.5C 292.807,221.664 299.141,221.831 305.5,221C 310.792,219.84 316.125,219.007 321.5,218.5C 320.791,219.404 319.791,219.737 318.5,219.5C 318.649,220.552 318.483,221.552 318,222.5C 317.481,221.484 316.647,220.818 315.5,220.5C 309.571,221.823 303.571,222.49 297.5,222.5C 296.508,222.328 295.842,222.662 295.5,223.5C 293.5,223.5 291.5,223.5 289.5,223.5C 287.517,223.843 286.183,223.176 285.5,221.5C 286.204,216.71 287.871,212.377 290.5,208.5 Z"/></g>
<g><path style="opacity:0.004" fill="#fdfef9" d="M 323.5,219.5 C 325.337,219.639 325.67,220.306 324.5,221.5C 323.702,221.043 323.369,220.376 323.5,219.5 Z"/></g>
<g><path style="opacity:1" fill="#0f954a" d="M 344.5,216.5 C 345.498,251.329 345.832,286.329 345.5,321.5C 335.167,321.5 324.833,321.5 314.5,321.5C 314.471,299.312 314.637,276.978 315,254.5C 315.667,253.833 316.333,253.167 317,252.5C 317.198,254.382 317.698,256.048 318.5,257.5C 320.563,260.973 323.063,261.306 326,258.5C 326.39,250.486 326.89,242.486 327.5,234.5C 322.473,235.372 317.473,236.372 312.5,237.5C 312.5,233.833 312.5,230.167 312.5,226.5C 313.791,226.737 314.791,226.404 315.5,225.5C 318.877,225.932 321.877,225.265 324.5,223.5C 324.833,223.5 325.167,223.5 325.5,223.5C 329.915,223.139 333.915,221.806 337.5,219.5C 338.5,219.167 339.167,218.5 339.5,217.5C 341.216,217.371 342.883,217.038 344.5,216.5 Z"/></g>
<g><path style="opacity:0.006" fill="#fefefb" d="M 285.5,221.5 C 286.183,223.176 287.517,223.843 289.5,223.5C 289.369,224.239 289.536,224.906 290,225.5C 293.301,225.501 296.801,225.334 300.5,225C 298.753,224.648 297.086,224.148 295.5,223.5C 295.842,222.662 296.508,222.328 297.5,222.5C 299.969,223.317 302.635,223.817 305.5,224C 303.881,224.236 302.881,225.069 302.5,226.5C 296.833,226.5 291.167,226.5 285.5,226.5C 284.391,225.71 283.058,225.21 281.5,225C 282.657,223.471 283.991,222.304 285.5,221.5 Z M 289.5,223.5 C 291.5,223.5 293.5,223.5 295.5,223.5C 297.086,224.148 298.753,224.648 300.5,225C 296.801,225.334 293.301,225.501 290,225.5C 289.536,224.906 289.369,224.239 289.5,223.5 Z"/></g>
<g><path style="opacity:0.004" fill="#fefefb" d="M 311.5,222.5 C 314.001,222.511 314.168,223.178 312,224.5C 311.536,223.906 311.369,223.239 311.5,222.5 Z"/></g>
<g><path style="opacity:0.894" fill="#91caaa" d="M 333.5,219.5 C 334.5,219.5 335.5,219.5 336.5,219.5C 336.833,219.5 337.167,219.5 337.5,219.5C 333.915,221.806 329.915,223.139 325.5,223.5C 328.079,221.975 330.746,220.641 333.5,219.5 Z"/></g>
<g><path style="opacity:0.447" fill="#b8e3cd" d="M 324.5,223.5 C 321.877,225.265 318.877,225.932 315.5,225.5C 318.273,224.343 321.273,223.676 324.5,223.5 Z"/></g>
<g><path style="opacity:0.996" fill="#06673a" d="M 176.5,225.5 C 180.913,226.809 184.413,229.475 187,233.5C 187.5,239.825 187.666,246.158 187.5,252.5C 186.636,251.312 185.636,250.145 184.5,249C 178.167,248.667 171.833,248.333 165.5,248C 162.667,247.167 160.833,245.333 160,242.5C 156.896,228.437 162.396,222.771 176.5,225.5 Z"/></g>
<g><path style="opacity:0.995" fill="#068842" d="M 176.5,225.5 C 200.264,222.768 211.597,233.268 210.5,257C 214.422,273.078 208.422,279.078 192.5,275C 191.069,274.535 189.903,273.701 189,272.5C 187.58,265.95 187.08,259.284 187.5,252.5C 187.666,246.158 187.5,239.825 187,233.5C 184.413,229.475 180.913,226.809 176.5,225.5 Z"/></g>
<g><path style="opacity:0.298" fill="#cee7c7" d="M 271.5,200.5 C 271.303,211.892 271.97,223.225 273.5,234.5C 273.167,234.5 272.833,234.5 272.5,234.5C 272.768,232.901 272.434,231.568 271.5,230.5C 270.23,220.359 270.23,210.359 271.5,200.5 Z"/></g>
<g><path style="opacity:0.508" fill="#b9e5ce" d="M 315.5,225.5 C 314.791,226.404 313.791,226.737 312.5,226.5C 312.5,230.167 312.5,233.833 312.5,237.5C 311.833,237.5 311.167,237.5 310.5,237.5C 311.43,233.6 311.763,229.6 311.5,225.5C 312.833,225.5 314.167,225.5 315.5,225.5 Z"/></g>
<g><path style="opacity:0.89" fill="#bddec6" d="M 280.5,219.5 C 279.473,227.653 278.807,235.653 278.5,243.5C 278.762,244.978 278.429,246.311 277.5,247.5C 276.614,246.675 276.281,245.675 276.5,244.5C 277.328,238.347 277.828,232.013 278,225.5C 278.566,223.277 279.4,221.277 280.5,219.5 Z"/></g>
<g><path style="opacity:0.99" fill="#2a3944" d="M 146.5,180.5 C 146.833,180.5 147.167,180.5 147.5,180.5C 147.178,223.209 147.511,265.876 148.5,308.5C 146.896,307.713 146.229,306.38 146.5,304.5C 146.5,263.167 146.5,221.833 146.5,180.5 Z"/></g>
<g><path style="opacity:0.004" fill="#fefffe" d="M 126.5,239.5 C 127.622,241.288 127.789,243.288 127,245.5C 126.505,243.527 126.338,241.527 126.5,239.5 Z"/></g>
<g><path style="opacity:0.165" fill="#c9cfd2" d="M 304.5,247.5 C 304.5,247.167 304.5,246.833 304.5,246.5C 306.288,246.215 307.955,246.548 309.5,247.5C 309.145,248.522 308.478,249.189 307.5,249.5C 307.179,247.952 306.179,247.285 304.5,247.5 Z"/></g>
<g><path style="opacity:0.006" fill="#fdfdfe" d="M 304.5,247.5 C 305.895,248.648 305.728,249.648 304,250.5C 303.26,249.251 303.427,248.251 304.5,247.5 Z"/></g>
<g><path style="opacity:0.771" fill="#748087" d="M 136.5,120.5 C 137.492,120.328 138.158,120.662 138.5,121.5C 137.539,123.265 137.205,125.265 137.5,127.5C 138.792,163.542 138.792,199.875 137.5,236.5C 137.5,238.167 137.5,239.833 137.5,241.5C 138.26,264.179 138.26,287.012 137.5,310C 137.111,314.275 138.111,318.108 140.5,321.5C 138.589,321.426 137.422,320.426 137,318.5C 136.5,252.501 136.333,186.501 136.5,120.5 Z"/></g>
<g><path style="opacity:0.708" fill="#f8ebb1" d="M 269.5,236.5 C 270.167,236.5 270.5,236.833 270.5,237.5C 270.5,238.5 270.5,239.5 270.5,240.5C 271.234,241.708 271.567,243.041 271.5,244.5C 270.325,243.026 269.325,241.36 268.5,239.5C 267.501,250.814 267.168,262.147 267.5,273.5C 266.662,273.158 266.328,272.492 266.5,271.5C 265.857,261.594 265.857,251.927 266.5,242.5C 266.192,240.076 266.526,237.743 267.5,235.5C 268.183,235.863 268.85,236.196 269.5,236.5 Z"/></g>
<g><path style="opacity:1" fill="#f5be20" d="M 301.5,255.5 C 293.702,263.798 285.702,271.965 277.5,280C 273.136,279.638 269.803,277.472 267.5,273.5C 267.168,262.147 267.501,250.814 268.5,239.5C 269.325,241.36 270.325,243.026 271.5,244.5C 271.932,245.71 272.599,246.71 273.5,247.5C 273.5,247.833 273.5,248.167 273.5,248.5C 273.884,252.272 275.55,255.272 278.5,257.5C 279.389,259.736 280.722,261.736 282.5,263.5C 282.833,262.667 283.167,261.833 283.5,261C 282.083,250.094 282.583,239.261 285,228.5C 290.407,227.527 295.907,227.193 301.5,227.5C 301.5,236.833 301.5,246.167 301.5,255.5 Z M 281.5,251.5 C 281.664,254.187 281.497,256.854 281,259.5C 280.292,258.619 279.458,257.953 278.5,257.5C 278.167,256.167 277.833,254.833 277.5,253.5C 278.117,253.389 278.617,253.056 279,252.5C 279.333,250.5 279.667,248.5 280,246.5C 280.198,248.382 280.698,250.048 281.5,251.5 Z"/></g>
<g><path style="opacity:0.843" fill="#20a6db" d="M 180.5,252.5 C 181.586,252.62 182.253,253.287 182.5,254.5C 182.053,259.087 179.886,262.421 176,264.5C 171.391,263.285 170.058,260.618 172,256.5C 174.682,254.671 177.516,253.337 180.5,252.5 Z"/></g>
<g><path style="opacity:0.881" fill="#20a6db" d="M 216.5,252.5 C 219.526,253.174 222.526,254.007 225.5,255C 228.722,256.99 229.222,259.49 227,262.5C 222.805,265.547 219.805,264.547 218,259.5C 217.023,257.26 216.523,254.927 216.5,252.5 Z"/></g>
<g><path style="opacity:0.153" fill="#c3c9cc" d="M 233.5,255.5 C 234.559,257.07 234.059,258.403 232,259.5C 231.516,257.807 232.016,256.473 233.5,255.5 Z"/></g>
<g><path style="opacity:0.553" fill="#f5edbe" d="M 285.5,226.5 C 291.167,226.5 296.833,226.5 302.5,226.5C 302.5,230.167 302.5,233.833 302.5,237.5C 304.5,237.5 306.5,237.5 308.5,237.5C 303.554,238.595 302.221,241.595 304.5,246.5C 303.307,246.97 302.64,247.97 302.5,249.5C 302.667,250.5 302.833,251.5 303,252.5C 303.671,251.748 304.504,251.414 305.5,251.5C 304.5,253.167 303.167,254.5 301.5,255.5C 301.5,246.167 301.5,236.833 301.5,227.5C 295.907,227.193 290.407,227.527 285,228.5C 282.583,239.261 282.083,250.094 283.5,261C 283.167,261.833 282.833,262.667 282.5,263.5C 280.722,261.736 279.389,259.736 278.5,257.5C 279.458,257.953 280.292,258.619 281,259.5C 281.497,256.854 281.664,254.187 281.5,251.5C 281.5,249.167 281.5,246.833 281.5,244.5C 281.961,239.314 282.627,234.147 283.5,229C 283.684,227.624 284.351,226.791 285.5,226.5 Z"/></g>
<g><path style="opacity:0.024" fill="#d4d8da" d="M 310.5,257.5 C 309.833,260.167 308.167,261.833 305.5,262.5C 306.833,260.5 308.5,258.833 310.5,257.5 Z"/></g>
<g><path style="opacity:0.008" fill="#d1d7d9" d="M 258.5,265.5 C 260.749,266.08 262.415,267.413 263.5,269.5C 261.251,268.92 259.585,267.587 258.5,265.5 Z"/></g>
<g><path style="opacity:0.996" fill="#afb8bc" d="M 242.5,265.5 C 242.262,267.404 241.262,268.738 239.5,269.5C 239.738,267.596 240.738,266.262 242.5,265.5 Z"/></g>
<g><path style="opacity:0.035" fill="#e1e4e6" d="M 303.5,264.5 C 303.167,266.833 301.833,268.167 299.5,268.5C 300.5,266.833 301.833,265.5 303.5,264.5 Z"/></g>
<g><path style="opacity:0.071" fill="#d1d7d9" d="M 249.5,269.5 C 249.573,271.027 248.906,272.027 247.5,272.5C 247.427,270.973 248.094,269.973 249.5,269.5 Z"/></g>
<g><path style="opacity:0.012" fill="#e5e9eb" d="M 250.5,269.5 C 251.5,269.833 252.167,270.5 252.5,271.5C 251.167,271.5 250.5,270.833 250.5,269.5 Z"/></g>
<g><path style="opacity:0.058" fill="#cce5d8" d="M 298.5,269.5 C 299.531,270.249 300.698,270.915 302,271.5C 302.5,288.497 302.667,305.497 302.5,322.5C 302.167,322.5 301.833,322.5 301.5,322.5C 301.667,306.163 301.5,289.83 301,273.5C 300.283,274.044 299.783,274.711 299.5,275.5C 298.833,275.5 298.5,275.833 298.5,276.5C 298.167,276.5 297.833,276.5 297.5,276.5C 297.5,274.5 296.5,273.5 294.5,273.5C 295.5,271.833 296.833,270.5 298.5,269.5 Z"/></g>
<g><path style="opacity:0.129" fill="#ebfcf7" d="M 312.5,255.5 C 312.5,277.833 312.5,300.167 312.5,322.5C 312.167,322.5 311.833,322.5 311.5,322.5C 311.831,300.66 311.497,278.994 310.5,257.5C 310.833,256.5 311.5,255.833 312.5,255.5 Z"/></g>
<g><path style="opacity:0.847" fill="#b3bec0" d="M 239.5,269.5 C 239.573,271.027 238.906,272.027 237.5,272.5C 237.427,270.973 238.094,269.973 239.5,269.5 Z"/></g>
<g><path style="opacity:0.021" fill="#dcebe3" d="M 252.5,271.5 C 255.089,272.419 257.089,274.086 258.5,276.5C 257.504,276.586 256.671,276.252 256,275.5C 255.616,277.197 255.782,278.863 256.5,280.5C 254.246,279.585 252.246,278.252 250.5,276.5C 248.159,279.198 245.826,281.865 243.5,284.5C 243.84,282.321 244.84,280.488 246.5,279C 245.944,278.617 245.611,278.117 245.5,277.5C 247.912,277.306 248.912,275.973 248.5,273.5C 250.124,273.36 251.29,274.027 252,275.5C 252.49,274.207 252.657,272.873 252.5,271.5 Z"/></g>
<g><path style="opacity:1" fill="#949da2" d="M 237.5,272.5 C 237.262,274.404 236.262,275.738 234.5,276.5C 234.738,274.596 235.738,273.262 237.5,272.5 Z"/></g>
<g><path style="opacity:0.004" fill="#fcfefb" d="M 212.5,275.5 C 215.001,275.511 215.168,276.178 213,277.5C 212.536,276.906 212.369,276.239 212.5,275.5 Z"/></g>
<g><path style="opacity:0.969" fill="#9ea7ac" d="M 258.5,276.5 C 261.427,277.757 263.761,279.757 265.5,282.5C 262.573,281.243 260.239,279.243 258.5,276.5 Z"/></g>
<g><path style="opacity:0.997" fill="#1b2c3f" d="M 227.5,280.5 C 228.391,281.11 229.391,281.443 230.5,281.5C 232.167,280.5 233.5,279.167 234.5,277.5C 235.923,279.545 237.923,280.545 240.5,280.5C 240.5,280.833 240.5,281.167 240.5,281.5C 238.078,285.344 235.411,289.01 232.5,292.5C 230.315,292.296 228.315,291.63 226.5,290.5C 225.415,288.413 223.749,287.08 221.5,286.5C 219.833,287.5 218.5,288.833 217.5,290.5C 215.833,291.833 214.167,293.167 212.5,294.5C 209.911,295.419 207.911,297.086 206.5,299.5C 205.167,301.5 203.5,303.167 201.5,304.5C 199.251,305.08 197.585,306.413 196.5,308.5C 193.5,312.167 190.167,315.5 186.5,318.5C 184.596,318.738 183.262,319.738 182.5,321.5C 183.919,322.451 185.585,322.784 187.5,322.5C 187.833,322.5 188.167,322.5 188.5,322.5C 188.5,322.833 188.5,323.167 188.5,323.5C 185.833,323.5 183.167,323.5 180.5,323.5C 180.214,321.723 179.547,320.056 178.5,318.5C 178.722,316.945 179.389,315.611 180.5,314.5C 180.376,313.893 180.043,313.56 179.5,313.5C 171.648,313.825 163.982,313.492 156.5,312.5C 163.175,312.666 169.842,312.5 176.5,312C 179.053,311.6 181.719,310.767 184.5,309.5C 184.351,310.552 184.517,311.552 185,312.5C 186.113,311.24 186.28,310.073 185.5,309C 186.571,308.148 187.571,307.315 188.5,306.5C 190.833,303.833 193.167,301.167 195.5,298.5C 199.1,296.57 202.1,293.903 204.5,290.5C 210.429,286.076 215.929,281.076 221,275.5C 222.777,277.79 224.944,279.457 227.5,280.5 Z M 221.5,286.5 C 222.5,287.833 223.5,289.167 224.5,290.5C 222.983,290.489 221.816,289.823 221,288.5C 220.184,289.823 219.017,290.489 217.5,290.5C 218.5,288.833 219.833,287.5 221.5,286.5 Z"/></g>
<g><path style="opacity:0.055" fill="#d7ddde" d="M 247.5,272.5 C 246.833,274.167 246.167,275.833 245.5,277.5C 243.833,278.833 242.167,280.167 240.5,281.5C 240.5,281.167 240.5,280.833 240.5,280.5C 242.372,277.418 244.705,274.751 247.5,272.5 Z"/></g>
<g><path style="opacity:1" fill="#0f974c" d="M 299.5,275.5 C 300.496,290.658 300.83,305.991 300.5,321.5C 289.833,321.5 279.167,321.5 268.5,321.5C 268.26,313.125 268.593,304.792 269.5,296.5C 272.049,296.387 274.382,297.054 276.5,298.5C 277.107,298.376 277.44,298.043 277.5,297.5C 277.5,297.167 277.5,296.833 277.5,296.5C 285.111,290.557 292.111,283.891 298.5,276.5C 298.5,275.833 298.833,275.5 299.5,275.5 Z"/></g>
<g><path style="opacity:1" fill="#12974d" d="M 256.5,280.5 C 256.5,294.5 256.5,308.5 256.5,322.5C 245.167,322.5 233.833,322.5 222.5,322.5C 222.334,313.161 222.5,303.827 223,294.5C 223.816,295.823 224.983,296.489 226.5,296.5C 227.649,299.153 229.649,300.32 232.5,300C 234.415,297.6 236.081,295.1 237.5,292.5C 240.471,290.557 242.471,287.891 243.5,284.5C 245.826,281.865 248.159,279.198 250.5,276.5C 252.246,278.252 254.246,279.585 256.5,280.5 Z"/></g>
<g><path style="opacity:0.004" fill="#fefffe" d="M 126.5,279.5 C 127.573,280.251 127.74,281.251 127,282.5C 126.517,281.552 126.351,280.552 126.5,279.5 Z"/></g>
<g><path style="opacity:0.529" fill="#a9b2b7" d="M 234.5,276.5 C 234.5,276.833 234.5,277.167 234.5,277.5C 233.5,279.167 232.167,280.5 230.5,281.5C 231.08,279.251 232.413,277.585 234.5,276.5 Z"/></g>
<g><path style="opacity:0.847" fill="#99a2a7" d="M 227.5,280.5 C 224.944,279.457 222.777,277.79 221,275.5C 215.929,281.076 210.429,286.076 204.5,290.5C 209.221,285.276 214.221,280.109 219.5,275C 223.022,275.32 225.689,277.153 227.5,280.5 Z"/></g>
<g><path style="opacity:1" fill="#838e94" d="M 265.5,282.5 C 267.749,283.08 269.415,284.413 270.5,286.5C 270.167,286.5 269.833,286.5 269.5,286.5C 267.833,285.5 266.5,284.167 265.5,282.5 Z"/></g>
<g><path style="opacity:1" fill="#288f56" d="M 344.5,216.5 C 344.56,215.957 344.893,215.624 345.5,215.5C 346.5,249.827 346.833,284.16 346.5,318.5C 346.5,319.833 346.5,321.167 346.5,322.5C 346.5,322.833 346.5,323.167 346.5,323.5C 334.988,323.828 323.654,323.495 312.5,322.5C 312.5,300.167 312.5,277.833 312.5,255.5C 314.127,253.37 315.96,251.37 318,249.5C 318.497,252.146 318.664,254.813 318.5,257.5C 317.698,256.048 317.198,254.382 317,252.5C 316.333,253.167 315.667,253.833 315,254.5C 314.637,276.978 314.471,299.312 314.5,321.5C 324.833,321.5 335.167,321.5 345.5,321.5C 345.832,286.329 345.498,251.329 344.5,216.5 Z"/></g>
<g><path style="opacity:0.945" fill="#a7afb4" d="M 221.5,286.5 C 223.749,287.08 225.415,288.413 226.5,290.5C 225.833,290.5 225.167,290.5 224.5,290.5C 223.5,289.167 222.5,287.833 221.5,286.5 Z"/></g>
<g><path style="opacity:0.859" fill="#96cdaf" d="M 243.5,284.5 C 242.471,287.891 240.471,290.557 237.5,292.5C 239.016,289.467 241.016,286.8 243.5,284.5 Z"/></g>
<g><path style="opacity:0.09" fill="#edf2f0" d="M 269.5,286.5 C 269.833,286.5 270.167,286.5 270.5,286.5C 271.833,287.167 272.833,288.167 273.5,289.5C 274.708,290.234 276.041,290.567 277.5,290.5C 277.804,291.15 278.137,291.817 278.5,292.5C 276.955,293.452 275.288,293.785 273.5,293.5C 273.167,292.167 272.833,292.167 272.5,293.5C 270.938,293.267 269.605,292.6 268.5,291.5C 268.158,290.662 267.492,290.328 266.5,290.5C 267.5,289.167 268.5,287.833 269.5,286.5 Z"/></g>
<g><path style="opacity:0.906" fill="#7ebf9b" d="M 297.5,276.5 C 297.833,276.5 298.167,276.5 298.5,276.5C 292.111,283.891 285.111,290.557 277.5,296.5C 283.833,289.5 290.5,282.833 297.5,276.5 Z"/></g>
<g><path style="opacity:0.03" fill="#fdfefc" d="M 224.5,290.5 C 223.89,291.391 223.557,292.391 223.5,293.5C 222.833,293.5 222.167,293.5 221.5,293.5C 220.687,292.347 219.687,292.347 218.5,293.5C 217.614,292.675 217.281,291.675 217.5,290.5C 219.017,290.489 220.184,289.823 221,288.5C 221.816,289.823 222.983,290.489 224.5,290.5 Z"/></g>
<g><path style="opacity:0.761" fill="#a0a8ac" d="M 226.5,290.5 C 228.315,291.63 230.315,292.296 232.5,292.5C 229.999,294.823 227.999,294.156 226.5,290.5 Z"/></g>
<g><path style="opacity:0.961" fill="#89949a" d="M 204.5,290.5 C 202.1,293.903 199.1,296.57 195.5,298.5C 197.9,295.097 200.9,292.43 204.5,290.5 Z"/></g>
<g><path style="opacity:0.095" fill="#f5fcf8" d="M 212.5,295.5 C 215.516,295.611 216.349,296.611 215,298.5C 214.829,305.679 214.329,312.679 213.5,319.5C 213.83,313.132 213.496,306.798 212.5,300.5C 211.893,300.624 211.56,300.957 211.5,301.5C 210.167,302.5 208.833,303.5 207.5,304.5C 208.167,302.5 208.833,300.5 209.5,298.5C 210.167,298.5 210.5,298.167 210.5,297.5C 211.167,297.5 211.5,297.167 211.5,296.5C 212.167,296.5 212.5,296.167 212.5,295.5 Z"/></g>
<g><path style="opacity:0.005" fill="#fefefc" d="M 143.5,298.5 C 144.622,300.288 144.789,302.288 144,304.5C 140.898,302.663 140.731,300.663 143.5,298.5 Z"/></g>
<g><path style="opacity:0.047" fill="#cfd4d7" d="M 212.5,294.5 C 212.5,294.833 212.5,295.167 212.5,295.5C 211.833,295.5 211.5,295.833 211.5,296.5C 210.833,296.5 210.5,296.833 210.5,297.5C 209.833,297.5 209.5,297.833 209.5,298.5C 208.609,299.11 207.609,299.443 206.5,299.5C 207.911,297.086 209.911,295.419 212.5,294.5 Z"/></g>
<g><path style="opacity:0.62" fill="#b9e1cc" d="M 237.5,292.5 C 236.081,295.1 234.415,297.6 232.5,300C 229.649,300.32 227.649,299.153 226.5,296.5C 228.229,297.117 229.729,298.117 231,299.5C 232.666,296.669 234.832,294.336 237.5,292.5 Z"/></g>
<g><path style="opacity:0.314" fill="#ade1c6" d="M 266.5,290.5 C 267.492,290.328 268.158,290.662 268.5,291.5C 267.506,301.653 267.172,311.986 267.5,322.5C 267.167,322.5 266.833,322.5 266.5,322.5C 266.5,311.833 266.5,301.167 266.5,290.5 Z"/></g>
<g><path style="opacity:0.005" fill="#fefffe" d="M 216.5,301.5 C 218.337,301.639 218.67,302.306 217.5,303.5C 216.702,303.043 216.369,302.376 216.5,301.5 Z"/></g>
<g><path style="opacity:0.006" fill="#fefefd" d="M 217.5,304.5 C 219.233,305.008 219.566,305.841 218.5,307C 221.396,310.105 220.729,311.438 216.5,311C 216.488,309.025 216.822,306.858 217.5,304.5 Z"/></g>
<g><path style="opacity:0.455" fill="#b2babe" d="M 155.5,181.5 C 154.542,193.116 154.209,204.783 154.5,216.5C 154.5,216.833 154.5,217.167 154.5,217.5C 153.87,228.59 154.537,239.423 156.5,250C 155.193,255.254 154.526,260.754 154.5,266.5C 154.551,278.744 155.051,291.077 156,303.5C 156.5,304 157,304.5 157.5,305C 167.5,305.667 177.5,305.667 187.5,305C 189.771,302.218 192.437,300.051 195.5,298.5C 193.167,301.167 190.833,303.833 188.5,306.5C 177.828,306.667 167.161,306.5 156.5,306C 155.667,305.167 154.833,304.333 154,303.5C 153.333,263.167 153.333,222.833 154,182.5C 154.383,181.944 154.883,181.611 155.5,181.5 Z"/></g>
<g><path style="opacity:1" fill="#159852" d="M 211.5,301.5 C 212.491,308.313 212.825,315.313 212.5,322.5C 204.833,322.5 197.167,322.5 189.5,322.5C 194.306,317.272 199.306,312.272 204.5,307.5C 205.167,306.167 206.167,305.167 207.5,304.5C 208.833,303.5 210.167,302.5 211.5,301.5 Z"/></g>
<g><path style="opacity:0.894" fill="#7bbc98" d="M 211.5,301.5 C 211.56,300.957 211.893,300.624 212.5,300.5C 213.496,306.798 213.83,313.132 213.5,319.5C 213.5,320.5 213.5,321.5 213.5,322.5C 213.167,322.5 212.833,322.5 212.5,322.5C 212.825,315.313 212.491,308.313 211.5,301.5 Z"/></g>
<g><path style="opacity:0.576" fill="#addfc4" d="M 221.5,293.5 C 222.167,293.5 222.833,293.5 223.5,293.5C 224.833,294.167 225.833,295.167 226.5,296.5C 224.983,296.489 223.816,295.823 223,294.5C 222.5,303.827 222.334,313.161 222.5,322.5C 222.167,322.5 221.833,322.5 221.5,322.5C 221.5,312.833 221.5,303.167 221.5,293.5 Z"/></g>
<g><path style="opacity:0.051" fill="#c9ced1" d="M 201.5,304.5 C 200.415,306.587 198.749,307.92 196.5,308.5C 197.585,306.413 199.251,305.08 201.5,304.5 Z"/></g>
<g><path style="opacity:0.945" fill="#869097" d="M 367.5,314.5 C 364.796,313.286 362.129,313.286 359.5,314.5C 361.981,310.629 364.648,310.629 367.5,314.5 Z"/></g>
<g><path style="opacity:0.82" fill="#a4d6bb" d="M 204.5,307.5 C 199.306,312.272 194.306,317.272 189.5,322.5C 189.167,322.5 188.833,322.5 188.5,322.5C 188.167,322.5 187.833,322.5 187.5,322.5C 192.271,316.39 197.938,311.39 204.5,307.5 Z"/></g>
<g><path style="opacity:0.714" fill="#9ba4a9" d="M 367.5,314.5 C 369.23,315.026 370.564,316.026 371.5,317.5C 369.368,317.446 368.035,316.446 367.5,314.5 Z"/></g>
<g><path style="opacity:0.996" fill="#299459" d="M 301.5,322.5 C 290.167,322.5 278.833,322.5 267.5,322.5C 267.172,311.986 267.506,301.653 268.5,291.5C 269.605,292.6 270.938,293.267 272.5,293.5C 272.833,293.5 273.167,293.5 273.5,293.5C 274.5,295.167 275.833,296.5 277.5,297.5C 277.44,298.043 277.107,298.376 276.5,298.5C 274.382,297.054 272.049,296.387 269.5,296.5C 268.593,304.792 268.26,313.125 268.5,321.5C 279.167,321.5 289.833,321.5 300.5,321.5C 300.83,305.991 300.496,290.658 299.5,275.5C 299.783,274.711 300.283,274.044 301,273.5C 301.5,289.83 301.667,306.163 301.5,322.5 Z"/></g>
<g><path style="opacity:0.784" fill="#8c969d" d="M 150.5,310.5 C 152.315,311.63 154.315,312.296 156.5,312.5C 163.982,313.492 171.648,313.825 179.5,313.5C 176.704,316.797 173.704,319.964 170.5,323C 160.833,323.667 151.167,323.667 141.5,323C 140.944,322.617 140.611,322.117 140.5,321.5C 145.191,322.084 149.858,322.417 154.5,322.5C 156.833,322.5 159.167,322.5 161.5,322.5C 164.187,322.664 166.854,322.497 169.5,322C 171.5,320 173.5,318 175.5,316C 168.941,314.745 162.274,314.078 155.5,314C 153.119,313.777 151.453,312.61 150.5,310.5 Z"/></g>
<g><path style="opacity:1" fill="#437e63" d="M 256.5,280.5 C 257.496,294.323 257.829,308.323 257.5,322.5C 260.5,322.5 263.5,322.5 266.5,322.5C 266.833,322.5 267.167,322.5 267.5,322.5C 278.833,322.5 290.167,322.5 301.5,322.5C 264.004,323.498 226.337,323.832 188.5,323.5C 188.5,323.167 188.5,322.833 188.5,322.5C 188.833,322.5 189.167,322.5 189.5,322.5C 197.167,322.5 204.833,322.5 212.5,322.5C 212.833,322.5 213.167,322.5 213.5,322.5C 216.339,322.031 219.005,322.031 221.5,322.5C 221.833,322.5 222.167,322.5 222.5,322.5C 233.833,322.5 245.167,322.5 256.5,322.5C 256.5,308.5 256.5,294.5 256.5,280.5 Z"/></g>
<g><path style="opacity:0.997" fill="#0c2234" d="M 130.5,120.5 C 131.499,185.998 131.832,251.665 131.5,317.5C 132.833,317.5 134.167,317.5 135.5,317.5C 135.168,251.665 135.501,185.998 136.5,120.5C 136.333,186.501 136.5,252.501 137,318.5C 137.422,320.426 138.589,321.426 140.5,321.5C 140.611,322.117 140.944,322.617 141.5,323C 151.167,323.667 160.833,323.667 170.5,323C 173.704,319.964 176.704,316.797 179.5,313.5C 180.043,313.56 180.376,313.893 180.5,314.5C 179.389,315.611 178.722,316.945 178.5,318.5C 179.547,320.056 180.214,321.723 180.5,323.5C 183.167,323.5 185.833,323.5 188.5,323.5C 226.337,323.832 264.004,323.498 301.5,322.5C 301.833,322.5 302.167,322.5 302.5,322.5C 305.5,322.5 308.5,322.5 311.5,322.5C 311.833,322.5 312.167,322.5 312.5,322.5C 323.654,323.495 334.988,323.828 346.5,323.5C 352.842,323.666 359.175,323.5 365.5,323C 364.756,321.961 363.756,321.461 362.5,321.5C 360.589,321.426 359.422,320.426 359,318.5C 358.235,316.934 358.402,315.601 359.5,314.5C 362.129,313.286 364.796,313.286 367.5,314.5C 368.035,316.446 369.368,317.446 371.5,317.5C 374.473,319.147 377.14,321.147 379.5,323.5C 379.937,325.074 380.937,326.241 382.5,327C 381.619,327.708 380.953,328.542 380.5,329.5C 378.596,329.738 377.262,330.738 376.5,332.5C 374.973,332.427 373.973,333.094 373.5,334.5C 371.973,334.427 370.973,335.094 370.5,336.5C 370.167,337.5 369.5,338.167 368.5,338.5C 366.973,338.427 365.973,339.094 365.5,340.5C 363.435,340.483 361.435,340.15 359.5,339.5C 359.5,339.167 359.5,338.833 359.5,338.5C 360.126,335.362 361.792,332.862 364.5,331C 288.816,330.818 213.149,330.318 137.5,329.5C 136.167,327.5 134.5,325.833 132.5,324.5C 132.108,322.821 131.608,321.154 131,319.5C 130.5,253.168 130.333,186.834 130.5,120.5 Z"/></g>
<g><path style="opacity:0.633" fill="#5d6b74" d="M 362.5,321.5 C 363.756,321.461 364.756,321.961 365.5,323C 359.175,323.5 352.842,323.666 346.5,323.5C 346.5,323.167 346.5,322.833 346.5,322.5C 352.026,322.821 357.36,322.488 362.5,321.5 Z"/></g>
<g><path style="opacity:0.027" fill="#d6dadc" d="M 186.5,318.5 C 185.738,320.262 184.404,321.262 182.5,321.5C 183.262,319.738 184.596,318.738 186.5,318.5 Z"/></g>
<g><path style="opacity:0.017" fill="#fefffe" d="M 161.5,322.5 C 159.167,322.5 156.833,322.5 154.5,322.5C 153.321,320.493 153.821,320.16 156,321.5C 158.243,319.718 160.743,319.218 163.5,320C 161.065,320.075 160.398,320.908 161.5,322.5 Z"/></g>
<g><path style="opacity:0.024" fill="#ccd2d5" d="M 132.5,324.5 C 134.5,325.833 136.167,327.5 137.5,329.5C 134.833,328.833 133.167,327.167 132.5,324.5 Z"/></g>
<g><path style="opacity:0.004" fill="#c3c9cc" d="M 379.5,323.5 C 384.204,325.202 384.537,327.202 380.5,329.5C 380.953,328.542 381.619,327.708 382.5,327C 380.937,326.241 379.937,325.074 379.5,323.5 Z"/></g>
<g><path style="opacity:0.104" fill="#c3cdd0" d="M 137.5,329.5 C 213.149,330.318 288.816,330.818 364.5,331C 361.792,332.862 360.126,335.362 359.5,338.5C 358.566,337.432 358.232,336.099 358.5,334.5C 359.627,333.878 360.627,333.045 361.5,332C 288.167,331.667 214.833,331.333 141.5,331C 139.942,330.79 138.609,330.29 137.5,329.5 Z"/></g>
<g><path style="opacity:0.004" fill="#fefffe" d="M 380.5,330.5 C 381.833,331.167 381.833,331.167 380.5,330.5 Z"/></g>
<g><path style="opacity:0.011" fill="#ebeeef" d="M 380.5,329.5 C 380.5,329.833 380.5,330.167 380.5,330.5C 379.167,330.833 379.167,331.167 380.5,331.5C 379.626,336.12 378.293,336.453 376.5,332.5C 377.262,330.738 378.596,329.738 380.5,329.5 Z"/></g>
<g><path style="opacity:0.004" fill="#fcfefb" d="M 183.5,333.5 C 183.897,332.475 184.563,332.308 185.5,333C 184.906,333.464 184.239,333.631 183.5,333.5 Z"/></g>
<g><path style="opacity:0.004" fill="#fcfefb" d="M 197.5,332.5 C 198.833,333.167 198.833,333.167 197.5,332.5 Z"/></g>
<g><path style="opacity:0.004" fill="#fefefd" d="M 358.5,334.5 C 357.637,335.463 356.97,335.463 356.5,334.5C 357.257,333.227 357.923,333.227 358.5,334.5 Z"/></g>
<g><path style="opacity:0.035" fill="#dee1e3" d="M 376.5,332.5 C 376.027,333.906 375.027,334.573 373.5,334.5C 373.973,333.094 374.973,332.427 376.5,332.5 Z"/></g>
<g><path style="opacity:0.176" fill="#b7c0c4" d="M 373.5,334.5 C 373.027,335.906 372.027,336.573 370.5,336.5C 370.973,335.094 371.973,334.427 373.5,334.5 Z"/></g>
<g><path style="opacity:0.012" fill="#d9dfe2" d="M 368.5,338.5 C 368.027,339.906 367.027,340.573 365.5,340.5C 365.973,339.094 366.973,338.427 368.5,338.5 Z"/></g>
<g><path style="opacity:0.008" fill="#fefffe" d="M 371.5,340.5 C 372.525,340.897 372.692,341.563 372,342.5C 371.536,341.906 371.369,341.239 371.5,340.5 Z"/></g>
<g><path style="opacity:0.044" fill="#d8dbdd" d="M 359.5,339.5 C 361.435,340.15 363.435,340.483 365.5,340.5C 364.104,344.636 362.104,344.303 359.5,339.5 Z"/></g>
<g><path style="opacity:0.004" fill="#fefffe" d="M 368.5,342.5 C 369.833,343.167 369.833,343.167 368.5,342.5 Z"/></g>
<g><path style="opacity:0.946" fill="#0c9649" d="M 109.5,369.5 C 126.5,369.5 143.5,369.5 160.5,369.5C 160.5,372.833 160.5,376.167 160.5,379.5C 147.167,379.5 133.833,379.5 120.5,379.5C 120.5,385.833 120.5,392.167 120.5,398.5C 131.833,398.5 143.167,398.5 154.5,398.5C 154.5,402.167 154.5,405.833 154.5,409.5C 143.252,409.821 132.085,409.487 121,408.5C 120.5,414.825 120.334,421.158 120.5,427.5C 133.833,427.5 147.167,427.5 160.5,427.5C 160.5,431.167 160.5,434.833 160.5,438.5C 143.5,438.5 126.5,438.5 109.5,438.5C 109.5,415.5 109.5,392.5 109.5,369.5 Z"/></g>
<g><path style="opacity:0.94" fill="#0b2138" d="M 212.5,369.5 C 227.504,369.333 242.504,369.5 257.5,370C 262.867,372.032 266.033,375.865 267,381.5C 267.667,387.833 267.667,394.167 267,400.5C 266.043,406.127 262.876,409.96 257.5,412C 246.172,412.5 234.838,412.667 223.5,412.5C 223.5,421.167 223.5,429.833 223.5,438.5C 219.833,438.5 216.167,438.5 212.5,438.5C 212.5,415.5 212.5,392.5 212.5,369.5 Z M 223.5,379.5 C 233.172,379.334 242.839,379.5 252.5,380C 253.931,380.465 255.097,381.299 256,382.5C 256.667,388.167 256.667,393.833 256,399.5C 255.097,400.701 253.931,401.535 252.5,402C 242.839,402.5 233.172,402.666 223.5,402.5C 223.5,394.833 223.5,387.167 223.5,379.5 Z"/></g>
<g><path style="opacity:0.973" fill="#0b2138" d="M 280.5,369.5 C 283.833,369.5 287.167,369.5 290.5,369.5C 290.334,379.172 290.5,388.839 291,398.5C 301.141,389.028 311.307,379.528 321.5,370C 326.5,369.333 331.5,369.333 336.5,370C 324.5,381 312.5,392 300.5,403C 313.167,414.667 325.833,426.333 338.5,438C 333.5,438.667 328.5,438.667 323.5,438C 312.966,427.797 302.132,417.964 291,408.5C 290.5,418.494 290.334,428.494 290.5,438.5C 287.167,438.5 283.833,438.5 280.5,438.5C 280.5,415.5 280.5,392.5 280.5,369.5 Z"/></g>
<g><path style="opacity:0.963" fill="#0b2138" d="M 346.5,369.5 C 361.17,369.333 375.837,369.5 390.5,370C 395.235,371.068 398.402,373.901 400,378.5C 402.495,388.432 401.828,398.098 398,407.5C 396.269,409.617 394.102,411.117 391.5,412C 380.172,412.5 368.838,412.667 357.5,412.5C 357.5,421.167 357.5,429.833 357.5,438.5C 353.833,438.5 350.167,438.5 346.5,438.5C 346.5,415.5 346.5,392.5 346.5,369.5 Z M 357.5,379.5 C 367.172,379.334 376.839,379.5 386.5,380C 387.931,380.465 389.097,381.299 390,382.5C 390.667,388.167 390.667,393.833 390,399.5C 389.097,400.701 387.931,401.535 386.5,402C 376.839,402.5 367.172,402.666 357.5,402.5C 357.5,394.833 357.5,387.167 357.5,379.5 Z"/></g>
<g><path style="opacity:0.944" fill="#0c2139" d="M 173.5,405.5 C 181.167,405.5 188.833,405.5 196.5,405.5C 196.5,408.833 196.5,412.167 196.5,415.5C 188.833,415.5 181.167,415.5 173.5,415.5C 173.5,412.167 173.5,408.833 173.5,405.5 Z"/></g>
</svg>
