<?xml version="1.0" encoding="UTF-8"?>
<!DOCTYPE svg PUBLIC "-//W3C//DTD SVG 1.1//EN" "http://www.w3.org/Graphics/SVG/1.1/DTD/svg11.dtd">
<svg xmlns="http://www.w3.org/2000/svg" version="1.1" width="222px" height="227px" style="shape-rendering:geometricPrecision; text-rendering:geometricPrecision; image-rendering:optimizeQuality; fill-rule:evenodd; clip-rule:evenodd" xmlns:xlink="http://www.w3.org/1999/xlink">
<g><path style="opacity:1" fill="#fefefe" d="M -0.5,-0.5 C 73.5,-0.5 147.5,-0.5 221.5,-0.5C 221.5,75.1667 221.5,150.833 221.5,226.5C 147.5,226.5 73.5,226.5 -0.5,226.5C -0.5,150.833 -0.5,75.1667 -0.5,-0.5 Z"/></g>
<g><path style="opacity:1" fill="#12b9ac" d="M 88.5,87.5 C 87.5043,74.0102 87.171,60.3435 87.5,46.5C 90.3504,33.5654 98.3504,28.3987 111.5,31C 120.748,34.2431 125.248,40.7431 125,50.5C 112.631,62.7015 100.465,75.0349 88.5,87.5 Z"/></g>
<g><path style="opacity:1" fill="#cedc2b" d="M 136.5,46.5 C 153.886,46.9245 160.386,55.5911 156,72.5C 150.866,78.6353 145.366,84.4687 139.5,90C 135.514,90.4988 131.514,90.6655 127.5,90.5C 127.333,77.4957 127.5,64.4957 128,51.5C 130.682,49.415 133.516,47.7483 136.5,46.5 Z"/></g>
<g><path style="opacity:1" fill="#a0e0da" d="M 87.5,46.5 C 87.171,60.3435 87.5043,74.0102 88.5,87.5C 88.44,88.0431 88.1067,88.3764 87.5,88.5C 86.1743,74.339 86.1743,60.339 87.5,46.5 Z"/></g>
<g><path style="opacity:1" fill="#cedc2c" d="M 124.5,89.5 C 113.321,89.8279 102.321,89.4946 91.5,88.5C 102.131,77.3682 112.965,66.3682 124,55.5C 124.5,66.8284 124.667,78.1618 124.5,89.5 Z"/></g>
<g><path style="opacity:1" fill="#18baad" d="M 60.5,71.5 C 68.5,71.5 76.5,71.5 84.5,71.5C 84.5,84.5 84.5,97.5 84.5,110.5C 76.4931,110.666 68.4931,110.5 60.5,110C 48.0299,105.269 43.5299,96.4358 47,83.5C 49.85,77.5144 54.35,73.5144 60.5,71.5 Z"/></g>
<g><path style="opacity:1" fill="#dee875" d="M 91.5,88.5 C 102.321,89.4946 113.321,89.8279 124.5,89.5C 113.326,90.824 101.993,90.824 90.5,89.5C 90.6236,88.8933 90.9569,88.56 91.5,88.5 Z"/></g>
<g><path style="opacity:1" fill="#a3e1db" d="M 88.5,95.5 C 87.5042,109.323 87.1709,123.323 87.5,137.5C 86.1741,123.328 86.1741,108.994 87.5,94.5C 88.1067,94.6236 88.44,94.9569 88.5,95.5 Z"/></g>
<g><path style="opacity:1" fill="#cedc2b" d="M 90.5,94.5 C 101.654,93.5052 112.988,93.1719 124.5,93.5C 124.667,104.838 124.5,116.172 124,127.5C 112.965,116.298 101.798,105.298 90.5,94.5 Z"/></g>
<g><path style="opacity:1" fill="#cedc28" d="M 127.5,93.5 C 131.514,93.3345 135.514,93.5012 139.5,94C 145.742,99.5714 151.242,105.738 156,112.5C 158.676,126.498 153.009,134.498 139,136.5C 134.841,135.921 131.175,134.254 128,131.5C 127.5,118.838 127.333,106.171 127.5,93.5 Z"/></g>
<g><path style="opacity:1" fill="#12b9ac" d="M 88.5,95.5 C 100.2,107.866 112.2,119.866 124.5,131.5C 125.033,143.974 119.033,150.974 106.5,152.5C 96.3159,152.311 89.9825,147.311 87.5,137.5C 87.1709,123.323 87.5042,109.323 88.5,95.5 Z"/></g>
<g><path style="opacity:1" fill="#312f33" d="M 82.5,161.5 C 85.5184,161.335 88.5184,161.502 91.5,162C 94.5124,164.221 95.1791,167.054 93.5,170.5C 91.4902,172.171 89.1569,172.838 86.5,172.5C 86.5,174.5 86.5,176.5 86.5,178.5C 85.1667,178.5 83.8333,178.5 82.5,178.5C 82.5,172.833 82.5,167.167 82.5,161.5 Z"/></g>
<g><path style="opacity:1" fill="#323135" d="M 97.5,161.5 C 100.518,161.335 103.518,161.502 106.5,162C 110.485,165.286 110.485,168.619 106.5,172C 104.866,172.494 103.199,172.66 101.5,172.5C 101.5,174.5 101.5,176.5 101.5,178.5C 100.167,178.5 98.8333,178.5 97.5,178.5C 97.5,172.833 97.5,167.167 97.5,161.5 Z"/></g>
<g><path style="opacity:1" fill="#2c2b2f" d="M 129.5,161.5 C 132.518,161.335 135.518,161.502 138.5,162C 140.706,164.209 141.04,166.709 139.5,169.5C 142.456,172.856 142.123,175.689 138.5,178C 135.518,178.498 132.518,178.665 129.5,178.5C 129.5,172.833 129.5,167.167 129.5,161.5 Z"/></g>
<g><path style="opacity:1" fill="#39383c" d="M 144.5,161.5 C 146.199,161.34 147.866,161.506 149.5,162C 150.856,164.398 152.023,166.898 153,169.5C 154.312,167.045 155.478,164.545 156.5,162C 158.134,161.506 159.801,161.34 161.5,161.5C 161.5,167.167 161.5,172.833 161.5,178.5C 160.167,178.5 158.833,178.5 157.5,178.5C 157.665,175.15 157.498,171.817 157,168.5C 155.589,170.65 154.755,172.984 154.5,175.5C 153.5,175.5 152.5,175.5 151.5,175.5C 151.174,172.689 150.341,170.022 149,167.5C 148.501,171.152 148.335,174.818 148.5,178.5C 147.167,178.5 145.833,178.5 144.5,178.5C 144.5,172.833 144.5,167.167 144.5,161.5 Z"/></g>
<g><path style="opacity:1" fill="#f5f5f5" d="M 86.5,164.5 C 90.1612,164.35 91.1612,165.85 89.5,169C 88.552,169.483 87.552,169.649 86.5,169.5C 86.5,167.833 86.5,166.167 86.5,164.5 Z"/></g>
<g><path style="opacity:1" fill="#f6f5f6" d="M 101.5,164.5 C 105.161,164.35 106.161,165.85 104.5,169C 103.552,169.483 102.552,169.649 101.5,169.5C 101.5,167.833 101.5,166.167 101.5,164.5 Z"/></g>
<g><path style="opacity:1" fill="#f9f9f9" d="M 133.5,164.5 C 134.5,164.5 135.5,164.5 136.5,164.5C 136.5,165.5 136.5,166.5 136.5,167.5C 135.5,167.5 134.5,167.5 133.5,167.5C 133.5,166.5 133.5,165.5 133.5,164.5 Z"/></g>
<g><path style="opacity:1" fill="#2e2d31" d="M 121.5,175.5 C 122.817,173.713 122.484,172.046 120.5,170.5C 122.045,169.548 123.712,169.215 125.5,169.5C 125.5,172.167 125.5,174.833 125.5,177.5C 113.989,180.156 109.822,175.823 113,164.5C 116.257,161.572 120.091,160.738 124.5,162C 125.731,163.183 125.731,164.349 124.5,165.5C 116.108,163.398 113.608,166.398 117,174.5C 118.356,175.38 119.856,175.714 121.5,175.5 Z"/></g>
<g><path style="opacity:1" fill="#b6b5b6" d="M 125.5,177.5 C 125.5,174.833 125.5,172.167 125.5,169.5C 123.712,169.215 122.045,169.548 120.5,170.5C 122.484,172.046 122.817,173.713 121.5,175.5C 120.551,173.263 119.884,170.929 119.5,168.5C 121.833,168.5 124.167,168.5 126.5,168.5C 126.81,171.713 126.477,174.713 125.5,177.5 Z"/></g>
<g><path style="opacity:1" fill="#838284" d="M 136.5,171.5 C 135.5,171.5 134.5,171.5 133.5,171.5C 133.5,172.833 133.5,174.167 133.5,175.5C 132.549,174.081 132.216,172.415 132.5,170.5C 134.099,170.232 135.432,170.566 136.5,171.5 Z"/></g>
<g><path style="opacity:1" fill="#f1f0f1" d="M 136.5,171.5 C 137.434,172.568 137.768,173.901 137.5,175.5C 136.167,175.5 134.833,175.5 133.5,175.5C 133.5,174.167 133.5,172.833 133.5,171.5C 134.5,171.5 135.5,171.5 136.5,171.5 Z"/></g>
<g><path style="opacity:1" fill="#444346" d="M 73.5,170.5 C 75.5,170.5 77.5,170.5 79.5,170.5C 79.5,171.5 79.5,172.5 79.5,173.5C 77.5,173.5 75.5,173.5 73.5,173.5C 73.5,172.5 73.5,171.5 73.5,170.5 Z"/></g>
<g><path style="opacity:1" fill="#353438" d="M 62.5,165.5 C 68.1667,165.167 70.8333,167.833 70.5,173.5C 67.8127,173.336 65.146,173.503 62.5,174C 64.88,175.757 67.38,175.923 70,174.5C 70.658,176.108 70.158,177.275 68.5,178C 60.83,179.326 57.9967,176.159 60,168.5C 60.6979,167.309 61.5313,166.309 62.5,165.5 Z"/></g>
<g><path style="opacity:1" fill="#e8e8e8" d="M 63.5,168.5 C 64.9778,168.238 66.3112,168.571 67.5,169.5C 65.9255,170.631 64.2588,170.798 62.5,170C 63.056,169.617 63.3893,169.117 63.5,168.5 Z"/></g>
</svg>
