<?xml version="1.0" encoding="UTF-8"?>
<svg version="1.1" xmlns="http://www.w3.org/2000/svg" width="275" height="183">
<path d="M0 0 C90.75 0 181.5 0 275 0 C275 60.39 275 120.78 275 183 C184.25 183 93.5 183 0 183 C0 122.61 0 62.22 0 0 Z " fill="#F3F3F3" transform="translate(0,0)"/>
<path d="M0 0 C6.71348904 0.27016052 11.49336426 1.01647628 17 5 C17.495 6.485 17.495 6.485 18 8 C17.67 8.66 17.34 9.32 17 10 C17.66 10 18.32 10 19 10 C19.33 9.01 19.66 8.02 20 7 C23.71055417 4.98569917 26.82851735 4.80597755 31 5 C30.47599609 5.70576172 30.47599609 5.70576172 29.94140625 6.42578125 C29.48636719 7.04839844 29.03132813 7.67101562 28.5625 8.3125 C28.11003906 8.92738281 27.65757812 9.54226562 27.19140625 10.17578125 C24.7117853 13.97244678 24.72128809 17.76851407 24.4375 22.1875 C24.31181641 24.09595703 24.31181641 24.09595703 24.18359375 26.04296875 C24.12300781 27.01878906 24.06242187 27.99460937 24 29 C24.99 27.515 24.99 27.515 26 26 C26.495 25.505 26.495 25.505 27 25 C26.34 25 25.68 25 25 25 C24.54703127 18.65843774 25.24509329 14.23888181 29 9 C34.99916907 2.38377354 44.62536184 1.18881534 53.1171875 0.71484375 C60.2334087 0.48582164 66.56016811 0.65128741 73 4 C75 6 75 6 75.3125 9.625 C75.18234435 14.7289608 73.95236822 19.77833961 70.52734375 23.67578125 C69 25 69 25 66.875 25.875 C66.25625 26.24625 65.6375 26.6175 65 27 C64.855625 27.74894531 64.71125 28.49789062 64.5625 29.26953125 C63.9308547 32.33564283 62.85471055 34.21793418 61.125 36.8125 C60.61195313 37.60269531 60.09890625 38.39289062 59.5703125 39.20703125 C59.05210937 39.79871094 58.53390625 40.39039063 58 41 C57.01 41 56.02 41 55 41 C54.67 41.99 54.34 42.98 54 44 C53 45 52 46 51 47 C50.01 46.01 49.02 45.02 48 44 C48 44.66 48 45.32 48 46 C47.34 46 46.68 46 46 46 C46.495 48.97 46.495 48.97 47 52 C44.08178537 52.13510253 41.16982348 52.2341305 38.25 52.3125 C37.425 52.35439453 36.6 52.39628906 35.75 52.43945312 C33.398256 52.48686732 31.30597843 52.47157594 29 52 C26.421875 49.48046875 26.421875 49.48046875 25 47 C25.24556641 47.82757813 25.24556641 47.82757813 25.49609375 48.671875 C26.05760414 51.26614007 26.09739008 53.59835411 26.0625 56.25 C26.05347656 57.14203125 26.04445313 58.0340625 26.03515625 58.953125 C26.02355469 59.62859375 26.01195312 60.3040625 26 61 C23.87491756 57.81237635 23.4979837 55.73487777 23 52 C22.01 53.32 21.02 54.64 20 56 C19.34 55.67 18.68 55.34 18 55 C18 54.34 18 53.68 18 53 C17.54560547 53.79664062 17.54560547 53.79664062 17.08203125 54.609375 C13.52463723 60.6076886 9.96248274 64.98454447 3 67 C2.01 66.67 1.02 66.34 0 66 C-0.33 66.33 -0.66 66.66 -1 67 C-4.81795964 70.03794638 -7.98775833 72.54434167 -13 73 C-12.505 71.515 -12.505 71.515 -12 70 C-14.19797403 72.19797403 -14.45897517 73.17546145 -15.125 76.125 C-15.41375 77.40375 -15.7025 78.6825 -16 80 C-21.75 81.125 -21.75 81.125 -24 80 C-24.3125 76.6875 -24.3125 76.6875 -24 73 C-21.5 71.0625 -21.5 71.0625 -19 70 C-24.96351455 71.27789598 -27.48417174 74.33716394 -31 79 C-29.35 77.68 -27.7 76.36 -26 75 C-25.57571449 78.87514096 -25.62292136 80.49991318 -28.01171875 83.66796875 C-28.89472656 84.49941406 -29.77773437 85.33085938 -30.6875 86.1875 C-31.55761719 87.02667969 -32.42773438 87.86585937 -33.32421875 88.73046875 C-39.41220423 93.89414695 -39.41220423 93.89414695 -43.8125 94.1875 C-44.534375 94.125625 -45.25625 94.06375 -46 94 C-45.6875 92.0625 -45.6875 92.0625 -45 90 C-43.515 89.505 -43.515 89.505 -42 89 C-40.31461399 87.00334686 -40.31461399 87.00334686 -39 85 C-40.31896465 85.92838287 -41.62998689 86.86805732 -42.9375 87.8125 C-43.66839844 88.33457031 -44.39929688 88.85664062 -45.15234375 89.39453125 C-47.26883226 90.95867127 -47.26883226 90.95867127 -48 94 C-48.66 94 -49.32 94 -50 94 C-51.1671568 90.49852959 -51.13357453 87.67329964 -51 84 C-50.505 83.01 -50.505 83.01 -50 82 C-49.01 82 -48.02 82 -47 82 C-47 81.34 -47 80.68 -47 80 C-47.66 80 -48.32 80 -49 80 C-49.08564209 79.39003174 -49.17128418 78.78006348 -49.25952148 78.15161133 C-49.65069064 75.37169549 -50.04407444 72.59209736 -50.4375 69.8125 C-50.57220703 68.85279297 -50.70691406 67.89308594 -50.84570312 66.90429688 C-50.97783203 65.97294922 -51.10996094 65.04160156 -51.24609375 64.08203125 C-51.36654053 63.22843018 -51.4869873 62.3748291 -51.61108398 61.49536133 C-51.87585199 59.79655796 -52.18636094 58.10439919 -52.53662109 56.42114258 C-54.8227984 44.47592635 -53.87136682 29.4846385 -47.48828125 19.015625 C-45.09260264 15.77108389 -42.48158461 13.06991705 -39 11 C-36.0625 10.625 -36.0625 10.625 -34 11 C-33.9071875 10.1028125 -33.9071875 10.1028125 -33.8125 9.1875 C-32.59744978 5.91621093 -31.18063355 5.46309143 -28 4 C-18.78358054 0.39931999 -9.71583329 0.69246483 0 1 C0 0.67 0 0.34 0 0 Z " fill="#C22730" transform="translate(127,23)"/>
<path d="M0 0 C2 2 2 2 2.3125 5.625 C2.18234435 10.7289608 0.95236822 15.77833961 -2.47265625 19.67578125 C-4 21 -4 21 -6.125 21.875 C-6.74375 22.24625 -7.3625 22.6175 -8 23 C-8.144375 23.74894531 -8.28875 24.49789062 -8.4375 25.26953125 C-9.0691453 28.33564283 -10.14528945 30.21793418 -11.875 32.8125 C-12.38804687 33.60269531 -12.90109375 34.39289062 -13.4296875 35.20703125 C-13.94789063 35.79871094 -14.46609375 36.39039063 -15 37 C-15.99 37 -16.98 37 -18 37 C-18.33 37.99 -18.66 38.98 -19 40 C-20 41 -21 42 -22 43 C-22.99 42.01 -23.98 41.02 -25 40 C-25 40.66 -25 41.32 -25 42 C-25.66 42 -26.32 42 -27 42 C-26.67 43.98 -26.34 45.96 -26 48 C-28.93804996 48.08086376 -31.87388075 48.1404283 -34.8125 48.1875 C-35.64587891 48.21263672 -36.47925781 48.23777344 -37.33789062 48.26367188 C-38.54155273 48.27817383 -38.54155273 48.27817383 -39.76953125 48.29296875 C-40.50792236 48.3086792 -41.24631348 48.32438965 -42.00708008 48.34057617 C-44.58603514 47.89985067 -45.45495699 47.08213371 -47 45 C-47.1875 41.8125 -47.1875 41.8125 -47 39 C-47.66 39 -48.32 39 -49 39 C-51.03394931 34.93210138 -50.09936871 30.50512428 -49.25 26.1875 C-48 23 -48 23 -45.875 21.5625 C-45.25625 21.376875 -44.6375 21.19125 -44 21 C-45.32 21 -46.64 21 -48 21 C-48.45296873 14.65843774 -47.75490671 10.23888181 -44 5 C-34.66334862 -5.29699266 -11.76653864 -6.11860009 0 0 Z " fill="#C2262F" transform="translate(200,27)"/>
<path d="M0 0 C1.65 0 3.3 0 5 0 C5 1.65 5 3.3 5 5 C5.66 3.68 6.32 2.36 7 1 C7.66 1 8.32 1 9 1 C9 1.66 9 2.32 9 3 C9.99 3 10.98 3 12 3 C12 3.66 12 4.32 12 5 C12.66 5 13.32 5 14 5 C14 5.66 14 6.32 14 7 C14.66 7.66 15.32 8.32 16 9 C18.19230769 14.42307692 18.19230769 14.42307692 17 18 C15.35 17.67 13.7 17.34 12 17 C11.67 18.32 11.34 19.64 11 21 C11.66 21 12.32 21 13 21 C13 20.34 13 19.68 13 19 C13.99 19 14.98 19 16 19 C15.67 20.65 15.34 22.3 15 24 C14.34 24 13.68 24 13 24 C13 24.66 13 25.32 13 26 C12.01 26 11.02 26 10 26 C10 26.66 10 27.32 10 28 C7.36 28.66 4.72 29.32 2 30 C2 28.35 2 26.7 2 25 C1.34 25 0.68 25 0 25 C0 26.65 0 28.3 0 30 C-0.66 30 -1.32 30 -2 30 C-1.67 28.02 -1.34 26.04 -1 24 C-2.32 23.67 -3.64 23.34 -5 23 C-5 23.66 -5 24.32 -5 25 C-4.34 25 -3.68 25 -3 25 C-3 25.99 -3 26.98 -3 28 C-3.99 28 -4.98 28 -6 28 C-6 27.34 -6 26.68 -6 26 C-6.66 26 -7.32 26 -8 26 C-8 25.34 -8 24.68 -8 24 C-8.66 24 -9.32 24 -10 24 C-10 23.34 -10 22.68 -10 22 C-10.66 21.67 -11.32 21.34 -12 21 C-12.84985257 17.85554549 -13 15.29227921 -13 12 C-11.35 12 -9.7 12 -8 12 C-8.33 9.69 -8.66 7.38 -9 5 C-8.34 5 -7.68 5 -7 5 C-7 4.34 -7 3.68 -7 3 C-5.68 3.33 -4.36 3.66 -3 4 C-2.67 3.01 -2.34 2.02 -2 1 C-1.67 1.33 -1.34 1.66 -1 2 C-0.67 1.34 -0.34 0.68 0 0 Z " fill="#0BA89C" transform="translate(182,64)"/>
<path d="M0 0 C7.88264059 0.75794621 7.88264059 0.75794621 11 4 C11 4.99 11 5.98 11 7 C11.66 7.33 12.32 7.66 13 8 C13.66796875 9.7421875 13.66796875 9.7421875 14.1875 11.875 C14.45626953 12.92300781 14.45626953 12.92300781 14.73046875 13.9921875 C15 16 15 16 14 19 C11.9375 19.6875 11.9375 19.6875 10 20 C9.67 21.32 9.34 22.64 9 24 C-1.04705882 25.31764706 -1.04705882 25.31764706 -5 24 C-5 23.01 -5 22.02 -5 21 C-6.32 20.34 -7.64 19.68 -9 19 C-8.01 18.34 -7.02 17.68 -6 17 C-7.32 17 -8.64 17 -10 17 C-11.1577506 13.52674819 -11.06866652 10.63932552 -11 7 C-9.68 7.33 -8.36 7.66 -7 8 C-7.33 6.68 -7.66 5.36 -8 4 C-7.34 4 -6.68 4 -6 4 C-5.67 3.34 -5.34 2.68 -5 2 C-4.67 2.99 -4.34 3.98 -4 5 C-3.34 5 -2.68 5 -2 5 C-2.33 3.68 -2.66 2.36 -3 1 C-2.34 1.33 -1.68 1.66 -1 2 C-0.67 1.34 -0.34 0.68 0 0 Z " fill="#11A89C" transform="translate(84,10)"/>
<path d="M0 0 C8.40832049 -0.32973806 8.40832049 -0.32973806 12 2 C14.63083803 5.64141391 16.04890494 8.72847153 15.875 13.25 C13.88888889 19.49206349 13.88888889 19.49206349 10.8125 21.25 C6.84116354 22.30902306 2.76734214 22.88367107 -1 21 C-1 20.34 -1 19.68 -1 19 C-2.32 18.67 -3.64 18.34 -5 18 C-5.33 16.68 -5.66 15.36 -6 14 C-5.01 14 -4.02 14 -3 14 C-3.99 13.67 -4.98 13.34 -6 13 C-7.17755913 10.05610218 -7.03348696 9.10046087 -6 6 C-5.34 6 -4.68 6 -4 6 C-4 5.34 -4 4.68 -4 4 C-3.34 4 -2.68 4 -2 4 C-2 3.34 -2 2.68 -2 2 C-1.34 2 -0.68 2 0 2 C0 1.34 0 0.68 0 0 Z " fill="#0AA699" transform="translate(110,64)"/>
<path d="M0 0 C2.625 0.9375 2.625 0.9375 5 2 C5 2.66 5 3.32 5 4 C5.99 4.33 6.98 4.66 8 5 C9.07763474 9.49014476 9.37757467 11.33010946 7.0625 15.4375 C6.0415625 16.7059375 6.0415625 16.7059375 5 18 C4.34 17.67 3.68 17.34 3 17 C2.67 17.66 2.34 18.32 2 19 C-2.25820163 19.36498871 -4.62558186 18.64481422 -8 16 C-9.87902845 12.59985328 -10.22000976 9.85017077 -10 6 C-9.360625 5.71125 -8.72125 5.4225 -8.0625 5.125 C-5.84793921 4.17176549 -5.84793921 4.17176549 -5 2 C-4.34 1.67 -3.68 1.34 -3 1 C-3 1.99 -3 2.98 -3 4 C-1.35 4 0.3 4 2 4 C0.68 3.67 -0.64 3.34 -2 3 C-2 2.34 -2 1.68 -2 1 C-1.34 0.67 -0.68 0.34 0 0 Z " fill="#06A89C" transform="translate(103,115)"/>
<path d="M0 0 C1.65 0 3.3 0 5 0 C5 1.98 5 3.96 5 6 C4.01 6.33 3.02 6.66 2 7 C2.66 7 3.32 7 4 7 C2.85466125 10.87653115 1.83488085 14.06012356 -1 17 C-3.6875 18.25 -3.6875 18.25 -6 19 C-5.67 20.98 -5.34 22.96 -5 25 C-4.34 25 -3.68 25 -3 25 C-3 25.99 -3 26.98 -3 28 C-3.99 28 -4.98 28 -6 28 C-6 27.34 -6 26.68 -6 26 C-6.66 26 -7.32 26 -8 26 C-8 25.34 -8 24.68 -8 24 C-8.66 24 -9.32 24 -10 24 C-10 23.34 -10 22.68 -10 22 C-10.66 21.67 -11.32 21.34 -12 21 C-12.84985257 17.85554549 -13 15.29227921 -13 12 C-11.35 12 -9.7 12 -8 12 C-8.33 9.69 -8.66 7.38 -9 5 C-8.34 5 -7.68 5 -7 5 C-7 4.34 -7 3.68 -7 3 C-5.68 3.33 -4.36 3.66 -3 4 C-2.67 3.01 -2.34 2.02 -2 1 C-1.67 1.33 -1.34 1.66 -1 2 C-0.67 1.34 -0.34 0.68 0 0 Z " fill="#26B0A7" transform="translate(182,64)"/>
<path d="M0 0 C8.40832049 -0.32973806 8.40832049 -0.32973806 12 2 C14.63083803 5.64141391 16.04890494 8.72847153 15.875 13.25 C13.88888889 19.49206349 13.88888889 19.49206349 10.8125 21.25 C6.84116354 22.30902306 2.76734214 22.88367107 -1 21 C-1 20.01 -1 19.02 -1 18 C0.2375 18.0825 1.475 18.165 2.75 18.25 C5.82119775 18.23363483 6.85654719 18.08747123 9.5625 16.4375 C11.59482809 12.99137846 10.93049733 10.79356604 10 7 C8.99163938 5.76732652 8.99163938 5.76732652 6.93359375 5.90234375 C5.69802734 5.91974609 5.69802734 5.91974609 4.4375 5.9375 C3.61121094 5.94652344 2.78492187 5.95554687 1.93359375 5.96484375 C0.97646484 5.98224609 0.97646484 5.98224609 0 6 C-1.32 8.31 -2.64 10.62 -4 13 C-4.66 13 -5.32 13 -6 13 C-6.93423645 9.98968256 -7.04449911 9.13349732 -6 6 C-5.34 6 -4.68 6 -4 6 C-4 5.34 -4 4.68 -4 4 C-3.34 4 -2.68 4 -2 4 C-2 3.34 -2 2.68 -2 2 C-1.34 2 -0.68 2 0 2 C0 1.34 0 0.68 0 0 Z " fill="#4B7F73" transform="translate(110,64)"/>
<path d="M0 0 C7.88264059 0.75794621 7.88264059 0.75794621 11 4 C11 4.99 11 5.98 11 7 C11.66 7.33 12.32 7.66 13 8 C13.66796875 9.7421875 13.66796875 9.7421875 14.1875 11.875 C14.45626953 12.92300781 14.45626953 12.92300781 14.73046875 13.9921875 C15 16 15 16 14 19 C11.9375 19.6875 11.9375 19.6875 10 20 C9.67 21.32 9.34 22.64 9 24 C-1.04705882 25.31764706 -1.04705882 25.31764706 -5 24 C-4.67 22.35 -4.34 20.7 -4 19 C-2.14375 19.309375 -2.14375 19.309375 -0.25 19.625 C2.23891557 19.91574058 3.96545326 20.00708651 6.4375 19.5 C9.03072207 17.01050682 8.88025417 14.47262904 9 11 C8.6824493 8.61441973 8.6824493 8.61441973 7 7 C3.45411499 5.70079254 3.45411499 5.70079254 0 5 C0 3.35 0 1.7 0 0 Z " fill="#9ED6D7" transform="translate(84,10)"/>
<path d="M0 0 C2.47923801 -0.02685095 4.9581884 -0.04676547 7.4375 -0.0625 C8.14455078 -0.07087891 8.85160156 -0.07925781 9.58007812 -0.08789062 C11.38693559 -0.09653588 13.19387603 -0.05220011 15 0 C16 1 16 1 16.0625 3.5625 C16.041875 4.366875 16.02125 5.17125 16 6 C14.35 6.33 12.7 6.66 11 7 C11 7.99 11 8.98 11 10 C10.34 10 9.68 10 9 10 C9 10.99 9 11.98 9 13 C5.7 12.67 2.4 12.34 -1 12 C0 10 0 10 2 9 C0.68 8.34 -0.64 7.68 -2 7 C-1.34 4.69 -0.68 2.38 0 0 Z " fill="#E8F6F7" transform="translate(129,107)"/>
<path d="M0 0 C2.125 0.375 2.125 0.375 4 1 C2.68 1.33 1.36 1.66 0 2 C0.33 2.66 0.66 3.32 1 4 C1.928125 3.67 2.85625 3.34 3.8125 3 C7 2 7 2 10 2 C10 2.66 10 3.32 10 4 C8.68 4.33 7.36 4.66 6 5 C5.22596442 9.06368679 4.9015298 12.86425173 5 17 C6.32 17 7.64 17 9 17 C9.33 15.68 9.66 14.36 10 13 C10 16.3 10 19.6 10 23 C9.67 21.68 9.34 20.36 9 19 C7.68 19 6.36 19 5 19 C5 20.32 5 21.64 5 23 C4.34 23 3.68 23 3 23 C3 19.7 3 16.4 3 13 C-0.27773504 13.75150023 -0.27773504 13.75150023 -2 17 C-2.33 16.01 -2.66 15.02 -3 14 C-3.99 13.34 -4.98 12.68 -6 12 C-5.34 12 -4.68 12 -4 12 C-3.87882812 11.30132812 -3.75765625 10.60265625 -3.6328125 9.8828125 C-3.46523437 8.97273438 -3.29765625 8.06265625 -3.125 7.125 C-2.96257812 6.22007813 -2.80015625 5.31515625 -2.6328125 4.3828125 C-2 2 -2 2 0 0 Z " fill="#F6F1EF" transform="translate(115,91)"/>
<path d="M0 0 C1.875 1.125 1.875 1.125 3 3 C3.42030443 6.29238472 3.295454 8.33957342 1.9375 11.375 C0 13 0 13 -3.5 13.5 C-7 13 -7 13 -8.9375 11.375 C-10.30818153 8.31112364 -10.49453975 6.32048116 -10 3 C-7.09589708 -0.35088799 -4.27607914 -0.54588244 0 0 Z " fill="#77C6BD" transform="translate(147,6)"/>
<path d="M0 0 C0.66 0 1.32 0 2 0 C2.33 0.66 2.66 1.32 3 2 C3.66 2 4.32 2 5 2 C5.33 1.34 5.66 0.68 6 0 C6.99 0.33 7.98 0.66 9 1 C9 2.65 9 4.3 9 6 C9.33 5.34 9.66 4.68 10 4 C11.65 4 13.3 4 15 4 C14.67 4.66 14.34 5.32 14 6 C14.33 6.33 14.66 6.66 15 7 C14.71395102 8.67542976 14.38218767 10.34385343 14 12 C9.1666528 12.08333357 4.76307437 11.95261487 0 11 C-1.125 3.375 -1.125 3.375 0 0 Z " fill="#D5EFEC" transform="translate(168,103)"/>
<path d="M0 0 C0.66 0.99 1.32 1.98 2 3 C1.67 3.66 1.34 4.32 1 5 C1.66 5.33 2.32 5.66 3 6 C2.01 7.32 1.02 8.64 0 10 C0.66 10 1.32 10 2 10 C1.67 11.32 1.34 12.64 1 14 C2.32 13.67 3.64 13.34 5 13 C5 13.66 5 14.32 5 15 C2.33333333 15 -0.33333333 15 -3 15 C-3.33 15.66 -3.66 16.32 -4 17 C-4.66 17 -5.32 17 -6 17 C-7.6875 15.3125 -7.6875 15.3125 -9 13 C-8.69508595 8.58600613 -7.10887988 6.65752243 -3.9375 3.6875 C-3.20402344 2.99011719 -2.47054687 2.29273437 -1.71484375 1.57421875 C-1.14894531 1.05472656 -0.58304688 0.53523438 0 0 Z " fill="#E6F0F0" transform="translate(100,104)"/>
<path d="M0 0 C6.61590841 0.26623374 11.74786726 0.7535948 17 5 C18.17075763 9.0976517 18.1326873 11.9648015 17 16 C16.731875 15.46890625 16.46375 14.9378125 16.1875 14.390625 C13.07529187 8.78046034 10.05998231 6.11366318 4 4 C1.18551086 3.23245168 1.18551086 3.23245168 -1 3 C-0.67 2.01 -0.34 1.02 0 0 Z " fill="#E8CAC1" transform="translate(127,23)"/>
<path d="M0 0 C0.625 1.75 0.625 1.75 1 4 C0.67 4.639375 0.34 5.27875 0 5.9375 C-1.31040647 8.64021335 -0.78610392 10.17002588 0 13 C2.31 13.33 4.62 13.66 7 14 C6.67 15.32 6.34 16.64 6 18 C1.74179837 18.36498871 -0.62558186 17.64481422 -4 15 C-5.87902845 11.59985328 -6.22000976 8.85017077 -6 5 C-5.360625 4.71125 -4.72125 4.4225 -4.0625 4.125 C-1.84793921 3.17176549 -1.84793921 3.17176549 -1 1 C-0.67 0.67 -0.34 0.34 0 0 Z " fill="#3AB3A4" transform="translate(99,116)"/>
<path d="M0 0 C2.83733415 3.20742122 3.82831844 5.70796103 4 10 C2.78379577 13.5134789 1.95169624 15.41840786 -1.25 17.375 C-5.22044962 18.27737491 -9.2695127 18.86524365 -13 17 C-13 16.01 -13 15.02 -13 14 C-11.783125 14.04125 -10.56625 14.0825 -9.3125 14.125 C-5.78376766 14.10623015 -3.05414378 13.94354604 0 12 C1.70510273 7.90775344 0.57917814 4.99439176 -1 1 C-0.67 0.67 -0.34 0.34 0 0 Z " fill="#5B7672" transform="translate(122,68)"/>
<path d="M0 0 C2.97 0.495 2.97 0.495 6 1 C7.13764351 5.26616316 8 8.56486311 8 13 C8.66 13 9.32 13 10 13 C10 13.99 10 14.98 10 16 C9.01 16 8.02 16 7 16 C7 15.34 7 14.68 7 14 C6.34 14 5.68 14 5 14 C5 13.34 5 12.68 5 12 C4.34 12 3.68 12 3 12 C3 11.34 3 10.68 3 10 C2.34 9.67 1.68 9.34 1 9 C0.15014743 5.85554549 0 3.29227921 0 0 Z " fill="#62BFB7" transform="translate(169,76)"/>
<path d="M0 0 C0.66 0 1.32 0 2 0 C3.625 2 3.625 2 5 4 C3.01762288 6.68203963 1.9221378 7.01557244 -1.4375 7.6875 C-5 8 -5 8 -9 8 C-9.12375 7.360625 -9.2475 6.72125 -9.375 6.0625 C-9.684375 5.0415625 -9.684375 5.0415625 -10 4 C-10.66 3.67 -11.32 3.34 -12 3 C-8.37 3 -4.74 3 -1 3 C-0.67 2.01 -0.34 1.02 0 0 Z " fill="#F7FAFB" transform="translate(161,112)"/>
<path d="M0 0 C0 0.66 0 1.32 0 2 C-0.66 2 -1.32 2 -2 2 C-2.33 3.32 -2.66 4.64 -3 6 C-13.04705882 7.31764706 -13.04705882 7.31764706 -17 6 C-16.67 4.35 -16.34 2.7 -16 1 C-14.205625 1.309375 -14.205625 1.309375 -12.375 1.625 C-7.75128237 2.22345991 -4.3829995 0 0 0 Z " fill="#7CC9C2" transform="translate(96,28)"/>
<path d="M0 0 C2 0.6875 2 0.6875 4 2.6875 C4.625 4.8125 4.625 4.8125 5 6.6875 C1.76746204 8.84252531 0.74849077 9.15606135 -3 8.6875 C-4.8125 7.1875 -4.8125 7.1875 -6 5.6875 C-3.74810319 -0.58564112 -3.74810319 -0.58564112 0 0 Z " fill="#16A89A" transform="translate(145,8.3125)"/>
<path d="M0 0 C2.625 0.9375 2.625 0.9375 5 2 C5 2.66 5 3.32 5 4 C5.99 4.33 6.98 4.66 8 5 C9.07763474 9.49014476 9.37757467 11.33010946 7.0625 15.4375 C6.0415625 16.7059375 6.0415625 16.7059375 5 18 C4.34 17.67 3.68 17.34 3 17 C3.33 16.01 3.66 15.02 4 14 C4.36286851 9.08313084 4.36286851 9.08313084 2.6875 4.5625 C1.01641903 2.66029598 1.01641903 2.66029598 -2 3 C-2 2.34 -2 1.68 -2 1 C-1.34 0.67 -0.68 0.34 0 0 Z " fill="#6DC4BF" transform="translate(103,115)"/>
<path d="M0 0 C0.33 0.66 0.66 1.32 1 2 C1.66 2 2.32 2 3 2 C3 2.66 3 3.32 3 4 C3.66 4.66 4.32 5.32 5 6 C5.71408334 7.98356483 6.38617742 9.98315437 7 12 C6.34 12.66 5.68 13.32 5 14 C2.9765625 13.875 2.9765625 13.875 1 13 C0.0234375 11.1875 0.0234375 11.1875 -0.625 9 C-1.24419219 6.8567034 -1.24419219 6.8567034 -2 5 C-2.66 4.67 -3.32 4.34 -4 4 C-3.67 3.01 -3.34 2.02 -3 1 C-2.34 1.33 -1.68 1.66 -1 2 C-0.67 1.34 -0.34 0.68 0 0 Z " fill="#93D4D0" transform="translate(193,67)"/>
<path d="M0 0 C2.31 0 4.62 0 7 0 C7.33 0.66 7.66 1.32 8 2 C7.2575 2.33 6.515 2.66 5.75 3 C1.48733719 6.10011841 -0.42257777 10.16581923 -1.46875 15.30078125 C-1.71078274 17.19334278 -1.8640624 19.09687364 -2 21 C-0.02 20.67 1.96 20.34 4 20 C2 22 2 22 -1 23 C-2.22969878 26.51190809 -2.22969878 26.51190809 -3 30 C-3.33 30 -3.66 30 -4 30 C-3.91262714 26.9570141 -3.80569374 23.91681634 -3.6875 20.875 C-3.66494141 20.0190625 -3.64238281 19.163125 -3.61914062 18.28125 C-3.36536876 12.28300582 -2.46898187 7.74331319 1.6875 3.125 C2.120625 2.75375 2.55375 2.3825 3 2 C2.01 1.34 1.02 0.68 0 0 Z " fill="#ECCFC8" transform="translate(154,27)"/>
<path d="M0 0 C0.66 0 1.32 0 2 0 C2.33 0.66 2.66 1.32 3 2 C3.33 1.34 3.66 0.68 4 0 C5.65 0 7.3 0 9 0 C8.67 0.66 8.34 1.32 8 2 C8.33 2.33 8.66 2.66 9 3 C8.71395102 4.67542976 8.38218767 6.34385343 8 8 C5.36 8 2.72 8 0 8 C0 5.36 0 2.72 0 0 Z " fill="#6AC5B9" transform="translate(174,107)"/>
<path d="M0 0 C0.66 0 1.32 0 2 0 C2.33 2.64 2.66 5.28 3 8 C3.66 8 4.32 8 5 8 C5 6.68 5 5.36 5 4 C5.99 4 6.98 4 8 4 C8 6.64 8 9.28 8 12 C7.01 11.67 6.02 11.34 5 11 C5 10.34 5 9.68 5 9 C4.34 9 3.68 9 3 9 C2.67 10.32 2.34 11.64 2 13 C-0.83857423 10.16142577 -0.90046025 6.86673652 -1 3 C-0.67 2.01 -0.34 1.02 0 0 Z " fill="#9AD7CE" transform="translate(158,103)"/>
<path d="M0 0 C0.66 0.33 1.32 0.66 2 1 C3.45133444 5.62784 3.11172865 10.51459995 3.0625 15.3125 C3.05798828 16.14845703 3.05347656 16.98441406 3.04882812 17.84570312 C3.03710548 19.89716649 3.01917203 21.94859273 3 24 C2.34 24.33 1.68 24.66 1 25 C1.04640625 24.10796875 1.0928125 23.2159375 1.140625 22.296875 C1.17671875 21.12640625 1.2128125 19.9559375 1.25 18.75 C1.29640625 17.58984375 1.3428125 16.4296875 1.390625 15.234375 C1.27598526 11.92549208 1.27598526 11.92549208 -0.875 9.625 C-2.99480759 8.00397066 -4.38324709 7.37382184 -7 7 C-7 6.34 -7 5.68 -7 5 C-6.030625 5.165 -5.06125 5.33 -4.0625 5.5 C-2.04016429 5.85992293 -2.04016429 5.85992293 0 6 C0 4.02 0 2.04 0 0 Z " fill="#EACDC6" transform="translate(146,45)"/>
<path d="M0 0 C1.99954746 -0.04254356 4.00041636 -0.04080783 6 0 C7 1 7 1 7.0625 3.5625 C7.041875 4.366875 7.02125 5.17125 7 6 C5.35 6.33 3.7 6.66 2 7 C2 7.99 2 8.98 2 10 C1.34 10 0.68 10 0 10 C0 6.7 0 3.4 0 0 Z " fill="#19A895" transform="translate(138,107)"/>
<path d="M0 0 C0.66 0.33 1.32 0.66 2 1 C1.938125 1.763125 1.87625 2.52625 1.8125 3.3125 C1.74101915 6.04525312 1.74101915 6.04525312 3.5 7.8125 C3.995 8.204375 4.49 8.59625 5 9 C3.35 9 1.7 9 0 9 C-0.33 9.66 -0.66 10.32 -1 11 C-2.32 11 -3.64 11 -5 11 C-5.66 10.34 -6.32 9.68 -7 9 C-6.67 8.01 -6.34 7.02 -6 6 C-4.515 6.99 -4.515 6.99 -3 8 C-3.66 6.35 -4.32 4.7 -5 3 C-3.35 2.67 -1.7 2.34 0 2 C0 1.34 0 0.68 0 0 Z " fill="#FCFAFC" transform="translate(149,17)"/>
<path d="M0 0 C2.31 0 4.62 0 7 0 C7 2.31 7 4.62 7 7 C4.69 7 2.38 7 0 7 C-1.125 2.25 -1.125 2.25 0 0 Z " fill="#5EC3B3" transform="translate(148,107)"/>
<path d="M0 0 C0.99 0 1.98 0 3 0 C2.67 1.65 2.34 3.3 2 5 C1.34 5 0.68 5 0 5 C0 5.66 0 6.32 0 7 C-0.99 7 -1.98 7 -3 7 C-3 7.66 -3 8.32 -3 9 C-5.31 8.67 -7.62 8.34 -10 8 C-10 7.34 -10 6.68 -10 6 C-7.69 5.34 -5.38 4.68 -3 4 C-3 3.34 -3 2.68 -3 2 C-2.01 2 -1.02 2 0 2 C0 1.34 0 0.68 0 0 Z " fill="#5EC0B7" transform="translate(195,83)"/>
<path d="M0 0 C3.96 0.33 7.92 0.66 12 1 C11.67 2.32 11.34 3.64 11 5 C10.07767578 4.85691406 10.07767578 4.85691406 9.13671875 4.7109375 C7.92435547 4.54464844 7.92435547 4.54464844 6.6875 4.375 C5.88699219 4.25898437 5.08648437 4.14296875 4.26171875 4.0234375 C1.71276785 3.78466593 1.71276785 3.78466593 -1 6 C-1 3 -1 3 0 0 Z " fill="#F6FBFB" transform="translate(171,114)"/>
<path d="M0 0 C0.33 0 0.66 0 1 0 C1 3.3 1 6.6 1 10 C1.66 10 2.32 10 3 10 C3 10.66 3 11.32 3 12 C2.01 12 1.02 12 0 12 C-0.33 12.66 -0.66 13.32 -1 14 C-2.37562854 12.71034824 -3.70766393 11.37310707 -5 10 C-5 9.34 -5 8.68 -5 8 C-4.01 8 -3.02 8 -2 8 C-1.10869587 5.3260876 -0.52268466 2.76276177 0 0 Z " fill="#F1E3E3" transform="translate(77,93)"/>
<path d="M0 0 C1.2065625 0.0309375 1.2065625 0.0309375 2.4375 0.0625 C3.0975 1.3825 3.7575 2.7025 4.4375 4.0625 C3.4475 4.3925 2.4575 4.7225 1.4375 5.0625 C2.0975 5.0625 2.7575 5.0625 3.4375 5.0625 C3.4375 5.7225 3.4375 6.3825 3.4375 7.0625 C1.4575 7.0625 -0.5225 7.0625 -2.5625 7.0625 C-2.94383299 5.0710944 -3.27575582 3.06970923 -3.5625 1.0625 C-2.5625 0.0625 -2.5625 0.0625 0 0 Z " fill="#41BAA8" transform="translate(131.5625,106.9375)"/>
<path d="M0 0 C0.66 0 1.32 0 2 0 C2 1.65 2 3.3 2 5 C3.32 5 4.64 5 6 5 C6.33 3.68 6.66 2.36 7 1 C7 4.3 7 7.6 7 11 C6.67 9.68 6.34 8.36 6 7 C4.68 7 3.36 7 2 7 C2 8.32 2 9.64 2 11 C1.34 11 0.68 11 0 11 C0 7.37 0 3.74 0 0 Z " fill="#35AD9C" transform="translate(118,103)"/>
<path d="M0 0 C0.99 0.33 1.98 0.66 3 1 C1.824375 1.5259375 1.824375 1.5259375 0.625 2.0625 C-2.83547272 4.61665844 -3.14536744 6.88222494 -4 11 C-4.66 9.68 -5.32 8.36 -6 7 C-7.65 8.65 -9.3 10.3 -11 12 C-9.60991124 6.74855359 -6.1957125 4.12699328 -2 1 C-1.34 0.67 -0.68 0.34 0 0 Z " fill="#EACAC5" transform="translate(106,92)"/>
<path d="M0 0 C4.05842151 6.08763227 4.2502075 10.84128551 4 18 C2 15 2 15 1.5 11.875 C1.2525 10.451875 1.2525 10.451875 1 9 C0.34 8.67 -0.32 8.34 -1 8 C-0.67 5.36 -0.34 2.72 0 0 Z " fill="#BA212A" transform="translate(149,66)"/>
<path d="M0 0 C0.66 0.99 1.32 1.98 2 3 C1.38511719 3.68835937 1.38511719 3.68835937 0.7578125 4.390625 C-0.05042969 5.31101562 -0.05042969 5.31101562 -0.875 6.25 C-1.40867187 6.85328125 -1.94234375 7.4565625 -2.4921875 8.078125 C-3.9797487 9.97418746 -5.00322436 11.81290005 -6 14 C-6.66 14 -7.32 14 -8 14 C-7.62875 13.071875 -7.2575 12.14375 -6.875 11.1875 C-6.58625 10.135625 -6.2975 9.08375 -6 8 C-6.66 7.01 -7.32 6.02 -8 5 C-7.360625 4.87625 -6.72125 4.7525 -6.0625 4.625 C-5.381875 4.41875 -4.70125 4.2125 -4 4 C-3.67 3.34 -3.34 2.68 -3 2 C-2.34 1.67 -1.68 1.34 -1 1 C-0.67 0.67 -0.34 0.34 0 0 Z " fill="#F2F1EC" transform="translate(84,33)"/>
<path d="M0 0 C6.10575128 -0.49842868 9.11048764 0.57734135 14 4 C14.33 4.99 14.66 5.98 15 7 C14.34 7.66 13.68 8.32 13 9 C12.154375 8.236875 11.30875 7.47375 10.4375 6.6875 C7.17996332 3.9508582 3.96276872 2.50585211 0 1 C0 0.67 0 0.34 0 0 Z " fill="#C21E2D" transform="translate(130,24)"/>
<path d="M0 0 C0.66 0.33 1.32 0.66 2 1 C1.34 2.65 0.68 4.3 0 6 C0.66 6 1.32 6 2 6 C2.12375 5.195625 2.2475 4.39125 2.375 3.5625 C2.58125 2.716875 2.7875 1.87125 3 1 C3.66 0.67 4.32 0.34 5 0 C4.14285714 8.57142857 4.14285714 8.57142857 2 12 C1.34 12 0.68 12 0 12 C-1.1671568 8.49852959 -1.13357453 5.67329964 -1 2 C-0.67 1.34 -0.34 0.68 0 0 Z " fill="#BD3139" transform="translate(77,105)"/>
<path d="M0 0 C1.64826111 2.96687001 2.44271087 5.65626525 3 9 C2.34 9 1.68 9 1 9 C1 9.99 1 10.98 1 12 C0.01 11.67 -0.98 11.34 -2 11 C-2 9.35 -2 7.7 -2 6 C-2.66 5.67 -3.32 5.34 -4 5 C-3.67 4.34 -3.34 3.68 -3 3 C-2.34 3 -1.68 3 -1 3 C-0.67 2.01 -0.34 1.02 0 0 Z " fill="#FBF7FB" transform="translate(91,114)"/>
<path d="M0 0 C1.32 0.33 2.64 0.66 4 1 C4 3.31 4 5.62 4 8 C-0.455 7.01 -0.455 7.01 -5 6 C-4.01 5.67 -3.02 5.34 -2 5 C-2 4.01 -2 3.02 -2 2 C-1.34 2 -0.68 2 0 2 C0 1.34 0 0.68 0 0 Z " fill="#9E4142" transform="translate(170,67)"/>
<path d="M0 0 C2 3 2 3 3.0625 5.125 C6.14250748 8.1056524 9.8574464 7.82630803 14 8 C14 8.33 14 8.66 14 9 C12.54263913 9.19491452 11.08405407 9.38069358 9.625 9.5625 C8.81289062 9.66691406 8.00078125 9.77132812 7.1640625 9.87890625 C5 10 5 10 3 9 C3 11.31 3 13.62 3 16 C2.67 16 2.34 16 2 16 C1.90912109 15.14728516 1.90912109 15.14728516 1.81640625 14.27734375 C1.29823427 9.50218963 0.70756141 4.7507695 0 0 Z " fill="#E5B9B4" transform="translate(151,67)"/>
<path d="M0 0 C2.625 0.3125 2.625 0.3125 4.4375 2.3125 C4.829375 2.9725 5.22125 3.6325 5.625 4.3125 C3.645 5.3025 3.645 5.3025 1.625 6.3125 C0.965 5.6525 0.305 4.9925 -0.375 4.3125 C-2.97780568 4.63291397 -2.97780568 4.63291397 -5.375 5.3125 C-2.99512693 0.39409565 -2.99512693 0.39409565 0 0 Z " fill="#0FA398" transform="translate(102.375,118.6875)"/>
<path d="M0 0 C-0.66 1.32 -1.32 2.64 -2 4 C-5.85645121 4.22036864 -8.49223216 3.60355101 -12 2 C-8.6359265 -1.3640735 -4.38226377 -1.46075459 0 0 Z " fill="#05A69A" transform="translate(187,81)"/>
<path d="M0 0 C0.66 0 1.32 0 2 0 C2.66 0.99 3.32 1.98 4 3 C4.99 3 5.98 3 7 3 C6.67 3.99 6.34 4.98 6 6 C3.69 6.33 1.38 6.66 -1 7 C-1 4.37886292 -0.68707555 2.49064888 0 0 Z " fill="#05A79A" transform="translate(84,24)"/>
<path d="M0 0 C1.65 0 3.3 0 5 0 C5 1.98 5 3.96 5 6 C3.02 6 1.04 6 -1 6 C-0.67 4.02 -0.34 2.04 0 0 Z " fill="#75C5BB" transform="translate(182,64)"/>
<path d="M0 0 C0.12375 0.515625 0.2475 1.03125 0.375 1.5625 C0.88897005 3.56698319 1.5226325 5.54039053 2.1875 7.5 C3 11 3 11 2.125 13.4375 C1.75375 13.953125 1.3825 14.46875 1 15 C0.34 14.67 -0.32 14.34 -1 14 C-0.773125 13.113125 -0.54625 12.22625 -0.3125 11.3125 C0.05896599 7.37496048 -0.66918448 6.10775403 -3 3 C-3.66 2.34 -4.32 1.68 -5 1 C-3.35 0.67 -1.7 0.34 0 0 Z " fill="#835B63" transform="translate(121,66)"/>
<path d="M0 0 C0.56203125 0.23589844 1.1240625 0.47179687 1.703125 0.71484375 C0.94 0.96234375 0.176875 1.20984375 -0.609375 1.46484375 C-3.55867529 2.83661133 -4.47118519 4.10671545 -6.296875 6.71484375 C-6.956875 6.71484375 -7.616875 6.71484375 -8.296875 6.71484375 C-8.626875 7.70484375 -8.956875 8.69484375 -9.296875 9.71484375 C-8.306875 10.04484375 -7.316875 10.37484375 -6.296875 10.71484375 C-7.616875 10.71484375 -8.936875 10.71484375 -10.296875 10.71484375 C-10.626875 9.39484375 -10.956875 8.07484375 -11.296875 6.71484375 C-9.89314698 5.5120768 -8.47335403 4.32803856 -7.046875 3.15234375 C-6.25796875 2.49105469 -5.4690625 1.82976562 -4.65625 1.1484375 C-2.296875 -0.28515625 -2.296875 -0.28515625 0 0 Z " fill="#ECC6C1" transform="translate(90.296875,107.28515625)"/>
<path d="M0 0 C0.33 0.66 0.66 1.32 1 2 C-1.97 1.505 -1.97 1.505 -5 1 C-5 1.66 -5 2.32 -5 3 C-4.34 3.33 -3.68 3.66 -3 4 C-6.63 4 -10.26 4 -14 4 C-14 3.67 -14 3.34 -14 3 C-11.69 3 -9.38 3 -7 3 C-7 2.34 -7 1.68 -7 1 C-7.66 0.67 -8.32 0.34 -9 0 C-5.49270578 -1.16909807 -3.55692677 -0.85056945 0 0 Z " fill="#E2EFEF" transform="translate(174,75)"/>
<path d="M0 0 C2.33294775 -0.04241723 4.66702567 -0.04092937 7 0 C8 1 8 1 8.0625 3.5625 C8.041875 4.366875 8.02125 5.17125 8 6 C7.34 5.34 6.68 4.68 6 4 C6 4.66 6 5.32 6 6 C5.34 6 4.68 6 4 6 C3.67 4.68 3.34 3.36 3 2 C2.34 2 1.68 2 1 2 C0.67 2.66 0.34 3.32 0 4 C0 2.68 0 1.36 0 0 Z " fill="#D1E6EB" transform="translate(76,9)"/>
<path d="M0 0 C1.25733598 3.77200794 1.03366148 6.25297715 0 10 C-2 10 -4 10 -6 10 C-4.02 6.7 -2.04 3.4 0 0 Z " fill="#EFDCD7" transform="translate(146,73)"/>
<path d="M0 0 C0.33 1.32 0.66 2.64 1 4 C1.33 3.34 1.66 2.68 2 2 C3.32 2 4.64 2 6 2 C6 2.99 6 3.98 6 5 C6.66 5 7.32 5 8 5 C8.33 3.68 8.66 2.36 9 1 C9 2.65 9 4.3 9 6 C8.01 6 7.02 6 6 6 C5.67 6.66 5.34 7.32 5 8 C4.67 7.34 4.34 6.68 4 6 C2.68 6 1.36 6 0 6 C0 4.02 0 2.04 0 0 Z " fill="#AF343C" transform="translate(98,72)"/>
<path d="M0 0 C2.82901615 3.19801825 3.73357234 5.73715752 4 10 C3.0625 12.375 3.0625 12.375 2 14 C1.34 14 0.68 14 0 14 C0.20625 12.96875 0.4125 11.9375 0.625 10.875 C1.01194403 6.8765784 0.51883076 4.66306243 -1 1 C-0.67 0.67 -0.34 0.34 0 0 Z " fill="#269884" transform="translate(122,68)"/>
<path d="M0 0 C2.77042109 2.77042109 2.39796106 4.76533805 2.625 8.625 C2.69976562 9.81351563 2.77453125 11.00203125 2.8515625 12.2265625 C2.92503906 13.59941406 2.92503906 13.59941406 3 15 C2.01 14.67 1.02 14.34 0 14 C-1.33257403 4.58997722 -1.33257403 4.58997722 0 0 Z " fill="#F6FAFC" transform="translate(166,101)"/>
<path d="M0 0 C3.625 0.375 3.625 0.375 7 1 C5.8125 2.5 5.8125 2.5 4 4 C1.3125 4.1875 1.3125 4.1875 -1 4 C-1.33 5.32 -1.66 6.64 -2 8 C-2.125 5.125 -2.125 5.125 -2 2 C-1.34 1.34 -0.68 0.68 0 0 Z " fill="#BC2128" transform="translate(105,94)"/>
<path d="M0 0 C2 3 2 3 2 5 C1.01 5 0.02 5 -1 5 C0.32 5.66 1.64 6.32 3 7 C3 7.66 3 8.32 3 9 C1.35 9.33 -0.3 9.66 -2 10 C-2 7.36 -2 4.72 -2 2 C-1.34 2 -0.68 2 0 2 C0 1.34 0 0.68 0 0 Z " fill="#24AD9C" transform="translate(186,84)"/>
<path d="M0 0 C0.93423645 3.01031744 1.04449911 3.86650268 0 7 C-0.99 7.33 -1.98 7.66 -3 8 C-3 7.34 -3 6.68 -3 6 C-3.99 6 -4.98 6 -6 6 C-6.33 6.66 -6.66 7.32 -7 8 C-7.33 7.01 -7.66 6.02 -8 5 C-7.05125 4.54625 -6.1025 4.0925 -5.125 3.625 C-1.99686321 2.19761746 -1.99686321 2.19761746 0 0 Z " fill="#F3EDE8" transform="translate(199,44)"/>
<path d="M0 0 C4 0 4 0 6 1 C6.33 1.66 6.66 2.32 7 3 C5.7934375 3.433125 5.7934375 3.433125 4.5625 3.875 C1.8673532 4.73262568 1.8673532 4.73262568 1 7 C0.34 7 -0.32 7 -1 7 C-1.04254356 5.00045254 -1.04080783 2.99958364 -1 1 C-0.67 0.67 -0.34 0.34 0 0 Z " fill="#F0E4DF" transform="translate(145,26)"/>
<path d="M0 0 C1.9375 0.3125 1.9375 0.3125 4 1 C5 4 5 4 5 8 C4.34 8 3.68 8 3 8 C3 7.34 3 6.68 3 6 C2.01 6 1.02 6 0 6 C0 4.02 0 2.04 0 0 Z " fill="#7FCDC7" transform="translate(73,17)"/>
<path d="M0 0 C0.99 0.33 1.98 0.66 3 1 C3 5.62 3 10.24 3 15 C2.34 15 1.68 15 1 15 C0.37470103 9.9752761 -0.13012092 5.07471573 0 0 Z " fill="#F1FAFB" transform="translate(73,105)"/>
<path d="M0 0 C0.66 0 1.32 0 2 0 C2.87867729 3.73437848 3.08912219 7.16774573 3 11 C2.01 11 1.02 11 0 11 C-1.125 3.375 -1.125 3.375 0 0 Z " fill="#40B2A3" transform="translate(168,103)"/>
<path d="M0 0 C1.32 0.33 2.64 0.66 4 1 C3.88544319 2.91731918 3.75793742 4.8338675 3.625 6.75 C3.55539063 7.81734375 3.48578125 8.8846875 3.4140625 9.984375 C3.0271777 12.80206432 2.44313834 14.5830366 1 17 C0 14 0 14 0.4375 12.3125 C1.3944225 8.37848526 1.83441606 3.66883211 0 0 Z " fill="#F7E0DD" transform="translate(200,27)"/>
<path d="M0 0 C2.31 0.33 4.62 0.66 7 1 C6.67 2.65 6.34 4.3 6 6 C3.03 5.505 3.03 5.505 0 5 C0 3.35 0 1.7 0 0 Z " fill="#61C2B6" transform="translate(84,10)"/>
<path d="M0 0 C0.66 0 1.32 0 2 0 C3.05404945 3.98196457 2.84098656 6.98195309 2 11 C1.34 11 0.68 11 0 11 C-1.125 3.375 -1.125 3.375 0 0 Z " fill="#34AFA1" transform="translate(158,103)"/>
<path d="M0 0 C0.66 0.99 1.32 1.98 2 3 C1.125 5.6875 1.125 5.6875 0 8 C-2.475 7.01 -2.475 7.01 -5 6 C-3.35 4.02 -1.7 2.04 0 0 Z " fill="#F3EBEB" transform="translate(100,104)"/>
<path d="M0 0 C0.33 0.99 0.66 1.98 1 3 C1.66 3.33 2.32 3.66 3 4 C3.40729228 6.32156597 3.74438677 8.6568787 4 11 C3.01 11 2.02 11 1 11 C0.63890458 9.35567294 0.28629924 7.7094792 -0.0625 6.0625 C-0.25972656 5.14597656 -0.45695312 4.22945312 -0.66015625 3.28515625 C-0.77230469 2.53105469 -0.88445312 1.77695313 -1 1 C-0.67 0.67 -0.34 0.34 0 0 Z " fill="#36B09F" transform="translate(94,14)"/>
<path d="M0 0 C2.4375 1.4375 2.4375 1.4375 3.25 4.5625 C3.311875 5.51125 3.37375 6.46 3.4375 7.4375 C2.674375 6.6125 1.91125 5.7875 1.125 4.9375 C-1.31684142 2.09694803 -1.31684142 2.09694803 -4.5625 2.4375 C-4.5625 1.7775 -4.5625 1.1175 -4.5625 0.4375 C-2.5625 -0.5625 -2.5625 -0.5625 0 0 Z " fill="#78C8BF" transform="translate(105.5625,115.5625)"/>
<path d="M0 0 C-1.32 2.31 -2.64 4.62 -4 7 C-4.66 7 -5.32 7 -6 7 C-6.93423645 3.98968256 -7.04449911 3.13349732 -6 0 C-3.42525708 -0.99667468 -2.51072708 -1.25536354 0 0 Z " fill="#63706A" transform="translate(110,70)"/>
<path d="M0 0 C0.66 0 1.32 0 2 0 C2 0.66 2 1.32 2 2 C2.66 2 3.32 2 4 2 C3.67 2.99 3.34 3.98 3 5 C2.34 4.67 1.68 4.34 1 4 C0.67 4.66 0.34 5.32 0 6 C1.32 6.66 2.64 7.32 4 8 C1.03 7.505 1.03 7.505 -2 7 C-1.34 4.69 -0.68 2.38 0 0 Z " fill="#36B5A3" transform="translate(189,65)"/>
<path d="M0 0 C0.8125 1.6875 0.8125 1.6875 1 4 C-1.4375 6.75 -1.4375 6.75 -4 9 C-4.66 7.68 -5.32 6.36 -6 5 C-5.360625 4.71125 -4.72125 4.4225 -4.0625 4.125 C-1.84793921 3.17176549 -1.84793921 3.17176549 -1 1 C-0.67 0.67 -0.34 0.34 0 0 Z " fill="#78C6C0" transform="translate(99,116)"/>
<path d="M0 0 C6.43538595 -0.36426713 6.43538595 -0.36426713 8.9375 1.25 C10 3 10 3 10 7 C8.68 7.33 7.36 7.66 6 8 C6 6.02 6 4.04 6 2 C3.03 1.505 3.03 1.505 0 1 C0 0.67 0 0.34 0 0 Z " fill="#C4E6E6" transform="translate(138,106)"/>
<path d="M0 0 C0.66 0 1.32 0 2 0 C2 0.66 2 1.32 2 2 C2.66 2 3.32 2 4 2 C4 2.66 4 3.32 4 4 C4.66 4 5.32 4 6 4 C6 4.99 6 5.98 6 7 C5.01 7 4.02 7 3 7 C3 6.34 3 5.68 3 5 C2.34 5 1.68 5 1 5 C1 4.34 1 3.68 1 3 C0.34 3 -0.32 3 -1 3 C-0.67 2.01 -0.34 1.02 0 0 Z " fill="#37B4A3" transform="translate(173,85)"/>
<path d="M0 0 C0.33 0.99 0.66 1.98 1 3 C1.33 3 1.66 3 2 3 C2.99 3 3.98 3 5 3 C4.67 3.99 4.34 4.98 4 6 C2.02 6.33 0.04 6.66 -2 7 C-2.33 6.34 -2.66 5.68 -3 5 C-1.5625 2.375 -1.5625 2.375 0 0 Z " fill="#BD3138" transform="translate(81,40)"/>
<path d="M0 0 C5.41139241 -0.36075949 5.41139241 -0.36075949 7.9375 1.1875 C9 3 9 3 8.6875 5.6875 C8.460625 6.450625 8.23375 7.21375 8 8 C6 5 6 5 6 3 C3.03 2.505 3.03 2.505 0 2 C0 1.34 0 0.68 0 0 Z " fill="#72C4BD" transform="translate(141,6)"/>
<path d="M0 0 C0.66 0 1.32 0 2 0 C2 0.66 2 1.32 2 2 C4.97 2.33 7.94 2.66 11 3 C10.01 3.99 9.02 4.98 8 6 C5.3125 5.6875 5.3125 5.6875 3 5 C3 4.34 3 3.68 3 3 C2.34 3 1.68 3 1 3 C0.67 2.01 0.34 1.02 0 0 Z " fill="#A63A3E" transform="translate(107,83)"/>
<path d="M0 0 C0.99 0 1.98 0 3 0 C3.33 0.99 3.66 1.98 4 3 C2.68 3.99 1.36 4.98 0 6 C-1.125 2.25 -1.125 2.25 0 0 Z M-2 6 C-1.01 6.495 -1.01 6.495 0 7 C-0.66 7.66 -1.32 8.32 -2 9 C-2 8.01 -2 7.02 -2 6 Z " fill="#F9FAF8" transform="translate(193,50)"/>
<path d="M0 0 C0 0.66 0 1.32 0 2 C-0.66 2 -1.32 2 -2 2 C-2.33 3.32 -2.66 4.64 -3 6 C-4.65 6.33 -6.3 6.66 -8 7 C-7.67 6.01 -7.34 5.02 -7 4 C-6.01 3.67 -5.02 3.34 -4 3 C-4 2.34 -4 1.68 -4 1 C-2 0 -2 0 0 0 Z " fill="#3F9483" transform="translate(96,28)"/>
<path d="M0 0 C0.94875 0.04125 1.8975 0.0825 2.875 0.125 C0.54166667 2.45833333 -1.79166667 4.79166667 -4.125 7.125 C-4.75 4.75 -4.75 4.75 -5.125 2.125 C-3.125 0.125 -3.125 0.125 0 0 Z " fill="#82D3CA" transform="translate(142.125,6.875)"/>
<path d="M0 0 C0.99 0.33 1.98 0.66 3 1 C4.1875 4.0625 4.1875 4.0625 5 7 C3.68 7 2.36 7 1 7 C0.34 5.02 -0.32 3.04 -1 1 C-0.67 0.67 -0.34 0.34 0 0 Z " fill="#31AF9F" transform="translate(195,72)"/>
<path d="M0 0 C1.98 0.495 1.98 0.495 4 1 C3.67 3.31 3.34 5.62 3 8 C1.68 8.33 0.36 8.66 -1 9 C-0.690625 8.401875 -0.38125 7.80375 -0.0625 7.1875 C1.10209704 4.91043228 1.10209704 4.91043228 2 2 C1.34 2 0.68 2 0 2 C0 1.34 0 0.68 0 0 Z " fill="#D4EAF0" transform="translate(177,87)"/>
<path d="M0 0 C2.125 0.375 2.125 0.375 4 1 C1.03 3.475 1.03 3.475 -2 6 C-2 2 -2 2 0 0 Z " fill="#BA1922" transform="translate(154,28)"/>
<path d="M0 0 C0.99 0 1.98 0 3 0 C3 0.66 3 1.32 3 2 C3.66 2.33 4.32 2.66 5 3 C4.67 4.65 4.34 6.3 4 8 C3.34 8 2.68 8 2 8 C1.855625 7.236875 1.71125 6.47375 1.5625 5.6875 C1.0367406 2.91827092 1.0367406 2.91827092 0 0 Z " fill="#F5FDFB" transform="translate(168,86)"/>
<path d="M0 0 C2.64 0.66 5.28 1.32 8 2 C5.08235 3.9451 3.37462715 4.45276317 0 5 C0 3.35 0 1.7 0 0 Z " fill="#F1E3E2" transform="translate(98,23)"/>
<path d="M0 0 C0.99 0.33 1.98 0.66 3 1 C3 2.98 3 4.96 3 7 C2.01 7 1.02 7 0 7 C0 4.69 0 2.38 0 0 Z " fill="#E7F8FA" transform="translate(155,107)"/>
<path d="M0 0 C2.56687367 3.8503105 1.83288724 5.58569763 1 10 C0.01 9.67 -0.98 9.34 -2 9 C-1.34 6.03 -0.68 3.06 0 0 Z " fill="#F5F9FC" transform="translate(74,91)"/>
<path d="M0 0 C1.98 0 3.96 0 6 0 C6 0.66 6 1.32 6 2 C4.68 2 3.36 2 2 2 C1.34 3.32 0.68 4.64 0 6 C0 4.02 0 2.04 0 0 Z " fill="#C31820" transform="translate(152,42)"/>
<path d="M0 0 C0.66 0.66 1.32 1.32 2 2 C2.66 2 3.32 2 4 2 C4 2.66 4 3.32 4 4 C1.36 4 -1.28 4 -4 4 C-4 3.34 -4 2.68 -4 2 C-2.68 1.34 -1.36 0.68 0 0 Z " fill="#B12D32" transform="translate(98,28)"/>
<path d="M0 0 C0.66 0.33 1.32 0.66 2 1 C2 1.66 2 2.32 2 3 C2.66 3.33 3.32 3.66 4 4 C2.68 4.99 1.36 5.98 0 7 C-0.66 5.35 -1.32 3.7 -2 2 C-1.34 2 -0.68 2 0 2 C0 1.34 0 0.68 0 0 Z " fill="#66C0B5" transform="translate(78,12)"/>
<path d="M0 0 C0.33 2.97 0.66 5.94 1 9 C-3 4.375 -3 4.375 -3 1 C-1 0 -1 0 0 0 Z " fill="#85CBCB" transform="translate(93,12)"/>
<path d="M0 0 C0.33 0.99 0.66 1.98 1 3 C1.66 3.33 2.32 3.66 3 4 C2.01 4.99 1.02 5.98 0 7 C-0.66 6.67 -1.32 6.34 -2 6 C-1.49396008 3.83125748 -1.00016187 2.00032373 0 0 Z " fill="#FAF9FC" transform="translate(92,129)"/>
<path d="M0 0 C0.99 0.33 1.98 0.66 3 1 C3.625 4.375 3.625 4.375 4 8 C3.34 8.66 2.68 9.32 2 10 C1.34 6.7 0.68 3.4 0 0 Z " fill="#33B29B" transform="translate(108,119)"/>
<path d="M0 0 C1.32 0.33 2.64 0.66 4 1 C3.67 2.32 3.34 3.64 3 5 C2.01 4.67 1.02 4.34 0 4 C0 2.68 0 1.36 0 0 Z " fill="#D3EDEE" transform="translate(140,108)"/>
<path d="M0 0 C0.66 1.32 1.32 2.64 2 4 C1.34 4.66 0.68 5.32 0 6 C-1.5 4.625 -1.5 4.625 -3 3 C-3 2.34 -3 1.68 -3 1 C-2.01 0.67 -1.02 0.34 0 0 Z " fill="#4F8274" transform="translate(107,77)"/>
<path d="M0 0 C0.99 0 1.98 0 3 0 C3 1.32 3 2.64 3 4 C2.01 4.33 1.02 4.66 0 5 C-0.66 4.01 -1.32 3.02 -2 2 C-1.34 1.34 -0.68 0.68 0 0 Z " fill="#80CFC9" transform="translate(171,78)"/>
<path d="M0 0 C0.66 0 1.32 0 2 0 C1.67 2.64 1.34 5.28 1 8 C-1 6 -1 6 -1.1875 3.4375 C-1 1 -1 1 0 0 Z " fill="#CA212C" transform="translate(77,76)"/>
<path d="M0 0 C0.99 0.33 1.98 0.66 3 1 C2.34 2.32 1.68 3.64 1 5 C0.01 5 -0.98 5 -2 5 C-2 4.01 -2 3.02 -2 2 C-1.34 2 -0.68 2 0 2 C0 1.34 0 0.68 0 0 Z " fill="#339282" transform="translate(175,67)"/>
<path d="M0 0 C0.66 0.99 1.32 1.98 2 3 C0.35 4.32 -1.3 5.64 -3 7 C-3.33 5.35 -3.66 3.7 -4 2 C-3.01 1.67 -2.02 1.34 -1 1 C-0.67 0.67 -0.34 0.34 0 0 Z " fill="#F0E3E6" transform="translate(84,33)"/>
<path d="M0 0 C3.375 -0.125 3.375 -0.125 7 0 C7.66 0.66 8.32 1.32 9 2 C8.34 2.66 7.68 3.32 7 4 C4.69 3.01 2.38 2.02 0 1 C0 0.67 0 0.34 0 0 Z " fill="#C23C46" transform="translate(130,24)"/>
</svg>
