<?xml version="1.0" encoding="UTF-8"?>
<svg version="1.1" xmlns="http://www.w3.org/2000/svg" width="225" height="225">
<path d="M0 0 C74.25 0 148.5 0 225 0 C225 74.25 225 148.5 225 225 C150.75 225 76.5 225 0 225 C0 150.75 0 76.5 0 0 Z " fill="#FEFEFE" transform="translate(0,0)"/>
<path d="M0 0 C6.29622304 2.87196139 10.17591048 7.86420875 13.25390625 13.9140625 C14.39391619 17.21409128 15.11391756 19.88018239 15.44140625 23.3515625 C15.59029297 24.57939453 15.59029297 24.57939453 15.7421875 25.83203125 C16.40301997 35.43353838 12.86041776 46.03719572 6.6484375 53.5078125 C5.23451695 55.30789115 5.23451695 55.30789115 5.41015625 57.671875 C6.87885366 61.48826296 9.29529109 64.14830502 11.94140625 67.2265625 C17.97815794 74.48605055 22.8717359 82.10361489 27.44140625 90.3515625 C27.87195313 91.00769531 28.3025 91.66382813 28.74609375 92.33984375 C30.05866882 96.13746262 29.14907336 99.69403426 27.60107422 103.31982422 C26.57987558 105.34390625 25.49886163 107.3180184 24.37890625 109.2890625 C24.00185547 109.97291016 23.62480469 110.65675781 23.23632812 111.36132812 C22.31439683 113.03014046 21.37925113 114.69164114 20.44140625 116.3515625 C17.71484953 113.91713685 16.18743298 111.29679142 14.44140625 108.1015625 C10.4082654 101.04996105 5.66063928 94.63912536 0.78710938 88.15136719 C-1.25127153 85.42514367 -3.24816543 82.67007 -5.24609375 79.9140625 C-5.88933594 79.02847656 -6.53257813 78.14289063 -7.1953125 77.23046875 C-7.64519531 76.61042969 -8.09507813 75.99039063 -8.55859375 75.3515625 C-12.90998131 79.49028826 -16.62081664 83.99247179 -20.30859375 88.7265625 C-20.92186523 89.51369629 -21.53513672 90.30083008 -22.16699219 91.11181641 C-28.46800455 99.33290105 -34.04929837 108.01087921 -38.55859375 117.3515625 C-43.83517667 112.47971747 -46.45953961 105.09063104 -48.55859375 98.3515625 C-47.27602496 83.67601572 -31.55522095 68.11835941 -22.55859375 57.3515625 C-23.87729319 53.79927645 -25.46730446 50.73453468 -27.49609375 47.5390625 C-33.16399809 38.11565187 -35.30287186 29.84543852 -33.01953125 18.7265625 C-30.57206085 10.76555988 -26.13342448 5.32317096 -19.55859375 0.3515625 C-14.41112249 -2.22217313 -5.50864364 -1.39608373 0 0 Z " fill="#E0031A" transform="translate(97.55859375,53.6484375)"/>
<path d="M0 0 C1.98 0 3.96 0 6 0 C6.625 2.3125 6.625 2.3125 7 5 C6.01 6.485 6.01 6.485 5 8 C4.54860541 10.0492094 4.54860541 10.0492094 4.375 12.1875 C4.25125 13.445625 4.1275 14.70375 4 16 C5.65 15.67 7.3 15.34 9 15 C9.33 12.36 9.66 9.72 10 7 C11.65 6.67 13.3 6.34 15 6 C15.125 8.375 15.125 8.375 15 11 C14.34 11.66 13.68 12.32 13 13 C13.32041397 15.60280568 13.32041397 15.60280568 14 18 C15.94074861 17.72382467 15.94074861 17.72382467 18 17 C20.30039124 13.54941314 20.4738275 11.05904498 21 7 C22 6 22 6 24.5625 5.9375 C25.7690625 5.9684375 25.7690625 5.9684375 27 6 C27.495 8.475 27.495 8.475 28 11 C27.05125 11.515625 26.1025 12.03125 25.125 12.5625 C21.385483 15.47932326 20.8783773 17.43243804 20 22 C20.5775 22.2475 21.155 22.495 21.75 22.75 C24 24 24 24 25.875 26.1875 C27.90775162 28.29821045 27.90775162 28.29821045 30.9375 28.125 C35.09742966 26.59686257 36.42478663 24.55985377 39 21 C40.65 21.33 42.3 21.66 44 22 C44.625 24.375 44.625 24.375 45 27 C42.2173829 29.7826171 39.89667775 29.40930664 36.09375 29.65625 C33.78487741 29.82631807 33.78487741 29.82631807 32 32 C31.83312552 34.58354218 31.83312552 34.58354218 32 37 C32.8353125 36.505 32.8353125 36.505 33.6875 36 C36.30284522 34.8690399 38.1806646 34.84337026 41 35 C41.5625 36.9375 41.5625 36.9375 42 39 C41.67 39.33 41.34 39.66 41 40 C38.66055264 39.71269945 36.3260857 39.38063221 34 39 C34.495 41.97 34.495 41.97 35 45 C36.41702513 44.85769192 37.8336096 44.71099254 39.25 44.5625 C40.03890625 44.48128906 40.8278125 44.40007812 41.640625 44.31640625 C43.99537346 44.06509603 43.99537346 44.06509603 46.171875 43.33984375 C46.77515625 43.22769531 47.3784375 43.11554688 48 43 C48.66 43.66 49.32 44.32 50 45 C49.625 47.625 49.625 47.625 49 50 C46.6875 50.625 46.6875 50.625 44 51 C43.01 50.34 42.02 49.68 41 49 C37.87478167 48.83300768 37.87478167 48.83300768 35 49 C34.67 50.65 34.34 52.3 34 54 C36.31 54 38.62 54 41 54 C41 55.65 41 57.3 41 59 C37.37471432 59.20140476 35.13498292 58.85776765 32 57 C31.74969023 59.41619823 31.74969023 59.41619823 32 62 C34.91506455 63.94337637 35.82971692 64.27674667 39.125 64.5625 C43 65 43 65 44 66 C44.1875 68.4375 44.1875 68.4375 44 71 C43.34 71.66 42.68 72.32 42 73 C39.35263407 72.79014782 38.22213739 72.21245709 36.296875 70.37109375 C35.78640625 69.73300781 35.2759375 69.09492188 34.75 68.4375 C34.22921875 67.79683594 33.7084375 67.15617187 33.171875 66.49609375 C32.78515625 66.00238281 32.3984375 65.50867188 32 65 C30.02 65.495 30.02 65.495 28 66 C28.19471111 67.94999129 28.19471111 67.94999129 29 70 C30.9837767 71.28436734 30.9837767 71.28436734 33 72 C32.505 73.98 32.505 73.98 32 76 C30.125 75.75 30.125 75.75 28 75 C26.75 72.9375 26.75 72.9375 26 71 C24.02 71.495 24.02 71.495 22 72 C21.04497842 73.72476911 21.04497842 73.72476911 21 76 C23.27073609 78.68743506 23.27073609 78.68743506 26 81 C26.99 81.99 26.99 81.99 28 83 C27.625 85.125 27.625 85.125 27 87 C25.34385343 87.38218767 23.67542976 87.71395102 22 88 C20.13646799 86.13646799 20.59515928 83.50162399 20.37890625 81.0078125 C20.07746158 78.69284593 20.07746158 78.69284593 18 76 C16.39536551 76.31008884 14.79130769 76.62316287 13.1875 76.9375 C11.84751953 77.19853516 11.84751953 77.19853516 10.48046875 77.46484375 C7.88602829 77.97741153 7.88602829 77.97741153 5 79 C4.67 80.98 4.34 82.96 4 85 C3.34 84.67 2.68 84.34 2 84 C1.87625 83.236875 1.7525 82.47375 1.625 81.6875 C0.84508645 78.33387173 -0.58145878 77.40539698 -3 75 C-4.0839843 73.36054117 -5.1234418 71.69107315 -6.125 70 C-10.16440017 63.47887685 -14.98731797 57.77920886 -20 52 C-18.70326757 48.62969084 -17.23915449 45.4466123 -15.5625 42.25 C-12.02776619 35.21181321 -9.76807972 28.74246066 -9.30859375 20.84765625 C-9 19 -9 19 -7 17 C-7.32971479 13.70285207 -7.6226839 12.3773161 -10 10 C-9.625 7.875 -9.625 7.875 -9 6 C-7.35 6.33 -5.7 6.66 -4 7 C-3.67 9.97 -3.34 12.94 -3 16 C-1.68 15.67 -0.36 15.34 1 15 C1.24670754 10.82036485 1.24670754 10.82036485 -0.0625 6.9375 C-1.32763276 4.3228923 -0.7591193 2.73282949 0 0 Z " fill="#E50A1A" transform="translate(126,60)"/>
<path d="M0 0 C1.0828125 -0.00515625 2.165625 -0.0103125 3.28125 -0.015625 C6.63574256 0.26120206 9.36306413 1.05947615 12.5 2.25 C11.38527622 11.28722495 6.11674966 19.22906292 0.5 26.25 C-0.16 26.25 -0.82 26.25 -1.5 26.25 C-2.89120241 24.27461303 -4.14624083 22.32358435 -5.375 20.25 C-5.73070068 19.65783691 -6.08640137 19.06567383 -6.45288086 18.45556641 C-9.02697865 14.13221334 -11.52777458 9.88044229 -13.5 5.25 C-13.17 4.26 -12.84 3.27 -12.5 2.25 C-8.29019711 0.39273402 -4.56848182 -0.02175468 0 0 Z " fill="#FDF8F8" transform="translate(88.5,67.75)"/>
<path d="M0 0 C0.66 0.33 1.32 0.66 2 1 C1.125 5.875 1.125 5.875 0 7 C-0.27501215 8.95497769 -0.51932894 10.91429597 -0.75 12.875 C-1.96748401 21.16115984 -5.02199707 27.88766312 -9.4375 34.9375 C-9.953125 35.948125 -10.46875 36.95875 -11 38 C-9.88247415 41.02396045 -8.03941444 43.40753837 -6.06640625 45.93359375 C-5.2165918 47.0309082 -5.2165918 47.0309082 -4.34960938 48.15039062 C-3.46499023 49.28250977 -3.46499023 49.28250977 -2.5625 50.4375 C7 62.69306931 7 62.69306931 7 66 C8.485 66.495 8.485 66.495 10 67 C10.12375 68.1446875 10.12375 68.1446875 10.25 69.3125 C10.73816412 72.1358843 10.73816412 72.1358843 13.0625 73.5 C13.701875 73.995 14.34125 74.49 15 75 C15.25 77.6875 15.25 77.6875 15 80 C14.01 80.495 14.01 80.495 13 81 C12.67 79.35 12.34 77.7 12 76 C10.68 76 9.36 76 8 76 C7.51273438 75.05382812 7.02546875 74.10765625 6.5234375 73.1328125 C1.69034487 64.03118646 -3.81402245 55.9746724 -10.38916016 48.02978516 C-10.9722998 47.31483887 -11.55543945 46.59989258 -12.15625 45.86328125 C-12.68025391 45.23719971 -13.20425781 44.61111816 -13.74414062 43.96606445 C-15.24122935 41.62235226 -15.70752647 39.7556884 -16 37 C-14.92578125 34.67578125 -14.92578125 34.67578125 -13.3125 32.3125 C-6.81558547 22.01436042 -5.41964239 14.09078346 -6 2 C-4.02 2 -2.04 2 0 2 C0 1.34 0 0.68 0 0 Z " fill="#FAE7E7" transform="translate(118,72)"/>
<path d="M0 0 C3.90898628 3.70546635 7.08404565 7.60539595 10.1875 12 C10.62513672 12.60328125 11.06277344 13.2065625 11.51367188 13.828125 C13.41212952 16.49466093 14.92420662 18.80426693 16.11328125 21.875 C16.40589844 22.57625 16.69851562 23.2775 17 24 C17.99 24.33 18.98 24.66 20 25 C20.12375 26.1446875 20.12375 26.1446875 20.25 27.3125 C20.73816412 30.1358843 20.73816412 30.1358843 23.0625 31.5 C23.701875 31.995 24.34125 32.49 25 33 C25.25 35.6875 25.25 35.6875 25 38 C24.01 38.495 24.01 38.495 23 39 C22.505 36.525 22.505 36.525 22 34 C20.68 34 19.36 34 18 34 C17.47792969 33.00742188 16.95585938 32.01484375 16.41796875 30.9921875 C11.14160821 21.1802213 5.14041872 12.54180931 -2 4 C-1.34 2.68 -0.68 1.36 0 0 Z " fill="#F9EBEC" transform="translate(108,114)"/>
<path d="M0 0 C-0.40879074 3.37252362 -1.33187633 5.67428442 -3.125 8.5 C-5.28814513 11.77373583 -5.28814513 11.77373583 -4.75 14.9375 C-4.37875 15.9584375 -4.37875 15.9584375 -4 17 C-5.32 17 -6.64 17 -8 17 C-8.66 16.34 -9.32 15.68 -10 15 C-9.64495024 11.28754986 -8.38344872 8.47043156 -6.5625 5.25 C-6.13066406 4.47140625 -5.69882813 3.6928125 -5.25390625 2.890625 C-3.69306329 0.53720446 -2.82584202 0 0 0 Z " fill="#F9EDED" transform="translate(112,98)"/>
<path d="M0 0 C2.5 0.25 2.5 0.25 4.5 2.25 C4.75 4.75 4.75 4.75 4.5 7.25 C2.5 9.25 2.5 9.25 0 9.5 C-2.5 9.25 -2.5 9.25 -4.5 7.25 C-4.75 4.75 -4.75 4.75 -4.5 2.25 C-2.5 0.25 -2.5 0.25 0 0 Z " fill="#F9EDED" transform="translate(140.5,91.75)"/>
<path d="M0 0 C3.74817794 0.28288135 6.07469317 1.39982467 9.3125 3.25 C8.384375 3.86875 8.384375 3.86875 7.4375 4.5 C5.24481719 6.30573879 4.38461583 7.6590534 3.3125 10.25 C3.3125 8.93 3.3125 7.61 3.3125 6.25 C1.0025 6.25 -1.3075 6.25 -3.6875 6.25 C-3.730221 4.58388095 -3.72813832 2.91617115 -3.6875 1.25 C-2.6875 0.25 -2.6875 0.25 0 0 Z " fill="#F9EEEE" transform="translate(163.6875,107.75)"/>
<path d="M0 0 C2.5625 0.1875 2.5625 0.1875 4.5625 2.1875 C4.00694444 6.74305556 4.00694444 6.74305556 2.5625 8.1875 C0.125 8.375 0.125 8.375 -2.4375 8.1875 C-3.0975 7.5275 -3.7575 6.8675 -4.4375 6.1875 C-3.71780303 0.28598485 -3.71780303 0.28598485 0 0 Z " fill="#FAF1F1" transform="translate(129.4375,118.8125)"/>
<path d="M0 0 C2.42348595 0.08655307 3.68385658 0.6766715 5.375 2.40625 C6.62094897 3.90705217 7.81389216 5.45147031 9 7 C7.35 8.32 5.7 9.64 4 11 C3.67 10.01 3.34 9.02 3 8 C0.50240018 6.30117552 0.50240018 6.30117552 -2 5 C-1.125 1.125 -1.125 1.125 0 0 Z " fill="#FAEEEE" transform="translate(155,124)"/>
<path d="M0 0 C1.32 0 2.64 0 4 0 C4.02688151 1.64574566 4.04634123 3.29161413 4.0625 4.9375 C4.07410156 5.85402344 4.08570313 6.77054687 4.09765625 7.71484375 C4 10 4 10 3 11 C1.33382885 11.04063832 -0.33388095 11.042721 -2 11 C-2.25 3.375 -2.25 3.375 0 0 Z " fill="#FAF3F3" transform="translate(132,65)"/>
<path d="M0 0 C-0.99 0.33 -1.98 0.66 -3 1 C-2.67 2.65 -2.34 4.3 -2 6 C-4.90600261 7.25664978 -6.79604584 8 -10 8 C-11.30892449 3.597254 -11.30892449 3.597254 -10.0625 1.1875 C-6.76781888 -0.70943762 -3.75761536 -0.18480076 0 0 Z " fill="#FAEEED" transform="translate(168,89)"/>
<path d="M0 0 C1.32 0 2.64 0 4 0 C4.0825 0.763125 4.165 1.52625 4.25 2.3125 C4.73816412 5.1358843 4.73816412 5.1358843 7.0625 6.5 C7.701875 6.995 8.34125 7.49 9 8 C9.25 10.6875 9.25 10.6875 9 13 C8.01 13.495 8.01 13.495 7 14 C6.67 12.35 6.34 10.7 6 9 C4.68 9 3.36 9 2 9 C0.4375 6.1875 0.4375 6.1875 -1 3 C-0.67 2.01 -0.34 1.02 0 0 Z " fill="#F4BDBE" transform="translate(124,139)"/>
<path d="M0 0 C0.625 2.375 0.625 2.375 1 5 C0.34 5.66 -0.32 6.32 -1 7 C-4.29714793 6.67028521 -5.6226839 6.3773161 -8 4 C-8 3.01 -8 2.02 -8 1 C-4.93251126 -0.86240388 -3.40254489 -1.2151946 0 0 Z " fill="#E71B27" transform="translate(175,104)"/>
<path d="M0 0 C1.65 0.33 3.3 0.66 5 1 C5.33 4.63 5.66 8.26 6 12 C4.35 12.33 2.7 12.66 1 13 C1.226875 12.071875 1.45375 11.14375 1.6875 10.1875 C1.790625 9.135625 1.89375 8.08375 2 7 C0.54166642 5.37485532 0.54166642 5.37485532 -1 4 C-0.6875 1.8125 -0.6875 1.8125 0 0 Z " fill="#E7232E" transform="translate(117,66)"/>
<path d="M0 0 C3.63559661 3.43361902 6.36113346 6.7973607 9 11 C8.01 11 7.02 11 6 11 C5.67 11.66 5.34 12.32 5 13 C2.69 10.03 0.38 7.06 -2 4 C-1.34 2.68 -0.68 1.36 0 0 Z " fill="#F7E4E3" transform="translate(108,114)"/>
<path d="M0 0 C0.33 0.99 0.66 1.98 1 3 C3.31 3 5.62 3 8 3 C8 4.65 8 6.3 8 8 C3.24792529 8.43200679 0.21789302 6.98489083 -4 5 C-4 4.34 -4 3.68 -4 3 C-2.68 3 -1.36 3 0 3 C0 2.01 0 1.02 0 0 Z " fill="#E7202C" transform="translate(159,111)"/>
<path d="M0 0 C0.66 0.33 1.32 0.66 2 1 C2.125 3.375 2.125 3.375 2 6 C1.34 6.66 0.68 7.32 0 8 C-1.875 8 -1.875 8 -4 7 C-6.25 3.9375 -6.25 3.9375 -8 1 C-6.02 1 -4.04 1 -2 1 C-2.99 1.495 -2.99 1.495 -4 2 C-3.67 2.99 -3.34 3.98 -3 5 C-2.34 5.33 -1.68 5.66 -1 6 C-0.67 4.02 -0.34 2.04 0 0 Z " fill="#E61A25" transform="translate(168,125)"/>
<path d="M0 0 C1.32 0 2.64 0 4 0 C4.1875 2.375 4.1875 2.375 4 5 C3.01 5.66 2.02 6.32 1 7 C0.27617533 9.05925139 0.27617533 9.05925139 0 11 C-1.98 11 -3.96 11 -6 11 C-5.360625 10.835 -4.72125 10.67 -4.0625 10.5 C-1.83913184 9.22373282 -1.83913184 9.22373282 -1.546875 7.12109375 C-1.32825683 5.08430118 -1.16206908 3.0420704 -1 1 C-0.67 0.67 -0.34 0.34 0 0 Z " fill="#E82E38" transform="translate(137,66)"/>
<path d="M0 0 C0.5625 1.9375 0.5625 1.9375 1 4 C0 5 0 5 -2.5625 5.0625 C-3.7690625 5.0315625 -3.7690625 5.0315625 -5 5 C-5 4.34 -5 3.68 -5 3 C-5.99 2.67 -6.98 2.34 -8 2 C-4.77208445 -0.1519437 -3.71599191 -0.20086443 0 0 Z " fill="#E61521" transform="translate(167,95)"/>
<path d="M0 0 C2.97 0.495 2.97 0.495 6 1 C5.67 2.65 5.34 4.3 5 6 C5.66 6.33 6.32 6.66 7 7 C5.00045254 7.04254356 2.99958364 7.04080783 1 7 C0 6 0 6 -0.0625 2.9375 C-0.041875 1.968125 -0.02125 0.99875 0 0 Z " fill="#F8DFDF" transform="translate(160,99)"/>
<path d="M0 0 C2.92879371 0.62759865 5.36095629 1.58622659 8 3 C6.68 3 5.36 3 4 3 C3.34 4.32 2.68 5.64 2 7 C1.01 6.34 0.02 5.68 -1 5 C-0.67 3.35 -0.34 1.7 0 0 Z " fill="#F7E5E4" transform="translate(158,117)"/>
<path d="M0 0 C1 4 1 4 1 4 Z M-2 1 C-1.01 2.32 -0.02 3.64 1 5 C0.34 6.32 -0.32 7.64 -1 9 C-1.99 8.67 -2.98 8.34 -4 8 C-3.125 3.25 -3.125 3.25 -2 1 Z " fill="#E10E21" transform="translate(53,144)"/>
<path d="M0 0 C1.98 0.495 1.98 0.495 4 1 C4 1.99 4 2.98 4 4 C3.34 4 2.68 4 2 4 C2 4.66 2 5.32 2 6 C1.34 6 0.68 6 0 6 C-0.33 6.66 -0.66 7.32 -1 8 C-0.67 5.36 -0.34 2.72 0 0 Z " fill="#E11521" transform="translate(66,67)"/>
<path d="M0 0 C2.64 0.33 5.28 0.66 8 1 C7.67 2.98 7.34 4.96 7 7 C6.01 6.67 5.02 6.34 4 6 C4 5.01 4 4.02 4 3 C2.68 2.67 1.36 2.34 0 2 C0 1.34 0 0.68 0 0 Z " fill="#E3000F" transform="translate(160,124)"/>
<path d="M0 0 C1.65 0 3.3 0 5 0 C5 1.32 5 2.64 5 4 C3.35 3.67 1.7 3.34 0 3 C0 2.01 0 1.02 0 0 Z " fill="#E40A17" transform="translate(162,114)"/>
<path d="M0 0 C1.65 0 3.3 0 5 0 C4.67 1.32 4.34 2.64 4 4 C2.35 3.67 0.7 3.34 -1 3 C-0.67 2.01 -0.34 1.02 0 0 Z " fill="#E30113" transform="translate(129,115)"/>
<path d="M0 0 C1.32 0.66 2.64 1.32 4 2 C3.67 2.99 3.34 3.98 3 5 C1.68 4.34 0.36 3.68 -1 3 C-0.67 2.01 -0.34 1.02 0 0 Z " fill="#FAF4F4" transform="translate(104,111)"/>
<path d="M0 0 C1.98 0 3.96 0 6 0 C6 0.66 6 1.32 6 2 C5.38125 2.28875 4.7625 2.5775 4.125 2.875 C1.86674235 3.93720042 1.86674235 3.93720042 0 6 C0 4.02 0 2.04 0 0 Z " fill="#E30014" transform="translate(135,90)"/>
</svg>
