<?xml version="1.0" encoding="UTF-8"?>
<svg version="1.1" xmlns="http://www.w3.org/2000/svg" width="524" height="585">
<path d="M0 0 C172.92 0 345.84 0 524 0 C524 193.05 524 386.1 524 585 C351.08 585 178.16 585 0 585 C0 391.95 0 198.9 0 0 Z " fill="#FDFCFC" transform="translate(0,0)"/>
<path d="M0 0 C1.98 0 3.96 0 6 0 C5.98259766 1.55460937 5.98259766 1.55460937 5.96484375 3.140625 C5.95546163 4.51041486 5.94636188 5.88020668 5.9375 7.25 C5.92912109 7.93191406 5.92074219 8.61382812 5.91210938 9.31640625 C5.89571608 12.69342554 5.94371232 15.77291639 7 19 C9.31 19 11.62 19 14 19 C14.12375 20.134375 14.2475 21.26875 14.375 22.4375 C14.58125 23.613125 14.7875 24.78875 15 26 C18.16522672 27.58261336 21.55086583 27.43470493 25 27 C26.66710346 25.50014391 26.66710346 25.50014391 28 24 C32.42105263 24.42105263 32.42105263 24.42105263 34 26 C34.1875 28.4375 34.1875 28.4375 34 31 C33.34 31.66 32.68 32.32 32 33 C29.24410223 32.98252073 26.61213324 32.86136729 23.875 32.625 C23.12089844 32.56828125 22.36679687 32.5115625 21.58984375 32.453125 C19.72581904 32.3115535 17.86278863 32.15700041 16 32 C16.12776628 36.57155867 16.12776628 36.57155867 18.21777344 40.52539062 C19.8819201 42.01925737 21.59853246 43.39164773 23.375 44.75 C24.66150187 45.79753792 25.94532394 46.84837482 27.2265625 47.90234375 C28.1861084 48.68327393 28.1861084 48.68327393 29.16503906 49.47998047 C56.67051006 72.26458164 70.10126506 111.00190146 77 145 C77.25257568 146.22638184 77.25257568 146.22638184 77.51025391 147.47753906 C83.89776994 179.22470547 86.02439504 213.05562889 80 245 C79.86609863 245.73492676 79.73219727 246.46985352 79.59423828 247.22705078 C77.02421566 260.7562729 71.39765185 277.5563341 59.5 285.75 C54.32553331 289.21823091 50.33784436 290.55595126 44 290 C32.94753618 285.57901447 27.95122538 276.2878918 22.09106445 266.52514648 C16.89360954 257.86874871 11.37023799 249.82889713 5 242 C4.51660156 241.35160156 4.03320312 240.70320312 3.53515625 240.03515625 C-4.18066385 230.06791144 -15.66486474 223.20952586 -26.69433594 217.52416992 C-35.68738492 212.82490846 -41.50952408 207.70146985 -45 198 C-48.93100439 183.52080051 -49.11435374 168.56944576 -49.28125 153.65625 C-49.30937874 151.67917487 -49.33751256 149.70209979 -49.36594391 147.72502899 C-49.42371254 143.6234252 -49.47466754 139.52173176 -49.52606201 135.42004395 C-49.56901106 132.00634516 -49.61366206 128.59269062 -49.66296387 125.17907715 C-49.69932921 122.63819773 -49.7318257 120.0972591 -49.7598877 117.55627441 C-49.84128131 111.94599886 -50.00143481 106.5264721 -51 101 C-52.87300025 100.34838988 -54.7485055 99.70397805 -56.625 99.0625 C-57.66914063 98.70285156 -58.71328125 98.34320313 -59.7890625 97.97265625 C-73.7984186 93.72894619 -87.16703589 96.72800004 -101 100 C-101.76761434 109.14940872 -102.15159777 118.21685077 -102.19923019 127.39930344 C-102.21133204 129.5304156 -102.23084799 131.66135175 -102.25234985 133.79238892 C-102.31296492 139.84037222 -102.3678192 145.8883235 -102.40136719 151.93652344 C-102.42259492 155.66816897 -102.4580933 159.39946598 -102.50212479 163.13090897 C-102.51604151 164.52993236 -102.52495042 165.92901704 -102.52817917 167.32810593 C-102.56401233 181.35901807 -103.25225659 197.45956064 -112.46875 208.80859375 C-117.5485124 213.80754175 -123.99291897 216.82144508 -130.20922852 220.16357422 C-136.85296674 223.78618445 -142.41424044 227.86072122 -148 233 C-148.98226562 233.84498047 -148.98226562 233.84498047 -149.984375 234.70703125 C-161.3738182 245.13166624 -169.70227973 259.57717844 -177.3347168 272.83081055 C-181.23829096 279.41272158 -185.78760183 284.45039058 -192.375 288.4375 C-198.81126771 289.81670022 -204.03768282 290.05594416 -209.75 286.4375 C-225.91811594 274.19064944 -230.78971026 252.38935458 -233.71826172 233.2331543 C-241.31749392 172.99903218 -227.05973174 107.41374016 -189.75 59 C-177.4890532 43.49582131 -159.55379793 25.11625737 -138.921875 22.62890625 C-130.08189637 22.44383281 -123.77645432 23.86850723 -117.00390625 29.7265625 C-103.86279391 43.46114443 -102.7220598 64.02653399 -103 82 C-94.92946657 78.78247288 -94.92946657 78.78247288 -89.72761536 72.1161499 C-86.57875201 62.95819741 -85.57610707 54.44566765 -85.70703125 44.796875 C-85.71127609 43.5930719 -85.71552094 42.3892688 -85.71989441 41.14898682 C-85.73652705 37.34908539 -85.77415048 33.54973789 -85.8125 29.75 C-85.82756675 27.15495564 -85.84125164 24.55990287 -85.85351562 21.96484375 C-85.88638004 15.64301962 -85.93805464 9.32160333 -86 3 C-79.4 3 -72.8 3 -66 3 C-65.12399146 10.40246365 -64.91826173 17.58780329 -65.04296875 25.03515625 C-65.06534519 27.33137169 -65.08680187 29.62759624 -65.10742188 31.92382812 C-65.14453463 35.50066199 -65.18773991 39.0770218 -65.24682617 42.65356445 C-65.30151086 46.13499726 -65.33045084 49.61590017 -65.35546875 53.09765625 C-65.37925095 54.15727066 -65.40303314 55.21688507 -65.42753601 56.30860901 C-65.45162675 63.18897315 -64.1599932 67.93356634 -61 74 C-60.67 74.99 -60.34 75.98 -60 77 C-58.11683841 78.10836423 -58.11683841 78.10836423 -56 79 C-55.01 79.66 -54.02 80.32 -53 81 C-52.01 81 -51.02 81 -50 81 C-49.93530518 80.42258057 -49.87061035 79.84516113 -49.80395508 79.25024414 C-45.96713011 45.99666326 -45.96713011 45.99666326 -37 33 C-36.45085937 32.14535156 -36.45085937 32.14535156 -35.890625 31.2734375 C-32.57357183 26.66137042 -28.32172005 24.5450155 -23 23 C-20.14909874 22.61036397 -17.35528814 22.38129508 -14.48046875 22.2734375 C-11.88978844 21.98785069 -10.23584275 21.30293866 -8 20 C-9.65 19.34 -11.3 18.68 -13 18 C-12.67 17.01 -12.34 16.02 -12 15 C-11.154375 15.495 -10.30875 15.99 -9.4375 16.5 C-5.66203168 18.14747708 -3.07182452 18.24430947 1 18 C1.020625 16.741875 1.04125 15.48375 1.0625 14.1875 C1.07990234 13.12595703 1.07990234 13.12595703 1.09765625 12.04296875 C1.08263217 9.79694539 1.08263217 9.79694539 0 7 C-0.03954234 4.66700175 -0.04401732 2.33291811 0 0 Z " fill="#EC5356" transform="translate(341,123)"/>
<path d="M0 0 C9.73014615 5.64569258 14.51005944 14.68583056 17.5625 25.2421875 C19.16627465 31.79607429 20.24235643 38.26754156 20.625 45 C20.72425781 46.01449219 20.82351562 47.02898437 20.92578125 48.07421875 C21.40791304 55.75996676 21.40791304 55.75996676 19.4140625 58.91796875 C17.5853673 60.58783362 15.77679854 61.77424333 13.625 63 C12.84125 63.48339844 12.0575 63.96679688 11.25 64.46484375 C3.90469742 68.60805349 -1.85470998 68.94611992 -9.9375 67 C-11.071875 66.67 -12.20625 66.34 -13.375 66 C-10.075 67.98 -6.775 69.96 -3.375 72 C-8.3637323 80.31455384 -15.25082349 85.63061456 -24.375 89 C-28.78753441 89.65102967 -30.48305408 89.56231373 -34.25 87.1875 C-37.23342222 84.11633007 -37.5455657 81.56146431 -37.625 77.4375 C-37.46642004 67.50462808 -34.01232624 59.42238634 -27.375 52 C-25.15234375 50.71875 -25.15234375 50.71875 -23.375 50 C-24.365 48.68 -25.355 47.36 -26.375 46 C-26.601875 46.70125 -26.82875 47.4025 -27.0625 48.125 C-28.375 51 -28.375 51 -30.73046875 53.70703125 C-33.56975421 57.04084229 -35.26866714 60.56680819 -37 64.5625 C-38.90393049 68.86349614 -40.85226442 73.01713565 -43.375 77 C-46.44475784 73.5071377 -47.69850282 69.60984596 -49.0625 65.25 C-49.28744141 64.55261719 -49.51238281 63.85523438 -49.74414062 63.13671875 C-50.29463366 61.42667656 -50.83576237 59.71362471 -51.375 58 C-51.375 62.29 -51.375 66.58 -51.375 71 C-65.23214286 71.28571429 -65.23214286 71.28571429 -71.375 69 C-71.375 70.65 -71.375 72.3 -71.375 74 C-70.385 73.97679687 -69.395 73.95359375 -68.375 73.9296875 C-50.88988618 73.63753117 -50.88988618 73.63753117 -46.3125 77.9375 C-45.375 80 -45.375 80 -46.375 83 C-52.42823554 87.01103284 -59.40682491 89.17641375 -66.375 91 C-65.385 92.485 -65.385 92.485 -64.375 94 C-63.529375 93.401875 -62.68375 92.80375 -61.8125 92.1875 C-54.85047126 87.63789517 -48.75133313 85.57156666 -40.375 87 C-36.12155467 88.77370392 -31.67458904 90.71849925 -29.3203125 94.8515625 C-29.41021168 98.38331587 -31.5701682 100.05579044 -33.875 102.625 C-37.29895585 106.46434044 -40.14208661 110.16170545 -42.75 114.625 C-44.84134906 117.76958268 -45.85808892 118.82269885 -49.47265625 120.0625 C-52.46149946 120.56588412 -55.34797065 120.89064919 -58.375 121 C-55.405 121.66 -52.435 122.32 -49.375 123 C-49.95853604 124.6975594 -50.65550817 126.35544725 -51.375 128 C-51.65786865 128.66620361 -51.9407373 129.33240723 -52.23217773 130.01879883 C-53.41952514 132.36360125 -54.51680444 134.13148554 -56.375 136 C-59.86550526 137.07452292 -63.13080477 136.89610639 -66.75 136.6875 C-67.67039063 136.67654297 -68.59078125 136.66558594 -69.5390625 136.65429688 C-76.13974571 136.46099115 -81.46202692 135.6317571 -86.51953125 131.0625 C-87.06996094 130.381875 -87.62039062 129.70125 -88.1875 129 C-88.75082031 128.319375 -89.31414062 127.63875 -89.89453125 126.9375 C-91.11711588 125.33749478 -92.25803572 123.67544642 -93.375 122 C-92.89501432 127.03984962 -91.30326855 129.91817112 -88.375 134 C-87.68942296 135.32370931 -87.01848218 136.65532424 -86.375 138 C-87.33212891 138.81404297 -87.33212891 138.81404297 -88.30859375 139.64453125 C-89.13488281 140.35996094 -89.96117188 141.07539063 -90.8125 141.8125 C-92.04806641 142.87404297 -92.04806641 142.87404297 -93.30859375 143.95703125 C-95.59664759 145.91109686 -95.59664759 145.91109686 -96.375 149 C-95.82972656 148.52949219 -95.28445312 148.05898438 -94.72265625 147.57421875 C-86.14632774 140.49325008 -79.56766193 138.65863494 -68.48828125 138.69921875 C-65.19867329 139.01703533 -62.45981698 139.83914684 -59.375 141 C-61.06691434 149.9589922 -64.07942689 158.44717762 -67 167.0625 C-67.52125345 168.61118679 -68.04209036 170.16001384 -68.5625 171.70898438 C-69.82853377 175.47429156 -71.10019962 179.2376523 -72.375 183 C-73.96576499 183.05429489 -75.55706939 183.09292636 -77.1484375 183.125 C-78.03450684 183.14820313 -78.92057617 183.17140625 -79.83349609 183.1953125 C-83.66020618 182.90123295 -85.48296225 181.43540021 -88.375 179 C-86.725 180.65 -85.075 182.3 -83.375 184 C-84.365 185.98 -84.365 185.98 -85.375 188 C-81.415 187.67 -77.455 187.34 -73.375 187 C-73.54 187.94875 -73.705 188.8975 -73.875 189.875 C-74.56041792 194.5763877 -74.46083441 199.26003286 -74.375 204 C-72.395 204.99 -70.415 205.98 -68.375 207 C-68.87 205.989375 -69.365 204.97875 -69.875 203.9375 C-72.05461126 199.48746035 -72.03142065 195.19803386 -70.61914062 190.46899414 C-69.59529991 187.64060903 -68.50328547 184.8508136 -67.375 182.0625 C-66.9934375 181.09248047 -66.611875 180.12246094 -66.21875 179.12304688 C-65.28131471 176.74430483 -64.33323532 174.37042188 -63.375 172 C-52.81394778 177.63256118 -48.10009816 186.71570514 -42.375 197 C-42.725625 195.783125 -43.07625 194.56625 -43.4375 193.3125 C-44.28889958 189.87041313 -44.64161257 187.41011078 -43.375 184 C-42.40231423 182.97341225 -41.40507481 181.9689922 -40.375 181 C-42.3240625 180.8453125 -42.3240625 180.8453125 -44.3125 180.6875 C-51.19690079 179.23642979 -54.57137001 173.50167909 -58.375 168 C-60.29598376 164.15803248 -59.95337265 159.8330217 -58.68847656 155.82421875 C-57.70565185 153.50174104 -56.63239423 151.25332177 -55.5 149 C-54.90457397 147.7773645 -54.90457397 147.7773645 -54.29711914 146.5300293 C-50.21636934 138.33595995 -45.41636519 130.6304588 -40.375 123 C-36.20713342 124.86895912 -34.47749483 126.87288052 -32.375 131 C-32.375 136.26903969 -34.28240907 140.4242159 -36.53515625 145.08203125 C-37.50870414 146.95637854 -37.50870414 146.95637854 -37.375 149 C-33.91 143.555 -33.91 143.555 -30.375 138 C-26.53066275 139.92216862 -24.27493708 141.82790325 -21.25390625 144.7578125 C-18.84456569 146.35068214 -17.2053541 146.22332125 -14.375 146 C-15.13425781 145.34773437 -15.89351563 144.69546875 -16.67578125 144.0234375 C-17.68012206 143.14111941 -18.68400407 142.25827889 -19.6875 141.375 C-20.67363281 140.51648438 -21.65976563 139.65796875 -22.67578125 138.7734375 C-26.6311467 134.70931382 -28.375 131.6996651 -28.375 126 C-17.04126904 123.64493902 -5.89645501 123.78757777 5.625 124 C1.09937232 121.85568763 -2.16241537 120.61212508 -7.25 120.75 C-8.28640625 120.77578125 -9.3228125 120.8015625 -10.390625 120.828125 C-13.66316493 121.01659589 -16.88662031 121.35751997 -20.13671875 121.7734375 C-30.69140058 122.84179971 -30.69140058 122.84179971 -34.375 121 C-34.21441173 114.57646933 -30.69827502 111.29809089 -26.375 107 C-23.78996583 104.56190461 -21.10592453 102.2725538 -18.375 100 C-17.56289062 99.30003906 -16.75078125 98.60007812 -15.9140625 97.87890625 C-5.44563742 89.02218884 6.51780448 80.45296155 19.625 76 C20.615 76.33 21.605 76.66 22.625 77 C22.52038956 78.03371735 22.52038956 78.03371735 22.41366577 79.08831787 C21.69561214 86.79735185 21.4656204 94.44766528 21.42576981 102.18784332 C21.41371557 104.32719774 21.39420548 106.46637302 21.37265015 108.60565186 C21.31190004 114.67925856 21.25722392 120.75283682 21.22363281 126.82666016 C21.20240284 130.56896713 21.16689594 134.31092679 21.12287521 138.05303192 C21.10895211 139.45763759 21.10004804 140.86230443 21.09682083 142.2669754 C21.06111391 156.31707541 20.3872267 172.44172616 11.15625 183.80859375 C6.0764876 188.80754175 -0.36791897 191.82144508 -6.58422852 195.16357422 C-13.22796674 198.78618445 -18.78924044 202.86072122 -24.375 208 C-25.35726562 208.84498047 -25.35726562 208.84498047 -26.359375 209.70703125 C-37.7488182 220.13166624 -46.07727973 234.57717844 -53.7097168 247.83081055 C-57.61329096 254.41272158 -62.16260183 259.45039058 -68.75 263.4375 C-75.18626771 264.81670022 -80.41268282 265.05594416 -86.125 261.4375 C-102.29311594 249.19064944 -107.16471026 227.38935458 -110.09326172 208.2331543 C-117.69249392 147.99903218 -103.43473174 82.41374016 -66.125 34 C-52.02191609 16.16640716 -24.99340779 -11.3502173 0 0 Z " fill="#EC5356" transform="translate(217.375,148)"/>
<path d="M0 0 C6.6 0 13.2 0 20 0 C20.87600854 7.40246365 21.08173827 14.58780329 20.95703125 22.03515625 C20.93465481 24.33137169 20.91319813 26.62759624 20.89257812 28.92382812 C20.85546537 32.50066199 20.81226009 36.0770218 20.75317383 39.65356445 C20.69848914 43.13499726 20.66954916 46.61590017 20.64453125 50.09765625 C20.62074905 51.15727066 20.59696686 52.21688507 20.57246399 53.30860901 C20.54837325 60.18897315 21.8400068 64.93356634 25 71 C25.33 71.99 25.66 72.98 26 74 C27.79842065 75.0623314 27.79842065 75.0623314 30 76 C31.68696606 77.01487078 33.36736494 78.04069609 35.04296875 79.07421875 C47.42424176 86.44967092 56.580861 91.38928131 71 88 C68.03716687 90.38672669 65.05729491 92.7353371 62 95 C70.86687422 105.14925701 70.86687422 105.14925701 83.0625 109.4375 C87.08287162 108.99079204 89.52193001 107.98746856 93 106 C93.66 106 94.32 106 95 106 C95.10091391 96.64383867 93.65879655 90.0035453 89.35131836 81.80053711 C88.52348085 80.22270385 87.75604717 78.61346379 87 77 C87.33 76.34 87.66 75.68 88 75 C93.70691674 78.96897467 95.62462164 82.83243323 97.875 89.3125 C98.33519531 90.56643555 98.33519531 90.56643555 98.8046875 91.84570312 C99.55277075 93.89124326 100.27867734 95.94487066 101 98 C102.60615267 95.59077099 103.57605601 93.7796189 104.5625 91.125 C104.81128906 90.46757812 105.06007813 89.81015625 105.31640625 89.1328125 C106.89073102 84.22091921 107.26339022 79.31159384 107.5625 74.1875 C107.62727539 73.14819336 107.62727539 73.14819336 107.69335938 72.08789062 C107.79861453 70.39211314 107.89972863 68.69607948 108 67 C108.66 67.33 109.32 67.66 110 68 C110.6328125 70.06640625 110.6328125 70.06640625 111.125 72.5625 C111.29257812 73.38878906 111.46015625 74.21507812 111.6328125 75.06640625 C111.75398437 75.70449219 111.87515625 76.34257812 112 77 C112.66 77 113.32 77 114 77 C114 77.66 114 78.32 114 79 C113.34 79 112.68 79 112 79 C111.01 83.62 110.02 88.24 109 93 C115.6 93 122.2 93 129 93 C124.23177374 96.57616969 120.60877413 96.69371397 114.93164062 97.08398438 C110.10262327 97.53203753 107.43615236 98.56384764 104 102 C103.67 102.66 103.34 103.32 103 104 C103.69867188 104.2784375 104.39734375 104.556875 105.1171875 104.84375 C108.12504432 106.05015328 111.12754496 107.26796334 114.125 108.5 C115.15882813 108.9228125 116.19265625 109.345625 117.2578125 109.78125 C120 111 120 111 123 113 C122.67 114.32 122.34 115.64 122 117 C121.17757813 116.4946875 120.35515625 115.989375 119.5078125 115.46875 C109.87322503 109.7778622 109.87322503 109.7778622 99 110 C95.94555493 111.39164664 93.11031267 112.93230813 90.25 114.6875 C88 116 88 116 86 116 C86.47308594 116.58265625 86.94617188 117.1653125 87.43359375 117.765625 C101.76923077 135.53846154 101.76923077 135.53846154 104 140 C106.71446979 140.31241455 109.33909361 140.51336592 112.0625 140.625 C113.20041992 140.68300781 113.20041992 140.68300781 114.36132812 140.7421875 C116.24047195 140.83673562 118.12020336 140.91946756 120 141 C117.57869669 143.42130331 116.19888623 143.52840504 112.875 144.125 C111.50988281 144.37636719 111.50988281 144.37636719 110.1171875 144.6328125 C109.41851562 144.75398437 108.71984375 144.87515625 108 145 C108.433125 146.051875 108.86625 147.10375 109.3125 148.1875 C109.55613281 148.77917969 109.79976562 149.37085938 110.05078125 149.98046875 C110.36402344 150.64691406 110.67726563 151.31335938 111 152 C111.35191406 152.89332031 111.70382812 153.78664063 112.06640625 154.70703125 C113.93110103 157.42942812 113.93110103 157.42942812 117.9140625 157.59375 C119.48468588 157.59341565 121.05554427 157.56055268 122.625 157.5 C123.43880127 157.4808252 124.25260254 157.46165039 125.09106445 157.44189453 C133.59534378 157.12657402 140.10682394 155.65704278 146.4921875 149.76171875 C149.03701173 146.78836194 150.45547346 143.58330157 152 140 C153.59482572 144.81724756 152.10259598 148.54090965 150 153 C148.46037299 154.98278374 146.93870071 156.37568319 145 158 C146.44781793 161.44428265 148.27694609 163.36130962 151.125 165.75 C151.84945313 166.36359375 152.57390625 166.9771875 153.3203125 167.609375 C153.87460937 168.06828125 154.42890625 168.5271875 155 169 C154.67 169.66 154.34 170.32 154 171 C153.43152344 170.59007812 152.86304688 170.18015625 152.27734375 169.7578125 C151.50519531 169.21898437 150.73304688 168.68015625 149.9375 168.125 C149.18339844 167.59132813 148.42929687 167.05765625 147.65234375 166.5078125 C141.13138687 162.80075896 134.8427528 162.73872457 127.5625 162.875 C126.64017578 162.88402344 125.71785156 162.89304687 124.76757812 162.90234375 C122.51144191 162.9257234 120.25586316 162.95849084 118 163 C118.35827881 164.05912598 118.71655762 165.11825195 119.08569336 166.20947266 C120.41909037 170.15519018 121.74644426 174.10291877 123.07202148 178.05126953 C123.6455802 179.75689887 124.22075638 181.46198522 124.79760742 183.16650391 C125.6284926 185.62259764 126.45346033 188.08061254 127.27734375 190.5390625 C127.53466782 191.29555084 127.79199188 192.05203918 128.05711365 192.83145142 C129.4054437 196.87516948 130.43352038 200.75580555 131 205 C138.37640652 204.10629433 143.28090994 202.82945383 149 198 C147.44499019 201.81684226 144.96404505 204.19195732 142 207 C142.66 208.32 143.32 209.64 144 211 C138.06 210.01 138.06 210.01 132 209 C132.66 215.93 133.32 222.86 134 230 C132.02 230 130.04 230 128 230 C125.18219466 231.38885248 125.18219466 231.38885248 123 233 C125 229 125 229 126.046875 227.23828125 C129.25615935 219.70172416 127.06323477 210.71449046 124.16796875 203.4375 C122.92834939 200.85046828 121.51661744 198.43354088 120 196 C109.2032261 200.72956025 104.63044507 212.96326402 100 223 C99.67 223 99.34 223 99 223 C98.7104027 217.30458647 99.00608217 214.89913827 102 210 C101.05944429 206.89616615 98.9924942 204.53590171 97 202 C97.59167969 201.98582031 98.18335938 201.97164062 98.79296875 201.95703125 C102.9130669 201.7083467 105.34813438 201.50026897 108.6875 198.9375 C109.450625 197.968125 110.21375 196.99875 111 196 C111.55042969 195.38511719 112.10085938 194.77023437 112.66796875 194.13671875 C113.23128906 193.47285156 113.79460937 192.80898438 114.375 192.125 C114.89835938 191.50882813 115.42171875 190.89265625 115.9609375 190.2578125 C117.98454781 185.86064424 116.25552569 181.46597809 114.6875 177.125 C114.13736607 175.74500583 113.57429269 174.37011648 113 173 C112.69529785 172.26885986 112.3905957 171.53771973 112.07666016 170.78442383 C109.82701111 165.55908728 107.26909081 160.58406778 104.375 155.6875 C104.01535156 155.07197266 103.65570313 154.45644531 103.28515625 153.82226562 C100.99317837 150.09259253 98.56264437 147.53135258 95 145 C94.71125 145.763125 94.4225 146.52625 94.125 147.3125 C93 150 93 150 91 153 C91.21660362 157.65697786 92.94379675 160.95137867 95.078125 164.96484375 C96.44111279 167.97381256 96.72689898 170.72278773 97 174 C94.82418313 171.15118272 92.79062001 168.23915912 90.8125 165.25 C90.28269531 164.45078125 89.75289062 163.6515625 89.20703125 162.828125 C88.80871094 162.22484375 88.41039062 161.6215625 88 161 C81.78476664 164.2271404 77.91589927 167.43922663 75 174 C74.34 174 73.68 174 73 174 C73 173.01 73 172.02 73 171 C70.69 171 68.38 171 66 171 C68.37069556 169.08814875 70.74087354 167.19042567 73.1953125 165.38671875 C79.80077949 160.47076889 83.69085415 156.08201049 86 148 C78.28847276 146.94351245 70.71334179 146.88375947 62.9375 146.9375 C61.69033203 146.94201172 60.44316406 146.94652344 59.15820312 146.95117188 C56.10541779 146.96286837 53.05273502 146.97925914 50 147 C56.40063099 141.98572346 64.07302408 141.61014873 72 142 C73.051875 142.165 74.10375 142.33 75.1875 142.5 C80.787062 143.23436879 86.36068001 143.07632162 92 143 C90.2380593 133.54959079 85.13840455 129.99568295 77.78515625 124.234375 C75.90372272 122.72500617 74.05736204 121.17101343 72.24609375 119.578125 C60.28164953 109.09499292 46.88575057 102.39565085 32 97 C31.10023438 96.67128906 30.20046875 96.34257812 29.2734375 96.00390625 C10.65998202 89.49853469 -7.99618568 93.98699338 -25.27734375 102.1484375 C-42.34232948 110.51663332 -59.81376377 123.41917096 -71 139 C-71.3743972 140.32239012 -71.71571961 141.65535375 -72 143 C-63.73176935 143.15090738 -63.73176935 143.15090738 -55.5 142.5 C-46.08103705 141.35675631 -38.42644826 141.23352421 -30 146 C-30 146.33 -30 146.66 -30 147 C-30.62865967 146.99476318 -31.25731934 146.98952637 -31.9050293 146.98413086 C-48.9777458 146.84048303 -48.9777458 146.84048303 -66 148 C-63.81481084 156.21631126 -59.61466007 160.73953259 -53.265625 166.06640625 C-52.51796875 166.70449219 -51.7703125 167.34257812 -51 168 C-51 168.33 -51 168.66 -51 169 C-54.64594839 169.33719754 -56.43934493 169.39492684 -59.484375 167.25 C-60.60585937 166.13625 -60.60585937 166.13625 -61.75 165 C-64.41612283 161.95076185 -64.41612283 161.95076185 -68 161 C-69.28006797 162.78398614 -70.47660351 164.62853906 -71.625 166.5 C-72.25664062 167.5209375 -72.88828125 168.541875 -73.5390625 169.59375 C-74.26222656 170.78484375 -74.26222656 170.78484375 -75 172 C-76.54103125 167.37690625 -74.05601195 164.35423785 -72.03125 160.10546875 C-70.84561393 156.53508741 -70.99815191 154.59457053 -72 151 C-74.46633183 147.39699304 -74.46633183 147.39699304 -78 145 C-78.24363281 145.68320312 -78.48726562 146.36640625 -78.73828125 147.0703125 C-80.23841174 150.55358762 -82.18243741 153.66983922 -84.1875 156.875 C-87.38323088 162.11792481 -90.38355095 167.41089348 -93.0625 172.9375 C-93.63097656 174.10152344 -94.19945312 175.26554688 -94.78515625 176.46484375 C-96.667016 181.94099511 -96.9957121 185.94604315 -94.3828125 191.3359375 C-89.25659922 198.457092 -89.25659922 198.457092 -81.4375 201.75 C-78.99002568 202.00915069 -78.99002568 202.00915069 -77 202 C-77.680625 202.680625 -78.36125 203.36125 -79.0625 204.0625 C-81.34271957 206.88469967 -81.34271957 206.88469967 -80.8125 210.375 C-80.544375 211.57125 -80.27625 212.7675 -80 214 C-79.66666667 216.33333333 -79.33333333 218.66666667 -79 221 C-82.68993351 216.59797405 -85.41563676 211.93213814 -88.21875 206.9375 C-91.46302434 201.5872932 -94.65292909 198.28115715 -100 195 C-106.55841254 207.91497994 -106.55841254 207.91497994 -108 222 C-107.04605164 224.02237052 -106.05464649 226.0282696 -105 228 C-105.33 228.66 -105.66 229.32 -106 230 C-108.31 228.68 -110.62 227.36 -113 226 C-113.22084624 219.90218999 -113.01167675 214.78357065 -111 209 C-117.435 209.99 -117.435 209.99 -124 211 C-123.34 209.35 -122.68 207.7 -122 206 C-123.65 204.68 -125.3 203.36 -127 202 C-126.505 201.01 -126.505 201.01 -126 200 C-125.21625 200.639375 -124.4325 201.27875 -123.625 201.9375 C-119.44649822 204.78008655 -114.92358402 204.80539194 -110 205 C-109.78601563 203.86691406 -109.57203125 202.73382813 -109.3515625 201.56640625 C-107.63672465 193.84963594 -104.90959422 186.41423333 -102.375 178.9375 C-101.85374655 177.38881321 -101.33290964 175.83998616 -100.8125 174.29101562 C-99.54646623 170.52570844 -98.27480038 166.7623477 -97 163 C-107.49865612 161.18743334 -117.38068221 160.83296707 -127 166 C-129.88560541 168.13901227 -132.48677316 170.4363646 -135 173 C-135 168.97698923 -133.67577112 167.95743123 -131 165 C-129.05056443 163.25501743 -127.04941287 161.63021478 -125 160 C-126.33629403 157.19003593 -127.86555622 154.68699708 -129.625 152.125 C-131.86344997 148.61962673 -132.5285303 146.22824239 -132 142 C-131.46375 142.680625 -130.9275 143.36125 -130.375 144.0625 C-129.59125 145.031875 -128.8075 146.00125 -128 147 C-127.55269531 147.58910156 -127.10539062 148.17820312 -126.64453125 148.78515625 C-125.92330078 149.69587891 -125.92330078 149.69587891 -125.1875 150.625 C-124.52814453 151.47964844 -124.52814453 151.47964844 -123.85546875 152.3515625 C-117.02631754 158.4187242 -107.53007118 158.1766572 -98.89453125 157.90234375 C-94.92651202 157.46886266 -94.16677082 157.15296602 -91.07421875 154.31640625 C-89.32692978 151.24508464 -88.02052371 148.37828537 -87 145 C-87.90492188 144.92652344 -87.90492188 144.92652344 -88.828125 144.8515625 C-89.62734375 144.77679688 -90.4265625 144.70203125 -91.25 144.625 C-92.03890625 144.55539062 -92.8278125 144.48578125 -93.640625 144.4140625 C-96.085877 143.98492887 -97.84836903 143.21399362 -100 142 C-98.30230469 141.96132813 -98.30230469 141.96132813 -96.5703125 141.921875 C-95.08850257 141.86560374 -93.60673323 141.80825618 -92.125 141.75 C-91.37863281 141.73582031 -90.63226563 141.72164062 -89.86328125 141.70703125 C-87.42861619 141.64013659 -87.42861619 141.64013659 -84 141 C-82.87537543 139.17687376 -82.87537543 139.17687376 -82 137 C-81.11260526 135.70599404 -80.19401699 134.43298426 -79.25 133.1796875 C-78.7240625 132.47972656 -78.198125 131.77976562 -77.65625 131.05859375 C-77.1096875 130.33800781 -76.563125 129.61742187 -76 128.875 C-75.4534375 128.14667969 -74.906875 127.41835937 -74.34375 126.66796875 C-70.28148496 121.28148496 -70.28148496 121.28148496 -68 119 C-68.18127272 116.3342247 -68.66863933 115.29283036 -70.6796875 113.515625 C-76.7818866 109.99763121 -81.99588702 108.74083362 -89 110 C-92.54470603 111.35415736 -95.73539246 113.07964262 -99 115 C-100.32830058 115.67663859 -101.66001914 116.34679749 -103 117 C-103.33 116.01 -103.66 115.02 -104 114 C-105.485 113.01 -105.485 113.01 -107 112 C-105.38931641 111.63648438 -105.38931641 111.63648438 -103.74609375 111.265625 C-102.3097591 110.92766391 -100.87356871 110.58908935 -99.4375 110.25 C-98.73302734 110.09273438 -98.02855469 109.93546875 -97.30273438 109.7734375 C-92.27543665 108.56873943 -88.38515482 106.74288264 -84 104 C-84.40311361 101.48313064 -84.40311361 101.48313064 -86 99 C-93.21297948 96.1713806 -101.32719185 96.37964415 -109 96 C-109.33 94.02 -109.66 92.04 -110 90 C-108.948125 90.309375 -107.89625 90.61875 -106.8125 90.9375 C-100.96910597 92.42203794 -94.99865199 92.65251711 -89 93 C-89.24556641 91.89591797 -89.24556641 91.89591797 -89.49609375 90.76953125 C-90.16206159 87.10928938 -90.06298721 83.71624527 -90 80 C-89.34 79.67 -88.68 79.34 -88 79 C-87.66226563 80.12019531 -87.32453125 81.24039063 -86.9765625 82.39453125 C-86.52629954 83.86726636 -86.07576447 85.33991831 -85.625 86.8125 C-85.40328125 87.55048828 -85.1815625 88.28847656 -84.953125 89.04882812 C-84.73398438 89.76103516 -84.51484375 90.47324219 -84.2890625 91.20703125 C-84.09006348 91.8616333 -83.89106445 92.51623535 -83.68603516 93.19067383 C-82.96584292 95.29355136 -82.96584292 95.29355136 -81 98 C-80.55269531 97.01 -80.10539062 96.02 -79.64453125 95 C-71.62382285 77.41853598 -71.62382285 77.41853598 -67.40234375 73.52734375 C-65.1400827 71.06343269 -65.30433444 68.22594505 -65 65 C-61 69.75 -61 69.75 -61 72 C-61.70125 72.495 -62.4025 72.99 -63.125 73.5 C-69.9979294 79.47646035 -73.46022397 87.61101467 -74.21484375 96.54296875 C-74.39768056 101.49418951 -74.32339964 105.03748504 -71 109 C-67.96975936 110.51512032 -65.27540943 110.51971441 -62 110 C-54.66807415 107.41083807 -48.09465365 102.88223296 -43 97 C-43 96.01 -43 95.02 -43 94 C-45.2269175 92.29803144 -45.2269175 92.29803144 -48 90.8125 C-48.928125 90.28269531 -49.85625 89.75289063 -50.8125 89.20703125 C-51.534375 88.80871094 -52.25625 88.41039062 -53 88 C-49.58002087 86.86000696 -48.3354932 87.49659639 -45.01171875 88.5 C-37.88808822 90.27053341 -32.6408547 88.89479462 -26.27734375 85.43359375 C-24.30117903 84.18959297 -22.61251104 82.92416296 -20.875 81.375 C-18.29403207 79.24289606 -16.98031124 78.5086041 -13.9375 77.5 C-9.90775098 76.10035435 -7.63724809 74.46609749 -5 71 C-3.73009254 68.06264883 -2.84143954 65.08365705 -2 62 C-1.4901355 60.58424683 -1.4901355 60.58424683 -0.9699707 59.13989258 C0.59534641 53.63091179 0.24554336 47.96357085 0.1953125 42.28515625 C0.1924826 41.07427841 0.18965271 39.86340057 0.18673706 38.61582947 C0.1755803 34.76461732 0.15048355 30.91364136 0.125 27.0625 C0.1149644 24.44466483 0.10583956 21.82682599 0.09765625 19.20898438 C0.07565563 12.80589917 0.04115642 6.40298958 0 0 Z " fill="#74292B" transform="translate(255,126)"/>
<path d="M0 0 C4.09576852 1.31649703 5.44988259 2.36645141 7.5 6.125 C7.32432241 9.37503535 6.95637818 10.70407749 4.5390625 12.93359375 C3.74242187 13.47113281 2.94578125 14.00867188 2.125 14.5625 C-1.71256581 17.40400972 -4.16843526 19.36941164 -5.5 24.125 C-5.75041713 28.89961996 -5.41017767 32.06312605 -2.25 35.75 C0.3509288 37.30668052 0.3509288 37.30668052 2.9375 37.125 C5.67835362 36.1608414 5.67835362 36.1608414 8.5 34.125 C11.35874116 32.21917256 13.14192477 31.52006767 16.5 31.125 C16.995 34.095 16.995 34.095 17.5 37.125 C11.93930418 39.37933614 6.4214349 39.72461828 0.5 40.125 C0.08206951 47.89169429 0.08206951 47.89169429 2.78515625 54.87890625 C8.4912283 58.27746784 15.77828748 57.40294912 22.18359375 57.16796875 C23.27800781 57.15378906 24.37242187 57.13960938 25.5 57.125 C27.23749107 58.86249107 26.794321 61.13548482 26.875 63.5 C26.82689791 68.79810209 26.82689791 68.79810209 24.3125 71.3125 C21.36874286 72.16291873 19.5339877 72.54017726 16.5 72.125 C14.2890625 70.0078125 14.2890625 70.0078125 12.125 67.25 C7.41687994 61.71287541 4.95355461 60.53928415 -2.1875 59.875 C-4.70897122 60.14759148 -6.2794916 60.94696186 -8.5 62.125 C-8.12824787 67.89356753 -7.20690295 71.94657697 -4.5 77.125 C-4.3125 80 -4.3125 80 -4.5 82.125 C-7.47 83.115 -7.47 83.115 -10.5 84.125 C-12.77474277 80.71288584 -13.06629644 78.4681471 -13.625 74.4375 C-13.87636719 72.66826172 -13.87636719 72.66826172 -14.1328125 70.86328125 C-14.31457031 69.50783203 -14.31457031 69.50783203 -14.5 68.125 C-18.24886391 67.71137754 -21.75944328 67.57631467 -25.5 68.125 C-31.17580586 72.97308417 -31.63321157 79.63503579 -32.7265625 86.69921875 C-33.48349406 90.05189037 -33.99733295 91.79734463 -36.5 94.125 C-39.26142303 94.65299676 -41.66365545 94.31098981 -44.5 94.125 C-48.47975352 87.85387324 -48.47975352 87.85387324 -48.5625 84.875 C-47.02147449 82.33684034 -45.1073785 81.51560187 -42.5 80.125 C-37.27358529 77.19820776 -35.2605284 74.89562086 -33.5 69.125 C-33.02845842 65.1505781 -32.9324864 63.070856 -35 59.625 C-37.99897313 57.82561612 -40.00070668 57.89293228 -43.41015625 58.49609375 C-45.58870726 59.15169508 -47.30270429 60.01912257 -49.25 61.1875 C-52.5 63.125 -52.5 63.125 -56.5 63.125 C-56.83 60.815 -57.16 58.505 -57.5 56.125 C-54.13390267 53.88093511 -52.49529914 54.07153459 -48.57421875 54.1875 C-45.65484059 54.0995338 -43.1921898 53.20187592 -40.5 52.125 C-40.49346016 45.23687286 -40.49346016 45.23687286 -43.875 39.5625 C-48.95929514 36.77824314 -53.68547461 36.80791546 -59.37109375 36.50390625 C-62.27210391 36.1525979 -64.03126194 35.62322679 -66.5 34.125 C-66.86923077 26.74038462 -66.86923077 26.74038462 -65 23.625 C-64.505 23.13 -64.01 22.635 -63.5 22.125 C-57.356353 22.24787294 -57.356353 22.24787294 -55.05078125 24.609375 C-54.60089844 25.21265625 -54.15101563 25.8159375 -53.6875 26.4375 C-50.27448313 30.88726662 -45.94718331 32.95096366 -40.5 34.125 C-35.94186246 33.6405273 -33.24314452 31.70361067 -29.5 29.125 C-28.84 29.125 -28.18 29.125 -27.5 29.125 C-28.09427388 27.51714223 -28.70083588 25.91382291 -29.3125 24.3125 C-29.64894531 23.41917969 -29.98539062 22.52585937 -30.33203125 21.60546875 C-31.47499114 19.17811247 -32.61582335 17.96635445 -34.5 16.125 C-34.6875 13.4375 -34.6875 13.4375 -34.5 11.125 C-30.55269095 11.99849416 -28.90165578 12.52830149 -26.6015625 15.9453125 C-26.11429687 17.03585937 -25.62703125 18.12640625 -25.125 19.25 C-24.62226563 20.34570312 -24.11953125 21.44140625 -23.6015625 22.5703125 C-23.23804688 23.41335938 -22.87453125 24.25640625 -22.5 25.125 C-19.42617594 25.47967201 -16.56012653 25.64733194 -13.5 25.125 C-9.50463719 20.63021684 -8.46807862 16.60206844 -8.1875 10.75 C-7.86904399 7.16618165 -7.50758394 5.14016789 -5.875 1.875 C-3.5 0.125 -3.5 0.125 0 0 Z " fill="#93CF9F" transform="translate(329.5,364.875)"/>
<path d="M0 0 C0.33 0 0.66 0 1 0 C1 22.77 1 45.54 1 69 C-22.1 69 -45.2 69 -69 69 C-69 68.67 -69 68.34 -69 68 C-68.38253906 67.87882813 -67.76507813 67.75765625 -67.12890625 67.6328125 C-66.28199219 67.46523438 -65.43507813 67.29765625 -64.5625 67.125 C-63.73878906 66.96257812 -62.91507812 66.80015625 -62.06640625 66.6328125 C-60.54853516 66.31957031 -60.54853516 66.31957031 -59 66 C-58.32114746 65.87810303 -57.64229492 65.75620605 -56.94287109 65.63061523 C-51.24970056 64.5238491 -46.56711617 62.60326322 -41.5 59.8125 C-40.75878906 59.4095874 -40.01757812 59.0066748 -39.25390625 58.59155273 C-25.96159731 51.22267277 -16.25143512 41.40031285 -9 28 C-8.55914063 27.2678125 -8.11828125 26.535625 -7.6640625 25.78125 C-3.14771528 17.788684 -1.73824793 8.91458992 0 0 Z " fill="#020101" transform="translate(523,516)"/>
<path d="M0 0 C0.33 0 0.66 0 1 0 C1.14695313 0.77601563 1.29390625 1.55203125 1.4453125 2.3515625 C5.8345676 23.49061865 16.53830625 41.74231716 34.75 53.75 C41.14714574 57.80852559 47.79314096 60.64734767 55 63 C56.03253906 63.34998047 56.03253906 63.34998047 57.0859375 63.70703125 C61.3340468 65.04297512 65.58964944 65.53575257 70 66 C70 66.33 70 66.66 70 67 C46.9 67 23.8 67 0 67 C0 44.89 0 22.78 0 0 Z " fill="#010101" transform="translate(0,518)"/>
<path d="M0 0 C21.45 0 42.9 0 65 0 C65 22.44 65 44.88 65 68 C64.67 68 64.34 68 64 68 C63.8040625 66.9584375 63.608125 65.916875 63.40625 64.84375 C60.46302804 50.33409229 55.08690611 37.07624018 45 26 C44.32324219 25.24332031 43.64648438 24.48664062 42.94921875 23.70703125 C37.57839799 18.01186253 31.7868751 13.86300023 25 10 C24.20980469 9.53722656 23.41960937 9.07445312 22.60546875 8.59765625 C15.46282939 4.70059431 7.85900105 2.87568158 0 1 C0 0.67 0 0.34 0 0 Z " fill="#010101" transform="translate(459,0)"/>
<path d="M0 0 C-0.875 7.75 -0.875 7.75 -2 10 C-2.27621022 13.65978542 -2.24051467 16.36334353 -0.9375 19.8125 C1.68700805 22.77565425 4.19424553 23.21012643 8 24 C8.1546875 25.11375 8.1546875 25.11375 8.3125 26.25 C9.06730302 29.26921207 9.7605778 30.84055717 12 33 C14.36891496 33.75191978 14.36891496 33.75191978 17 33 C17.969375 32.154375 18.93875 31.30875 19.9375 30.4375 C23 28 23 28 26.25 28.0625 C29 29 29 29 31 31 C31.3125 34 31.3125 34 31 37 C27.54337669 39.30441554 26.05142119 39.25860135 22 39 C21.01 38.505 21.01 38.505 20 38 C16.32670036 37.86642547 13.50147041 37.8328432 10 39 C9.64686278 43.03163876 9.64686278 43.03163876 10 47 C12.44496043 48.71711243 12.44496043 48.71711243 15 50 C15.3125 52.6875 15.3125 52.6875 15 55 C13.125 54.75 13.125 54.75 11 54 C10.731875 53.34 10.46375 52.68 10.1875 52 C9.795625 51.34 9.40375 50.68 9 50 C5.43793339 49.18129815 5.43793339 49.18129815 2 49 C-0.59764097 51.59764097 -1.22368698 53.49050699 -1.25 57.0625 C-1.17454633 60.90216013 -1.17454633 60.90216013 0 64 C0.06740865 65.56118428 0.08514456 67.1250252 0.0625 68.6875 C0.05347656 69.49574219 0.04445312 70.30398438 0.03515625 71.13671875 C0.02355469 71.75160156 0.01195312 72.36648438 0 73 C-2.64 73 -5.28 73 -8 73 C-8.25 65.375 -8.25 65.375 -6 62 C-5.7213842 59.81663332 -5.7213842 59.81663332 -5.8125 57.5 C-5.82216797 56.33984375 -5.82216797 56.33984375 -5.83203125 55.15625 C-5.9269435 52.81651151 -5.9269435 52.81651151 -7 50 C-10.3 50 -13.6 50 -17 50 C-16.9071875 48.63875 -16.9071875 48.63875 -16.8125 47.25 C-16.80340999 44.06234654 -16.80340999 44.06234654 -18.0625 41.625 C-20.00884672 39.69732839 -20.00884672 39.69732839 -23.3125 39.5625 C-27.02469829 39.79182866 -27.02469829 39.79182866 -30.125 41.5625 C-33 43 -33 43 -35.8125 42.75 C-38 42 -38 42 -39 41 C-39.125 38.5 -39.125 38.5 -39 36 C-36.81684264 33.81684264 -31.16823205 34.64812095 -28.078125 34.5703125 C-23.57131039 34.37148244 -20.64700859 33.68500239 -17 31 C-17.33 28.03 -17.66 25.06 -18 22 C-14.7 22 -11.4 22 -8 22 C-7.81106115 15.29267094 -8.24789591 9.47652761 -10 3 C-6.68152292 -0.06320961 -4.44849969 -0.3033068 0 0 Z " fill="#464545" transform="translate(248,404)"/>
<path d="M0 0 C21.45 0 42.9 0 65 0 C65 0.33 65 0.66 65 1 C63.94425781 1.22042969 63.94425781 1.22042969 62.8671875 1.4453125 C48.92345294 4.61268824 38.00476015 10.00686267 27 19 C25.4221875 20.1446875 25.4221875 20.1446875 23.8125 21.3125 C10.60543452 33.93258479 4.41446196 49.48232558 1 67 C0.67 67 0.34 67 0 67 C0 44.89 0 22.78 0 0 Z " fill="#010101" transform="translate(0,0)"/>
<path d="M0 0 C3.29714793 0.32971479 4.6226839 0.6226839 7 3 C6.9375 4.875 6.9375 4.875 6 7 C4.37373596 8.38232443 2.7074998 9.71937515 1 11 C-0.20272819 13.40545638 -0.10071472 14.94996953 -0.0625 17.625 C-0.041875 19.06875 -0.02125 20.5125 0 22 C2.97 22.33 5.94 22.66 9 23 C9 22.01 9 21.02 9 20 C11.475 20.99 11.475 20.99 14 22 C13.34 23.32 12.68 24.64 12 26 C11.2575 25.9175 10.515 25.835 9.75 25.75 C6.8856322 25.76604093 6.8856322 25.76604093 4.6875 27.75 C2.6 30.06458333 2.6 30.06458333 3 34 C8.28 35.32 13.56 36.64 19 38 C20 42 20 42 19 43.75 C15.90496767 45.6843952 13.55744112 45.44468014 10 45 C9.54625 44.34 9.0925 43.68 8.625 43 C7.1959552 40.76851489 7.1959552 40.76851489 4.82421875 40.734375 C2.53808952 40.74859664 0.27940198 40.82796966 -2 41 C-2.08159574 45.16138263 -1.98248524 48.9472484 -1 53 C-2.98 53.495 -2.98 53.495 -5 54 C-7.09350689 50.5980513 -7.17942163 47.94727588 -7 44 C-10.15405055 44.324001 -13.04828072 44.81615537 -16 46 C-17.55737726 48.59562877 -18.23329302 50.18874106 -19 53 C-19.55139889 54.48334067 -20.11379848 55.96264175 -20.6875 57.4375 C-21.120625 58.613125 -21.55375 59.78875 -22 61 C-23.98 60.67 -25.96 60.34 -28 60 C-28.33 58.35 -28.66 56.7 -29 55 C-28.43410156 54.51789063 -27.86820313 54.03578125 -27.28515625 53.5390625 C-26.55167969 52.90742188 -25.81820312 52.27578125 -25.0625 51.625 C-24.33160156 50.99851563 -23.60070312 50.37203125 -22.84765625 49.7265625 C-20.30457648 47.35015392 -20.01881026 46.46085139 -19.875 42.9375 C-19.66351983 40.11101184 -19.66351983 40.11101184 -21 39 C-23.35313555 38.92728259 -25.70833668 38.91629132 -28.0625 38.9375 C-29.35285156 38.94652344 -30.64320313 38.95554688 -31.97265625 38.96484375 C-33.47119141 38.98224609 -33.47119141 38.98224609 -35 39 C-35 38.34 -35 37.68 -35 37 C-31.37 36.01 -27.74 35.02 -24 34 C-24.474375 32.535625 -24.94875 31.07125 -25.4375 29.5625 C-25.70433594 28.73878906 -25.97117188 27.91507813 -26.24609375 27.06640625 C-26.82155494 25.03780412 -26.82155494 25.03780412 -28 24 C-30.34987262 23.76472227 -32.70556039 23.58613583 -35.0625 23.4375 C-36.35285156 23.35371094 -37.64320313 23.26992187 -38.97265625 23.18359375 C-40.47119141 23.09271484 -40.47119141 23.09271484 -42 23 C-42.125 19.625 -42.125 19.625 -42 16 C-41.34 15.34 -40.68 14.68 -40 14 C-36.80837535 14.36343552 -34.75954781 15.72382631 -32.1875 17.5625 C-28.32002452 20.05439295 -25.65764225 20.6269903 -21 20 C-18.64630193 19.11935073 -18.64630193 19.11935073 -17 18 C-17 15.69 -17 13.38 -17 11 C-17.99 10.67 -18.98 10.34 -20 10 C-20.33 9.01 -20.66 8.02 -21 7 C-18.625 7.1875 -18.625 7.1875 -16 8 C-14.8125 10.4375 -14.8125 10.4375 -14 13 C-13.34 13.66 -12.68 14.32 -12 15 C-7.49682877 14.64736215 -7.49682877 14.64736215 -4 12 C-3.39397335 9.63804589 -3.39397335 9.63804589 -3 7 C-2.22222222 2.22222222 -2.22222222 2.22222222 0 0 Z " fill="#94D0A0" transform="translate(188,84)"/>
<path d="M0 0 C1.98 0 3.96 0 6 0 C5.98839844 1.03640625 5.97679687 2.0728125 5.96484375 3.140625 C5.95546163 4.51041486 5.94636188 5.88020668 5.9375 7.25 C5.92493164 8.27287109 5.92493164 8.27287109 5.91210938 9.31640625 C5.89571608 12.69342554 5.94371232 15.77291639 7 19 C9.31 19 11.62 19 14 19 C14.12375 20.134375 14.2475 21.26875 14.375 22.4375 C14.58125 23.613125 14.7875 24.78875 15 26 C18.16522672 27.58261336 21.55086583 27.43470493 25 27 C26.66710346 25.50014391 26.66710346 25.50014391 28 24 C32.42105263 24.42105263 32.42105263 24.42105263 34 26 C34.1875 28.4375 34.1875 28.4375 34 31 C33.34 31.66 32.68 32.32 32 33 C29.24410223 32.98252073 26.61213324 32.86136729 23.875 32.625 C23.12089844 32.56828125 22.36679687 32.5115625 21.58984375 32.453125 C19.72581904 32.3115535 17.86278863 32.15700041 16 32 C16.37918419 37.34828741 16.37918419 37.34828741 19.5625 41.4375 C20.366875 41.953125 21.17125 42.46875 22 43 C21.67 44.32 21.34 45.64 21 47 C20.01 46.67 19.02 46.34 18 46 C17.67 44.35 17.34 42.7 17 41 C13.56769552 41.26393501 13.56769552 41.26393501 10 42 C7.61221098 45.58168353 7.59854519 48.41067642 7.4375 52.5625 C7.11919505 59.76160991 7.11919505 59.76160991 6 62 C2.535 61.505 2.535 61.505 -1 61 C0.07401108 58.08482708 0.77810176 56.22189824 3 54 C3.31537716 49.66356399 3.44897847 47.67346771 1 44 C-2.08365871 43.7497843 -2.08365871 43.7497843 -5 44 C-5.3403125 44.928125 -5.3403125 44.928125 -5.6875 45.875 C-7.37929835 48.61410209 -8.99244161 49.05024472 -12 50 C-12.125 47.625 -12.125 47.625 -12 45 C-11.34 44.34 -10.68 43.68 -10 43 C-8.68 43 -7.36 43 -6 43 C-6.4495045 41.68445015 -6.90989716 40.37261642 -7.375 39.0625 C-7.75785156 37.96615234 -7.75785156 37.96615234 -8.1484375 36.84765625 C-8.85271413 34.81317884 -8.85271413 34.81317884 -11 34 C-15.05142119 33.74139865 -16.54337669 33.69558446 -20 36 C-23.1875 35.625 -23.1875 35.625 -26 35 C-26 31 -26 31 -24 29 C-20.96450117 28.85840239 -17.9809372 29.0056634 -14.9453125 29.125 C-12.00737658 29.00031306 -10.46926622 28.52688926 -8 27 C-8 24.69 -8 22.38 -8 20 C-9.65 19.34 -11.3 18.68 -13 18 C-12.67 17.01 -12.34 16.02 -12 15 C-11.154375 15.495 -10.30875 15.99 -9.4375 16.5 C-5.66203168 18.14747708 -3.07182452 18.24430947 1 18 C1.020625 16.741875 1.04125 15.48375 1.0625 14.1875 C1.07410156 13.47980469 1.08570313 12.77210938 1.09765625 12.04296875 C1.08263217 9.79694539 1.08263217 9.79694539 0 7 C-0.03954234 4.66700175 -0.04401732 2.33291811 0 0 Z " fill="#474646" transform="translate(341,123)"/>
<path d="M0 0 C3.691875 -0.061875 7.38375 -0.12375 11.1875 -0.1875 C12.3427417 -0.21481201 13.4979834 -0.24212402 14.68823242 -0.27026367 C15.60967041 -0.27775635 16.5311084 -0.28524902 17.48046875 -0.29296875 C18.41785889 -0.3086792 19.35524902 -0.32438965 20.32104492 -0.34057617 C24.36933209 0.1740835 27.00782889 1.95800371 29.7890625 4.87890625 C31.97779555 8.7127193 31.49995652 12.72259418 31 17 C29.6381878 20.55584297 28.58561383 21.64346452 25.34375 23.6171875 C19.6370139 25.97721622 14.11576079 25.17308757 8 25 C8 30.28 8 35.56 8 41 C5.36 41 2.72 41 0 41 C0 27.47 0 13.94 0 0 Z " fill="#4D5357" transform="translate(254,501)"/>
<path d="M0 0 C3.3 0 6.6 0 10 0 C11.65519256 4.12552049 13.3091985 8.25151422 14.9621582 12.37792969 C15.52336432 13.77844751 16.08488129 15.17884081 16.64672852 16.57910156 C18.44018277 21.04918667 20.22440201 25.52278956 22 30 C22.34853027 30.87398437 22.69706055 31.74796875 23.05615234 32.6484375 C24.2031311 35.59376568 25 37.80820483 25 41 C22.36 41 19.72 41 17 41 C15.68 38.03 14.36 35.06 13 32 C7.72 32 2.44 32 -3 32 C-4.32 34.97 -5.64 37.94 -7 41 C-9.64 41 -12.28 41 -15 41 C-14.27663412 36.27155748 -12.58781522 32.05872904 -10.83984375 27.63671875 C-10.53051407 26.84473587 -10.22118439 26.05275299 -9.90248108 25.23677063 C-8.91800963 22.71881738 -7.92784292 20.20314894 -6.9375 17.6875 C-6.26720056 15.97605929 -5.59727447 14.2644723 -4.92773438 12.55273438 C-3.28947649 8.36678271 -1.64610873 4.18287024 0 0 Z " fill="#4E5459" transform="translate(299,501)"/>
<path d="M0 0 C3.34252226 1.93866291 5.11826348 3.5214521 7.125 6.8125 C7.125 8.1325 7.125 9.4525 7.125 10.8125 C1.72043974 11.16689739 1.72043974 11.16689739 -0.875 10.8125 C-1.349375 10.1525 -1.82375 9.4925 -2.3125 8.8125 C-2.828125 8.1525 -3.34375 7.4925 -3.875 6.8125 C-6.89876416 6.44268712 -9.84292486 6.58366414 -12.875 6.8125 C-13.205 8.4625 -13.535 10.1125 -13.875 11.8125 C-12.70582031 12.18761719 -11.53664062 12.56273437 -10.33203125 12.94921875 C-8.78359355 13.46536465 -7.23543068 13.98233553 -5.6875 14.5 C-4.91857422 14.74427734 -4.14964844 14.98855469 -3.35742188 15.24023438 C1.53605692 16.89939671 4.91991489 18.55377471 8.125 22.8125 C9.27837784 27.7985309 8.90372965 32.39924989 6.4375 36.875 C0.98149482 41.44624758 -4.69136647 41.23647176 -11.546875 41.12890625 C-16.0199003 40.70365384 -17.72062459 39.96687541 -20.875 36.8125 C-23.50450989 33.39413714 -24.24306769 31.10662301 -23.875 26.8125 C-21.235 26.8125 -18.595 26.8125 -15.875 26.8125 C-15.58625 27.616875 -15.2975 28.42125 -15 29.25 C-14.14237432 31.9451468 -14.14237432 31.9451468 -11.875 32.8125 C-10.37743129 32.90749503 -8.87557068 32.94237198 -7.375 32.9375 C-6.5809375 32.94007813 -5.786875 32.94265625 -4.96875 32.9453125 C-2.81581466 32.94527996 -2.81581466 32.94527996 -0.875 31.8125 C-0.875 29.8325 -0.875 27.8525 -0.875 25.8125 C-1.89980469 25.48636719 -2.92460937 25.16023437 -3.98046875 24.82421875 C-5.34125123 24.38313753 -6.70192249 23.94171307 -8.0625 23.5 C-8.73603516 23.28666016 -9.40957031 23.07332031 -10.10351562 22.85351562 C-15.39870867 21.12289156 -19.67597242 19.61104137 -22.875 14.8125 C-23.42043879 11.74655985 -23.40876742 8.88031478 -22.875 5.8125 C-17.14014928 -1.67466622 -8.74861926 -3.32560905 0 0 Z " fill="#4D5358" transform="translate(237.875,501.1875)"/>
<path d="M0 0 C2.64 0 5.28 0 8 0 C8 13.2 8 26.4 8 40 C5.36 40 2.72 40 0 40 C0 26.8 0 13.6 0 0 Z " fill="#4B5156" transform="translate(199,501)"/>
<path d="M0 0 C3.35229465 0.02865209 6.03918063 0.37232443 9 2 C10.35014513 5.01925658 11.08092653 8.00965622 11.8984375 11.2109375 C12.73404239 14.08907348 12.73404239 14.08907348 14.9765625 15.3515625 C16.9582734 15.98879109 18.97857522 16.50292833 21 17 C21.495 18.485 21.495 18.485 22 20 C19.6875 20.6875 19.6875 20.6875 17 21 C16.55269531 20.52272461 16.10539062 20.04544922 15.64453125 19.55371094 C13.42837193 17.45994046 12.01362676 17.56372685 9 17.453125 C8.030625 17.41316406 7.06125 17.37320312 6.0625 17.33203125 C5.051875 17.30496094 4.04125 17.27789062 3 17.25 C1.989375 17.20746094 0.97875 17.16492188 -0.0625 17.12109375 C-5.61803156 16.85704202 -5.61803156 16.85704202 -11 18 C-9.84334866 14.53004599 -8.81924446 14.11443335 -6 12 C-5.67 11.01 -5.34 10.02 -5 9 C-7.97 8.01 -10.94 7.02 -14 6 C-13.67 5.01 -13.34 4.02 -13 3 C-7.06 4.485 -7.06 4.485 -1 6 C-0.67 4.02 -0.34 2.04 0 0 Z " fill="#94D0A1" transform="translate(60,249)"/>
<path d="M0 0 C1.95803507 -0.05389087 3.91648909 -0.09274217 5.875 -0.125 C7.51082031 -0.15980469 7.51082031 -0.15980469 9.1796875 -0.1953125 C12 0 12 0 14 2 C14.3125 5.5 14.3125 5.5 14 9 C9.43362969 12.04424687 5.43284541 11.12783166 0 11 C0 7.37 0 3.74 0 0 Z " fill="#FCFCFC" transform="translate(262,508)"/>
<path d="M0 0 C5.75 0.75 5.75 0.75 8 3 C8.3125 6 8.3125 6 8 9 C4.5647952 11.29013653 3.014669 11.17842973 -1 11 C-1.33 10.01 -1.66 9.02 -2 8 C-2.99 7.67 -3.98 7.34 -5 7 C-4.54625 6.5875 -4.0925 6.175 -3.625 5.75 C-1.94049626 3.93591905 -1.00734029 2.24714373 0 0 Z " fill="#4D4C4C" transform="translate(271,432)"/>
<path d="M0 0 C2.40243465 2.15344283 3.60244944 3.96874765 4.6875 7 C5.06455078 8.0209375 5.06455078 8.0209375 5.44921875 9.0625 C6 11 6 11 6 14 C2.7 14 -0.6 14 -4 14 C-2 4.42857143 -2 4.42857143 0 0 Z " fill="#F4F3F4" transform="translate(303,511)"/>
<path d="M0 0 C0.66 0.33 1.32 0.66 2 1 C-2.16704183 5.85743929 -6.41844996 10.53019508 -11 15 C-11.99 14.67 -12.98 14.34 -14 14 C-12.60919892 12.41224451 -11.21211596 10.82999061 -9.8125 9.25 C-8.64654297 7.92742188 -8.64654297 7.92742188 -7.45703125 6.578125 C-5.11544754 4.12113732 -2.69841735 2.05137234 0 0 Z " fill="#D4D3D3" transform="translate(29,16)"/>
<path d="M0 0 C1.88391785 3.26545761 2.49287967 6.28111761 3 10 C2.34 10 1.68 10 1 10 C1 11.65 1 13.3 1 15 C-0.98 15 -2.96 15 -5 15 C-5 14.67 -5 14.34 -5 14 C-3.35 14 -1.7 14 0 14 C-0.165 13.34 -0.33 12.68 -0.5 12 C-1.12605686 8.24365885 -1.12696208 4.80886246 -1 1 C-0.67 0.67 -0.34 0.34 0 0 Z " fill="#7E3335" transform="translate(166,205)"/>
<path d="M0 0 C0.99 0.495 0.99 0.495 2 1 C2.6328125 3.06640625 2.6328125 3.06640625 3.125 5.5625 C3.29257812 6.38878906 3.46015625 7.21507812 3.6328125 8.06640625 C3.75398438 8.70449219 3.87515625 9.34257812 4 10 C4.66 10 5.32 10 6 10 C6 10.66 6 11.32 6 12 C5.34 12 4.68 12 4 12 C4 12.66 4 13.32 4 14 C3.01 14 2.02 14 1 14 C-0.04976964 10.85069107 -0.10131595 8.61185544 -0.0625 5.3125 C-0.05347656 4.31863281 -0.04445313 3.32476562 -0.03515625 2.30078125 C-0.02355469 1.54152344 -0.01195312 0.78226563 0 0 Z " fill="#823436" transform="translate(363,193)"/>
<path d="M0 0 C5.75 0.75 5.75 0.75 8 3 C8.125 5.625 8.125 5.625 8 8 C6.125 7.75 6.125 7.75 4 7 C2.875 5 2.875 5 2 3 C1.34 2.67 0.68 2.34 0 2 C0 1.34 0 0.68 0 0 Z " fill="#545354" transform="translate(255,451)"/>
<path d="M0 0 C0.042721 1.66611905 0.04063832 3.33382885 0 5 C-1 6 -1 6 -3.5625 6.0625 C-4.7690625 6.0315625 -4.7690625 6.0315625 -6 6 C-5.625 3.5625 -5.625 3.5625 -5 1 C-3 0 -3 0 0 0 Z " fill="#4D4C4C" transform="translate(231,454)"/>
<path d="M0 0 C1.07765625 0.11988281 2.1553125 0.23976563 3.265625 0.36328125 C4.08546875 0.47027344 4.9053125 0.57726562 5.75 0.6875 C5.75 1.0175 5.75 1.3475 5.75 1.6875 C0.36509359 2.60407981 -4.79230189 2.79888159 -10.25 2.6875 C-6.80273592 -0.56731973 -4.61498646 -0.55179186 0 0 Z " fill="#782E30" transform="translate(315.25,270.3125)"/>
<path d="M0 0 C0.33 0.66 0.66 1.32 1 2 C2.98 2 4.96 2 7 2 C7 2.33 7 2.66 7 3 C5.75283203 3.19916016 5.75283203 3.19916016 4.48046875 3.40234375 C3.39378906 3.57894531 2.30710938 3.75554687 1.1875 3.9375 C0.10855469 4.11152344 -0.97039062 4.28554687 -2.08203125 4.46484375 C-5.04933356 4.93871921 -5.04933356 4.93871921 -8 6 C-8.99 5.34 -9.98 4.68 -11 4 C-7.37 2.68 -3.74 1.36 0 0 Z " fill="#7D3133" transform="translate(168,232)"/>
<path d="M0 0 C-0.33 1.32 -0.66 2.64 -1 4 C-1 3.34 -1 2.68 -1 2 C-5.82442184 3.26946514 -5.82442184 3.26946514 -9 7 C-9.33 5.68 -9.66 4.36 -10 3 C-6.68152292 -0.06320961 -4.44849969 -0.3033068 0 0 Z " fill="#595757" transform="translate(248,404)"/>
<path d="M0 0 C1.32 0 2.64 0 4 0 C3.67 1.65 3.34 3.3 3 5 C1.35 5.33 -0.3 5.66 -2 6 C-1.125 1.125 -1.125 1.125 0 0 Z " fill="#4E4D4E" transform="translate(259,420)"/>
<path d="M0 0 C1.32 0 2.64 0 4 0 C4 1.32 4 2.64 4 4 C2.35 4.66 0.7 5.32 -1 6 C-1.042721 4.33388095 -1.04063832 2.66617115 -1 1 C-0.67 0.67 -0.34 0.34 0 0 Z " fill="#524A4B" transform="translate(330,167)"/>
<path d="M0 0 C2.97 0 5.94 0 9 0 C8.67 0.66 8.34 1.32 8 2 C6.68 2 5.36 2 4 2 C4 2.66 4 3.32 4 4 C3.01 4 2.02 4 1 4 C0.67 2.68 0.34 1.36 0 0 Z " fill="#7E3133" transform="translate(364,219)"/>
<path d="M0 0 C2.64 0 5.28 0 8 0 C7.67 0.66 7.34 1.32 7 2 C6.34 2 5.68 2 5 2 C4.67 2.99 4.34 3.98 4 5 C2.68 3.35 1.36 1.7 0 0 Z " fill="#853739" transform="translate(352,328)"/>
<path d="M0 0 C2.475 0.99 2.475 0.99 5 2 C4.34 3.32 3.68 4.64 3 6 C1.68 5.34 0.36 4.68 -1 4 C-0.34 3.67 0.32 3.34 1 3 C0.67 2.01 0.34 1.02 0 0 Z " fill="#9AD3A6" transform="translate(197,104)"/>
<path d="M0 0 C4.95 0.99 4.95 0.99 10 2 C9.01 2.99 8.02 3.98 7 5 C3.535 3.02 3.535 3.02 0 1 C0 0.67 0 0.34 0 0 Z " fill="#7E3436" transform="translate(202,213)"/>
</svg>
