<?xml version="1.0" encoding="UTF-8"?>
<!DOCTYPE svg PUBLIC "-//W3C//DTD SVG 1.1//EN" "http://www.w3.org/Graphics/SVG/1.1/DTD/svg11.dtd">
<svg xmlns="http://www.w3.org/2000/svg" version="1.1" width="220px" height="229px" style="shape-rendering:geometricPrecision; text-rendering:geometricPrecision; image-rendering:optimizeQuality; fill-rule:evenodd; clip-rule:evenodd" xmlns:xlink="http://www.w3.org/1999/xlink">
<g><path style="opacity:1" fill="#fcfdfd" d="M -0.5,-0.5 C 31.5,-0.5 63.5,-0.5 95.5,-0.5C 80.8171,1.22904 67.1505,6.06237 54.5,14C 61.3507,23.1442 63.3507,33.3109 60.5,44.5C 65.4076,43.3625 70.0742,41.5292 74.5,39C 83.0185,32.2378 91.3518,25.2378 99.5,18C 108.937,11.1147 119.27,6.11468 130.5,3C 124.715,1.77667 119.048,0.610001 113.5,-0.5C 148.833,-0.5 184.167,-0.5 219.5,-0.5C 219.5,32.8333 219.5,66.1667 219.5,99.5C 218.026,84.1972 213.359,69.8639 205.5,56.5C 196.61,63.695 186.776,65.3617 176,61.5C 176.972,67.4106 178.972,73.0773 182,78.5C 190.719,89.5523 199.053,100.886 207,112.5C 211.424,120.343 214.424,128.676 216,137.5C 217.731,131.471 218.898,125.471 219.5,119.5C 219.5,155.833 219.5,192.167 219.5,228.5C 187.167,228.5 154.833,228.5 122.5,228.5C 137.531,226.826 151.531,221.992 164.5,214C 157.754,204.279 155.921,193.779 159,182.5C 152.887,184.639 147.053,187.473 141.5,191C 131.045,200.39 120.045,209.056 108.5,217C 101.811,220.512 94.8113,223.179 87.5,225C 92.656,226.035 97.656,227.202 102.5,228.5C 68.1667,228.5 33.8333,228.5 -0.5,228.5C -0.5,194.5 -0.5,160.5 -0.5,126.5C 0.642953,142.502 5.30962,157.502 13.5,171.5C 22.3792,163.817 32.2126,162.151 43,166.5C 42.6947,160.302 40.6947,154.636 37,149.5C 28.2806,138.448 19.9473,127.114 12,115.5C 7.57594,107.657 4.57594,99.3239 3,90.5C 1.87081,95.9691 0.704141,101.302 -0.5,106.5C -0.5,70.8333 -0.5,35.1667 -0.5,-0.5 Z"/></g>
<g><path style="opacity:1" fill="#204684" d="M 95.5,-0.5 C 101.5,-0.5 107.5,-0.5 113.5,-0.5C 119.048,0.610001 124.715,1.77667 130.5,3C 119.27,6.11468 108.937,11.1147 99.5,18C 91.3518,25.2378 83.0185,32.2378 74.5,39C 70.0742,41.5292 65.4076,43.3625 60.5,44.5C 63.3507,33.3109 61.3507,23.1442 54.5,14C 67.1505,6.06237 80.8171,1.22904 95.5,-0.5 Z"/></g>
<g><path style="opacity:1" fill="#0ea24c" d="M 134.5,7.5 C 144.794,6.8022 154.294,9.13554 163,14.5C 161.378,18.6764 159.711,23.0097 158,27.5C 157.05,33.3204 157.55,38.987 159.5,44.5C 158.667,44.8333 157.833,45.1667 157,45.5C 154.46,44.8146 151.96,43.9813 149.5,43C 141.872,37.0404 134.538,30.7071 127.5,24C 123.185,21.2266 118.518,19.2266 113.5,18C 119.552,12.4115 126.552,8.9115 134.5,7.5 Z"/></g>
<g><path style="opacity:1" fill="#1f4583" d="M 25.5,9.5 C 47.1047,8.60507 56.938,18.9384 55,40.5C 48.0519,56.0409 36.5519,60.8743 20.5,55C 6.27057,42.9365 4.93724,29.6032 16.5,15C 19.2632,12.6258 22.2632,10.7925 25.5,9.5 Z"/></g>
<g><path style="opacity:1" fill="#0ba14b" d="M 180.5,9.5 C 201.115,8.28177 210.948,17.9484 210,38.5C 205.403,53.752 195.236,59.9187 179.5,57C 164.516,49.1923 160.016,37.3589 166,21.5C 169.571,15.7429 174.405,11.7429 180.5,9.5 Z"/></g>
<g><path style="opacity:1" fill="#13a24d" d="M 219.5,99.5 C 219.5,106.167 219.5,112.833 219.5,119.5C 218.898,125.471 217.731,131.471 216,137.5C 214.424,128.676 211.424,120.343 207,112.5C 199.053,100.886 190.719,89.5523 182,78.5C 178.972,73.0773 176.972,67.4106 176,61.5C 186.776,65.3617 196.61,63.695 205.5,56.5C 213.359,69.8639 218.026,84.1972 219.5,99.5 Z"/></g>
<g><path style="opacity:1" fill="#214684" d="M 13.5,57.5 C 22.6406,63.4598 32.6406,65.1265 43.5,62.5C 43.0759,67.1915 41.5759,71.5249 39,75.5C 34.3767,81.7921 29.3767,87.7921 24,93.5C 20.7,98.3964 18.3667,103.73 17,109.5C 5.74364,92.9083 4.57698,75.5749 13.5,57.5 Z"/></g>
<g><path style="opacity:1" fill="#0ea049" d="M 119.5,57.5 C 125.631,63.1305 131.631,68.9638 137.5,75C 131.667,80.8333 125.833,86.6667 120,92.5C 119.503,89.854 119.336,87.1873 119.5,84.5C 112.833,84.5 106.167,84.5 99.5,84.5C 99.6662,90.8421 99.4995,97.1754 99,103.5C 92.9397,97.7758 87.273,91.7758 82,85.5C 81.3333,80.8333 81.3333,76.1667 82,71.5C 83.1667,69 85,67.1667 87.5,66C 98.1615,65.5002 108.828,65.3335 119.5,65.5C 119.5,62.8333 119.5,60.1667 119.5,57.5 Z"/></g>
<g><path style="opacity:1" fill="#13a34d" d="M 136.5,84.5 C 140.846,84.3343 145.179,84.501 149.5,85C 153.165,86.668 155.332,89.5013 156,93.5C 156.5,103.828 156.666,114.161 156.5,124.5C 158.857,124.337 161.19,124.503 163.5,125C 158.366,131.135 152.866,136.969 147,142.5C 141.167,136.667 135.333,130.833 129.5,125C 132.146,124.503 134.813,124.336 137.5,124.5C 137.5,117.5 137.5,110.5 137.5,103.5C 131.824,103.666 126.157,103.499 120.5,103C 126.043,96.9613 131.376,90.7947 136.5,84.5 Z"/></g>
<g><path style="opacity:1" fill="#13a34d" d="M 71.5,85.5 C 77.6314,91.1305 83.6314,96.9638 89.5,103C 86.854,103.497 84.1873,103.664 81.5,103.5C 81.5,110.5 81.5,117.5 81.5,124.5C 87.1764,124.334 92.8431,124.501 98.5,125C 93.1667,131 87.8333,137 82.5,143C 78.1667,143.667 73.8333,143.667 69.5,143C 65.8345,141.332 63.6678,138.499 63,134.5C 62.5002,124.172 62.3335,113.839 62.5,103.5C 60.1432,103.663 57.8098,103.497 55.5,103C 60.6709,96.9967 66.0043,91.1634 71.5,85.5 Z"/></g>
<g><path style="opacity:1" fill="#0fa24c" d="M -0.5,126.5 C -0.5,119.833 -0.5,113.167 -0.5,106.5C 0.704141,101.302 1.87081,95.9691 3,90.5C 4.57594,99.3239 7.57594,107.657 12,115.5C 19.9473,127.114 28.2806,138.448 37,149.5C 40.6947,154.636 42.6947,160.302 43,166.5C 32.2126,162.151 22.3792,163.817 13.5,171.5C 5.30962,157.502 0.642953,142.502 -0.5,126.5 Z"/></g>
<g><path style="opacity:1" fill="#214684" d="M 201.5,118.5 C 211.017,130.244 213.851,143.577 210,158.5C 208.464,162.667 206.63,166.667 204.5,170.5C 195.709,164.5 186.042,162.834 175.5,165.5C 175.933,162.834 176.433,160.168 177,157.5C 182.618,149.547 188.618,141.88 195,134.5C 198.052,129.508 200.218,124.175 201.5,118.5 Z"/></g>
<g><path style="opacity:1" fill="#0ea049" d="M 119.5,124.5 C 125.518,130.019 131.351,135.685 137,141.5C 137.667,146.5 137.667,151.5 137,156.5C 135.749,159.381 133.583,161.214 130.5,162C 120.172,162.5 109.839,162.666 99.5,162.5C 99.6641,165.187 99.4974,167.854 99,170.5C 93.1667,164.667 87.3333,158.833 81.5,153C 87.3757,147.292 93.0424,141.459 98.5,135.5C 99.48,138.086 99.8134,140.753 99.5,143.5C 106.167,143.5 112.833,143.5 119.5,143.5C 119.5,137.167 119.5,130.833 119.5,124.5 Z"/></g>
<g><path style="opacity:1" fill="#0ca14b" d="M 28.5,169.5 C 48.4688,170.967 57.3021,181.634 55,201.5C 48.0519,217.041 36.5519,221.874 20.5,216C 8.43659,206.804 5.60326,195.304 12,181.5C 16.2334,175.645 21.7334,171.645 28.5,169.5 Z"/></g>
<g><path style="opacity:1" fill="#1f4584" d="M 180.5,170.5 C 201.135,169.302 210.968,178.969 210,199.5C 204.018,216.407 192.518,221.907 175.5,216C 162.462,206.093 159.962,193.927 168,179.5C 171.651,175.609 175.818,172.609 180.5,170.5 Z"/></g>
<g><path style="opacity:1" fill="#0fa24c" d="M 59.5,182.5 C 63.5115,182.502 67.1781,183.668 70.5,186C 77.7945,191.626 84.7945,197.626 91.5,204C 95.8155,206.773 100.482,208.773 105.5,210C 91.4017,221.156 76.0684,223.156 59.5,216C 57.9386,215.059 56.6053,213.892 55.5,212.5C 61.7568,203.171 63.0901,193.171 59.5,182.5 Z"/></g>
<g><path style="opacity:1" fill="#204684" d="M 122.5,228.5 C 115.833,228.5 109.167,228.5 102.5,228.5C 97.656,227.202 92.656,226.035 87.5,225C 94.8113,223.179 101.811,220.512 108.5,217C 120.045,209.056 131.045,200.39 141.5,191C 147.053,187.473 152.887,184.639 159,182.5C 155.921,193.779 157.754,204.279 164.5,214C 151.531,221.992 137.531,226.826 122.5,228.5 Z"/></g>
</svg>
