<?xml version="1.0" encoding="UTF-8"?>
<svg version="1.1" xmlns="http://www.w3.org/2000/svg" width="251" height="201">
<path d="M0 0 C82.83 0 165.66 0 251 0 C251 66.33 251 132.66 251 201 C168.17 201 85.34 201 0 201 C0 134.67 0 68.34 0 0 Z " fill="#FEFEFE" transform="translate(0,0)"/>
<path d="M0 0 C9.65478817 7.40148267 17.56225232 17.49992374 19.6875 29.8125 C20.65638836 43.91697312 18.50001514 56.27680421 9.6875 67.8125 C1.13112862 77.0794351 -8.99686426 83.11167092 -21.6875 84.06640625 C-37.07299334 84.55508483 -48.11516818 80.33048344 -59.375 69.90234375 C-68.93585034 59.86757195 -71.83865076 47.02249784 -71.625 33.5625 C-70.68585149 22.29271785 -64.53246893 11.07843602 -56.28125 3.40625 C-40.12225258 -9.67484315 -17.6551323 -11.57272392 0 0 Z " fill="#8EC645" transform="translate(151.3125,62.1875)"/>
<path d="M0 0 C9.65478817 7.40148267 17.56225232 17.49992374 19.6875 29.8125 C20.65638836 43.91697312 18.50001514 56.27680421 9.6875 67.8125 C1.13112862 77.0794351 -8.99686426 83.11167092 -21.6875 84.06640625 C-37.07299334 84.55508483 -48.11516818 80.33048344 -59.375 69.90234375 C-68.93585034 59.86757195 -71.83865076 47.02249784 -71.625 33.5625 C-70.68585149 22.29271785 -64.53246893 11.07843602 -56.28125 3.40625 C-40.12225258 -9.67484315 -17.6551323 -11.57272392 0 0 Z M-31.3125 1.8125 C-31.35313832 3.47867115 -31.355221 5.14638095 -31.3125 6.8125 C-34.625 7.5 -34.625 7.5 -38.3125 7.8125 C-40.25 6.375 -40.25 6.375 -41.3125 4.8125 C-45.30750618 6.1822164 -48.11259492 8.06972422 -51.3125 10.8125 C-51.065 11.72 -50.8175 12.6275 -50.5625 13.5625 C-50.3125 16.8125 -50.3125 16.8125 -51.9375 19.1875 C-54.6772743 21.06208242 -56.06334855 21.17351683 -59.3125 20.8125 C-62.22769551 26.57602639 -62.22769551 26.57602639 -61.3125 32.8125 C-59.9925 33.1425 -58.6725 33.4725 -57.3125 33.8125 C-57.5625 37.1875 -57.5625 37.1875 -58.3125 40.8125 C-60.375 42.25 -60.375 42.25 -62.3125 42.8125 C-62.50872241 47.03128192 -62.11480168 49.98260894 -60.3125 53.8125 C-58.0025 53.8125 -55.6925 53.8125 -53.3125 53.8125 C-52.25 55.375 -52.25 55.375 -51.3125 57.8125 C-51.580625 58.92625 -51.84875 60.04 -52.125 61.1875 C-52.69127642 64.7023679 -52.69127642 64.7023679 -50.96875 66.6328125 C-49.11925154 68.31773694 -47.55870813 69.70060456 -45.3125 70.8125 C-43.20142413 70.5830424 -43.20142413 70.5830424 -41.3125 69.8125 C-38.22875179 68.84882868 -36.40347736 68.81897156 -33.3125 69.8125 C-32.9825 71.7925 -32.6525 73.7725 -32.3125 75.8125 C-30.50007948 75.83937279 -28.68754767 75.85883715 -26.875 75.875 C-25.86566406 75.88660156 -24.85632813 75.89820313 -23.81640625 75.91015625 C-21.37228933 76.09862676 -21.37228933 76.09862676 -20.3125 74.8125 C-20.27186168 73.14632885 -20.269779 71.47861905 -20.3125 69.8125 C-17 69.125 -17 69.125 -13.3125 68.8125 C-11.375 70.25 -11.375 70.25 -10.3125 71.8125 C-6.31749382 70.4427836 -3.51240508 68.55527578 -0.3125 65.8125 C-0.539375 64.905 -0.76625 63.9975 -1 63.0625 C-1.3125 59.8125 -1.3125 59.8125 -0.25 57.4375 C1.6875 55.8125 1.6875 55.8125 4.875 55.5625 C5.803125 55.645 6.73125 55.7275 7.6875 55.8125 C10.60269551 50.04897361 10.60269551 50.04897361 9.6875 43.8125 C7.7075 43.3175 7.7075 43.3175 5.6875 42.8125 C5.9375 39.4375 5.9375 39.4375 6.6875 35.8125 C8.75 34.375 8.75 34.375 10.6875 33.8125 C10.88372241 29.59371808 10.48980168 26.64239106 8.6875 22.8125 C6.3775 22.8125 4.0675 22.8125 1.6875 22.8125 C0.625 21.25 0.625 21.25 -0.3125 18.8125 C-0.044375 17.69875 0.22375 16.585 0.5 15.4375 C1.06627642 11.9226321 1.06627642 11.9226321 -0.65625 9.9921875 C-2.50574846 8.30726306 -4.06629187 6.92439544 -6.3125 5.8125 C-8.42357587 6.0419576 -8.42357587 6.0419576 -10.3125 6.8125 C-13.32402986 7.75360308 -15.40893126 8.26428437 -18.3125 6.8125 C-19.5625 3.75 -19.5625 3.75 -20.3125 0.8125 C-21.95824566 0.78561849 -23.60411413 0.76615877 -25.25 0.75 C-26.16652344 0.73839844 -27.08304688 0.72679687 -28.02734375 0.71484375 C-30.27843327 0.55300951 -30.27843327 0.55300951 -31.3125 1.8125 Z " fill="#6CA543" transform="translate(151.3125,62.1875)"/>
<path d="M0 0 C0.91652344 0.01160156 1.83304688 0.02320313 2.77734375 0.03515625 C3.69644531 0.04417969 4.61554688 0.05320313 5.5625 0.0625 C6.27277344 0.07410156 6.98304688 0.08570313 7.71484375 0.09765625 C8.37484375 2.07765625 9.03484375 4.05765625 9.71484375 6.09765625 C13.11805309 6.77439072 13.11805309 6.77439072 16.71484375 7.09765625 C17.37484375 6.43765625 18.03484375 5.77765625 18.71484375 5.09765625 C23.02359269 5.25154014 25.90313062 8.08977709 28.71484375 11.09765625 C28.46484375 14.66015625 28.46484375 14.66015625 27.71484375 18.09765625 C28.5206416 20.46915675 28.5206416 20.46915675 29.71484375 22.09765625 C32.02484375 22.09765625 34.33484375 22.09765625 36.71484375 22.09765625 C38.51714543 25.92754731 38.91106616 28.87887433 38.71484375 33.09765625 C38.07546875 33.28328125 37.43609375 33.46890625 36.77734375 33.66015625 C34.29358162 35.04011681 34.29358162 35.04011681 33.96484375 38.72265625 C33.88234375 39.83640625 33.79984375 40.95015625 33.71484375 42.09765625 C35.36484375 42.75765625 37.01484375 43.41765625 38.71484375 44.09765625 C38.16378466 48.04691305 37.32549004 51.44685799 35.71484375 55.09765625 C34.78671875 55.01515625 33.85859375 54.93265625 32.90234375 54.84765625 C29.70296654 54.78817431 29.70296654 54.78817431 27.77734375 56.72265625 C26.37427316 59.85893168 26.8959688 61.82215644 27.71484375 65.09765625 C25.07484375 67.07765625 22.43484375 69.05765625 19.71484375 71.09765625 C17.71484375 70.09765625 15.71484375 69.09765625 13.71484375 68.09765625 C11.70683919 68.37877689 9.70470324 68.70833592 7.71484375 69.09765625 C7.73546875 69.90203125 7.75609375 70.70640625 7.77734375 71.53515625 C7.71484375 74.09765625 7.71484375 74.09765625 6.71484375 75.09765625 C4.86196873 75.16992127 3.00650497 75.18146845 1.15234375 75.16015625 C0.14042969 75.15113281 -0.87148437 75.14210938 -1.9140625 75.1328125 C-2.69652344 75.12121094 -3.47898437 75.10960937 -4.28515625 75.09765625 C-4.61515625 73.11765625 -4.94515625 71.13765625 -5.28515625 69.09765625 C-8.68836559 68.42092178 -8.68836559 68.42092178 -12.28515625 68.09765625 C-13.27515625 69.08765625 -13.27515625 69.08765625 -14.28515625 70.09765625 C-18.59390519 69.94377236 -21.47344312 67.10553541 -24.28515625 64.09765625 C-24.03515625 60.53515625 -24.03515625 60.53515625 -23.28515625 57.09765625 C-24.0909541 54.72615575 -24.0909541 54.72615575 -25.28515625 53.09765625 C-27.59515625 53.09765625 -29.90515625 53.09765625 -32.28515625 53.09765625 C-34.08745793 49.26776519 -34.48137866 46.31643817 -34.28515625 42.09765625 C-33.64578125 41.91203125 -33.00640625 41.72640625 -32.34765625 41.53515625 C-29.86389412 40.15519569 -29.86389412 40.15519569 -29.53515625 36.47265625 C-29.45265625 35.35890625 -29.37015625 34.24515625 -29.28515625 33.09765625 C-30.93515625 32.43765625 -32.58515625 31.77765625 -34.28515625 31.09765625 C-33.81714914 27.0415946 -33.40562417 23.63176946 -31.28515625 20.09765625 C-30.35703125 20.18015625 -29.42890625 20.26265625 -28.47265625 20.34765625 C-25.27327904 20.40713819 -25.27327904 20.40713819 -23.34765625 18.47265625 C-21.94458566 15.33638082 -22.4662813 13.37315606 -23.28515625 10.09765625 C-20.64515625 8.11765625 -18.00515625 6.13765625 -15.28515625 4.09765625 C-13.28515625 5.09765625 -11.28515625 6.09765625 -9.28515625 7.09765625 C-7.27715169 6.81653561 -5.27501574 6.48697658 -3.28515625 6.09765625 C-3.30578125 5.29328125 -3.32640625 4.48890625 -3.34765625 3.66015625 C-3.26768162 0.38119653 -3.25945607 0.13929299 0 0 Z M-18.7421875 20.203125 C-24.04176534 26.71020158 -24.9424824 32.28492164 -24.6640625 40.69140625 C-23.82733235 48.21335148 -20.76557945 53.53314157 -15.1796875 58.58984375 C-7.73600489 64.51409424 -0.72413644 65.16683135 8.71484375 64.09765625 C14.63952572 62.51038472 18.716026 59.78198562 22.71484375 55.09765625 C23.43671875 54.29328125 24.15859375 53.48890625 24.90234375 52.66015625 C29.69116596 45.88975244 29.45307874 38.07241697 28.71484375 30.09765625 C27.12846635 24.58392292 24.00601202 20.86551132 19.71484375 17.09765625 C18.91046875 16.37578125 18.10609375 15.65390625 17.27734375 14.91015625 C5.47640437 6.56315035 -9.56705168 10.23015128 -18.7421875 20.203125 Z " fill="#F8FAF7" transform="translate(123.28515625,62.90234375)"/>
<path d="M0 0 C4.26328447 2.42542626 6.82721212 4.81351194 9.5625 8.875 C10.160625 9.74125 10.75875 10.6075 11.375 11.5 C13.8533704 18.54378955 13.58044885 25.52981362 10.4375 32.3125 C6.62352622 38.99766752 1.73662773 42.30314289 -5.4375 44.875 C-6.4275 44.875 -7.4175 44.875 -8.4375 44.875 C-8.54572792 41.81154856 -8.62491479 38.7519399 -8.6875 35.6875 C-8.72101563 34.82318359 -8.75453125 33.95886719 -8.7890625 33.06835938 C-8.85272738 28.91422609 -8.8331904 26.534484 -6.65625 22.90625 C-3.73658535 20.23331757 -0.94260665 18.69495922 2.5625 16.875 C2.86597349 24.76531079 2.86597349 24.76531079 0.5625 27.875 C-2.43038991 29.87025994 -3.66835596 29.875 -7.4375 29.875 C-7.4375 34.165 -7.4375 38.455 -7.4375 42.875 C-0.05170071 39.52677099 5.09010171 37.11014941 8.66015625 29.55078125 C10.49395957 24.11287962 10.72294422 17.8432437 8.6171875 12.45703125 C5.18342419 6.7016984 0.93024203 3.05271264 -5.4375 0.875 C-12.387841 -0.03573434 -18.07586579 0.22636201 -23.8203125 4.4453125 C-27.9283645 8.07706862 -31.09565975 12.09257936 -31.7734375 17.609375 C-31.87012368 25.07354787 -31.29134146 30.84598393 -25.9765625 36.40234375 C-21.10581892 40.66733496 -17.84616762 41.80688873 -11.4375 42.875 C-11.4375 37.595 -11.4375 32.315 -11.4375 26.875 C-13.4175 26.545 -15.3975 26.215 -17.4375 25.875 C-21.1997075 24.07940097 -22.91004853 22.73491114 -24.4375 18.875 C-24.6328125 16.515625 -24.6328125 16.515625 -24.5625 14.125 C-24.54445313 13.32578125 -24.52640625 12.5265625 -24.5078125 11.703125 C-24.48460938 11.09984375 -24.46140625 10.4965625 -24.4375 9.875 C-23.7775 9.875 -23.1175 9.875 -22.4375 9.875 C-21.4375 10.875 -20.4375 11.875 -19.4375 12.875 C-18.4475 13.473125 -17.4575 14.07125 -16.4375 14.6875 C-12.84637632 17.30602768 -11.98081727 18.70940913 -10.4375 22.875 C-10.08582997 26.67602156 -10.15406126 30.43705001 -10.25 34.25 C-10.27030273 35.78333984 -10.27030273 35.78333984 -10.29101562 37.34765625 C-10.32619783 39.85732049 -10.37542461 42.3658809 -10.4375 44.875 C-17.22681244 45.15582314 -20.99132466 43.77536241 -26.4375 39.875 C-31.62789456 35.08287829 -34.5772361 29.68200449 -34.875 22.625 C-34.64438467 15.83568456 -33.14665617 9.92916353 -28.56640625 4.765625 C-20.32242844 -2.77706926 -10.40239331 -4.84303042 0 0 Z " fill="#F2F6EC" transform="translate(136.4375,79.125)"/>
<path d="M0 0 C0.66 0 1.32 0 2 0 C3 1 4 2 5 3 C6.010625 3.66 7.02125 4.32 8.0625 5 C11 7 11 7 13 10 C13.125 13.1875 13.125 13.1875 13 16 C8.35525026 16.32405231 5.70894272 15.88473323 2 13 C0.12121651 9.99394641 -0.22839563 7.76545135 -0.125 4.25 C-0.10695313 3.45078125 -0.08890625 2.6515625 -0.0703125 1.828125 C-0.04710938 1.22484375 -0.02390625 0.6215625 0 0 Z " fill="#F4F8EF" transform="translate(112,89)"/>
<path d="M0 0 C0.33 0 0.66 0 1 0 C1.09796875 0.65226562 1.1959375 1.30453125 1.296875 1.9765625 C2.47614363 8.8691843 4.16572464 13.44915218 9.5 18.25 C14.00303653 21.40212557 16.29082874 22.04847146 22 23 C22 17.72 22 12.44 22 7 C21.01 6.67 20.02 6.34 19 6 C19.99 6 20.98 6 22 6 C22.33 5.01 22.66 4.02 23 3 C23 10.26 23 17.52 23 25 C15.33923741 25 11.02543772 23.71655513 5.421875 18.54296875 C2.26953651 14.94436548 -1.0558614 10.80322653 -0.95703125 5.84375 C-0.71899814 3.88428905 -0.36779766 1.93929675 0 0 Z " fill="#E4EED8" transform="translate(103,99)"/>
<path d="M0 0 C0.30347349 7.89031079 0.30347349 7.89031079 -2 11 C-3.9375 12.3125 -3.9375 12.3125 -6 13 C-6.99 12.67 -7.98 12.34 -9 12 C-9 11.34 -9 10.68 -9 10 C-9.33 9.01 -9.66 8.02 -10 7 C-1.31034483 0 -1.31034483 0 0 0 Z " fill="#F8FBF6" transform="translate(139,96)"/>
<path d="M0 0 C0.33 0.66 0.66 1.32 1 2 C0.01 3.485 0.01 3.485 -1 5 C-1.4603764 8.19806665 -1.4603764 8.19806665 -1.625 11.6875 C-1.69976562 12.86699219 -1.77453125 14.04648438 -1.8515625 15.26171875 C-1.92503906 16.61716797 -1.92503906 16.61716797 -2 18 C-0.39218107 17.2368139 1.21113138 16.46412942 2.8125 15.6875 C3.70582031 15.25824219 4.59914062 14.82898438 5.51953125 14.38671875 C7.78931933 13.11778211 9.29248171 11.93443102 11 10 C11.99 10.33 12.98 10.66 14 11 C9.02994874 15.66792048 4.16742061 20 -3 20 C-3 13.73 -3 7.46 -3 1 C-2.01 0.67 -1.02 0.34 0 0 Z " fill="#F0F5E8" transform="translate(131,104)"/>
<path d="M0 0 C4.12989477 4.26311718 4.61271765 7.28758534 5 13 C4.34 13 3.68 13 3 13 C3.33 15.31 3.66 17.62 4 20 C3.34 19.67 2.68 19.34 2 19 C1.69140625 16.9609375 1.69140625 16.9609375 1.5625 14.375 C1.19419469 9.62795372 0.12025965 6.2405193 -2 2 C-1.34 1.34 -0.68 0.68 0 0 Z " fill="#96C952" transform="translate(147,85)"/>
<path d="M0 0 C-0.99 3.3 -1.98 6.6 -3 10 C-4.32 10 -5.64 10 -7 10 C-6.67506385 6.4257023 -6.36129314 4.44287547 -4.0625 1.625 C-2 0 -2 0 0 0 Z " fill="#98C957" transform="translate(106,86)"/>
<path d="M0 0 C1.32 0 2.64 0 4 0 C3.67 2.31 3.34 4.62 3 7 C1.68 6.67 0.36 6.34 -1 6 C-1.625 4.125 -1.625 4.125 -2 2 C-1.34 1.34 -0.68 0.68 0 0 Z " fill="#94C950" transform="translate(143,102)"/>
<path d="M0 0 C0.33 1.32 0.66 2.64 1 4 C-3.455 5.485 -3.455 5.485 -8 7 C-7.67 5.68 -7.34 4.36 -7 3 C-3.4375 1.25 -3.4375 1.25 0 0 Z " fill="#94C750" transform="translate(138,120)"/>
<path d="M0 0 C0.33 0.66 0.66 1.32 1 2 C0.01 3.485 0.01 3.485 -1 5 C-1.4603764 8.19806665 -1.4603764 8.19806665 -1.625 11.6875 C-1.69976562 12.86699219 -1.77453125 14.04648438 -1.8515625 15.26171875 C-1.92503906 16.61716797 -1.92503906 16.61716797 -2 18 C-2.33 18 -2.66 18 -3 18 C-3 12.39 -3 6.78 -3 1 C-2.01 0.67 -1.02 0.34 0 0 Z " fill="#CCDEB4" transform="translate(131,104)"/>
<path d="M0 0 C0.66 0 1.32 0 2 0 C2.05399736 1.45792884 2.09279177 2.91642712 2.125 4.375 C2.14820313 5.18710938 2.17140625 5.99921875 2.1953125 6.8359375 C2 9 2 9 0 11 C-0.38218767 9.34385343 -0.71395102 7.67542976 -1 6 C-0.67 5.67 -0.34 5.34 0 5 C0.04063832 3.33382885 0.042721 1.66611905 0 0 Z " fill="#8CC63D" transform="translate(150,98)"/>
<path d="M0 0 C2.2477975 2.05233685 3.0022242 3.00667261 4 6 C2.35 5.67 0.7 5.34 -1 5 C-0.67 3.35 -0.34 1.7 0 0 Z " fill="#7CAE57" transform="translate(165,80)"/>
<path d="M0 0 C1.46726798 3.81489674 0.43336419 6.29011622 -1 10 C-1.33 10 -1.66 10 -2 10 C-2 7.03 -2 4.06 -2 1 C-1.34 0.67 -0.68 0.34 0 0 Z " fill="#8CC43A" transform="translate(101,95)"/>
</svg>
