<?xml version="1.0" encoding="UTF-8"?>
<svg version="1.1" xmlns="http://www.w3.org/2000/svg" width="225" height="225">
<path d="M0 0 C74.25 0 148.5 0 225 0 C225 74.25 225 148.5 225 225 C150.75 225 76.5 225 0 225 C0 150.75 0 76.5 0 0 Z " fill="#FCFDFD" transform="translate(0,0)"/>
<path d="M0 0 C16.67105644 -0.24366952 30.09869032 3.73246021 44 13 C42.45987972 16.3788353 40.49030777 19.16880442 38.25 22.125 C37.86513428 22.63361572 37.48026855 23.14223145 37.08374023 23.66625977 C32.26818875 30.00516461 27.36067945 36.27386353 22.46484375 42.55078125 C17.94747673 48.34487711 13.47055444 54.16973775 9 60 C6.36 59.34 3.72 58.68 1 58 C0.3255829 38.65893718 -0.17341461 19.35573799 0 0 Z " fill="#E6242C" transform="translate(114,12)"/>
<path d="M0 0 C6.13196548 1.53299137 8.59481937 5.86862879 12 11 C14.70191432 16.29367866 17 21.00520666 17 27 C16.01 27.495 16.01 27.495 15 28 C18.3 28 21.6 28 25 28 C25.27386045 41.11487275 24.95638977 52.02939144 19 64 C12.89209823 61.73202385 7.35951862 58.39143967 1.71484375 55.17797852 C-0.25289788 54.06085482 -2.22779846 52.95715822 -4.203125 51.85351562 C-5.45358777 51.1440442 -6.703604 50.43378502 -7.953125 49.72265625 C-9.08911133 49.08078369 -10.22509766 48.43891113 -11.39550781 47.77758789 C-14 46 -14 46 -15 43 C-14.63188777 41.61121294 -14.20872837 40.23654485 -13.75 38.875 C-12.70982367 34.74131225 -13.23197052 32.78850292 -15.375 29.125 C-16.09816406 28.04605469 -16.09816406 28.04605469 -16.8359375 26.9453125 C-18 25 -18 25 -18 22 C-15.5 19.3125 -15.5 19.3125 -13 17 C-12.67 19.31 -12.34 21.62 -12 24 C-11.34 24 -10.68 24 -10 24 C-9.67 22.68 -9.34 21.36 -9 20 C-8.34 20 -7.68 20 -7 20 C-7 19.34 -7 18.68 -7 18 C-7.99 18 -8.98 18 -10 18 C-10.33 18.66 -10.66 19.32 -11 20 C-11 18.35 -11 16.7 -11 15 C-9.68 14.34 -8.36 13.68 -7 13 C-6.01 14.32 -5.02 15.64 -4 17 C-3.67 16.67 -3.34 16.34 -3 16 C-3.7425 15.071875 -3.7425 15.071875 -4.5 14.125 C-6 12 -6 12 -6 10 C-3.03 10 -0.06 10 3 10 C3.33 9.34 3.66 8.68 4 8 C1.03 7.67 -1.94 7.34 -5 7 C-3.35 4.69 -1.7 2.38 0 0 Z " fill="#EAE618" transform="translate(144,50)"/>
<path d="M0 0 C2.55234419 2.17883041 4.59196546 3.96451275 5.83764648 7.12573242 C6.08061404 11.42717154 4.57198159 14.82590046 3.03515625 18.80078125 C2.56691689 20.0553437 2.56691689 20.0553437 2.08921814 21.33525085 C1.09199715 23.99890006 0.07754702 26.65559941 -0.9375 29.3125 C-1.6176836 31.12001144 -2.29673356 32.92794992 -2.97460938 34.73632812 C-4.63663809 39.16261011 -6.31414621 43.58274039 -8 48 C-19.44986587 45.9557649 -30.27648842 36.24352384 -37.125 27.125 C-39 24 -39 24 -39 21 C-38.30551758 20.61255615 -37.61103516 20.2251123 -36.89550781 19.82592773 C-33.67967817 18.03096541 -30.46483649 16.23424044 -27.25 14.4375 C-26.15816406 13.82841797 -25.06632812 13.21933594 -23.94140625 12.59179688 C-17.35513478 8.90894094 -10.82543708 5.15223494 -4.35449219 1.26977539 C-2 0 -2 0 0 0 Z " fill="#1957A6" transform="translate(99,97)"/>
<path d="M0 0 C3.63 0 7.26 0 11 0 C13.54051753 5.96605141 16.03998911 11.95019905 18.375 18 C18.71273437 18.86625 19.05046875 19.7325 19.3984375 20.625 C20.0589976 23.23292558 19.98379207 24.51889802 19 27 C16.21815268 29.68249563 13.79039882 30.47355572 10 31 C9.67 31.99 9.34 32.98 9 34 C9.99 33.34 10.98 32.68 12 32 C12.99 32 13.98 32 15 32 C14.67 34.31 14.34 36.62 14 39 C13.34 39 12.68 39 12 39 C12 39.66 12 40.32 12 41 C15.09950644 38.26110096 15.9100143 35.7190083 17.05859375 31.83984375 C18.27184797 29.46871206 19.5720261 28.96221553 22 28 C22.67031719 29.9570868 23.33614683 31.91571113 24 33.875 C24.37125 34.96554688 24.7425 36.05609375 25.125 37.1796875 C26 40 26 40 26 42 C14.70816728 46.99217868 -1.00778725 46.94192751 -12.515625 42.65625 C-13.00546875 42.4396875 -13.4953125 42.223125 -14 42 C-13.125 36.25 -13.125 36.25 -12 34 C-11.34 34 -10.68 34 -10 34 C-9.34 35.98 -8.68 37.96 -8 40 C-5.60280568 40.67958603 -5.60280568 40.67958603 -3 41 C-2.34 40.34 -1.68 39.68 -1 39 C-0.01 39 0.98 39 2 39 C2.33 37.02 2.66 35.04 3 33 C1.68 33 0.36 33 -1 33 C-0.67 31.68 -0.34 30.36 0 29 C0.66 29 1.32 29 2 29 C2 28.01 2 27.02 2 26 C1.01 26 0.02 26 -1 26 C-1 26.66 -1 27.32 -1 28 C-3.64 28 -6.28 28 -9 28 C-8.3490961 24.35204526 -7.38201944 20.97430919 -6.15234375 17.48046875 C-5.79462891 16.45888672 -5.43691406 15.43730469 -5.06835938 14.38476562 C-4.69517578 13.32966797 -4.32199219 12.27457031 -3.9375 11.1875 C-3.37192383 9.57584961 -3.37192383 9.57584961 -2.79492188 7.93164062 C-1.86625847 5.2867132 -0.933525 2.64321544 0 0 Z " fill="#8A8C8B" transform="translate(107,104)"/>
<path d="M0 0 C8.46824568 0.65803089 16.76695594 2.0824297 25.125 3.5625 C26.47650455 3.79915928 27.82806674 4.03548969 29.1796875 4.27148438 C32.45370422 4.8444373 35.72710426 5.42068405 39 6 C39.66 9.63 40.32 13.26 41 17 C39.52789062 17.86882812 38.05578125 18.73765625 36.5390625 19.6328125 C34.56769747 20.79685661 32.59634392 21.96092015 30.625 23.125 C29.65949219 23.69476563 28.69398437 24.26453125 27.69921875 24.8515625 C26.73886719 25.41875 25.77851562 25.9859375 24.7890625 26.5703125 C23.82774414 27.1365332 22.86642578 27.70275391 21.87597656 28.28613281 C19.95633333 29.43009678 18.0467062 30.59103563 16.14746094 31.76855469 C15.2609082 32.31672852 14.37435547 32.86490234 13.4609375 33.4296875 C12.67251465 33.92452637 11.8840918 34.41936523 11.07177734 34.92919922 C9 36 9 36 6 36 C5.18167278 34.10667466 4.37057732 32.21022267 3.5625 30.3125 C3.11003906 29.25675781 2.65757813 28.20101562 2.19140625 27.11328125 C-0.12156377 21.06922517 -0.12450559 15.58361485 -0.0625 9.1875 C-0.05798828 8.30384766 -0.05347656 7.42019531 -0.04882812 6.50976562 C-0.03709866 4.33981441 -0.01916495 2.16989828 0 0 Z " fill="#E6218A" transform="translate(56,78)"/>
<path d="M0 0 C3.59924614 1.36018258 6.89201441 2.96707351 10.23828125 4.86328125 C11.22376953 5.42080078 12.20925781 5.97832031 13.22460938 6.55273438 C14.75311523 7.42381836 14.75311523 7.42381836 16.3125 8.3125 C17.31990234 8.88162109 18.32730469 9.45074219 19.36523438 10.03710938 C24.99655429 13.23247071 30.53857135 16.52217268 36 20 C33.79414944 29.52986726 25.9013924 34.99504498 18 40 C12.5282167 43 12.5282167 43 9 43 C7.58238409 39.22952286 6.16608654 35.45855176 4.75 31.6875 C4.35425781 30.63498047 3.95851562 29.58246094 3.55078125 28.49804688 C2.75584066 26.38037727 1.96352616 24.26172003 1.17382812 22.14208984 C0.39447358 20.05592242 -0.39323068 17.97285434 -1.18945312 15.89306641 C-1.55490234 14.9241748 -1.92035156 13.9552832 -2.296875 12.95703125 C-2.62526367 12.09698486 -2.95365234 11.23693848 -3.29199219 10.35083008 C-4 8 -4 8 -4 4 C-2 1.75 -2 1.75 0 0 Z " fill="#679C40" transform="translate(126,98)"/>
<path d="M0 0 C6.13196548 1.53299137 8.59481937 5.86862879 12 11 C14.70191432 16.29367866 17 21.00520666 17 27 C16.01 27.495 16.01 27.495 15 28 C15.66 28.66 16.32 29.32 17 30 C-10.89318885 34.55340557 -10.89318885 34.55340557 -14 33 C-15.0703125 31.2578125 -15.0703125 31.2578125 -16.125 29.125 C-16.47820312 28.42632812 -16.83140625 27.72765625 -17.1953125 27.0078125 C-18 25 -18 25 -18 22 C-15.5 19.3125 -15.5 19.3125 -13 17 C-12.67 19.31 -12.34 21.62 -12 24 C-11.34 24 -10.68 24 -10 24 C-9.67 22.68 -9.34 21.36 -9 20 C-8.34 20 -7.68 20 -7 20 C-7 19.34 -7 18.68 -7 18 C-7.99 18 -8.98 18 -10 18 C-10.33 18.66 -10.66 19.32 -11 20 C-11 18.35 -11 16.7 -11 15 C-9.68 14.34 -8.36 13.68 -7 13 C-6.01 14.32 -5.02 15.64 -4 17 C-3.67 16.67 -3.34 16.34 -3 16 C-3.7425 15.071875 -3.7425 15.071875 -4.5 14.125 C-6 12 -6 12 -6 10 C-3.03 10 -0.06 10 3 10 C3.33 9.34 3.66 8.68 4 8 C1.03 7.67 -1.94 7.34 -5 7 C-3.35 4.69 -1.7 2.38 0 0 Z " fill="#FCF5E5" transform="translate(144,50)"/>
<path d="M0 0 C0 9.24 0 18.48 0 28 C-4.95 29.485 -4.95 29.485 -10 31 C-13.22255183 27.50794651 -16.43294032 24.00543018 -19.63183594 20.49169922 C-20.77577249 19.2444736 -21.93667411 18.01283602 -23.1015625 16.78515625 C-27.02017503 12.54154031 -27.02017503 12.54154031 -26.92578125 10.0078125 C-24.76721977 5.32637537 -18.4523786 2.94015238 -13.83984375 1.171875 C-9.02913048 -0.16709092 -5.15601776 0 0 0 Z " fill="#25A49E" transform="translate(111,42)"/>
<path d="M0 0 C3.02437682 1.33441596 4.9111711 2.72707694 7.05859375 5.23046875 C7.88520508 6.18856445 7.88520508 6.18856445 8.72851562 7.16601562 C9.57446289 8.16665039 9.57446289 8.16665039 10.4375 9.1875 C10.99759766 9.83525391 11.55769531 10.48300781 12.13476562 11.15039062 C15.67137446 15.28124879 18.90001853 19.53255007 22 24 C21.34 25.32 20.68 26.64 20 28 C9.02694404 27.6059944 -1.3250889 25.42355426 -12 23 C-10.99194004 17.38999477 -9.79650757 12.92384994 -6.5625 8.125 C-5.96566406 7.22007813 -5.36882812 6.31515625 -4.75390625 5.3828125 C-3.27941581 3.37960722 -1.82169706 1.68242358 0 0 Z " fill="#3EADE3" transform="translate(77,52)"/>
<path d="M0 0 C3.63 0 7.26 0 11 0 C11.81381795 1.93694678 12.62600916 3.87457711 13.4375 5.8125 C14.11619141 7.43091797 14.11619141 7.43091797 14.80859375 9.08203125 C15.60375013 11.0295126 16.33479648 13.00438943 17 15 C13.22332918 17.74666968 10.08961615 19.80883927 5.4375 20.625 C0.84382942 19.78978717 -1.40160199 17.93746777 -5 15 C-3.35 10.05 -1.7 5.1 0 0 Z " fill="#919292" transform="translate(107,104)"/>
<path d="M0 0 C8.0704358 0.61458229 16.01385781 1.69225335 24 3 C24.66 6.63 25.32 10.26 26 14 C23.06987023 15.86680031 20.13196249 17.71856125 17.1875 19.5625 C16.35412109 20.09552734 15.52074219 20.62855469 14.66210938 21.17773438 C13.85966797 21.67724609 13.05722656 22.17675781 12.23046875 22.69140625 C11.49207764 23.15748291 10.75368652 23.62355957 9.99291992 24.10375977 C8 25 8 25 5 24 C5.66 24 6.32 24 7 24 C7.144375 23.360625 7.28875 22.72125 7.4375 22.0625 C8 20 8 20 9 19 C9.07148199 17.64756083 9.08399454 16.29165633 9.0625 14.9375 C9.041875 13.638125 9.02125 12.33875 9 11 C8.01 10.67 7.02 10.34 6 10 C5.690625 8.88625 5.38125 7.7725 5.0625 6.625 C3.90902549 2.68961638 3.25761214 2.14541729 0 0 Z " fill="#E51987" transform="translate(71,81)"/>
<path d="M0 0 C6.13196548 1.53299137 8.59481937 5.86862879 12 11 C14.70191432 16.29367866 17 21.00520666 17 27 C8.96428571 29.27678571 8.96428571 29.27678571 5 28 C6.65 27.34 8.3 26.68 10 26 C9.67 25.01 9.34 24.02 9 23 C8.9314505 21.10529184 8.91519628 19.2083166 8.9375 17.3125 C8.94652344 16.31863281 8.95554688 15.32476562 8.96484375 14.30078125 C8.97644531 13.54152344 8.98804688 12.78226563 9 12 C8.34 12 7.68 12 7 12 C6.34 13.32 5.68 14.64 5 16 C4.01 16 3.02 16 2 16 C2 15.01 2 14.02 2 13 C1.34 13 0.68 13 0 13 C0 14.32 0 15.64 0 17 C-3.41158256 15.86280581 -4.11854601 14.95657056 -6 12 C-6 11.34 -6 10.68 -6 10 C-3.03 10 -0.06 10 3 10 C3.33 9.34 3.66 8.68 4 8 C1.03 7.67 -1.94 7.34 -5 7 C-3.35 4.69 -1.7 2.38 0 0 Z " fill="#F39622" transform="translate(144,50)"/>
<path d="M0 0 C4.01548242 0.61776653 6.8042108 2.56842126 10 5 C11.375 7.25 11.375 7.25 12 9 C12.66 9 13.32 9 14 9 C14.125 11.875 14.125 11.875 14 15 C13.34 15.66 12.68 16.32 12 17 C10.68 17 9.36 17 8 17 C8 16.34 8 15.68 8 15 C7.43796875 15.21527344 6.8759375 15.43054688 6.296875 15.65234375 C3.19496798 16.12185008 1.90367611 15.16251059 -0.75 13.5625 C-1.54921875 13.08941406 -2.3484375 12.61632812 -3.171875 12.12890625 C-3.77515625 11.75636719 -4.3784375 11.38382813 -5 11 C-4.27031096 6.49128985 -2.67844067 3.71525641 0 0 Z " fill="#B8C9E1" transform="translate(74,114)"/>
<path d="M0 0 C7.48704663 -0.44041451 7.48704663 -0.44041451 11 0 C13.1875 2.5 13.1875 2.5 14 5 C14.33 3.35 14.66 1.7 15 0 C15.99 0 16.98 0 18 0 C18 3.63 18 7.26 18 11 C14 10 14 10 12 7 C11.67 8.32 11.34 9.64 11 11 C7.32589215 12.17571451 3.83070817 12.07366746 0 12 C0 8.04 0 4.08 0 0 Z " fill="#D1DBEB" transform="translate(116,172)"/>
<path d="M0 0 C2.00720923 0.28674418 4.0085944 0.61866701 6 1 C6.33 0.67 6.66 0.34 7 0 C9.4375 -0.1875 9.4375 -0.1875 12 0 C14 2 14 2 14.4375 5.25 C13.85868173 10.21129943 12.57874043 11.58392959 9 15 C7.0625 16.1875 7.0625 16.1875 5 16 C-0.66666667 12 -0.66666667 12 -2 8 C0.4375 8.375 0.4375 8.375 3 9 C3.33 9.66 3.66 10.32 4 11 C3.67 8.69 3.34 6.38 3 4 C2.566875 4.495 2.13375 4.99 1.6875 5.5 C0 7 0 7 -3 7 C-2.25 2.25 -2.25 2.25 0 0 Z " fill="#FBE9E8" transform="translate(126,22)"/>
<path d="M0 0 C0.99 0 1.98 0 3 0 C3 0.99 3 1.98 3 3 C2.34 3 1.68 3 1 3 C0.67 4.32 0.34 5.64 0 7 C1.32 7 2.64 7 4 7 C3.8125 9.8125 3.8125 9.8125 3 13 C0.29234641 15.33159059 -1.10482263 16.06245423 -4.6875 15.8125 C-7 15 -7 15 -9 13 C-10.26041667 5.78125 -10.26041667 5.78125 -9 2 C-2.25 0.875 -2.25 0.875 0 2 C0 1.34 0 0.68 0 0 Z " fill="#919392" transform="translate(106,130)"/>
<path d="M0 0 C0.99 0.33 1.98 0.66 3 1 C3.33 2.65 3.66 4.3 4 6 C4.33 5.67 4.66 5.34 5 5 C7.375 4.6875 7.375 4.6875 10 5 C11.97610386 7.04424538 13 8.1176825 13 11 C10.29761702 12.35119149 8.13985554 12.13237128 5.125 12.125 C4.07570312 12.12757812 3.02640625 12.13015625 1.9453125 12.1328125 C-0.55676685 12.01998664 -2.61756923 11.72508762 -5 11 C-5 9.35 -5 7.7 -5 6 C-4.34 6 -3.68 6 -3 6 C-2.87625 5.38125 -2.7525 4.7625 -2.625 4.125 C-2 2 -2 2 0 0 Z " fill="#FBFADA" transform="translate(152,92)"/>
<path d="M0 0 C3 1.5 3 1.5 5 3 C4.69611836 5.93752254 4.19330344 6.84080893 1.875 8.75 C-1.7214169 10.31365952 -4.11397569 10.49458491 -8 10 C-10.4375 8 -10.4375 8 -12 6 C-11.34 6 -10.68 6 -10 6 C-9.67 5.01 -9.34 4.02 -9 3 C-9.66 2.67 -10.32 2.34 -11 2 C-7.30441172 -0.46372552 -4.28955801 -0.57583561 0 0 Z " fill="#ECECEC" transform="translate(117,114)"/>
<path d="M0 0 C2.00720923 0.28674418 4.0085944 0.61866701 6 1 C7.09506492 4.28519475 7.09960608 6.73663415 7.0625 10.1875 C7.05347656 11.27417969 7.04445312 12.36085938 7.03515625 13.48046875 C7.02355469 14.31191406 7.01195312 15.14335937 7 16 C6.236875 15.979375 5.47375 15.95875 4.6875 15.9375 C1.89814214 15.87057159 1.89814214 15.87057159 -1 17 C-3.6875 16.5625 -3.6875 16.5625 -6 16 C-5.6875 14.125 -5.6875 14.125 -5 12 C-4.01 11.34 -3.02 10.68 -2 10 C-2 10.99 -2 11.98 -2 13 C0.64 13 3.28 13 6 13 C6 12.34 6 11.68 6 11 C5.01 11 4.02 11 3 11 C3 10.01 3 9.02 3 8 C2.01 8 1.02 8 0 8 C-0.66 8 -1.32 8 -2 8 C-1.125 1.125 -1.125 1.125 0 0 Z " fill="#E4ECDC" transform="translate(142,114)"/>
<path d="M0 0 C-0.55105909 3.9492568 -1.38935371 7.34920174 -3 11 C-6.69876091 9.62712658 -9.9514476 7.93644547 -13.3125 5.875 C-14.19550781 5.33617188 -15.07851562 4.79734375 -15.98828125 4.2421875 C-16.65214844 3.83226563 -17.31601563 3.42234375 -18 3 C-17.67 2.34 -17.34 1.68 -17 1 C-13.9453125 0.5859375 -13.9453125 0.5859375 -10.125 0.375 C-8.86945313 0.30023438 -7.61390625 0.22546875 -6.3203125 0.1484375 C-4.21506346 0.05432048 -2.10735178 0 0 0 Z " fill="#EAE616" transform="translate(166,103)"/>
<path d="M0 0 C2.64 0 5.28 0 8 0 C8 3.3 8 6.6 8 10 C7.34 10 6.68 10 6 10 C5.855625 10.61875 5.71125 11.2375 5.5625 11.875 C5 14 5 14 4 16 C9.94 15.505 9.94 15.505 16 15 C12.68629 17.20914 11.6553979 17.22481553 7.8125 17.125 C6.91144531 17.10695313 6.01039062 17.08890625 5.08203125 17.0703125 C4.39496094 17.04710938 3.70789063 17.02390625 3 17 C3 13 3 13 5 10 C3.35 10 1.7 10 0 10 C0 6.7 0 3.4 0 0 Z " fill="#F9D3E5" transform="translate(61,87)"/>
<path d="M0 0 C1.875 1.6875 1.875 1.6875 3 4 C2.75925978 7.37036311 2.41201979 8.58798021 0 11 C-3.625 10.625 -3.625 10.625 -7 10 C-8.33359073 3.57451737 -8.33359073 3.57451737 -6.875 1.0625 C-4.33639987 -0.37604008 -2.87213496 -0.50262362 0 0 Z " fill="#A3BBDA" transform="translate(107,188)"/>
<path d="M0 0 C3.25295114 -0.22179212 5.42797793 -0.28601103 8.375 1.1875 C10 3 10 3 10.4375 5.5 C10 8 10 8 8.9375 9.8125 C6.00731249 11.60842137 3.3527047 11.18977574 0 11 C0 7.37 0 3.74 0 0 Z " fill="#4875B6" transform="translate(65,172)"/>
<path d="M0 0 C1.32 0.33 2.64 0.66 4 1 C5.046875 3.28515625 5.046875 3.28515625 5.75 6.0625 C5.99234375 6.98160156 6.2346875 7.90070313 6.484375 8.84765625 C6.65453125 9.55792969 6.8246875 10.26820313 7 11 C6.01 11 5.02 11 4 11 C4 10.34 4 9.68 4 9 C2.35 9 0.7 9 -1 9 C-1 9.66 -1 10.32 -1 11 C-3.97 11 -6.94 11 -10 11 C-10 7.7 -10 4.4 -10 1 C-9.34 1 -8.68 1 -8 1 C-8 3.64 -8 6.28 -8 9 C-6.68 9 -5.36 9 -4 9 C-2.68 6.03 -1.36 3.06 0 0 Z " fill="#1558A7" transform="translate(157,172)"/>
<path d="M0 0 C0.66 0 1.32 0 2 0 C3.64743282 4.90359226 2.07132351 8.69231074 0.359375 13.328125 C-0.06489777 14.51254181 -0.06489777 14.51254181 -0.4977417 15.72088623 C-1.0970746 17.38383443 -1.70262417 19.04455356 -2.31396484 20.703125 C-3.24964072 23.24902244 -4.15917812 25.80322167 -5.06640625 28.359375 C-5.65210431 29.97451817 -6.23929287 31.58912178 -6.828125 33.203125 C-7.10013733 33.9697345 -7.37214966 34.73634399 -7.65240479 35.52618408 C-8.3473507 37.38591272 -9.16412476 39.19920767 -10 41 C-11.485 41.495 -11.485 41.495 -13 42 C-10.3903018 32.62740537 -6.90852158 23.61849889 -3.40820312 14.54882812 C-2.97056641 13.39189453 -2.53292969 12.23496094 -2.08203125 11.04296875 C-1.68218018 10.00164795 -1.2823291 8.96032715 -0.87036133 7.88745117 C-0.02325499 5.07714917 0.17856251 2.91227755 0 0 Z " fill="#E2E7EF" transform="translate(104,102)"/>
<path d="M0 0 C5.625 -0.25 5.625 -0.25 9 2 C9.375 5.5 9.375 5.5 9 9 C5.5647952 11.29013653 4.014669 11.17842973 0 11 C0 7.37 0 3.74 0 0 Z " fill="#4E7CB9" transform="translate(88,188)"/>
<path d="M0 0 C0.66 0 1.32 0 2 0 C3.625 2.5 3.625 2.5 5 5 C4.34 5 3.68 5 3 5 C3 5.66 3 6.32 3 7 C3.99 7 4.98 7 6 7 C6 8.32 6 9.64 6 11 C8.97 11.495 8.97 11.495 12 12 C11.67 12.99 11.34 13.98 11 15 C6.75519536 15.33292585 4.64457375 15.43885872 1.0625 13 C0.381875 12.34 -0.29875 11.68 -1 11 C-0.67 9.68 -0.34 8.36 0 7 C0.66 7 1.32 7 2 7 C2 6.34 2 5.68 2 5 C1.01 5 0.02 5 -1 5 C-1.33 5.66 -1.66 6.32 -2 7 C-2.125 4.625 -2.125 4.625 -2 2 C-1.34 1.34 -0.68 0.68 0 0 Z " fill="#F3931B" transform="translate(135,63)"/>
<path d="M0 0 C0.99 0 1.98 0 3 0 C3 3.63 3 7.26 3 11 C2.01 11 1.02 11 0 11 C-0.33 10.34 -0.66 9.68 -1 9 C-1.33 9.66 -1.66 10.32 -2 11 C-2.99 10.67 -3.98 10.34 -5 10 C-5.33 9.01 -5.66 8.02 -6 7 C-6.33 8.32 -6.66 9.64 -7 11 C-7.66 11 -8.32 11 -9 11 C-9 7.7 -9 4.4 -9 1 C-5 2 -5 2 -3.75 4.0625 C-3.5025 4.701875 -3.255 5.34125 -3 6 C-2.01 4.02 -1.02 2.04 0 0 Z " fill="#1256A6" transform="translate(111,172)"/>
<path d="M0 0 C0.99 0.33 1.98 0.66 3 1 C5.14255793 0.61067144 5.14255793 0.61067144 7 0 C7 1.32 7 2.64 7 4 C7.66 4.33 8.32 4.66 9 5 C8.33484375 5.36738281 7.6696875 5.73476563 6.984375 6.11328125 C4.67377412 7.88011658 4.67377412 7.88011658 4.828125 10.91796875 C4.96734375 11.99691406 5.1065625 13.07585938 5.25 14.1875 C5.37890625 15.27417969 5.5078125 16.36085938 5.640625 17.48046875 C5.75921875 18.31191406 5.8778125 19.14335938 6 20 C5.34 20 4.68 20 4 20 C3.34 17.69 2.68 15.38 2 13 C2 13.99 2 14.98 2 16 C1.34 16 0.68 16 0 16 C0 10.72 0 5.44 0 0 Z " fill="#E9F4F4" transform="translate(96,48)"/>
<path d="M0 0 C1.32 0 2.64 0 4 0 C5.05404945 3.98196457 4.84098656 6.98195309 4 11 C-0.21878192 11.19622241 -3.17010894 10.80230168 -7 9 C-7 7.35 -7 5.7 -7 4 C-4.03 4.495 -4.03 4.495 -1 5 C-0.67 3.35 -0.34 1.7 0 0 Z " fill="#D0E8F5" transform="translate(78,63)"/>
<path d="M0 0 C0.33 0 0.66 0 1 0 C1.66 4.29 2.32 8.58 3 13 C4.32 13 5.64 13 7 13 C6.67 10.36 6.34 7.72 6 5 C7.32 5.33 8.64 5.66 10 6 C10.6875 8.8125 10.6875 8.8125 11 12 C9.64809841 14.06342875 8.57553354 14.76552337 6.3125 15.6875 C2.86122833 16.15388806 -0.51838796 16.05802687 -4 16 C-3.34 14.02 -2.68 12.04 -2 10 C-1.34 10 -0.68 10 0 10 C0 6.7 0 3.4 0 0 Z " fill="#E41084" transform="translate(69,87)"/>
<path d="M0 0 C0.99 0 1.98 0 3 0 C4.6875 2.5 4.6875 2.5 6 5 C6.33 3.35 6.66 1.7 7 0 C7.99 0 8.98 0 10 0 C10 3.63 10 7.26 10 11 C6 10 6 10 4 7 C3.67 8.32 3.34 9.64 3 11 C2.01 11 1.02 11 0 11 C0 7.37 0 3.74 0 0 Z " fill="#376BB1" transform="translate(124,172)"/>
<path d="M0 0 C3.375 -0.125 3.375 -0.125 7 0 C7.66 0.66 8.32 1.32 9 2 C8.9765625 4.1640625 8.9765625 4.1640625 8.625 6.625 C8.45871094 7.85089844 8.45871094 7.85089844 8.2890625 9.1015625 C8.14597656 10.04128906 8.14597656 10.04128906 8 11 C6.68 10.34 5.36 9.68 4 9 C3.67 9.66 3.34 10.32 3 11 C2.01 11 1.02 11 0 11 C0 7.37 0 3.74 0 0 Z " fill="#0F55A5" transform="translate(165,172)"/>
<path d="M0 0 C0.91007813 0.00902344 1.82015625 0.01804688 2.7578125 0.02734375 C3.45648438 0.03894531 4.15515625 0.05054688 4.875 0.0625 C4.875 0.7225 4.875 1.3825 4.875 2.0625 C3.885 2.0625 2.895 2.0625 1.875 2.0625 C1.875 5.0325 1.875 8.0025 1.875 11.0625 C0.885 11.0625 -0.105 11.0625 -1.125 11.0625 C-1.125 8.4225 -1.125 5.7825 -1.125 3.0625 C-2.115 3.0625 -3.105 3.0625 -4.125 3.0625 C-4.125 5.7025 -4.125 8.3425 -4.125 11.0625 C-5.115 11.0625 -6.105 11.0625 -7.125 11.0625 C-7.125 7.7625 -7.125 4.4625 -7.125 1.0625 C-4.60024538 -0.19987731 -2.81299534 -0.03606404 0 0 Z " fill="#4778B7" transform="translate(145.125,155.9375)"/>
<path d="M0 0 C1.67542976 0.28604898 3.34385343 0.61781233 5 1 C5.33 3.31 5.66 5.62 6 8 C5.01 8.495 5.01 8.495 4 9 C4.185625 9.78375 4.37125 10.5675 4.5625 11.375 C5 14 5 14 4 16 C2.68 16 1.36 16 0 16 C0.01740234 15.00419922 0.01740234 15.00419922 0.03515625 13.98828125 C0.08111547 9.49084312 -0.00505227 5.40619708 -1 1 C-0.67 0.67 -0.34 0.34 0 0 Z " fill="#F296C5" transform="translate(72,84)"/>
<path d="M0 0 C0.99 0 1.98 0 3 0 C3 0.99 3 1.98 3 3 C2.34 3 1.68 3 1 3 C0.67 4.32 0.34 5.64 0 7 C1.32 7 2.64 7 4 7 C3.67 8.98 3.34 10.96 3 13 C1.68 13.33 0.36 13.66 -1 14 C-1.33 12.35 -1.66 10.7 -2 9 C-3.65 8.67 -5.3 8.34 -7 8 C-5.68 6.35 -4.36 4.7 -3 3 C-4.32 3.33 -5.64 3.66 -7 4 C-7 3.34 -7 2.68 -7 2 C-2.25 0.875 -2.25 0.875 0 2 C0 1.34 0 0.68 0 0 Z " fill="#F2F2F2" transform="translate(106,130)"/>
<path d="M0 0 C-3.19677437 2.51897727 -6.54946228 4.55042689 -10.078125 6.57421875 C-10.93528107 7.0672625 -10.93528107 7.0672625 -11.80975342 7.57026672 C-13.62176768 8.61180761 -15.43583988 9.64970219 -17.25 10.6875 C-18.48451307 11.39624393 -19.71888955 12.10522584 -20.953125 12.81445312 C-23.96717429 14.54572539 -26.98307919 16.27373541 -30 18 C-30.66 17.34 -31.32 16.68 -32 16 C-31.2886792 15.58637207 -30.5773584 15.17274414 -29.84448242 14.74658203 C-26.6249194 12.87369729 -23.40620088 10.99936598 -20.1875 9.125 C-19.06794922 8.47402344 -17.94839844 7.82304688 -16.79492188 7.15234375 C-15.72177734 6.52714844 -14.64863281 5.90195313 -13.54296875 5.2578125 C-12.55321045 4.6817627 -11.56345215 4.10571289 -10.54370117 3.51220703 C-4.24940004 -0.2296973 -4.24940004 -0.2296973 0 0 Z " fill="#EEE7F1" transform="translate(97,97)"/>
<path d="M0 0 C0.33 0 0.66 0 1 0 C1.0928125 1.5778125 1.0928125 1.5778125 1.1875 3.1875 C2.14386185 7.67504405 3.56858857 9.07074634 7 12 C7.66 12.66 8.32 13.32 9 14 C4.545 14.495 4.545 14.495 0 15 C-1.65 12.03 -3.3 9.06 -5 6 C-3.35830472 3.97945196 -1.69088222 1.97956942 0 0 Z " fill="#F39623" transform="translate(130,67)"/>
<path d="M0 0 C0.33 0.99 0.66 1.98 1 3 C1.66 3.33 2.32 3.66 3 4 C2.91253716 5.43861294 2.80434652 6.87597508 2.6875 8.3125 C2.62949219 9.11300781 2.57148438 9.91351563 2.51171875 10.73828125 C1.91793306 13.36272334 1.04219706 14.30820672 -1 16 C-1.268125 15.360625 -1.53625 14.72125 -1.8125 14.0625 C-2.88667752 11.66868314 -2.88667752 11.66868314 -6 11 C-6 8.69 -6 6.38 -6 4 C-5.34 4 -4.68 4 -4 4 C-4 4.99 -4 5.98 -4 7 C-3.34 7 -2.68 7 -2 7 C-1.22227595 4.66682784 -0.57584432 2.38564077 0 0 Z " fill="#FCEEDE" transform="translate(150,59)"/>
<path d="M0 0 C3.96926669 0.28351905 6.97293913 2.57835131 10 5 C10.875 7.75 10.875 7.75 11 10 C10.01 10.495 10.01 10.495 9 11 C9 9.68 9 8.36 9 7 C2.565 7.495 2.565 7.495 -4 8 C-2 2 -2 2 0 0 Z " fill="#E1E8F1" transform="translate(74,114)"/>
<path d="M0 0 C2.4375 0.375 2.4375 0.375 5 1 C5.33 1.66 5.66 2.32 6 3 C6.33 2.01 6.66 1.02 7 0 C9.64 0 12.28 0 15 0 C14.08178464 2.83116402 13.23342141 4.75048057 11.1875 6.9375 C9 8 9 8 6.5 7.5 C3.558375 5.735025 1.94301666 3.80657962 0 1 C0 0.67 0 0.34 0 0 Z " fill="#FCF3F3" transform="translate(124,30)"/>
<path d="M0 0 C1.32 0 2.64 0 4 0 C4.50615298 1.26839526 5.00469099 2.53983102 5.5 3.8125 C5.7784375 4.52019531 6.056875 5.22789062 6.34375 5.95703125 C7 8 7 8 7 11 C4.69 10.34 2.38 9.68 0 9 C0 9.66 0 10.32 0 11 C-0.99 11 -1.98 11 -3 11 C-2.01 7.37 -1.02 3.74 0 0 Z " fill="#1F5EAA" transform="translate(79,172)"/>
<path d="M0 0 C0.99 0 1.98 0 3 0 C3.50615298 1.26839526 4.00469099 2.53983102 4.5 3.8125 C4.7784375 4.52019531 5.056875 5.22789062 5.34375 5.95703125 C6 8 6 8 6 11 C3.69 10.34 1.38 9.68 -1 9 C-1 9.66 -1 10.32 -1 11 C-1.99 11 -2.98 11 -4 11 C-3.5247412 9.35303396 -3.04468109 7.70745272 -2.5625 6.0625 C-2.29566406 5.14597656 -2.02882813 4.22945312 -1.75390625 3.28515625 C-1 1 -1 1 0 0 Z " fill="#2560AB" transform="translate(119,156)"/>
<path d="M0 0 C0.99 0 1.98 0 3 0 C3.33 0.99 3.66 1.98 4 3 C4.33 2.34 4.66 1.68 5 1 C5.99 1.33 6.98 1.66 8 2 C7.608125 2.556875 7.21625 3.11375 6.8125 3.6875 C6.4103125 4.8321875 6.4103125 4.8321875 6 6 C7.28184562 8.74832154 7.28184562 8.74832154 9 11 C5.125 10.125 5.125 10.125 4 9 C3.67 9.66 3.34 10.32 3 11 C2.01 11 1.02 11 0 11 C0 7.37 0 3.74 0 0 Z " fill="#3E71B3" transform="translate(127,156)"/>
<path d="M0 0 C4 1 4 1 5.25 3.0625 C5.4975 3.701875 5.745 4.34125 6 5 C6.33 3.35 6.66 1.7 7 0 C7.66 0 8.32 0 9 0 C9 3.3 9 6.6 9 10 C8.01 10 7.02 10 6 10 C4.3125 7.5 4.3125 7.5 3 5 C2.67 6.65 2.34 8.3 2 10 C1.34 10 0.68 10 0 10 C0 6.7 0 3.4 0 0 Z " fill="#0B4FA2" transform="translate(94,157)"/>
<path d="M0 0 C0.99 0 1.98 0 3 0 C3.05399736 1.45792884 3.09279177 2.91642712 3.125 4.375 C3.14820313 5.18710938 3.17140625 5.99921875 3.1953125 6.8359375 C3 9 3 9 1 11 C-2.125 11.125 -2.125 11.125 -5 11 C-6.60725635 7.78548731 -6.05748185 4.56387464 -6 1 C-5.34 1 -4.68 1 -4 1 C-3.67 3.31 -3.34 5.62 -3 8 C-2.01 8.33 -1.02 8.66 0 9 C0 6.03 0 3.06 0 0 Z " fill="#225FAA" transform="translate(142,172)"/>
<path d="M0 0 C2.31 0 4.62 0 7 0 C7 0.66 7 1.32 7 2 C5.68 2 4.36 2 3 2 C3 2.99 3 3.98 3 5 C3.99 5 4.98 5 6 5 C6 5.66 6 6.32 6 7 C5.01 7 4.02 7 3 7 C3 7.66 3 8.32 3 9 C4.32 9 5.64 9 7 9 C7 9.66 7 10.32 7 11 C4.69 11 2.38 11 0 11 C0 7.37 0 3.74 0 0 Z " fill="#2E66AE" transform="translate(85,156)"/>
<path d="M0 0 C1.98 0 3.96 0 6 0 C6 0.33 6 0.66 6 1 C4.35 1 2.7 1 1 1 C1 1.66 1 2.32 1 3 C2.65 3 4.3 3 6 3 C6.33 5.64 6.66 8.28 7 11 C4.69 11 2.38 11 0 11 C0.185625 10.113125 0.37125 9.22625 0.5625 8.3125 C0.98042484 5.14821189 0.80777742 3.05160358 0 0 Z " fill="#F6F5AD" transform="translate(158,81)"/>
<path d="M0 0 C2.31 0 4.62 0 7 0 C6.01 0.495 6.01 0.495 5 1 C5 4.3 5 7.6 5 11 C5.66 11.33 6.32 11.66 7 12 C4.69 12 2.38 12 0 12 C0.66 11.34 1.32 10.68 2 10 C1.01 8.35 0.02 6.7 -1 5 C-0.34 4.01 0.32 3.02 1 2 C0.67 1.34 0.34 0.68 0 0 Z " fill="#D5DFEC" transform="translate(133,156)"/>
<path d="M0 0 C2.31 0 4.62 0 7 0 C7.38218767 1.65614657 7.71395102 3.32457024 8 5 C7 6 7 6 4.4375 6.0625 C3.2309375 6.0315625 3.2309375 6.0315625 2 6 C2 7.32 2 8.64 2 10 C1.34 10 0.68 10 0 10 C0 6.7 0 3.4 0 0 Z " fill="#0D52A4" transform="translate(76,157)"/>
<path d="M0 0 C2.00720923 0.28674418 4.0085944 0.61866701 6 1 C6.33 2.98 6.66 4.96 7 7 C2.545 7.495 2.545 7.495 -2 8 C-1.125 1.125 -1.125 1.125 0 0 Z " fill="#F7F9F5" transform="translate(142,114)"/>
<path d="M0 0 C0.99 0.33 1.98 0.66 3 1 C1.515 3.475 1.515 3.475 0 6 C0.99 7.65 1.98 9.3 3 11 C0.13275314 10.42655063 -0.8614515 10.1385485 -3 8 C-3.33 8.99 -3.66 9.98 -4 11 C-4.66 11 -5.32 11 -6 11 C-6 7.7 -6 4.4 -6 1 C-5.34 1 -4.68 1 -4 1 C-3.67 1.99 -3.34 2.98 -3 4 C-2.01 2.68 -1.02 1.36 0 0 Z " fill="#1658A7" transform="translate(94,172)"/>
<path d="M0 0 C3.3 0 6.6 0 10 0 C9.67 1.65 9.34 3.3 9 5 C7.3125 5.6875 7.3125 5.6875 5 6 C2.25 4.75 2.25 4.75 0 3 C0 2.01 0 1.02 0 0 Z " fill="#FCFCFD" transform="translate(72,121)"/>
<path d="M0 0 C3.375 -0.125 3.375 -0.125 7 0 C9 2 9 2 9.3125 4.4375 C9 7 9 7 7.875 8.8125 C5.22464043 10.49106106 3.06753576 10.20450238 0 10 C0 7.69 0 5.38 0 3 C0.33 3 0.66 3 1 3 C1 4.65 1 6.3 1 8 C2.32 7.67 3.64 7.34 5 7 C5 5.35 5 3.7 5 2 C3.35 1.67 1.7 1.34 0 1 C0 0.67 0 0.34 0 0 Z " fill="#1759A7" transform="translate(66,173)"/>
<path d="M0 0 C0.99 0 1.98 0 3 0 C2.01 3.63 1.02 7.26 0 11 C-0.99 11 -1.98 11 -3 11 C-4.12880057 7.68885166 -5.21302675 4.41021743 -6 1 C-5.01 1 -4.02 1 -3 1 C-2.34 1.66 -1.68 2.32 -1 3 C-0.67 2.01 -0.34 1.02 0 0 Z " fill="#2762AC" transform="translate(111,156)"/>
<path d="M0 0 C1.66611905 -0.042721 3.33382885 -0.04063832 5 0 C6 1 6 1 6.1875 3.4375 C6 6 6 6 4 8 C2.68 8 1.36 8 0 8 C0 5.36 0 2.72 0 0 Z " fill="#F5F7F9" transform="translate(90,190)"/>
<path d="M0 0 C0.33 1.32 0.66 2.64 1 4 C1.66 3.67 2.32 3.34 3 3 C4.99960012 2.960008 7.00047242 2.95653201 9 3 C8.67 3.66 8.34 4.32 8 5 C7.34 4.67 6.68 4.34 6 4 C6 4.99 6 5.98 6 7 C6.99 7 7.98 7 9 7 C9 7.66 9 8.32 9 9 C6.36 9 3.72 9 1 9 C0.67 6.03 0.34 3.06 0 0 Z " fill="#9CBE82" transform="translate(139,118)"/>
<path d="M0 0 C1.98 0 3.96 0 6 0 C4.68 0.33 3.36 0.66 2 1 C2 1.99 2 2.98 2 4 C3.32 4 4.64 4 6 4 C6 4.66 6 5.32 6 6 C5.01 6 4.02 6 3 6 C3 6.66 3 7.32 3 8 C3.99 8 4.98 8 6 8 C6 8.66 6 9.32 6 10 C4.02 10 2.04 10 0 10 C0 6.7 0 3.4 0 0 Z " fill="#1454A5" transform="translate(116,173)"/>
<path d="M0 0 C0.99 0 1.98 0 3 0 C3 3.63 3 7.26 3 11 C2.01 11 1.02 11 0 11 C-1.7578125 5.04296875 -1.7578125 5.04296875 -2 3 C-1.34 2.01 -0.68 1.02 0 0 Z " fill="#2C65AD" transform="translate(111,172)"/>
<path d="M0 0 C1.65 0 3.3 0 5 0 C5.66 1.65 6.32 3.3 7 5 C4.35541621 6.32229189 2.32238699 6.09677194 -0.625 6.0625 C-1.62789062 6.05347656 -2.63078125 6.04445313 -3.6640625 6.03515625 C-4.43492187 6.02355469 -5.20578125 6.01195313 -6 6 C-4 5 -2 4 0 3 C0 2.01 0 1.02 0 0 Z " fill="#FCFDEF" transform="translate(158,98)"/>
<path d="M0 0 C2 3 2 3 1.75 6 C1 9 1 9 -1 12 C-1.66 12 -2.32 12 -3 12 C-3 11.34 -3 10.68 -3 10 C-2.34 10 -1.68 10 -1 10 C-0.67 7.69 -0.34 5.38 0 3 C-1.98 3.66 -3.96 4.32 -6 5 C-5.625 3.0625 -5.625 3.0625 -5 1 C-3 0 -3 0 0 0 Z " fill="#D2D2D2" transform="translate(122,133)"/>
<path d="M0 0 C0.639375 0.2475 1.27875 0.495 1.9375 0.75 C2.2675 1.74 2.5975 2.73 2.9375 3.75 C1.9475 5.235 1.9475 5.235 0.9375 6.75 C-0.7125 6.42 -2.3625 6.09 -4.0625 5.75 C-4.0625 4.1 -4.0625 2.45 -4.0625 0.75 C-2.0625 -0.25 -2.0625 -0.25 0 0 Z " fill="#C8C8C8" transform="translate(114.0625,115.25)"/>
<path d="M0 0 C1.32 0 2.64 0 4 0 C4.14285714 7.42857143 4.14285714 7.42857143 3 11 C2.34 11 1.68 11 1 11 C-0.28317892 7.15046324 -0.06643637 4.05261865 0 0 Z " fill="#FAFAD8" transform="translate(139,85)"/>
<path d="M0 0 C1.32 0.33 2.64 0.66 4 1 C4.625 3.375 4.625 3.375 5 6 C4.34 6.66 3.68 7.32 3 8 C0.375 7.625 0.375 7.625 -2 7 C-1.34 4.69 -0.68 2.38 0 0 Z " fill="#4476B6" transform="translate(157,172)"/>
<path d="M0 0 C3.375 -0.125 3.375 -0.125 7 0 C7.66 0.66 8.32 1.32 9 2 C8.67 2.99 8.34 3.98 8 5 C6.33333333 5 4.66666667 5 3 5 C3 4.01 3 3.02 3 2 C2.34 1.67 1.68 1.34 1 1 C1 4.3 1 7.6 1 11 C0.67 11 0.34 11 0 11 C0 7.37 0 3.74 0 0 Z " fill="#7A9AC9" transform="translate(165,172)"/>
<path d="M0 0 C0.33 0.99 0.66 1.98 1 3 C1.66 3.33 2.32 3.66 3 4 C2.91253716 5.43861294 2.80434652 6.87597508 2.6875 8.3125 C2.62949219 9.11300781 2.57148438 9.91351563 2.51171875 10.73828125 C1.91793306 13.36272334 1.04219706 14.30820672 -1 16 C-1.66 15.34 -2.32 14.68 -3 14 C-3 13.01 -3 12.02 -3 11 C-1.68 11 -0.36 11 1 11 C0.67 10.01 0.34 9.02 0 8 C-0.12781786 5.32605036 -0.04391871 2.67904143 0 0 Z " fill="#F7C58B" transform="translate(150,59)"/>
<path d="M0 0 C1.98 0 3.96 0 6 0 C4.68 0.33 3.36 0.66 2 1 C2 2.32 2 3.64 2 5 C3.32 5.33 4.64 5.66 6 6 C4.68 6 3.36 6 2 6 C2 7.32 2 8.64 2 10 C3.32 10.33 4.64 10.66 6 11 C4.02 11 2.04 11 0 11 C0 7.37 0 3.74 0 0 Z " fill="#4272B4" transform="translate(122,188)"/>
<path d="M0 0 C0.99 0.33 1.98 0.66 3 1 C4.125 5.75 4.125 5.75 3 8 C1.68 8 0.36 8 -1 8 C-1.04241723 5.66705225 -1.04092937 3.33297433 -1 1 C-0.67 0.67 -0.34 0.34 0 0 Z " fill="#FCEEF5" transform="translate(73,92)"/>
<path d="M0 0 C1.32 0 2.64 0 4 0 C4.33 1.65 4.66 3.3 5 5 C3.68 5 2.36 5 1 5 C1 5.99 1 6.98 1 8 C0.01 8 -0.98 8 -2 8 C-1.34 5.36 -0.68 2.72 0 0 Z " fill="#4778B7" transform="translate(78,175)"/>
<path d="M0 0 C1.66611905 -0.042721 3.33382885 -0.04063832 5 0 C6 1 6 1 6.0625 3.5625 C6.041875 4.366875 6.02125 5.17125 6 6 C4.35 5.67 2.7 5.34 1 5 C0.67 3.35 0.34 1.7 0 0 Z " fill="#8E908F" transform="translate(99,138)"/>
<path d="M0 0 C3.79588866 0.54226981 5.47211993 2.20127563 8 5 C4.7 5 1.4 5 -2 5 C-1.34 3.35 -0.68 1.7 0 0 Z " fill="#1353A4" transform="translate(74,116)"/>
<path d="M0 0 C0.99 0 1.98 0 3 0 C5.09350689 3.4019487 5.17942163 6.05272412 5 10 C2.56070254 8.07423885 0.19909405 6.19909405 -2 4 C-1.34 4 -0.68 4 0 4 C0 2.68 0 1.36 0 0 Z " fill="#EF8788" transform="translate(126,25)"/>
<path d="M0 0 C-0.66 0 -1.32 0 -2 0 C-2 3.3 -2 6.6 -2 10 C-5 6 -5 6 -5 4 C-5.99 4 -6.98 4 -8 4 C-8 3.01 -8 2.02 -8 1 C-3.375 -1.125 -3.375 -1.125 0 0 Z " fill="#C4D2E4" transform="translate(96,157)"/>
<path d="M0 0 C0.99 0.33 1.98 0.66 3 1 C5.14255793 0.61067144 5.14255793 0.61067144 7 0 C7 1.32 7 2.64 7 4 C7.66 4.33 8.32 4.66 9 5 C8.01 5.495 8.01 5.495 7 6 C4.875 5.0625 4.875 5.0625 3 4 C2.34 4.66 1.68 5.32 1 6 C0.67 4.02 0.34 2.04 0 0 Z " fill="#C5E5E3" transform="translate(96,48)"/>
<path d="M0 0 C1.32 0.66 2.64 1.32 4 2 C3.67 3.32 3.34 4.64 3 6 C1.68 6.33 0.36 6.66 -1 7 C-2 4 -2 4 -1.0625 1.8125 C-0.5365625 0.9153125 -0.5365625 0.9153125 0 0 Z " fill="#D0D1D1" transform="translate(118,115)"/>
<path d="M0 0 C0.66 0 1.32 0 2 0 C3.625 2.5 3.625 2.5 5 5 C4.34 5 3.68 5 3 5 C2.67 5.66 2.34 6.32 2 7 C2 6.34 2 5.68 2 5 C1.01 5 0.02 5 -1 5 C-1.33 5.66 -1.66 6.32 -2 7 C-2.125 4.625 -2.125 4.625 -2 2 C-1.34 1.34 -0.68 0.68 0 0 Z " fill="#F3992C" transform="translate(135,63)"/>
<path d="M0 0 C0.99 0.495 0.99 0.495 2 1 C2.309375 1.969375 2.61875 2.93875 2.9375 3.9375 C3.74744122 7.2680443 3.74744122 7.2680443 7 9 C6.67 10.32 6.34 11.64 6 13 C1.4070292 9.47872239 0.88058083 5.42252403 0 0 Z " fill="#F9DBD9" transform="translate(120,27)"/>
<path d="M0 0 C0.33 0 0.66 0 1 0 C1.49940808 6.11774896 0.24900602 9.02495953 -3 14 C-3.66 13.67 -4.32 13.34 -5 13 C-4.3506938 9.49374651 -2.82074633 7.03457721 -1 4 C-0.30420546 1.80869466 -0.30420546 1.80869466 0 0 Z " fill="#F9DEDD" transform="translate(142,26)"/>
<path d="M0 0 C0.99 0 1.98 0 3 0 C3.33 1.32 3.66 2.64 4 4 C3.34 4 2.68 4 2 4 C2 4.99 2 5.98 2 7 C0.68 6.67 -0.64 6.34 -2 6 C-1.125 1.125 -1.125 1.125 0 0 Z " fill="#507EBA" transform="translate(119,156)"/>
<path d="M0 0 C2.97 0.495 2.97 0.495 6 1 C6 1.99 6 2.98 6 4 C3.69 4 1.38 4 -1 4 C-0.67 2.68 -0.34 1.36 0 0 Z " fill="#CFE0C2" transform="translate(142,114)"/>
<path d="M0 0 C1.32 0 2.64 0 4 0 C4 1.65 4 3.3 4 5 C2.68 5.33 1.36 5.66 0 6 C0 4.02 0 2.04 0 0 Z " fill="#F0F4F8" transform="translate(68,175)"/>
<path d="M0 0 C0.3403125 0.928125 0.3403125 0.928125 0.6875 1.875 C2.37929835 4.61410209 3.99244161 5.05024472 7 6 C6.67 6.66 6.34 7.32 6 8 C1.25 7.25 1.25 7.25 -1 5 C-0.625 2.375 -0.625 2.375 0 0 Z " fill="#E8E8E8" transform="translate(98,138)"/>
<path d="M0 0 C1.98567708 0.09765625 3.97135417 0.1953125 5.95703125 0.29296875 C6.28703125 0.95296875 6.61703125 1.61296875 6.95703125 2.29296875 C6.29703125 2.95296875 5.63703125 3.61296875 4.95703125 4.29296875 C4.95703125 3.63296875 4.95703125 2.97296875 4.95703125 2.29296875 C1.65703125 2.62296875 -1.64296875 2.95296875 -5.04296875 3.29296875 C-2.04296875 0.29296875 -2.04296875 0.29296875 0 0 Z " fill="#F6F6F6" transform="translate(111.04296875,113.70703125)"/>
<path d="M0 0 C-0.33 0.66 -0.66 1.32 -1 2 C-3.28515625 2.4140625 -3.28515625 2.4140625 -6.0625 2.625 C-6.98160156 2.69976562 -7.90070313 2.77453125 -8.84765625 2.8515625 C-9.55792969 2.90054688 -10.26820313 2.94953125 -11 3 C-11 2.34 -11 1.68 -11 1 C-7.26562152 0.12132271 -3.83225427 -0.08912219 0 0 Z " fill="#E9E504" transform="translate(144,83)"/>
<path d="M0 0 C2.31 0 4.62 0 7 0 C6.67 1.32 6.34 2.64 6 4 C3.03 3.505 3.03 3.505 0 3 C0 2.01 0 1.02 0 0 Z " fill="#FBFDFD" transform="translate(71,69)"/>
<path d="M0 0 C0.66 0 1.32 0 2 0 C2.95024979 3.69541586 2.95024979 6.30458414 2 10 C1.34 10 0.68 10 0 10 C0 6.7 0 3.4 0 0 Z " fill="#014CA0" transform="translate(127,157)"/>
<path d="M0 0 C0.66 0.66 1.32 1.32 2 2 C1.0479279 3.00596297 0.08812654 4.00461563 -0.875 5 C-1.40867187 5.556875 -1.94234375 6.11375 -2.4921875 6.6875 C-4 8 -4 8 -6 8 C-4.55746343 4.63408134 -2.66735273 2.48952921 0 0 Z " fill="#ECECEC" transform="translate(117,139)"/>
<path d="M0 0 C0.99 1.32 1.98 2.64 3 4 C2.34 4.66 1.68 5.32 1 6 C-0.32 6 -1.64 6 -3 6 C-2.42655063 3.13275314 -2.1385485 2.1385485 0 0 Z " fill="#CEDDC0" transform="translate(139,124)"/>
<path d="M0 0 C1.5625 1.5 1.5625 1.5 3 4 C2.96823234 6.77437543 2.50364148 9.25286467 2 12 C-0.13586678 8.79619983 -0.23132175 7.98060033 -0.125 4.3125 C-0.10695313 3.50425781 -0.08890625 2.69601563 -0.0703125 1.86328125 C-0.04710938 1.24839844 -0.02390625 0.63351563 0 0 Z " fill="#E73091" transform="translate(70,86)"/>
<path d="M0 0 C2.86724686 0.57344937 3.8614515 0.8614515 6 3 C6 3.99 6 4.98 6 6 C6.66 6.33 7.32 6.66 8 7 C6.35 6.67 4.7 6.34 3 6 C3 4.68 3 3.36 3 2 C2.01 2 1.02 2 0 2 C0 1.34 0 0.68 0 0 Z " fill="#F9D8B3" transform="translate(138,68)"/>
<path d="M0 0 C0.66 0 1.32 0 2 0 C2 1.98 2 3.96 2 6 C0.68 6.33 -0.64 6.66 -2 7 C-2.33 6.34 -2.66 5.68 -3 5 C-2.34 4.34 -1.68 3.68 -1 3 C-0.67 2.01 -0.34 1.02 0 0 Z " fill="#EAEFF5" transform="translate(86,123)"/>
<path d="M0 0 C2.125 0.375 2.125 0.375 4 1 C3.01 1.33 2.02 1.66 1 2 C0.67 3.65 0.34 5.3 0 7 C-0.99 7 -1.98 7 -3 7 C-2.25 2.25 -2.25 2.25 0 0 Z " fill="#F8D1D1" transform="translate(126,22)"/>
<path d="M0 0 C0.33 0.99 0.66 1.98 1 3 C1.99 3.33 2.98 3.66 4 4 C2.68 4 1.36 4 0 4 C0 4.66 0 5.32 0 6 C-0.99 6 -1.98 6 -3 6 C-2.625 3.5625 -2.625 3.5625 -2 1 C-1.34 0.67 -0.68 0.34 0 0 Z " fill="#1B59A7" transform="translate(118,161)"/>
<path d="M0 0 C0.33 1.32 0.66 2.64 1 4 C-2 5 -2 5 -5 4 C-5 3.01 -5 2.02 -5 1 C-3.35 0.67 -1.7 0.34 0 0 Z " fill="#7A9DCA" transform="translate(83,158)"/>
<path d="M0 0 C2.64 0.33 5.28 0.66 8 1 C8 1.66 8 2.32 8 3 C5.36 3 2.72 3 0 3 C0 2.01 0 1.02 0 0 Z " fill="#77A653" transform="translate(140,124)"/>
<path d="M0 0 C0.66 0 1.32 0 2 0 C2.33 1.98 2.66 3.96 3 6 C1.68 6 0.36 6 -1 6 C-0.67 4.02 -0.34 2.04 0 0 Z " fill="#B3C4DE" transform="translate(146,191)"/>
<path d="M0 0 C0.33 0 0.66 0 1 0 C1 3.3 1 6.6 1 10 C0.01 9.67 -0.98 9.34 -2 9 C-2.33 8.01 -2.66 7.02 -3 6 C-2.01 6 -1.02 6 0 6 C0 4.02 0 2.04 0 0 Z " fill="#0651A2" transform="translate(132,173)"/>
<path d="M0 0 C1.9375 0.75 1.9375 0.75 4 2 C4.75 4.125 4.75 4.125 5 6 C3.35 5.67 1.7 5.34 0 5 C0 3.35 0 1.7 0 0 Z " fill="#888A89" transform="translate(110,116)"/>
<path d="M0 0 C2.16874252 0.50603992 3.99967627 0.99983813 6 2 C6 2.99 6 3.98 6 5 C3.5625 4.1875 3.5625 4.1875 1 3 C0.67 2.01 0.34 1.02 0 0 Z " fill="#FAEDDD" transform="translate(133,75)"/>
<path d="M0 0 C1 3 1 3 -0.4375 6.1875 C-1.2109375 7.5796875 -1.2109375 7.5796875 -2 9 C-2.6875 7.3125 -2.6875 7.3125 -3 5 C-1.5625 2.25 -1.5625 2.25 0 0 Z " fill="#F1F3F5" transform="translate(103,113)"/>
</svg>
