<?xml version="1.0" standalone="no"?>
<!DOCTYPE svg PUBLIC "-//W3C//DTD SVG 20010904//EN"
 "http://www.w3.org/TR/2001/REC-SVG-20010904/DTD/svg10.dtd">
<svg version="1.0" xmlns="http://www.w3.org/2000/svg"
 width="242.000000pt" height="208.000000pt" viewBox="0 0 242.000000 208.000000"
 preserveAspectRatio="xMidYMid meet">

<g transform="translate(0.000000,208.000000) scale(0.100000,-0.100000)"
fill="#000000" stroke="none">
<path d="M1190 1681 c-29 -6 -20 -8 48 -14 265 -24 444 -164 497 -389 39 -166
-5 -328 -120 -443 -76 -76 -94 -82 -153 -57 -42 18 -67 21 -195 20 -81 -1
-147 -4 -147 -8 0 -18 40 -40 73 -40 42 0 93 -17 83 -28 -4 -4 -76 -10 -159
-13 -126 -4 -160 -9 -200 -27 -41 -18 -68 -45 -56 -56 2 -2 33 2 69 10 76 17
145 12 244 -18 53 -16 85 -19 140 -15 82 6 220 47 286 84 246 140 342 425 225
672 -48 101 -160 213 -265 265 -116 56 -256 78 -370 57z"/>
<path d="M1180 1550 c0 -5 5 -10 10 -10 6 0 10 5 10 10 0 6 -4 10 -10 10 -5 0
-10 -4 -10 -10z"/>
<path d="M1210 1552 c0 -4 5 -13 12 -20 8 -8 9 -12 1 -12 -6 0 -13 4 -15 10
-1 5 -8 6 -15 2 -12 -8 -21 -157 -10 -169 4 -3 7 12 7 35 0 23 4 42 10 42 12
0 0 -101 -14 -117 -40 -45 -40 -46 -18 -38 17 5 21 3 16 -9 -3 -9 -10 -14 -14
-11 -5 3 -12 0 -15 -5 -5 -7 -12 -5 -22 7 -13 17 -14 17 -5 -2 5 -11 7 -36 6
-55 -1 -19 0 -28 3 -20 3 8 11 21 17 29 9 12 8 13 -3 7 -9 -6 -12 -4 -9 5 3 8
10 14 17 14 7 0 21 11 32 25 18 23 20 24 30 7 6 -9 15 -14 21 -11 6 4 8 3 5
-3 -7 -12 20 -53 35 -53 5 0 8 6 5 14 -4 9 2 12 20 10 18 -2 27 3 30 17 3 10
9 17 13 14 5 -3 7 3 6 12 -7 43 33 113 63 113 32 0 97 -42 144 -93 l48 -52
-24 50 c-32 64 -106 148 -151 169 -43 20 -100 21 -116 1 -7 -8 -15 -47 -18
-85 -4 -63 -7 -69 -26 -68 -24 2 -23 -1 -32 146 -5 77 -10 102 -20 102 -8 0
-14 -4 -14 -8z m17 -104 c-3 -8 -6 -5 -6 6 -1 11 2 17 5 13 3 -3 4 -12 1 -19z
m0 -60 c-3 -8 -6 -5 -6 6 -1 11 2 17 5 13 3 -3 4 -12 1 -19z m15 -70 c-5 -20
-5 -20 -26 -12 -20 8 -9 33 13 31 12 -1 17 -7 13 -19z m88 -68 c0 -10 -27 -7
-37 5 -4 4 -2 5 5 1 6 -4 12 -2 12 4 0 6 5 8 10 5 6 -3 10 -10 10 -15z"/>
<path d="M1151 1324 c-12 -27 -11 -28 4 -12 10 9 16 21 13 28 -2 7 -10 -1 -17
-16z"/>
<path d="M1330 1210 c-8 -5 -18 -6 -22 -4 -5 3 -8 2 -7 -3 3 -18 -2 -27 -9
-16 -4 6 -6 -40 -5 -102 2 -129 18 -179 73 -230 l33 -30 -21 36 c-33 54 -42
122 -31 210 14 98 9 152 -11 139z"/>
<path d="M1499 1144 c12 -15 21 -39 21 -55 0 -15 5 -31 11 -35 9 -5 10 1 5 21
-6 23 -5 26 6 17 9 -7 19 -8 28 -2 13 8 12 10 -2 10 -14 0 -18 8 -18 35 0 33
-2 35 -36 35 l-35 0 20 -26z"/>
<path d="M1451 1088 c-30 -20 -34 -20 -28 -5 4 11 3 16 -3 12 -6 -3 -10 -15
-10 -26 0 -18 19 -25 58 -20 8 1 12 -12 12 -39 0 -39 1 -40 35 -40 40 0 43 11
15 47 -11 14 -22 40 -26 59 -3 19 -9 34 -13 34 -3 0 -21 -10 -40 -22z"/>
<path d="M1121 1084 c0 -11 3 -14 6 -6 3 7 2 16 -1 19 -3 4 -6 -2 -5 -13z"/>
<path d="M1126 1045 c-3 -9 -6 -22 -5 -28 0 -7 5 -1 10 12 5 13 8 26 5 28 -2
2 -6 -3 -10 -12z"/>
<path d="M0 75 l0 -75 1210 0 1210 0 0 75 0 75 -1210 0 -1210 0 0 -75z m140
20 c13 -14 28 -25 34 -24 6 0 6 3 -1 6 -10 3 -10 7 0 18 7 7 15 9 18 4 3 -5
24 -10 47 -11 27 -1 39 -5 35 -12 -4 -6 1 -5 10 3 9 7 35 13 57 13 22 0 40 4
40 9 0 6 7 4 15 -5 12 -11 22 -13 40 -6 23 9 29 6 27 -11 -1 -3 5 -6 13 -6 8
0 12 4 10 7 -3 4 6 7 19 7 16 0 23 -5 21 -16 -1 -13 -16 -16 -76 -16 -41 0
-79 -4 -86 -8 -6 -4 -19 0 -27 9 -9 8 -16 11 -16 5 0 -6 -14 -9 -32 -8 -18 2
-41 0 -50 -5 -11 -5 -18 -5 -18 0 0 13 -61 8 -88 -7 -12 -6 -32 -9 -42 -6 -25
8 -37 50 -20 70 18 22 43 18 70 -10z m1730 -15 c0 -5 -12 -10 -27 -9 l-28 1
25 8 c14 4 26 8 28 9 1 1 2 -3 2 -9z m330 0 c0 -5 -8 -10 -17 -10 -15 0 -16 2
-3 10 19 12 20 12 20 0z m35 0 c3 -5 -1 -10 -10 -10 -9 0 -13 5 -10 10 3 6 8
10 10 10 2 0 7 -4 10 -10z m-508 -6 c-3 -3 -12 -4 -19 -1 -8 3 -5 6 6 6 11 1
17 -2 13 -5z m43 2 c0 -2 -7 -6 -15 -10 -8 -3 -15 -1 -15 4 0 6 7 10 15 10 8
0 15 -2 15 -4z m318 -3 c-10 -2 -28 -2 -40 0 -13 2 -5 4 17 4 22 1 32 -1 23
-4z m65 0 c-7 -2 -21 -2 -30 0 -10 3 -4 5 12 5 17 0 24 -2 18 -5z m130 0 c-7
-2 -19 -2 -25 0 -7 3 -2 5 12 5 14 0 19 -2 13 -5z m70 0 c-7 -2 -19 -2 -25 0
-7 3 -2 5 12 5 14 0 19 -2 13 -5z"/>
<path d="M93 93 c-15 -5 -18 -43 -4 -43 5 0 8 7 7 16 0 9 5 19 12 21 7 3 12
-4 12 -16 0 -12 5 -21 10 -21 16 0 11 37 -6 44 -9 3 -16 6 -17 5 -1 0 -8 -3
-14 -6z"/>
</g>
</svg>
