<?xml version="1.0" encoding="UTF-8"?>
<svg version="1.1" xmlns="http://www.w3.org/2000/svg" width="225" height="225">
<path d="M0 0 C74.25 0 148.5 0 225 0 C225 74.25 225 148.5 225 225 C150.75 225 76.5 225 0 225 C0 150.75 0 76.5 0 0 Z " fill="#FEFEFE" transform="translate(0,0)"/>
<path d="M0 0 C6.61494551 3.46867731 10.97005709 7.91763678 13.38671875 15.09375 C15.19352306 29.3801097 9.4602673 42.82316128 1.140625 54.15234375 C-5.39440025 62.4042886 -5.39440025 62.4042886 -9.61328125 64.09375 C-21.15330609 52.50029912 -30.43732757 38.074305 -31.05078125 21.34375 C-30.99206828 14.33488928 -29.49683976 10.1159248 -24.61328125 5.09375 C-17.57693567 -1.06676354 -9.02275092 -3.12896594 0 0 Z " fill="#F60707" transform="translate(98.61328125,68.90625)"/>
<path d="M0 0 C8.9559959 0.02768469 15.262975 0.86040929 22 7 C25.7058148 10.7635178 29.0688103 14.60321545 32 19 C35.03297665 20.37431754 38.12188186 21.48188726 41.25 22.62109375 C44 24 44 24 45.4296875 25.83203125 C46.16168341 28.61461845 45.78554479 30.46103312 45.125 33.25 C44.92132813 34.14203125 44.71765625 35.0340625 44.5078125 35.953125 C44.34023437 36.62859375 44.17265625 37.3040625 44 38 C41.36 38 38.72 38 36 38 C35.54625 36.88625 35.0925 35.7725 34.625 34.625 C33.27534014 31.03800992 33.27534014 31.03800992 31 29 C27.09586703 28.56620745 24.88098522 28.37403681 21.625 30.6875 C19.60377256 33.23341776 19.60377256 33.23341776 19 38 C10.42 38 1.84 38 -7 38 C-6.05125 36.02 -5.1025 34.04 -4.125 32 C0.5157444 21.84289906 3.38505212 11.15713179 0 0 Z " fill="#1E2C4C" transform="translate(112,80)"/>
<path d="M0 0 C5.22522754 2.61261377 9.36911872 6.73823745 12 12 C12.82229571 18.49748412 11.77260907 23.62098965 8 29 C2.93549775 33.81745336 -1.42660418 34.41040181 -8.203125 34.34765625 C-12.47505261 33.81664849 -15.06362752 32.07060665 -18 29 C-21.80830161 23.79532113 -22.88154731 18.41915434 -22 12 C-17.35947423 2.89743022 -10.08422431 -1.22809593 0 0 Z " fill="#FAF6F6" transform="translate(95,73)"/>
<path d="M0 0 C1.16337891 0.00966797 2.32675781 0.01933594 3.52539062 0.02929688 C4.74033203 0.05443359 5.95527344 0.07957031 7.20703125 0.10546875 C8.43357422 0.11900391 9.66011719 0.13253906 10.92382812 0.14648438 C13.95616789 0.18188134 16.98763121 0.23126115 20.01953125 0.29296875 C20.01953125 1.61296875 20.01953125 2.93296875 20.01953125 4.29296875 C17.04953125 4.29296875 14.07953125 4.29296875 11.01953125 4.29296875 C11.01953125 5.28296875 11.01953125 6.27296875 11.01953125 7.29296875 C13.32953125 7.29296875 15.63953125 7.29296875 18.01953125 7.29296875 C18.01953125 8.28296875 18.01953125 9.27296875 18.01953125 10.29296875 C15.70953125 10.29296875 13.39953125 10.29296875 11.01953125 10.29296875 C11.01953125 11.61296875 11.01953125 12.93296875 11.01953125 14.29296875 C13.98953125 14.29296875 16.95953125 14.29296875 20.01953125 14.29296875 C20.01953125 15.28296875 20.01953125 16.27296875 20.01953125 17.29296875 C15.56125199 17.35079915 11.10306845 17.3865073 6.64453125 17.41796875 C5.37351563 17.43472656 4.1025 17.45148438 2.79296875 17.46875 C1.58125 17.47519531 0.36953125 17.48164063 -0.87890625 17.48828125 C-1.99958496 17.49875488 -3.12026367 17.50922852 -4.27490234 17.52001953 C-6.98046875 17.29296875 -6.98046875 17.29296875 -8.98046875 15.29296875 C-9.28125 12.578125 -9.28125 12.578125 -9.29296875 9.35546875 C-9.30972656 8.29457031 -9.32648438 7.23367187 -9.34375 6.140625 C-8.98046875 3.29296875 -8.98046875 3.29296875 -7.83154297 1.63330078 C-5.1858591 -0.28239487 -3.24065635 -0.04742424 0 0 Z " fill="#D0D2D7" transform="translate(168.98046875,139.70703125)"/>
<path d="M0 0 C2.64 0 5.28 0 8 0 C8 1.98 8 3.96 8 6 C9.98 6 11.96 6 14 6 C14 8.64 14 11.28 14 14 C12.02 14 10.04 14 8 14 C8 15.98 8 17.96 8 20 C5.36 20 2.72 20 0 20 C0 18.02 0 16.04 0 14 C-1.98 14 -3.96 14 -6 14 C-6 11.36 -6 8.72 -6 6 C-4.02 6 -2.04 6 0 6 C0 4.02 0 2.04 0 0 Z " fill="#192647" transform="translate(86,80)"/>
<path d="M0 0 C9.27734375 -0.09765625 9.27734375 -0.09765625 12 0 C13.9170684 1.9170684 13 5.42754461 13 8 C13.33 8.33 13.66 8.66 14 9 C14.1875 11.4375 14.1875 11.4375 14 14 C12 16 12 16 9.1796875 16.1953125 C6.11979167 16.13020833 3.05989583 16.06510417 0 16 C0 10.72 0 5.44 0 0 Z " fill="#0C1B40" transform="translate(77,141)"/>
<path d="M0 0 C1.65 0 3.3 0 5 0 C6.32 2.64 7.64 5.28 9 8 C10.32 5.69 11.64 3.38 13 1 C14.65 1 16.3 1 18 1 C18 6.28 18 11.56 18 17 C16.68 17 15.36 17 14 17 C13.67 15.02 13.34 13.04 13 11 C12.01 12.485 12.01 12.485 11 14 C9.68 14 8.36 14 7 14 C6.34 12.68 5.68 11.36 5 10 C4.67 12.31 4.34 14.62 4 17 C2.68 17 1.36 17 0 17 C0 11.39 0 5.78 0 0 Z " fill="#1E2C4C" transform="translate(55,140)"/>
<path d="M0 0 C4.91495901 2.57725582 8.15590227 5.61229488 11.38671875 10.09375 C10.39671875 10.42375 9.40671875 10.75375 8.38671875 11.09375 C7.72671875 12.08375 7.06671875 13.07375 6.38671875 14.09375 C6 13.61164063 5.61328125 13.12953125 5.21484375 12.6328125 C4.43367188 11.68535156 4.43367188 11.68535156 3.63671875 10.71875 C3.12625 10.09226562 2.61578125 9.46578125 2.08984375 8.8203125 C-0.30944688 6.38800411 -2.37287377 5.26740705 -5.76171875 4.79296875 C-12.28870939 4.75861617 -16.16634334 6.46245806 -21.61328125 10.09375 C-22.60328125 9.76375 -23.59328125 9.43375 -24.61328125 9.09375 C-25.60328125 9.58875 -25.60328125 9.58875 -26.61328125 10.09375 C-26.23459925 7.44871358 -25.82964208 6.30089367 -23.87109375 4.42578125 C-22.81535156 3.67361328 -22.81535156 3.67361328 -21.73828125 2.90625 C-21.03960937 2.39707031 -20.3409375 1.88789062 -19.62109375 1.36328125 C-14.01428874 -2.18187756 -6.14583025 -2.13128942 0 0 Z " fill="#F00F0F" transform="translate(98.61328125,68.90625)"/>
<path d="M0 0 C1.65 0 3.3 0 5 0 C6.32 2.31 7.64 4.62 9 7 C9.33 4.69 9.66 2.38 10 0 C11.65 0 13.3 0 15 0 C15 5.61 15 11.22 15 17 C13.35 17 11.7 17 10 17 C8.41796875 15.25 8.41796875 15.25 7.1875 13 C6.55908203 11.88625 6.55908203 11.88625 5.91796875 10.75 C5.61503906 10.1725 5.31210938 9.595 5 9 C4.67 11.64 4.34 14.28 4 17 C2.68 17 1.36 17 0 17 C0 11.39 0 5.78 0 0 Z " fill="#33405D" transform="translate(143,140)"/>
<path d="M0 0 C1.8125 1.125 1.8125 1.125 3 3 C3.50030235 6.93094707 3.5996142 9.1005787 1.375 12.4375 C-1.7370662 14.48491197 -3.34394496 14.68551032 -7 14 C-9.4375 11.9375 -9.4375 11.9375 -11 9 C-11.0625 5.375 -11.0625 5.375 -10 2 C-6.60539102 -1.0174302 -4.26129477 -1.5699507 0 0 Z " fill="#1B2A49" transform="translate(143,110)"/>
<path d="M0 0 C3.16686359 -0.59378692 5.8457074 -0.72306092 9 0 C12.2963866 2.5442984 14.94415344 5.36920665 17 9 C16.7109375 11.296875 16.7109375 11.296875 16 13 C12.48538462 14.2288865 10.31643613 13.75329849 6.8125 12.625 C5.93207031 12.34914063 5.05164063 12.07328125 4.14453125 11.7890625 C2 11 2 11 1 10 C0.76712992 8.31816052 0.58735834 6.6287584 0.4375 4.9375 C0.35371094 4.01839844 0.26992187 3.09929687 0.18359375 2.15234375 C0.09271484 1.08693359 0.09271484 1.08693359 0 0 Z " fill="#F9F9F9" transform="translate(120,86)"/>
<path d="M0 0 C1.65 0 3.3 0 5 0 C5.83919398 2.26882087 6.67151724 4.53977027 7.5 6.8125 C7.73847656 7.45509766 7.97695312 8.09769531 8.22265625 8.75976562 C9.27068746 11.64933739 10 13.90076061 10 17 C8.68 17 7.36 17 6 17 C5.67 16.34 5.34 15.68 5 15 C1.97065509 14.34227572 1.97065509 14.34227572 -1 14 C-1.33 14.99 -1.66 15.98 -2 17 C-3.32 17 -4.64 17 -6 17 C-4.49829538 11.01448228 -3.05773837 5.38744379 0 0 Z " fill="#23304E" transform="translate(131,140)"/>
<path d="M0 0 C1.65 0 3.3 0 5 0 C10.55580866 11.52164009 10.55580866 11.52164009 11 17 C9.68 17 8.36 17 7 17 C6.67 16.34 6.34 15.68 6 15 C4.02 15 2.04 15 0 15 C-0.33 15.66 -0.66 16.32 -1 17 C-2.32 17 -3.64 17 -5 17 C-4.35083537 10.99522721 -2.14204997 5.599219 0 0 Z " fill="#1A2949" transform="translate(42,140)"/>
<path d="M0 0 C1.32 0 2.64 0 4 0 C4 4.29 4 8.58 4 13 C5.98 13 7.96 13 10 13 C10 8.71 10 4.42 10 0 C11.32 0 12.64 0 14 0 C14.02685095 2.47923801 14.04676547 4.9581884 14.0625 7.4375 C14.07087891 8.14455078 14.07925781 8.85160156 14.08789062 9.58007812 C14.09653588 11.38693559 14.05220011 13.19387603 14 15 C13 16 13 16 10.3125 16.1328125 C9.219375 16.13023437 8.12625 16.12765625 7 16.125 C5.906875 16.12757813 4.81375 16.13015625 3.6875 16.1328125 C1 16 1 16 0 15 C-0.07313567 12.46950598 -0.09247527 9.96695163 -0.0625 7.4375 C-0.05798828 6.72658203 -0.05347656 6.01566406 -0.04882812 5.28320312 C-0.03700864 3.52209987 -0.01907263 1.76103964 0 0 Z " fill="#142245" transform="translate(94,141)"/>
<path d="M0 0 C3.96 0 7.92 0 12 0 C12 0.66 12 1.32 12 2 C9.36 2 6.72 2 4 2 C4 3.32 4 4.64 4 6 C6.31 6 8.62 6 11 6 C11 6.99 11 7.98 11 9 C8.69 9 6.38 9 4 9 C4 10.32 4 11.64 4 13 C6.97 13 9.94 13 13 13 C13 13.99 13 14.98 13 16 C8.71 16 4.42 16 0 16 C0 10.72 0 5.44 0 0 Z " fill="#111E43" transform="translate(176,141)"/>
<path d="M0 0 C0.99773437 0.02320313 1.99546875 0.04640625 3.0234375 0.0703125 C4.52777344 0.09738281 4.52777344 0.09738281 6.0625 0.125 C6.83335937 0.14820313 7.60421875 0.17140625 8.3984375 0.1953125 C8.3984375 1.1853125 8.3984375 2.1753125 8.3984375 3.1953125 C5.4284375 3.1953125 2.4584375 3.1953125 -0.6015625 3.1953125 C-0.2715625 6.1653125 0.0584375 9.1353125 0.3984375 12.1953125 C3.0384375 12.5253125 5.6784375 12.8553125 8.3984375 13.1953125 C8.3984375 14.1853125 8.3984375 15.1753125 8.3984375 16.1953125 C6.60709772 16.24923243 4.81529851 16.28806821 3.0234375 16.3203125 C2.02570313 16.34351563 1.02796875 16.36671875 0 16.390625 C-2.6015625 16.1953125 -2.6015625 16.1953125 -4.6015625 14.1953125 C-4.8671875 11.4453125 -4.8671875 11.4453125 -4.8515625 8.1953125 C-4.85671875 7.1228125 -4.861875 6.0503125 -4.8671875 4.9453125 C-4.50995419 1.24689707 -3.7408353 0.28084349 0 0 Z " fill="#1D2B4B" transform="translate(164.6015625,140.8046875)"/>
<path d="M0 0 C1.65 0 3.3 0 5 0 C5 4.62 5 9.24 5 14 C7.64 14 10.28 14 13 14 C13 14.99 13 15.98 13 17 C8.71 17 4.42 17 0 17 C0 11.39 0 5.78 0 0 Z " fill="#32405B" transform="translate(111,140)"/>
<path d="M0 0 C2.31 0.33 4.62 0.66 7 1 C8.03946852 4.7680734 8 8.07749916 8 12 C6.68 12.33 5.36 12.66 4 13 C6.31 13.33 8.62 13.66 11 14 C11 14.33 11 14.66 11 15 C7.37 15 3.74 15 0 15 C0 10.05 0 5.1 0 0 Z " fill="#646E83" transform="translate(78,142)"/>
<path d="M0 0 C1.65 0 3.3 0 5 0 C6.32 2.64 7.64 5.28 9 8 C7.68 8.33 6.36 8.66 5 9 C4.67 11.64 4.34 14.28 4 17 C2.68 17 1.36 17 0 17 C0 11.39 0 5.78 0 0 Z " fill="#293855" transform="translate(143,140)"/>
<path d="M0 0 C1.65 0 3.3 0 5 0 C5 5.28 5 10.56 5 16 C3.68 16 2.36 16 1 16 C1 13.36 1 10.72 1 8 C0.34 8 -0.32 8 -1 8 C-1.93065133 5.39417629 -2.14917407 4.35801776 -1.0625 1.75 C-0.711875 1.1725 -0.36125 0.595 0 0 Z " fill="#192648" transform="translate(68,141)"/>
<path d="M0 0 C1.65 0 3.3 0 5 0 C7.08997373 3.39620731 7.2632246 6.05163095 7 10 C6 11 6 11 3.4375 11.0625 C2.633125 11.041875 1.82875 11.02125 1 11 C0.87625 10.360625 0.7525 9.72125 0.625 9.0625 C0.41875 8.381875 0.2125 7.70125 0 7 C-0.66 6.67 -1.32 6.34 -2 6 C-1.34 4.02 -0.68 2.04 0 0 Z " fill="#444F6A" transform="translate(42,140)"/>
<path d="M0 0 C1.32 0 2.64 0 4 0 C4 4.62 4 9.24 4 14 C5.65 14 7.3 14 9 14 C9 14.33 9 14.66 9 15 C2.84765625 15.87890625 2.84765625 15.87890625 1 16 C0 15 0 15 -0.09765625 11.62109375 C-0.09098369 10.22652923 -0.07902532 8.83198257 -0.0625 7.4375 C-0.05798828 6.72658203 -0.05347656 6.01566406 -0.04882812 5.28320312 C-0.03700864 3.52209987 -0.01907263 1.76103964 0 0 Z " fill="#1F2E4E" transform="translate(94,141)"/>
<path d="M0 0 C0.33 0 0.66 0 1 0 C3.10969301 10.37265732 -0.03175035 19.75025382 -5.75390625 28.51171875 C-7 30 -7 30 -10 32 C-9.03383366 29.49331038 -8.0328384 27.06470141 -6.81640625 24.66796875 C-2.78782361 16.69865419 -1.34820768 8.7359473 0 0 Z " fill="#E6D4D5" transform="translate(112,88)"/>
<path d="M0 0 C0 1.32 0 2.64 0 4 C-1.32 4.33 -2.64 4.66 -4 5 C-1.69 5.33 0.62 5.66 3 6 C3 6.33 3 6.66 3 7 C-0.63 7 -4.26 7 -8 7 C-8 5.02 -8 3.04 -8 1 C-5.29120665 -0.35439668 -2.99066732 -0.06501451 0 0 Z " fill="#273350" transform="translate(86,150)"/>
<path d="M0 0 C2.05619793 2.31322267 2.95899829 3.55923162 3.25 6.6875 C3 9 3 9 2 10 C-0.67058851 10.14115161 -3.32432238 10.04247107 -6 10 C-6.33 9.34 -6.66 8.68 -7 8 C-5.35 7.67 -3.7 7.34 -2 7 C-1.855625 6.030625 -1.71125 5.06125 -1.5625 4.0625 C-1 1 -1 1 0 0 Z " fill="#192547" transform="translate(88,146)"/>
<path d="M0 0 C3.24299151 2.38957269 5.50902342 4.2047869 7 8 C6.01 8 5.02 8 4 8 C3.01 9.485 3.01 9.485 2 11 C-2 6.5 -2 6.5 -2 2 C-1.34 2 -0.68 2 0 2 C0 1.34 0 0.68 0 0 Z " fill="#EF1717" transform="translate(103,72)"/>
<path d="M0 0 C0.33 1.32 0.66 2.64 1 4 C3.97 4 6.94 4 10 4 C10 4.99 10 5.98 10 7 C6.04 7 2.08 7 -2 7 C-2 5.68 -2 4.36 -2 3 C-1.34 3 -0.68 3 0 3 C0 2.01 0 1.02 0 0 Z " fill="#1E2B4B" transform="translate(179,150)"/>
<path d="M0 0 C1.32 0 2.64 0 4 0 C4.12375 0.639375 4.2475 1.27875 4.375 1.9375 C4.684375 2.9584375 4.684375 2.9584375 5 4 C5.66 4.33 6.32 4.66 7 5 C6.67 5.66 6.34 6.32 6 7 C5.34 7 4.68 7 4 7 C4 7.66 4 8.32 4 9 C2.68 8.67 1.36 8.34 0 8 C0.33 6.68 0.66 5.36 1 4 C0.34 3.67 -0.32 3.34 -1 3 C-0.67 2.01 -0.34 1.02 0 0 Z " fill="#535D76" transform="translate(131,142)"/>
<path d="M0 0 C1.67542976 0.28604898 3.34385343 0.61781233 5 1 C5.625 2.875 5.625 2.875 6 5 C5.34 5.66 4.68 6.32 4 7 C1.375 6.625 1.375 6.625 -1 6 C-1.042721 4.33388095 -1.04063832 2.66617115 -1 1 C-0.67 0.67 -0.34 0.34 0 0 Z " fill="#EFF0F1" transform="translate(137,113)"/>
<path d="M0 0 C0.66 0.33 1.32 0.66 2 1 C2.6328125 3.06640625 2.6328125 3.06640625 3.125 5.5625 C3.29257813 6.38878906 3.46015625 7.21507812 3.6328125 8.06640625 C3.75398437 8.70449219 3.87515625 9.34257812 4 10 C2.68 10 1.36 10 0 10 C0 8.68 0 7.36 0 6 C-1.32 5.67 -2.64 5.34 -4 5 C-3.34 4.01 -2.68 3.02 -2 2 C-1.34 2 -0.68 2 0 2 C0 1.34 0 0.68 0 0 Z " fill="#1A2748" transform="translate(137,147)"/>
<path d="M0 0 C1.32 0 2.64 0 4 0 C4.99 1.98 5.98 3.96 7 6 C5.1875 6.625 5.1875 6.625 3 7 C2.01 6.34 1.02 5.68 0 5 C-0.1875 2.375 -0.1875 2.375 0 0 Z " fill="#202E4D" transform="translate(145,142)"/>
<path d="M0 0 C4.75 0.75 4.75 0.75 7 3 C7 3.99 7 4.98 7 6 C2.44615385 6.36923077 2.44615385 6.36923077 0.1875 4.5 C-0.204375 4.005 -0.59625 3.51 -1 3 C-0.67 2.01 -0.34 1.02 0 0 Z " fill="#E8EAEC" transform="translate(149,103)"/>
<path d="M0 0 C1.32 0.33 2.64 0.66 4 1 C2.25 4.875 2.25 4.875 0 6 C-1.99960012 6.039992 -4.00047242 6.04346799 -6 6 C-5.34 5.67 -4.68 5.34 -4 5 C-4 4.34 -4 3.68 -4 3 C-3.01 3 -2.02 3 -1 3 C-0.67 2.01 -0.34 1.02 0 0 Z " fill="#2B3654" transform="translate(142,118)"/>
<path d="M0 0 C0.33 0.99 0.66 1.98 1 3 C2.85744207 3.61067144 2.85744207 3.61067144 5 4 C6.3479743 4.63654342 7.68596724 5.29605388 9 6 C8.01 6 7.02 6 6 6 C6 6.66 6 7.32 6 8 C4.125 7.6875 4.125 7.6875 2 7 C0 4 0 4 0 0 Z " fill="#0D1A3F" transform="translate(132,115)"/>
<path d="M0 0 C0.66 0.99 1.32 1.98 2 3 C1.125 5.6875 1.125 5.6875 0 8 C-1.32 8 -2.64 8 -4 8 C-2.87548273 5.0280615 -1.77706209 2.66559313 0 0 Z " fill="#253151" transform="translate(66,146)"/>
<path d="M0 0 C3.63 0 7.26 0 11 0 C11 0.99 11 1.98 11 3 C9.35333797 2.8864371 7.70763918 2.75882619 6.0625 2.625 C5.14597656 2.55539063 4.22945312 2.48578125 3.28515625 2.4140625 C2.15400391 2.20910156 2.15400391 2.20910156 1 2 C0.67 1.34 0.34 0.68 0 0 Z " fill="#122145" transform="translate(162,154)"/>
<path d="M0 0 C0.66 0 1.32 0 2 0 C1.55530671 5.03985731 -0.71343362 7.37634988 -4 11 C-4 7.80389448 -3.45328458 6.58282374 -2 3.8125 C-1.62875 3.09707031 -1.2575 2.38164063 -0.875 1.64453125 C-0.441875 0.83048828 -0.441875 0.83048828 0 0 Z " fill="#EDDFE0" transform="translate(107,109)"/>
<path d="M0 0 C1.65 0 3.3 0 5 0 C5 1.32 5 2.64 5 4 C3.35 4 1.7 4 0 4 C0 2.68 0 1.36 0 0 Z " fill="#DEE1E4" transform="translate(81,150)"/>
<path d="M0 0 C1.98 0.99 1.98 0.99 4 2 C4 3.98 4 5.96 4 8 C3.01 7.67 2.02 7.34 1 7 C0.67 4.69 0.34 2.38 0 0 Z " fill="#0F1C42" transform="translate(142,111)"/>
</svg>
